<svg width="144" height="67" viewBox="0 0 144 67" fill="none" xmlns="http://www.w3.org/2000/svg">
<path d="M56.7695 30.0498H66.2395V39.5198H56.7695V30.0498Z" fill="#FFBB0C"/>
<path d="M52.0398 39.1802V66.6002L34.7598 52.4202V39.1802H52.0398Z" fill="#34D399"/>
<path d="M34.7599 52.4199C34.7599 52.4199 34.7599 53.3399 34.7599 53.7699C34.7599 58.0299 34.7599 62.2799 34.7599 66.5399C25.1699 66.9699 15.4699 62.9498 8.98988 55.8598C2.50988 48.7698 -0.620102 38.7499 0.659898 29.2399C2.8999 12.6299 17.9799 -0.0801353 34.7499 0.719865C34.7499 13.5399 34.7499 26.3599 34.7399 39.1799C29.3599 39.1799 23.9699 39.1799 18.5899 39.1799C23.6299 43.3099 28.6599 47.4299 33.6999 51.5599C34.0299 51.8299 34.7499 52.4299 34.7499 52.4299L34.7599 52.4199Z" fill="white"/>
<path d="M83.8703 39.3799H87.3003V42.5598C86.9803 42.6498 86.6603 42.7198 86.3403 42.7798C85.7603 42.8798 85.1603 42.9298 84.5303 42.9298C82.9003 42.9298 81.6603 42.4898 80.8303 41.6098C80.0003 40.7298 79.5803 39.4298 79.5803 37.7098C79.5803 35.9898 80.0003 34.6999 80.8303 33.8199C81.6603 32.9399 82.8603 32.4898 84.4103 32.4898C85.2603 32.4898 86.0703 32.5998 86.8103 32.8098C87.5603 33.0198 88.2903 33.3899 89.0103 33.9099L90.1503 31.0898C89.7403 30.7198 89.2203 30.4098 88.6003 30.1498C87.9803 29.8898 87.3103 29.6898 86.6003 29.5498C85.8803 29.4098 85.1403 29.3398 84.3603 29.3398C82.5903 29.3398 81.0703 29.6798 79.7903 30.3598C78.5203 31.0398 77.5403 31.9998 76.8503 33.2398C76.1603 34.4798 75.8203 35.9698 75.8203 37.6898C75.8203 39.4099 76.1603 40.8498 76.8303 42.0798C77.5003 43.3198 78.4703 44.2699 79.7303 44.9499C80.9903 45.6299 82.5103 45.9698 84.3003 45.9698C85.0203 45.9698 85.7403 45.9199 86.4703 45.8199C87.2003 45.7199 87.9003 45.5798 88.5603 45.3998C89.2203 45.2198 89.8103 44.9998 90.3303 44.7398V36.7098H83.8503V39.3698L83.8703 39.3799Z" fill="white"/>
<path d="M99.3402 29.6099L91.9502 45.7499H95.6102L97.0302 42.4099H104.64L106.07 45.7499H109.76L102.37 29.6099H99.3502H99.3402ZM100.79 33.3899H100.88L103.45 39.5199H98.2302L100.8 33.3899H100.79Z" fill="white"/>
<path d="M120.13 39.3899L114.91 29.6099H111.54V45.7499H114.86V35.6299L119.01 43.2299H121.13L125.28 35.5899V45.7499H128.62V29.6099H125.32L120.13 39.3899Z" fill="white"/>
<path d="M143.501 32.4899V29.6099H132.261V45.7499H143.501V42.8599H135.761V38.9899H142.991V36.1099H135.761V32.4899H143.501Z" fill="white"/>
<path d="M80.6104 51.0797C81.0504 51.0797 81.4805 51.1498 81.8805 51.2898C82.2805 51.4298 82.6705 51.6498 83.0705 51.9498L83.7404 50.2997C83.3804 49.9497 82.9105 49.6898 82.3505 49.5098C81.7905 49.3298 81.1905 49.2397 80.5605 49.2397C79.5705 49.2397 78.7104 49.4397 77.9904 49.8297C77.2704 50.2297 76.7205 50.7798 76.3205 51.4998C75.9305 52.2198 75.7305 53.0798 75.7305 54.0698C75.7305 55.0598 75.9305 55.9197 76.3205 56.6497C76.7105 57.3698 77.2704 57.9297 77.9904 58.3297C78.7104 58.7297 79.5704 58.9198 80.5504 58.9198C81.1804 58.9198 81.7805 58.8298 82.3405 58.6398C82.9005 58.4498 83.3705 58.1898 83.7305 57.8498L83.0605 56.1998C82.6705 56.4998 82.2705 56.7197 81.8705 56.8597C81.4705 56.9997 81.0505 57.0698 80.6005 57.0698C79.7505 57.0698 79.0905 56.8097 78.6205 56.2997C78.1505 55.7797 77.9205 55.0398 77.9205 54.0698C77.9205 53.0998 78.1505 52.3598 78.6205 51.8498C79.0905 51.3398 79.7505 51.0797 80.6005 51.0797H80.6104Z" fill="white"/>
<path d="M91.7501 53.1301H87.4301V49.3701H85.3301V58.7701H87.4301V54.8901H91.7501V58.7701H93.8701V49.3701H91.7501V53.1301Z" fill="white"/>
<path d="M99.1808 49.3701L94.8809 58.7601H97.0109L97.8308 56.8101H102.261L103.091 58.7601H105.241L100.941 49.3701H99.1808ZM100.021 51.5701H100.071L101.561 55.1401H98.5208L100.011 51.5701H100.021Z" fill="white"/>
<path d="M112.601 55.4201L107.871 49.3701H106.261V58.7701H108.231V52.7501L112.921 58.7701H114.571V49.3701H112.601V55.4201Z" fill="white"/>
<path d="M121.051 55.06H123.051V56.91C122.871 56.96 122.681 57 122.491 57.04C122.151 57.1 121.801 57.13 121.441 57.13C120.491 57.13 119.771 56.87 119.291 56.36C118.811 55.85 118.561 55.09 118.561 54.09C118.561 53.09 118.801 52.34 119.291 51.83C119.771 51.31 120.471 51.06 121.381 51.06C121.881 51.06 122.341 51.12 122.781 51.25C123.221 51.37 123.641 51.59 124.061 51.89L124.731 50.25C124.491 50.04 124.191 49.85 123.831 49.7C123.471 49.55 123.081 49.43 122.661 49.35C122.241 49.27 121.811 49.23 121.351 49.23C120.321 49.23 119.431 49.43 118.691 49.82C117.951 50.22 117.381 50.78 116.981 51.5C116.581 52.22 116.381 53.09 116.381 54.09C116.381 55.09 116.581 55.93 116.971 56.65C117.361 57.37 117.921 57.93 118.661 58.32C119.391 58.72 120.281 58.91 121.321 58.91C121.741 58.91 122.161 58.88 122.591 58.82C123.021 58.76 123.421 58.68 123.811 58.57C124.201 58.46 124.541 58.33 124.841 58.18V53.5H121.071V55.05L121.051 55.06Z" fill="white"/>
<path d="M126.83 58.7701H133.37V57.0901H128.87V54.8301H133.08V53.1601H128.87V51.0501H133.37V49.3701H126.83V58.7701Z" fill="white"/>
<path d="M141.96 55.9299C141.77 55.5799 141.56 55.3299 141.33 55.1599C141.14 55.0299 140.94 54.9399 140.71 54.8999C141.03 54.8299 141.32 54.7299 141.58 54.5899C142 54.3599 142.33 54.0499 142.56 53.6599C142.79 53.2599 142.91 52.7899 142.91 52.2399C142.91 51.3299 142.62 50.6299 142.04 50.1299C141.46 49.6299 140.64 49.3799 139.58 49.3799H135.24V58.7699H137.35V55.1999H138.42C138.61 55.1999 138.77 55.2199 138.92 55.2599C139.07 55.2999 139.2 55.3699 139.31 55.4699C139.43 55.5699 139.53 55.6999 139.62 55.8599L141.19 58.7799H143.51L141.98 55.9399L141.96 55.9299ZM139.26 53.6399H137.34V51.0399H139.25C139.79 51.0399 140.2 51.1499 140.46 51.3599C140.73 51.5699 140.86 51.8999 140.86 52.3299C140.86 52.7599 140.73 53.0899 140.46 53.3099C140.19 53.5299 139.79 53.6399 139.26 53.6399Z" fill="white"/>
<path d="M119.25 62.6397C119.47 62.6397 119.69 62.6697 119.89 62.7397C120.09 62.8097 120.29 62.9197 120.49 63.0697L120.83 62.2397C120.65 62.0697 120.41 61.9297 120.13 61.8397C119.85 61.7497 119.54 61.6997 119.23 61.6997C118.73 61.6997 118.3 61.7997 117.93 61.9997C117.57 62.1997 117.29 62.4797 117.09 62.8397C116.89 63.1997 116.79 63.6397 116.79 64.1397C116.79 64.6397 116.89 65.0797 117.09 65.4397C117.29 65.8097 117.57 66.0897 117.93 66.2897C118.3 66.4897 118.73 66.5897 119.22 66.5897C119.54 66.5897 119.84 66.5397 120.12 66.4497C120.4 66.3597 120.64 66.2197 120.82 66.0497L120.48 65.2197C120.28 65.3697 120.08 65.4797 119.88 65.5497C119.68 65.6197 119.47 65.6497 119.24 65.6497C118.81 65.6497 118.48 65.5197 118.24 65.2597C118 64.9997 117.89 64.6297 117.89 64.1397C117.89 63.6497 118.01 63.2797 118.24 63.0197C118.47 62.7597 118.81 62.6297 119.24 62.6297L119.25 62.6397Z" fill="white"/>
<path d="M123.87 63.3296C123.6 63.1896 123.29 63.1196 122.93 63.1196C122.57 63.1196 122.25 63.1896 121.98 63.3296C121.71 63.4696 121.5 63.6696 121.36 63.9296C121.21 64.1896 121.14 64.4996 121.14 64.8496C121.14 65.1996 121.21 65.5096 121.36 65.7696C121.51 66.0296 121.71 66.2296 121.98 66.3796C122.25 66.5196 122.56 66.5996 122.93 66.5996C123.3 66.5996 123.61 66.5296 123.87 66.3796C124.14 66.2396 124.34 66.0296 124.49 65.7696C124.64 65.5096 124.71 65.1996 124.71 64.8496C124.71 64.4996 124.64 64.1896 124.49 63.9296C124.34 63.6696 124.13 63.4696 123.87 63.3296ZM123.47 65.5496C123.33 65.7096 123.15 65.7896 122.92 65.7896C122.69 65.7896 122.51 65.7096 122.37 65.5496C122.23 65.3896 122.16 65.1496 122.16 64.8396C122.16 64.5296 122.23 64.2996 122.37 64.1396C122.51 63.9896 122.69 63.9096 122.92 63.9096C123.15 63.9096 123.33 63.9896 123.47 64.1396C123.61 64.2896 123.68 64.5296 123.68 64.8396C123.68 65.1496 123.61 65.3796 123.47 65.5496Z" fill="white"/>
<path d="M128.22 63.2696C128.04 63.1696 127.82 63.1196 127.55 63.1196C127.28 63.1196 127.06 63.1796 126.85 63.2996C126.66 63.4096 126.52 63.5696 126.41 63.7596V63.1796H125.42V66.5096H126.47V64.6896C126.47 64.5396 126.5 64.4096 126.56 64.2996C126.62 64.1896 126.7 64.0996 126.81 64.0296C126.92 63.9696 127.04 63.9396 127.19 63.9396C127.31 63.9396 127.41 63.9596 127.49 64.0096C127.57 64.0596 127.62 64.1296 127.66 64.2196C127.7 64.3096 127.72 64.4396 127.72 64.5896V66.5096H128.77V64.5496C128.77 64.2196 128.73 63.9496 128.64 63.7396C128.55 63.5296 128.42 63.3696 128.24 63.2696H128.22Z" fill="white"/>
<path d="M132.41 63.2696C132.23 63.1696 132.01 63.1196 131.74 63.1196C131.47 63.1196 131.25 63.1796 131.04 63.2996C130.85 63.4096 130.71 63.5696 130.6 63.7596V63.1796H129.61V66.5096H130.66V64.6896C130.66 64.5396 130.69 64.4096 130.75 64.2996C130.81 64.1896 130.89 64.0996 131 64.0296C131.11 63.9696 131.23 63.9396 131.38 63.9396C131.5 63.9396 131.6 63.9596 131.68 64.0096C131.76 64.0596 131.81 64.1296 131.85 64.2196C131.89 64.3096 131.91 64.4396 131.91 64.5896V66.5096H132.96V64.5496C132.96 64.2196 132.92 63.9496 132.83 63.7396C132.74 63.5296 132.61 63.3696 132.43 63.2696H132.41Z" fill="white"/>
<path d="M136.24 63.3199C136 63.1799 135.71 63.1099 135.39 63.1099C135.04 63.1099 134.73 63.1899 134.47 63.3399C134.21 63.4899 134 63.6999 133.86 63.9599C133.71 64.2199 133.64 64.5199 133.64 64.8499C133.64 65.1999 133.72 65.5099 133.87 65.7699C134.02 66.0299 134.24 66.2299 134.54 66.3699C134.84 66.5099 135.18 66.5899 135.6 66.5899C135.84 66.5899 136.08 66.5599 136.32 66.4899C136.56 66.4199 136.77 66.3299 136.95 66.1999L136.67 65.5099C136.53 65.6099 136.36 65.6899 136.18 65.7399C135.99 65.7899 135.81 65.8099 135.64 65.8099C135.42 65.8099 135.23 65.7799 135.08 65.7099C134.93 65.6399 134.82 65.5299 134.75 65.3899C134.71 65.3099 134.68 65.2099 134.66 65.0999H137.02V64.8299C137.02 64.4799 136.95 64.1699 136.82 63.9099C136.69 63.6499 136.5 63.4599 136.26 63.3199H136.24ZM134.99 63.9199C135.11 63.8499 135.25 63.8099 135.42 63.8099C135.65 63.8099 135.83 63.8799 135.95 64.0199C136.06 64.1399 136.12 64.3199 136.13 64.5399H134.63C134.65 64.4299 134.67 64.3299 134.71 64.2399C134.78 64.0999 134.87 63.9899 134.99 63.9199Z" fill="white"/>
<path d="M139.42 63.9396C139.55 63.9396 139.69 63.9596 139.84 64.0096C139.99 64.0596 140.11 64.1296 140.23 64.2196L140.52 63.4896C140.39 63.3696 140.21 63.2796 139.99 63.2196C139.77 63.1496 139.54 63.1196 139.31 63.1196C138.95 63.1196 138.63 63.1896 138.36 63.3296C138.09 63.4696 137.88 63.6696 137.73 63.9296C137.58 64.1896 137.51 64.4996 137.51 64.8496C137.51 65.1996 137.58 65.5096 137.73 65.7696C137.88 66.0296 138.09 66.2296 138.36 66.3796C138.63 66.5296 138.94 66.5996 139.31 66.5996C139.54 66.5996 139.77 66.5696 139.99 66.4996C140.21 66.4296 140.39 66.3396 140.52 66.2296L140.22 65.4896C140.11 65.5796 139.99 65.6496 139.84 65.6996C139.69 65.7496 139.55 65.7796 139.42 65.7796C139.15 65.7796 138.94 65.6996 138.79 65.5396C138.64 65.3796 138.56 65.1496 138.56 64.8596C138.56 64.5696 138.63 64.3396 138.79 64.1796C138.94 64.0196 139.15 63.9396 139.42 63.9396Z" fill="white"/>
<path d="M143.35 65.6695C143.27 65.6895 143.2 65.7095 143.12 65.7295C143.05 65.7495 142.98 65.7495 142.91 65.7495C142.71 65.7495 142.57 65.6995 142.47 65.6095C142.38 65.5095 142.33 65.3695 142.33 65.1795V63.9795H143.38V63.1995H142.33V62.2495H141.32V63.1995H140.65V63.9795H141.29V65.2195C141.29 65.6695 141.41 66.0195 141.64 66.2595C141.87 66.4995 142.23 66.6195 142.72 66.6195C142.86 66.6195 143 66.6095 143.13 66.5795C143.26 66.5495 143.39 66.5095 143.49 66.4595L143.34 65.6995L143.35 65.6695Z" fill="white"/>
</svg>
