<svg width="174" height="36" viewBox="0 0 174 36" fill="none" xmlns="http://www.w3.org/2000/svg">
<path fill-rule="evenodd" clip-rule="evenodd" d="M18.0519 23.04V18V0C8.08213 0 0 8.05885 0 18C0 27.9411 8.08213 35.9999 18.0519 35.9999V26.928L28.5823 36V23.04H18.0519ZM18.0519 23.04H13.539L18.0519 26.928V23.04Z" fill="white"/>
<path d="M31.5908 15.8398H36.0461V20.2824H31.5908V15.8398Z" fill="#FFBB0C"/>
<path d="M28.5821 36V23.04H18.0518V26.9659L28.5821 36Z" fill="#34D399"/>
<path d="M65.8627 17.4898C65.8627 18.6345 65.8627 18.6345 64.7681 18.6345H55.2905C53.395 18.6345 51.8732 18.528 50.2981 17.969C46.6939 16.6646 44.9586 13.6831 44.9586 9.87634C44.9586 6.06959 46.6939 3.08809 50.2981 1.78368C51.8732 1.22465 53.395 1.11816 55.2905 1.11816H62.7658C63.9138 1.11816 63.9138 1.11816 63.9138 2.20961V3.43416C63.9138 4.5256 63.9138 4.5256 62.7658 4.5256H54.7566C51.6864 4.5256 48.6695 5.53718 48.6695 9.87634C48.6695 14.2155 51.6864 15.2271 54.7566 15.2271H60.7101C61.8047 15.2271 61.8047 15.2271 61.8047 14.0824V13.1241C61.8047 11.9794 61.8047 11.9794 60.7101 11.9794H53.2615C52.1135 11.9794 52.1135 11.9794 52.1135 10.8879V9.66337C52.1135 8.57193 52.1135 8.57193 53.2615 8.57193H64.7681C65.8627 8.57193 65.8627 8.57193 65.8627 9.71662V17.4898Z" fill="white"/>
<path d="M95.9228 17.5431C96.3767 18.3151 96.4301 18.6345 95.6825 18.6345H93.0662C92.5589 18.6345 92.292 18.4748 92.0517 18.0489L90.7168 15.7595C90.4498 15.3069 90.263 15.2271 89.6222 15.2271H80.7853C80.0378 15.2271 80.0912 14.9076 80.5451 14.1356L81.613 12.2988C81.8799 11.8463 81.96 11.8196 82.4139 11.8196H87.433C88.0204 11.8196 88.2339 11.5002 87.9403 11.021L85.2171 6.36242C84.8701 5.77677 84.6565 5.61704 84.3094 5.61704C83.9623 5.61704 83.7488 5.77677 83.4017 6.36242L76.5671 18.0489C76.3269 18.4748 76.0599 18.6345 75.5526 18.6345H72.9363C72.1888 18.6345 72.2422 18.3151 72.696 17.5431L80.8654 3.56726C81.8799 1.83692 83.1614 1.11816 84.3094 1.11816C85.4574 1.11816 86.7389 1.83692 87.7534 3.56726L95.9228 17.5431Z" fill="white"/>
<path d="M127.455 17.756C127.615 18.5547 127.428 18.6345 126.761 18.6345H124.572C123.584 18.6345 123.584 18.6345 123.424 17.7294L121.288 6.41566C121.234 6.12284 120.994 6.09622 120.887 6.38904L116.642 17.0373C116.028 18.5813 115.227 18.9007 114.667 18.9007C114.106 18.9007 113.305 18.5813 112.691 17.0373L108.446 6.38904C108.339 6.09622 108.099 6.12284 108.046 6.41566L105.91 17.7294C105.75 18.6345 105.75 18.6345 104.762 18.6345H102.573C101.905 18.6345 101.718 18.5547 101.879 17.756L104.255 5.19112C104.468 4.04643 105.296 1.11816 107.886 1.11816C109.568 1.11816 110.582 2.20961 111.33 4.09967L114.159 11.2074C114.32 11.6067 114.426 11.6865 114.667 11.6865C114.907 11.6865 115.014 11.6067 115.174 11.2074L118.004 4.09967C118.751 2.20961 119.766 1.11816 121.448 1.11816C124.038 1.11816 124.865 4.04643 125.079 5.19112L127.455 17.756Z" fill="white"/>
<path d="M153.947 17.7037C153.947 18.8484 153.947 18.8484 152.852 18.8484H143.374C141.479 18.8484 139.957 18.7419 138.382 18.1829C134.778 16.8785 133.042 13.897 133.042 10.0902C133.042 6.28346 134.778 3.30195 138.382 1.99755C139.957 1.43851 141.479 1.33203 143.374 1.33203H152.852C154 1.33203 154 1.33203 154 2.42348V3.64802C154 4.73947 154 4.73947 152.852 4.73947H142.84C139.77 4.73947 136.753 5.75105 136.753 10.0902C136.753 14.4294 139.77 15.4409 142.84 15.4409H153.947C153.947 15.4409 153.947 14.8136 153.947 14.4116C153.947 13.8705 153.947 13.026 153.947 13.026L153.947 12.1932H141.345C140.197 12.1932 140.197 12.1932 140.197 11.1018V9.87724C140.197 8.7858 140.197 8.7858 141.345 8.7858H152.852C153.947 8.7858 153.947 8.7858 153.947 9.93048V17.7037Z" fill="white"/>
<path d="M55.5975 34.5054C55.5975 35.0511 55.5975 35.0511 55.0235 35.0511H51.0055C50.0578 35.0511 49.2969 34.9979 48.5093 34.7184C46.7072 34.0662 45.8396 32.5754 45.8396 30.6721C45.8396 28.7687 46.7072 27.2779 48.5093 26.6257C49.2969 26.3462 50.0578 26.293 51.0055 26.293H55.0235C55.5975 26.293 55.5975 26.293 55.5975 26.8387V27.451C55.5975 27.9967 55.5975 27.9967 55.0235 27.9967H50.7386C49.2035 27.9967 47.695 28.5025 47.695 30.6721C47.695 32.8416 49.2035 33.3474 50.7386 33.3474H55.0235C55.5975 33.3474 55.5975 33.3474 55.5975 33.8931V34.5054Z" fill="white"/>
<path d="M71.695 34.4788C71.695 35.0511 71.695 35.0511 71.1477 35.0511H70.2C69.666 35.0511 69.666 35.0511 69.666 34.4655V31.5905C69.666 31.0181 69.666 31.0181 69.1187 31.0181H64.0329C63.4856 31.0181 63.4856 31.0181 63.4856 31.5905V34.4788C63.4856 35.0511 63.4856 35.0511 62.9383 35.0511H62.0038C61.4565 35.0511 61.4565 35.0511 61.4565 34.4788V26.8653C61.4565 26.293 61.4565 26.293 62.0038 26.293H62.9383C63.4856 26.293 63.4856 26.293 63.4856 26.8653V28.7421C63.4856 29.3144 63.4856 29.3144 64.0329 29.3144H69.1187C69.666 29.3144 69.666 29.3144 69.666 28.7421V26.8653C69.666 26.293 69.666 26.293 70.2133 26.293H71.1477C71.695 26.293 71.695 26.293 71.695 26.8653V34.4788Z" fill="white"/>
<path d="M89.0583 34.5054C89.2852 34.8914 89.3119 35.0511 88.9382 35.0511H87.63C87.3764 35.0511 87.2429 34.9713 87.1227 34.7583L86.4553 33.6136C86.3218 33.3874 86.2284 33.3474 85.908 33.3474H81.4896C81.1158 33.3474 81.1425 33.1877 81.3694 32.8017L81.9034 31.8833C82.0369 31.657 82.0769 31.6437 82.3038 31.6437H84.8134C85.1071 31.6437 85.2139 31.484 85.067 31.2444L83.7055 28.9151C83.5319 28.6223 83.4251 28.5424 83.2516 28.5424C83.0781 28.5424 82.9713 28.6223 82.7977 28.9151L79.3805 34.7583C79.2603 34.9713 79.1268 35.0511 78.8732 35.0511H77.565C77.1913 35.0511 77.218 34.8914 77.4449 34.5054L81.5296 27.5175C82.0369 26.6523 82.6776 26.293 83.2516 26.293C83.8256 26.293 84.4663 26.6523 84.9736 27.5175L89.0583 34.5054Z" fill="white"/>
<path d="M104.611 33.1212C104.611 34.7849 103.636 35.1842 102.795 35.1842C102.021 35.1842 101.541 34.9047 100.926 34.0129L97.2422 28.7288C97.0687 28.4759 96.8418 28.5291 96.8418 28.8219V34.4788C96.8418 35.0511 96.8418 35.0511 96.2945 35.0511H95.3601C94.8128 35.0511 94.8127 35.0511 94.8127 34.4788V28.223C94.8127 26.7588 95.7872 26.293 96.6282 26.293C97.4024 26.293 97.9497 26.5592 98.7506 27.7039L102.074 32.4556C102.261 32.7218 102.582 32.6686 102.582 32.3358V26.8653C102.582 26.293 102.582 26.293 103.129 26.293H104.063C104.611 26.293 104.611 26.293 104.611 26.8653V33.1212Z" fill="white"/>
<path d="M120.983 34.4788C120.983 35.0511 120.983 35.0511 120.436 35.0511H115.697C114.75 35.0511 113.989 34.9979 113.201 34.7184C111.399 34.0662 110.531 32.5754 110.531 30.6721C110.531 28.7687 111.399 27.2779 113.201 26.6257C113.989 26.3462 114.75 26.293 115.697 26.293H119.435C120.009 26.293 120.009 26.293 120.009 26.8387V27.451C120.009 27.9967 120.009 27.9967 119.435 27.9967H115.43C113.895 27.9967 112.387 28.5025 112.387 30.6721C112.387 32.8416 113.895 33.3474 115.43 33.3474H118.407C118.954 33.3474 118.954 33.3474 118.954 32.7751V32.2959C118.954 31.7236 118.954 31.7236 118.407 31.7236H114.683C114.109 31.7236 114.109 31.7236 114.109 31.1778V30.5656C114.109 30.0199 114.109 30.0199 114.683 30.0199H120.436C120.983 30.0199 120.983 30.0199 120.983 30.5922V34.4788Z" fill="white"/>
<path d="M135.586 30.9116C135.586 31.4574 135.586 31.4574 135.012 31.4574H130.38C129.806 31.4574 129.806 31.4574 129.806 30.9116V30.2994C129.806 29.7536 129.806 29.7536 130.38 29.7536H135.012C135.586 29.7536 135.586 29.7536 135.586 30.2994V30.9116ZM136.174 34.5054C136.174 35.0511 136.174 35.0511 135.6 35.0511H127.791C127.243 35.0511 127.243 35.0511 127.243 34.4788V26.8653C127.243 26.293 127.243 26.293 127.791 26.293H135.6C136.174 26.293 136.174 26.293 136.174 26.8387V27.451C136.174 27.9967 136.174 27.9967 135.6 27.9967H129.82C129.272 27.9967 129.272 27.9967 129.272 28.569V32.7751C129.272 33.3474 129.272 33.3474 129.82 33.3474H135.6C136.174 33.3474 136.174 33.3474 136.174 33.8931V34.5054Z" fill="white"/>
<path d="M152.153 29.4076C152.153 30.9649 151.178 32.0829 150.017 32.4024C149.803 32.4689 149.777 32.642 149.91 32.8017L151.539 34.7317C151.699 34.918 151.592 35.0511 151.405 35.0511H149.63C149.336 35.0511 149.243 35.0112 148.989 34.7184L147.361 32.7884C147.187 32.5887 147.08 32.5222 146.787 32.5222H145.251C144.677 32.5222 144.677 32.5222 144.677 31.9765V31.3642C144.677 30.8185 144.677 30.8185 145.251 30.8185H148.936C149.79 30.8185 150.297 30.1796 150.297 29.4076C150.297 28.6356 149.79 27.9967 148.936 27.9967H144.477C143.93 27.9967 143.93 27.9967 143.93 28.569V34.4788C143.93 35.0511 143.93 35.0511 143.383 35.0511H142.448C141.901 35.0511 141.901 35.0511 141.901 34.4788V26.8653C141.901 26.293 141.901 26.293 142.448 26.293H149.256C150.684 26.293 152.153 27.4909 152.153 29.4076Z" fill="white"/>
</svg>
