<svg width="130" height="60" viewBox="0 0 130 60" fill="none" xmlns="http://www.w3.org/2000/svg">
<g clip-path="url(#clip0_1372_23444)">
<path d="M51.2898 26.7168H59.8804V35.3126H51.2898V26.7168Z" fill="#FFBB0C"/>
<path d="M46.9989 35.0038V59.8927L31.3235 47.0217V35.0038H46.9989Z" fill="#34D399"/>
<path d="M31.3236 47.0218C31.3236 47.0218 31.3236 47.8568 31.3236 48.2471C31.3236 52.1139 31.3236 55.9716 31.3236 59.8383C22.6241 60.2286 13.8248 56.5797 7.94653 50.1442C2.06826 43.7087 -0.771078 34.6136 0.390062 25.9815C2.42206 10.9048 16.1017 -0.631966 31.3145 0.0941862C31.3145 11.7308 31.3145 23.3673 31.3054 35.0039C26.425 35.0039 21.5355 35.0039 16.6551 35.0039C21.2271 38.7527 25.79 42.4924 30.362 46.2411C30.6613 46.4862 31.3145 47.0308 31.3145 47.0308L31.3236 47.0218Z" fill="#0F1454"/>
<path d="M75.8733 35.1854H78.9848V38.0719C78.6945 38.1536 78.4042 38.2171 78.1139 38.2716C77.5878 38.3623 77.0435 38.4077 76.472 38.4077C74.9933 38.4077 73.8685 38.0083 73.1156 37.2095C72.3626 36.4108 71.9816 35.2308 71.9816 33.6696C71.9816 32.1083 72.3626 30.9374 73.1156 30.1387C73.8685 29.3399 74.9571 28.9314 76.3631 28.9314C77.1342 28.9314 77.869 29.0313 78.5403 29.2219C79.2206 29.4125 79.8828 29.7484 80.536 30.2204L81.5701 27.6607C81.1982 27.3248 80.7265 27.0434 80.1641 26.8074C79.6016 26.5714 78.9938 26.3899 78.3498 26.2628C77.6966 26.1357 77.0253 26.0722 76.3178 26.0722C74.7121 26.0722 73.3333 26.3808 72.1721 26.998C71.0201 27.6153 70.1311 28.4867 69.5052 29.6122C68.8792 30.7377 68.5708 32.0902 68.5708 33.6514C68.5708 35.2126 68.8792 36.5197 69.487 37.6362C70.0948 38.7617 70.9747 39.624 72.1177 40.2413C73.2607 40.8585 74.6396 41.1671 76.2633 41.1671C76.9165 41.1671 77.5696 41.1217 78.2318 41.0309C78.8941 40.9402 79.529 40.8131 80.1278 40.6497C80.7265 40.4863 81.2617 40.2866 81.7334 40.0506V32.7619H75.8551V35.1763L75.8733 35.1854Z" fill="#0F1454"/>
<path d="M89.9066 26.3173L83.2029 40.9675H86.523L87.8111 37.9358H94.7145L96.0117 40.9675H99.3591L92.6553 26.3173H89.9157H89.9066ZM91.222 29.7484H91.3036L93.635 35.3125H88.8997L91.2311 29.7484H91.222Z" fill="#0F1454"/>
<path d="M108.766 35.1946L104.031 26.3173H100.974V40.9675H103.986V31.7816L107.75 38.6801H109.674L113.438 31.7453V40.9675H116.468V26.3173H113.475L108.766 35.1946Z" fill="#0F1454"/>
<path d="M129.966 28.9315V26.3173H119.77V40.9675H129.966V38.3442H122.945V34.8315H129.503V32.2173H122.945V28.9315H129.966Z" fill="#0F1454"/>
<path d="M72.9161 45.8054C73.3152 45.8054 73.7053 45.869 74.0682 45.996C74.431 46.1231 74.7848 46.3228 75.1477 46.5951L75.7554 45.0974C75.4289 44.7797 75.0025 44.5437 74.4945 44.3803C73.9865 44.217 73.4422 44.1353 72.8707 44.1353C71.9727 44.1353 71.1925 44.3168 70.5394 44.6708C69.8862 45.0339 69.3873 45.5331 69.0245 46.1866C68.6707 46.8402 68.4893 47.6208 68.4893 48.5194C68.4893 49.418 68.6707 50.1986 69.0245 50.8612C69.3783 51.5148 69.8862 52.0231 70.5394 52.3862C71.1925 52.7492 71.9727 52.9217 72.8617 52.9217C73.4332 52.9217 73.9774 52.84 74.4854 52.6676C74.9934 52.4951 75.4198 52.2591 75.7464 51.9505L75.1386 50.4528C74.7848 50.7251 74.4219 50.9248 74.0591 51.0518C73.6962 51.1789 73.3152 51.2425 72.907 51.2425C72.136 51.2425 71.5372 51.0065 71.1109 50.5435C70.6845 50.0715 70.4759 49.3999 70.4759 48.5194C70.4759 47.639 70.6845 46.9673 71.1109 46.5043C71.5372 46.0414 72.136 45.8054 72.907 45.8054H72.9161Z" fill="#0F1454"/>
<path d="M83.0219 47.6662H79.103V44.2533H77.198V52.7856H79.103V49.2638H83.0219V52.7856H84.945V44.2533H83.0219V47.6662Z" fill="#0F1454"/>
<path d="M89.7618 44.2533L85.8611 52.7765H87.7933L88.5371 51.0065H92.5558L93.3087 52.7765H95.259L91.3584 44.2533H89.7618ZM90.5238 46.2502H90.5691L91.9208 49.4907H89.1631L90.5147 46.2502H90.5238Z" fill="#0F1454"/>
<path d="M101.935 49.7448L97.6446 44.2533H96.1841V52.7856H97.9711V47.3213L102.226 52.7856H103.722V44.2533H101.935V49.7448Z" fill="#0F1454"/>
<path d="M109.601 49.418H111.415V51.0972C111.252 51.1426 111.079 51.1789 110.907 51.2152C110.599 51.2697 110.281 51.2969 109.955 51.2969C109.093 51.2969 108.44 51.0609 108.004 50.598C107.569 50.135 107.342 49.4452 107.342 48.5375C107.342 47.6298 107.56 46.9491 108.004 46.4861C108.44 46.0141 109.075 45.7872 109.9 45.7872C110.354 45.7872 110.771 45.8417 111.17 45.9597C111.569 46.0686 111.95 46.2683 112.331 46.5406L112.939 45.052C112.721 44.8614 112.449 44.6889 112.123 44.5528C111.796 44.4166 111.442 44.3077 111.061 44.2351C110.68 44.1625 110.29 44.1262 109.873 44.1262C108.939 44.1262 108.131 44.3077 107.46 44.6617C106.789 45.0248 106.272 45.5331 105.909 46.1866C105.546 46.8401 105.365 47.6298 105.365 48.5375C105.365 49.4452 105.546 50.2077 105.9 50.8612C106.253 51.5147 106.761 52.0231 107.433 52.3771C108.095 52.7401 108.902 52.9126 109.846 52.9126C110.227 52.9126 110.608 52.8854 110.998 52.8309C111.388 52.7764 111.751 52.7038 112.105 52.604C112.458 52.5041 112.767 52.3861 113.039 52.25V48.002H109.619V49.4089L109.601 49.418Z" fill="#0F1454"/>
<path d="M114.844 52.7856H120.777V51.2607H116.695V49.2093H120.514V47.6934H116.695V45.7782H120.777V44.2533H114.844V52.7856Z" fill="#0F1454"/>
<path d="M128.569 50.2077C128.397 49.89 128.206 49.6631 127.998 49.5088C127.825 49.3908 127.644 49.3091 127.435 49.2728C127.725 49.2092 127.989 49.1185 128.224 48.9914C128.605 48.7826 128.905 48.5012 129.113 48.1472C129.322 47.7842 129.431 47.3575 129.431 46.8583C129.431 46.0323 129.168 45.3969 128.642 44.9431C128.116 44.4893 127.372 44.2623 126.41 44.2623H122.473V52.7855H124.387V49.5451H125.358C125.53 49.5451 125.675 49.5632 125.811 49.5996C125.948 49.6359 126.065 49.6994 126.165 49.7902C126.274 49.8809 126.365 49.9989 126.446 50.1441L127.871 52.7946H129.975L128.587 50.2168L128.569 50.2077ZM126.12 48.1291H124.378V45.7691H126.111C126.601 45.7691 126.973 45.8689 127.208 46.0595C127.453 46.2502 127.571 46.5497 127.571 46.94C127.571 47.3303 127.453 47.6299 127.208 47.8295C126.963 48.0292 126.601 48.1291 126.12 48.1291Z" fill="#0F1454"/>
<path d="M107.968 56.2983C108.168 56.2983 108.367 56.3255 108.549 56.389C108.73 56.4526 108.912 56.5524 109.093 56.6886L109.401 55.9352C109.238 55.7809 109.02 55.6538 108.766 55.5721C108.512 55.4904 108.231 55.4451 107.95 55.4451C107.496 55.4451 107.106 55.5358 106.771 55.7174C106.444 55.8989 106.19 56.1531 106.009 56.4798C105.827 56.8066 105.737 57.206 105.737 57.6598C105.737 58.1137 105.827 58.5131 106.009 58.8398C106.19 59.1757 106.444 59.4298 106.771 59.6114C107.106 59.7929 107.496 59.8837 107.941 59.8837C108.231 59.8837 108.503 59.8383 108.757 59.7566C109.011 59.6749 109.229 59.5478 109.392 59.3935L109.084 58.6401C108.902 58.7763 108.721 58.8761 108.54 58.9397C108.358 59.0032 108.168 59.0304 107.959 59.0304C107.569 59.0304 107.27 58.9124 107.052 58.6764C106.834 58.4404 106.734 58.1046 106.734 57.6598C106.734 57.2151 106.843 56.8792 107.052 56.6432C107.261 56.4072 107.569 56.2892 107.959 56.2892L107.968 56.2983Z" fill="#0F1454"/>
<path d="M112.159 56.9245C111.914 56.7974 111.633 56.7339 111.306 56.7339C110.98 56.7339 110.69 56.7974 110.445 56.9245C110.2 57.0516 110.009 57.2331 109.882 57.4691C109.746 57.7051 109.683 57.9865 109.683 58.3042C109.683 58.6219 109.746 58.9033 109.882 59.1393C110.018 59.3753 110.2 59.5568 110.445 59.693C110.69 59.82 110.971 59.8927 111.306 59.8927C111.642 59.8927 111.923 59.8291 112.159 59.693C112.404 59.5659 112.585 59.3753 112.722 59.1393C112.858 58.9033 112.921 58.6219 112.921 58.3042C112.921 57.9865 112.858 57.7051 112.722 57.4691C112.585 57.2331 112.395 57.0516 112.159 56.9245ZM111.796 58.9396C111.669 59.0848 111.506 59.1574 111.297 59.1574C111.089 59.1574 110.925 59.0848 110.798 58.9396C110.671 58.7943 110.608 58.5765 110.608 58.2951C110.608 58.0137 110.671 57.805 110.798 57.6597C110.925 57.5236 111.089 57.451 111.297 57.451C111.506 57.451 111.669 57.5236 111.796 57.6597C111.923 57.7959 111.987 58.0137 111.987 58.2951C111.987 58.5765 111.923 58.7853 111.796 58.9396Z" fill="#0F1454"/>
<path d="M116.105 56.87C115.942 56.7793 115.742 56.7339 115.497 56.7339C115.252 56.7339 115.053 56.7883 114.862 56.8973C114.69 56.9971 114.563 57.1424 114.463 57.3148V56.7883H113.565V59.811H114.517V58.159C114.517 58.0228 114.545 57.9048 114.599 57.805C114.653 57.7051 114.726 57.6234 114.826 57.5599C114.926 57.5054 115.034 57.4782 115.171 57.4782C115.279 57.4782 115.37 57.4964 115.443 57.5417C115.515 57.5871 115.561 57.6507 115.597 57.7324C115.633 57.814 115.651 57.932 115.651 58.0682V59.811H116.604V58.0319C116.604 57.7323 116.568 57.4873 116.486 57.2967C116.404 57.106 116.286 56.9608 116.123 56.87H116.105Z" fill="#0F1454"/>
<path d="M119.906 56.87C119.743 56.7793 119.543 56.7339 119.298 56.7339C119.053 56.7339 118.854 56.7883 118.663 56.8973C118.491 56.9971 118.364 57.1424 118.264 57.3148V56.7883H117.366V59.811H118.318V58.159C118.318 58.0228 118.346 57.9048 118.4 57.805C118.455 57.7051 118.527 57.6234 118.627 57.5599C118.727 57.5054 118.836 57.4782 118.972 57.4782C119.08 57.4782 119.171 57.4964 119.244 57.5417C119.316 57.5871 119.362 57.6507 119.398 57.7324C119.434 57.814 119.452 57.932 119.452 58.0682V59.811H120.405V58.0319C120.405 57.7323 120.369 57.4873 120.287 57.2967C120.205 57.106 120.087 56.9608 119.924 56.87H119.906Z" fill="#0F1454"/>
<path d="M123.381 56.9155C123.163 56.7884 122.9 56.7249 122.609 56.7249C122.292 56.7249 122.011 56.7975 121.775 56.9336C121.539 57.0698 121.349 57.2604 121.222 57.4964C121.085 57.7324 121.022 58.0047 121.022 58.3043C121.022 58.6219 121.095 58.9033 121.231 59.1393C121.367 59.3753 121.566 59.5569 121.838 59.6839C122.111 59.811 122.419 59.8836 122.8 59.8836C123.018 59.8836 123.235 59.8564 123.453 59.7929C123.671 59.7293 123.861 59.6476 124.025 59.5296L123.771 58.9033C123.644 58.9941 123.489 59.0667 123.326 59.1121C123.154 59.1575 122.99 59.1756 122.836 59.1756C122.637 59.1756 122.464 59.1484 122.328 59.0849C122.192 59.0213 122.092 58.9215 122.029 58.7944C121.993 58.7218 121.965 58.631 121.947 58.5312H124.088V58.2861C124.088 57.9684 124.025 57.687 123.907 57.451C123.789 57.215 123.616 57.0426 123.399 56.9155H123.381ZM122.247 57.4601C122.355 57.3966 122.482 57.3602 122.637 57.3602C122.845 57.3602 123.009 57.4238 123.117 57.5509C123.217 57.6598 123.272 57.8232 123.281 58.0229H121.92C121.938 57.923 121.956 57.8322 121.993 57.7505C122.056 57.6235 122.138 57.5236 122.247 57.4601Z" fill="#0F1454"/>
<path d="M126.265 57.4782C126.383 57.4782 126.51 57.4964 126.646 57.5417C126.782 57.5871 126.891 57.6507 127 57.7324L127.263 57.0697C127.145 56.9608 126.982 56.8791 126.782 56.8247C126.583 56.7611 126.374 56.7339 126.166 56.7339C125.839 56.7339 125.549 56.7974 125.304 56.9245C125.059 57.0516 124.868 57.2331 124.732 57.4691C124.596 57.7051 124.533 57.9865 124.533 58.3042C124.533 58.6219 124.596 58.9033 124.732 59.1393C124.868 59.3753 125.059 59.5568 125.304 59.693C125.549 59.8291 125.83 59.8927 126.166 59.8927C126.374 59.8927 126.583 59.8654 126.782 59.8019C126.982 59.7383 127.145 59.6567 127.263 59.5568L126.991 58.8851C126.891 58.9668 126.782 59.0304 126.646 59.0757C126.51 59.1211 126.383 59.1483 126.265 59.1483C126.02 59.1483 125.83 59.0757 125.694 58.9305C125.558 58.7853 125.485 58.5765 125.485 58.3133C125.485 58.05 125.549 57.8413 125.694 57.696C125.83 57.5508 126.02 57.4782 126.265 57.4782Z" fill="#0F1454"/>
<path d="M129.83 59.0486C129.757 59.0668 129.694 59.085 129.621 59.1031C129.558 59.1213 129.494 59.1213 129.431 59.1213C129.249 59.1213 129.122 59.0759 129.032 58.9942C128.95 58.9034 128.905 58.7763 128.905 58.6039V57.5146H129.857V56.8067H128.905V55.9443H127.988V56.8067H127.381V57.5146H127.961V58.6402C127.961 59.0486 128.07 59.3663 128.279 59.5842C128.487 59.802 128.814 59.9109 129.258 59.9109C129.385 59.9109 129.512 59.9019 129.63 59.8746C129.748 59.8474 129.866 59.8111 129.957 59.7657L129.821 59.0759L129.83 59.0486Z" fill="#0F1454"/>
</g>
<defs>
<clipPath id="clip0_1372_23444">
<rect width="130" height="60" fill="white"/>
</clipPath>
</defs>
</svg>
