<svg width="983" height="984" viewBox="0 0 983 984" fill="none" xmlns="http://www.w3.org/2000/svg">
<path d="M841.783 438.389H983V579.606H841.783V438.389Z" fill="#FFBB0C"/>
<path d="M771.245 574.542V983.43L513.565 771.977V574.542H771.245Z" fill="#34D399"/>
<path d="M513.568 771.972C513.568 771.972 513.568 785.691 513.568 792.103C513.568 855.629 513.568 919.005 513.568 982.53C370.561 988.942 225.914 928.996 129.284 823.269C32.6541 717.543 -14.0204 568.125 5.06702 426.311C38.47 178.622 263.343 -10.9097 513.418 1.01992C513.418 192.192 513.418 383.364 513.269 574.537C433.042 574.537 352.666 574.537 272.44 574.537C347.596 636.123 422.604 697.561 497.761 759.148C502.682 763.174 513.418 772.121 513.418 772.121L513.568 771.972Z" fill="#0F1454"/>
</svg>
