<svg width="144" height="67" viewBox="0 0 144 67" fill="none" xmlns="http://www.w3.org/2000/svg">
<path d="M56.77 30.0498H66.24V39.5198H56.77V30.0498Z" fill="#FFBB0C"/>
<path d="M52.0398 39.1797V66.5997L34.7598 52.4197V39.1797H52.0398Z" fill="#34D399"/>
<path d="M34.7599 52.4199C34.7599 52.4199 34.7599 53.3399 34.7599 53.7699C34.7599 58.0299 34.7599 62.2799 34.7599 66.5399C25.1699 66.9699 15.4699 62.9498 8.98988 55.8598C2.50988 48.7698 -0.620102 38.7499 0.659898 29.2399C2.8999 12.6299 17.9799 -0.0801353 34.7499 0.719865V39.1799C29.3599 39.1799 23.9699 39.1799 18.5899 39.1799C23.6299 43.3099 28.6599 47.4299 33.6999 51.5599C34.0299 51.8299 34.7499 52.4299 34.7499 52.4299L34.7599 52.4199Z" fill="white"/>
<path d="M83.8698 47.0698H87.2998V50.2498C86.9798 50.3398 86.6598 50.4098 86.3398 50.4698C85.7598 50.5698 85.1598 50.6198 84.5298 50.6198C82.8998 50.6198 81.6598 50.1798 80.8298 49.2998C79.9998 48.4198 79.5798 47.1198 79.5798 45.3998C79.5798 43.6798 79.9998 42.3898 80.8298 41.5098C81.6598 40.6298 82.8598 40.1798 84.4098 40.1798C85.2598 40.1798 86.0698 40.2898 86.8098 40.4998C87.5598 40.7098 88.2898 41.0798 89.0098 41.5998L90.1498 38.7798C89.7398 38.4098 89.2198 38.0998 88.5998 37.8398C87.9798 37.5798 87.3098 37.3798 86.5998 37.2398C85.8798 37.0998 85.1398 37.0298 84.3598 37.0298C82.5898 37.0298 81.0698 37.3698 79.7898 38.0498C78.5198 38.7298 77.5398 39.6898 76.8498 40.9298C76.1598 42.1698 75.8198 43.6598 75.8198 45.3798C75.8198 47.0998 76.1598 48.5398 76.8298 49.7698C77.4998 51.0098 78.4698 51.9598 79.7298 52.6398C80.9898 53.3198 82.5098 53.6598 84.2998 53.6598C85.0198 53.6598 85.7398 53.6098 86.4698 53.5098C87.1998 53.4098 87.8998 53.2698 88.5598 53.0898C89.2198 52.9098 89.8098 52.6898 90.3298 52.4298V44.3998H83.8498V47.0598L83.8698 47.0698Z" fill="white"/>
<path d="M99.3397 37.29L91.9497 53.43H95.6097L97.0297 50.09H104.64L106.07 53.43H109.76L102.37 37.29H99.3497H99.3397ZM100.79 41.07H100.88L103.45 47.2H98.2297L100.8 41.07H100.79Z" fill="white"/>
<path d="M120.13 47.07L114.91 37.29H111.54V53.43H114.86V43.31L119.01 50.91H121.13L125.28 43.27V53.43H128.62V37.29H125.32L120.13 47.07Z" fill="white"/>
<path d="M143.5 40.18V37.29H132.26V53.43H143.5V50.55H135.76V46.68H142.99V43.8H135.76V40.18H143.5Z" fill="white"/>
<path d="M80.61 58.7599C81.05 58.7599 81.48 58.8299 81.88 58.9699C82.28 59.1099 82.67 59.3299 83.07 59.6299L83.74 57.9799C83.38 57.6299 82.91 57.3699 82.35 57.1899C81.79 57.0099 81.19 56.9199 80.56 56.9199C79.57 56.9199 78.71 57.1199 77.99 57.5099C77.27 57.9099 76.72 58.4599 76.32 59.1799C75.93 59.8999 75.73 60.7599 75.73 61.7499C75.73 62.7399 75.93 63.5999 76.32 64.3299C76.71 65.0499 77.27 65.6099 77.99 66.0099C78.71 66.4099 79.57 66.5999 80.55 66.5999C81.18 66.5999 81.78 66.5099 82.34 66.3199C82.9 66.1299 83.37 65.8699 83.73 65.5299L83.06 63.8799C82.67 64.1799 82.27 64.3999 81.87 64.5399C81.47 64.6799 81.05 64.7499 80.6 64.7499C79.75 64.7499 79.09 64.4899 78.62 63.9799C78.15 63.4599 77.92 62.7199 77.92 61.7499C77.92 60.7799 78.15 60.0399 78.62 59.5299C79.09 59.0199 79.75 58.7599 80.6 58.7599H80.61Z" fill="white"/>
<path d="M91.7501 60.8101H87.4301V57.0601H85.3301V66.4501H87.4301V62.5701H91.7501V66.4501H93.8701V57.0601H91.7501V60.8101Z" fill="white"/>
<path d="M99.1799 57.0601L94.8799 66.4501H97.0099L97.8299 64.5001H102.26L103.09 66.4501H105.24L100.94 57.0601H99.1799ZM100.02 59.2501H100.07L101.56 62.8201H98.5199L100.01 59.2501H100.02Z" fill="white"/>
<path d="M112.6 63.1001L107.87 57.0601H106.26V66.4501H108.23V60.4301L112.92 66.4501H114.57V57.0601H112.6V63.1001Z" fill="white"/>
<path d="M121.05 62.7499H123.05V64.5999C122.87 64.6499 122.68 64.6899 122.49 64.7299C122.15 64.7899 121.8 64.8199 121.44 64.8199C120.49 64.8199 119.77 64.5599 119.29 64.0499C118.81 63.5399 118.56 62.7799 118.56 61.7799C118.56 60.7799 118.8 60.0299 119.29 59.5199C119.77 58.9999 120.47 58.7499 121.38 58.7499C121.88 58.7499 122.34 58.8099 122.78 58.9399C123.22 59.0599 123.64 59.2799 124.06 59.5799L124.73 57.9399C124.49 57.7299 124.19 57.5399 123.83 57.3899C123.47 57.2399 123.08 57.1199 122.66 57.0399C122.24 56.9599 121.81 56.9199 121.35 56.9199C120.32 56.9199 119.43 57.1199 118.69 57.5099C117.95 57.9099 117.38 58.4699 116.98 59.1899C116.58 59.9099 116.38 60.7799 116.38 61.7799C116.38 62.7799 116.58 63.6199 116.97 64.3399C117.36 65.0599 117.92 65.6199 118.66 66.0099C119.39 66.4099 120.28 66.5999 121.32 66.5999C121.74 66.5999 122.16 66.5699 122.59 66.5099C123.02 66.4499 123.42 66.3699 123.81 66.2599C124.2 66.1499 124.54 66.0199 124.84 65.8699V61.1899H121.07V62.7399L121.05 62.7499Z" fill="white"/>
<path d="M126.83 66.4501H133.37V64.7701H128.87V62.5201H133.08V60.8401H128.87V58.7401H133.37V57.0601H126.83V66.4501Z" fill="white"/>
<path d="M141.96 63.61C141.77 63.26 141.56 63.0101 141.33 62.8401C141.14 62.7101 140.94 62.62 140.71 62.58C141.03 62.51 141.32 62.4101 141.58 62.2701C142 62.0401 142.33 61.7301 142.56 61.3401C142.79 60.9401 142.91 60.4701 142.91 59.9201C142.91 59.0101 142.62 58.3101 142.04 57.8101C141.46 57.3101 140.64 57.0601 139.58 57.0601H135.24V66.4501H137.35V62.8801H138.42C138.61 62.8801 138.77 62.9001 138.92 62.9401C139.07 62.9801 139.2 63.0501 139.31 63.1501C139.43 63.2501 139.53 63.3801 139.62 63.5401L141.19 66.4601H143.51L141.98 63.6201L141.96 63.61ZM139.26 61.3201H137.34V58.7201H139.25C139.79 58.7201 140.2 58.8301 140.46 59.0401C140.73 59.2501 140.86 59.5801 140.86 60.0101C140.86 60.4401 140.73 60.7701 140.46 60.9901C140.19 61.2101 139.79 61.3201 139.26 61.3201Z" fill="white"/>
</svg>
