<svg width="20" height="20" viewBox="0 0 20 20" fill="none" xmlns="http://www.w3.org/2000/svg">
<path d="M4.376 8.068C4.16325 8.68988 4.05511 9.34274 4.056 10C4.056 10.734 4.188 11.437 4.432 12.086C4.73611 12.8972 5.21379 13.6321 5.83163 14.2393C6.44947 14.8466 7.19254 15.3115 8.00885 15.6015C8.82516 15.8916 9.69498 15.9998 10.5575 15.9185C11.4199 15.8372 12.2542 15.5684 13.002 15.131H13.003C14.181 14.4404 15.0862 13.3661 15.567 12.088H10.22V8.132H19.825C20.0734 9.44049 20.0585 10.7854 19.781 12.088C19.3002 14.3399 18.0569 16.3568 16.261 17.798C14.4872 19.2264 12.2774 20.0035 10 20C8.28297 20.001 6.59462 19.5597 5.09763 18.7187C3.60064 17.8778 2.34546 16.6655 1.45301 15.1986C0.560561 13.7317 0.0609314 12.0597 0.0022548 10.3437C-0.0564218 8.62764 0.327833 6.92542 1.118 5.401C1.96097 3.77291 3.23538 2.40796 4.80187 1.4554C6.36837 0.502843 8.16662 -0.000642863 10 6.16024e-07C12.426 6.16024e-07 14.651 0.864001 16.383 2.302L13.143 4.954C12.384 4.48164 11.5283 4.18643 10.6395 4.09034C9.75073 3.99424 8.85171 4.09972 8.00931 4.39894C7.1669 4.69816 6.40277 5.18342 5.77374 5.81864C5.14471 6.45386 4.66695 7.2227 4.376 8.068Z" fill="#EF4444"/>
</svg>
