<svg width="20" height="17" viewBox="0 0 20 17" fill="none" xmlns="http://www.w3.org/2000/svg">
<path d="M20 1.90668C19.2504 2.23405 18.4565 2.44871 17.644 2.54368C18.4968 2.04291 19.138 1.24878 19.448 0.309676C18.64 0.780004 17.7587 1.11128 16.841 1.28968C16.4545 0.884881 15.9897 0.563063 15.4748 0.343854C14.9598 0.124645 14.4056 0.0126411 13.846 0.0146757C11.58 0.0146757 9.743 1.82468 9.743 4.05468C9.743 4.37068 9.779 4.67968 9.849 4.97468C8.22358 4.89737 6.63212 4.48208 5.17617 3.75531C3.72022 3.02855 2.43176 2.00626 1.393 0.753676C1.02883 1.36808 0.837415 2.06946 0.839 2.78368C0.839697 3.45164 1.00683 4.10891 1.32529 4.69607C1.64375 5.28323 2.1035 5.78179 2.663 6.14668C2.01248 6.12568 1.37602 5.952 0.805 5.63968V5.68968C0.805 7.64768 2.22 9.28068 4.095 9.65268C3.74261 9.74617 3.37958 9.79357 3.015 9.79368C2.75 9.79368 2.493 9.76868 2.242 9.71868C2.51008 10.5266 3.02311 11.231 3.70982 11.734C4.39653 12.237 5.22284 12.5137 6.074 12.5257C4.61407 13.6502 2.82182 14.2577 0.979 14.2527C0.647 14.2527 0.321 14.2327 0 14.1967C1.88125 15.3874 4.06259 16.018 6.289 16.0147C13.836 16.0147 17.962 9.85768 17.962 4.51868L17.948 3.99568C18.7529 3.42935 19.4481 2.72152 20 1.90668Z" fill="#0EA5E9"/>
</svg>
