<svg width="512" height="512" viewBox="0 0 512 512" fill="none" xmlns="http://www.w3.org/2000/svg">
<path fill-rule="evenodd" clip-rule="evenodd" d="M102.054 183.052V328.949C102.054 341.876 78.3691 341.876 78.3691 328.949V183.052C78.3691 170.125 102.054 170.125 102.054 183.052Z" fill="white"/>
<path fill-rule="evenodd" clip-rule="evenodd" d="M149.421 142.551V369.449C149.421 382.376 125.736 382.376 125.736 369.449V142.551C125.736 129.624 149.421 129.624 149.421 142.551Z" fill="white"/>
<path fill-rule="evenodd" clip-rule="evenodd" d="M196.79 222.287V289.712C196.79 302.639 173.105 302.639 173.105 289.712V222.287C173.105 209.36 196.79 209.36 196.79 222.287Z" fill="white"/>
<path fill-rule="evenodd" clip-rule="evenodd" d="M244.159 180.469V331.531C244.159 344.458 220.475 344.458 220.475 331.531V180.469C220.475 167.542 244.159 167.542 244.159 180.469Z" fill="white"/>
<path fill-rule="evenodd" clip-rule="evenodd" d="M291.526 99.9415V412.06C291.526 424.987 267.842 424.987 267.842 412.06V99.9415C267.842 87.0143 291.526 87.0143 291.526 99.9415Z" fill="white"/>
<path fill-rule="evenodd" clip-rule="evenodd" d="M338.895 142.573V369.426C338.896 382.353 315.211 382.354 315.211 369.426V142.573C315.21 129.646 338.895 129.646 338.895 142.573Z" fill="white"/>
<path fill-rule="evenodd" clip-rule="evenodd" d="M386.263 213.131V298.869C386.263 311.796 362.578 311.796 362.578 298.869V213.131C362.578 200.204 386.263 200.204 386.263 213.131Z" fill="white"/>
<path fill-rule="evenodd" clip-rule="evenodd" d="M433.634 183.06V328.94C433.634 341.867 409.949 341.867 409.949 328.94V183.06C409.949 170.134 433.634 170.134 433.634 183.06Z" fill="white"/>
<path fill-rule="evenodd" clip-rule="evenodd" d="M481.003 213.108V298.893C481.003 311.82 457.318 311.82 457.318 298.893V213.108C457.318 200.181 481.003 200.181 481.003 213.108Z" fill="white"/>
<path fill-rule="evenodd" clip-rule="evenodd" d="M54.6844 213.108V298.893C54.6844 311.82 31 311.82 31 298.893V213.108C31 200.181 54.6844 200.181 54.6844 213.108Z" fill="white"/>
</svg>
