<svg clip-rule="evenodd" fill-rule="evenodd" height="512" image-rendering="optimizeQuality" shape-rendering="geometricPrecision" text-rendering="geometricPrecision" viewBox="0 0 173.397 173.397" width="512" xmlns="http://www.w3.org/2000/svg"><g id="Layer_x0020_1"><g id="_341015152"><path id="_341016400" d="m34.5618 61.9934v49.4103c0 4.3779-8.0211 4.3779-8.0211 0v-49.4103c0-4.378 8.0211-4.378 8.0211 0z"/><path id="_341016640" d="m50.6039 48.2773v76.8426c0 4.378-8.0211 4.378-8.0211 0v-76.8426c0-4.378 8.0211-4.378 8.0211 0z"/><path id="_341016664" d="m66.646 75.2812v22.8347c0 4.3779-8.0211 4.3779-8.0211 0v-22.8347c0-4.3779 8.0211-4.3779 8.0211 0z"/><path id="_341016136" d="m82.6881 61.1187v51.1597c0 4.3779-8.0211 4.3779-8.0211 0v-51.1597c0-4.3779 8.0211-4.3779 8.0211 0z"/><path id="_341015584" d="m98.7302 33.8468v105.704c0 4.378-8.0211 4.378-8.0211 0v-105.704c0-4.378 8.0211-4.378 8.0211 0z"/><path id="_341015944" d="m114.772 48.2848v76.8274c.0002 4.378-8.0211 4.3781-8.0211.0001v-76.8274c-.0002-4.378 8.0211-4.3781 8.0211-.0001z"/><path id="_341015752" d="m130.814 72.1802v29.0366c0 4.378-8.0211 4.378-8.0211 0v-29.0366c0-4.378 8.0211-4.378 8.0211 0z"/><path id="_341016256" d="m146.857 61.9963v49.4044c.0002 4.3781-8.0213 4.3781-8.0211 0v-49.4044c0-4.3779 8.0211-4.3779 8.0211 0z"/><path id="_341015416" d="m162.899 72.1724v29.0523c0 4.3779-8.0211 4.3779-8.0211 0v-29.0523c0-4.3779 8.0211-4.3779 8.0211 0z"/><path id="_341014960" d="m18.5197 72.1724v29.0523c0 4.3779-8.0211 4.3779-8.0211 0v-29.0523c0-4.3779 8.0211-4.3779 8.0211 0z"/></g></g></svg>