<svg width="1440" height="21" viewBox="0 0 1440 21" fill="none" xmlns="http://www.w3.org/2000/svg">
<path d="M46 0H26V21H46V0Z" fill="#34D399"/>
<path d="M26 0H5V21H26V0Z" fill="#34D399"/>
<path d="M5 0H-15V21H5V0Z" fill="#FFBB0C"/>
<path d="M67 0H46V21H67V0Z" fill="#FFBB0C"/>
<path d="M67 11L56.5 0L46 11H67Z" fill="#34D399"/>
<path d="M67 21L56.5 11L46 21H67Z" fill="#34D399"/>
<path d="M-2.21458 18.4143C-4.97769 15.6525 -5 11.0023 -5 11.0023C-5 11.0023 -0.544813 10.8239 2.21458 13.5857C4.97769 16.3476 5 20.9977 5 20.9977C5 20.9977 0.544812 21.1761 -2.21458 18.4143Z" fill="#0F1454"/>
<path d="M-2.21458 2.84431C-4.97769 5.88231 -5 10.9974 -5 10.9974C-5 10.9974 -0.544813 11.1937 2.21458 8.15569C4.97397 5.12178 5 0.00256956 5 0.00256956C5 0.00256956 0.544812 -0.193694 -2.21458 2.84431Z" fill="#0F1454"/>
<path d="M36 21C30.4775 21 26 16.2986 26 10.5C26 4.70138 30.4775 0 36 0H46V21H36Z" fill="#0F1454"/>
<path fill-rule="evenodd" clip-rule="evenodd" d="M26 10.5C20.2014 10.5 15.5 5.79862 15.5 0C15.5 5.79862 10.7986 10.5 5 10.5C10.7986 10.5 15.5 15.2014 15.5 21C15.5 15.2014 20.2014 10.5 26 10.5Z" fill="#0F1454"/>
<path d="M214 0H193V21H214V0Z" fill="#34D399"/>
<path d="M193 0H171V21H193V0Z" fill="#0F1454"/>
<path d="M193 0V21L214 0H193Z" fill="#0F1454"/>
<path d="M182 0L171 10.5L182 21V0Z" fill="#34D399"/>
<path d="M193 0L182 10.5L193 21V0Z" fill="#FFBB0C"/>
<path d="M131 0H109V21H131V0Z" fill="#34D399"/>
<path d="M109 0H88V21H109V0Z" fill="#FFBB0C"/>
<path d="M88 0H67V21H88V0Z" fill="#0F1454"/>
<path fill-rule="evenodd" clip-rule="evenodd" d="M119.996 18.2003C124.451 18.2003 128.063 14.7523 128.063 10.5C128.063 6.24768 124.451 2.79974 119.996 2.79974C115.541 2.79974 111.929 6.24768 111.929 10.5C111.929 14.7523 115.541 18.2003 119.996 18.2003ZM131 10.5C131 16.2986 126.075 21 120 21C113.925 21 109 16.2986 109 10.5C109 4.70138 113.925 0 120 0C126.075 0 131 4.70138 131 10.5Z" fill="#0F1454"/>
<path fill-rule="evenodd" clip-rule="evenodd" d="M119.5 13.9979C121.016 13.9979 122.248 12.6543 122.248 11C122.248 9.3457 121.016 8.0021 119.5 8.0021C117.984 8.0021 116.752 9.3457 116.752 11C116.752 12.6543 117.984 13.9979 119.5 13.9979ZM125 11C125 14.3128 122.537 17 119.5 17C116.463 17 114 14.3128 114 11C114 7.6872 116.463 5 119.5 5C122.537 5 125 7.6872 125 11Z" fill="#34D399"/>
<path d="M152 0H131V21H152V0Z" fill="#0F1454"/>
<path d="M88 0V21L109 0H88Z" fill="#0F1454"/>
<path d="M131 21H152L131 0V21Z" fill="#FFBB0C"/>
<path d="M78 0L67 10.5L77.9959 21V0H78Z" fill="#34D399"/>
<path d="M88 0L78 10.5L88 21V0Z" fill="#34D399"/>
<path d="M173 0H152V21H173V0Z" fill="#34D399"/>
<path d="M162.5 0L152 10.5L162.5 21L173 10.5L162.5 0Z" fill="white"/>
<path d="M274 0H254V21H274V0Z" fill="#34D399"/>
<path d="M254 0H234V21H254V0Z" fill="#34D399"/>
<path d="M234 0H213V21H234V0Z" fill="#FFBB0C"/>
<path d="M295 0H274V21H295V0Z" fill="#FFBB0C"/>
<path d="M295 11L284.5 0L274 11H295Z" fill="#34D399"/>
<path d="M295 21L284.5 11L274 21H295Z" fill="#34D399"/>
<path d="M226.064 18.4143C223.025 15.6525 223 11.0023 223 11.0023C223 11.0023 227.901 10.8239 230.936 13.5857C233.975 16.3476 234 20.9977 234 20.9977C234 20.9977 229.099 21.1761 226.064 18.4143Z" fill="#0F1454"/>
<path d="M220.216 18.4143C222.978 15.6525 223 11.0023 223 11.0023C223 11.0023 218.546 10.8239 215.788 13.5857C213.026 16.3438 213 20.9977 213 20.9977C213 20.9977 217.454 21.1761 220.212 18.4143H220.216Z" fill="#0F1454"/>
<path d="M226.064 2.84431C223.025 5.88231 223 10.9974 223 10.9974C223 10.9974 227.901 11.1937 230.936 8.15569C233.971 5.12178 234 0.00256956 234 0.00256956C234 0.00256956 229.099 -0.193694 226.064 2.84431Z" fill="#0F1454"/>
<path d="M220.216 2.8442C222.978 5.88224 223 10.9974 223 10.9974C223 10.9974 218.546 11.1937 215.788 8.15566C213.026 5.12171 213 0.00242966 213 0.00242966C213 0.00242966 217.454 -0.189748 220.216 2.8442Z" fill="#0F1454"/>
<path d="M264 21C258.478 21 254 16.2986 254 10.5C254 4.70138 258.478 0 264 0H274V21H264Z" fill="#0F1454"/>
<path fill-rule="evenodd" clip-rule="evenodd" d="M254 10.5C248.478 10.5 244 5.79862 244 0C244 5.79862 239.522 10.5 234 10.5C239.522 10.5 244 15.2014 244 21C244 15.2014 248.478 10.5 254 10.5Z" fill="#0F1454"/>
<path d="M442 0H421V21H442V0Z" fill="#34D399"/>
<path d="M421 0H399V21H421V0Z" fill="#0F1454"/>
<path d="M421 0V21L442 0H421Z" fill="#0F1454"/>
<path d="M410 0L399 10.5L410 21V0Z" fill="#34D399"/>
<path d="M421 0L410 10.5L421 21V0Z" fill="#FFBB0C"/>
<path d="M359 0H337V21H359V0Z" fill="#34D399"/>
<path d="M337 0H316V21H337V0Z" fill="#FFBB0C"/>
<path d="M316 0H295V21H316V0Z" fill="#0F1454"/>
<path fill-rule="evenodd" clip-rule="evenodd" d="M347.996 18.2003C352.451 18.2003 356.063 14.7523 356.063 10.5C356.063 6.24768 352.451 2.79974 347.996 2.79974C343.541 2.79974 339.929 6.24768 339.929 10.5C339.929 14.7523 343.541 18.2003 347.996 18.2003ZM359 10.5C359 16.2986 354.075 21 348 21C341.925 21 337 16.2986 337 10.5C337 4.70138 341.925 0 348 0C354.075 0 359 4.70138 359 10.5Z" fill="#0F1454"/>
<path fill-rule="evenodd" clip-rule="evenodd" d="M347.5 13.9979C349.016 13.9979 350.248 12.6543 350.248 11C350.248 9.3457 349.016 8.0021 347.5 8.0021C345.984 8.0021 344.752 9.3457 344.752 11C344.752 12.6543 345.984 13.9979 347.5 13.9979ZM353 11C353 14.3128 350.537 17 347.5 17C344.463 17 342 14.3128 342 11C342 7.6872 344.463 5 347.5 5C350.537 5 353 7.6872 353 11Z" fill="#34D399"/>
<path d="M380 0H359V21H380V0Z" fill="#0F1454"/>
<path d="M316 0V21L337 0H316Z" fill="#0F1454"/>
<path d="M359 21H380L359 0V21Z" fill="#FFBB0C"/>
<path d="M306 0L295 10.5L305.996 21V0H306Z" fill="#34D399"/>
<path d="M316 0L306 10.5L316 21V0Z" fill="#34D399"/>
<path d="M401 0H380V21H401V0Z" fill="#34D399"/>
<path d="M390.5 0L380 10.5L390.5 21L401 10.5L390.5 0Z" fill="white"/>
<path d="M502 0H482V21H502V0Z" fill="#34D399"/>
<path d="M482 0H462V21H482V0Z" fill="#34D399"/>
<path d="M462 0H441V21H462V0Z" fill="#FFBB0C"/>
<path d="M523 0H502V21H523V0Z" fill="#FFBB0C"/>
<path d="M523 11L512.5 0L502 11H523Z" fill="#34D399"/>
<path d="M523 21L512.5 11L502 21H523Z" fill="#34D399"/>
<path d="M454.064 18.4143C451.025 15.6525 451 11.0023 451 11.0023C451 11.0023 455.901 10.8239 458.936 13.5857C461.975 16.3476 462 20.9977 462 20.9977C462 20.9977 457.099 21.1761 454.064 18.4143Z" fill="#0F1454"/>
<path d="M448.216 18.4143C450.978 15.6525 451 11.0023 451 11.0023C451 11.0023 446.546 10.8239 443.788 13.5857C441.026 16.3438 441 20.9977 441 20.9977C441 20.9977 445.454 21.1761 448.212 18.4143H448.216Z" fill="#0F1454"/>
<path d="M454.064 2.84431C451.025 5.88231 451 10.9974 451 10.9974C451 10.9974 455.901 11.1937 458.936 8.15569C461.971 5.12178 462 0.00256956 462 0.00256956C462 0.00256956 457.099 -0.193694 454.064 2.84431Z" fill="#0F1454"/>
<path d="M448.216 2.8442C450.978 5.88224 451 10.9974 451 10.9974C451 10.9974 446.546 11.1937 443.788 8.15566C441.026 5.12171 441 0.00242966 441 0.00242966C441 0.00242966 445.454 -0.189748 448.216 2.8442Z" fill="#0F1454"/>
<path d="M492 21C486.478 21 482 16.2986 482 10.5C482 4.70138 486.478 0 492 0H502V21H492Z" fill="#0F1454"/>
<path fill-rule="evenodd" clip-rule="evenodd" d="M482 10.5C476.478 10.5 472 5.79862 472 0C472 5.79862 467.522 10.5 462 10.5C467.522 10.5 472 15.2014 472 21C472 15.2014 476.478 10.5 482 10.5Z" fill="#0F1454"/>
<path d="M584 0H564V21H584V0Z" fill="#34D399"/>
<path d="M564 0H543V21H564V0Z" fill="#34D399"/>
<path d="M543 0H523V21H543V0Z" fill="#FFBB0C"/>
<path d="M605 0H584V21H605V0Z" fill="#FFBB0C"/>
<path d="M605 11L594.5 0L584 11H605Z" fill="#34D399"/>
<path d="M605 21L594.5 11L584 21H605Z" fill="#34D399"/>
<path d="M535.785 18.4143C533.022 15.6525 533 11.0023 533 11.0023C533 11.0023 537.455 10.8239 540.215 13.5857C542.978 16.3476 543 20.9977 543 20.9977C543 20.9977 538.545 21.1761 535.785 18.4143Z" fill="#0F1454"/>
<path d="M530.216 18.4143C532.978 15.6525 533 11.0023 533 11.0023C533 11.0023 528.546 10.8239 525.788 13.5857C523.026 16.3438 523 20.9977 523 20.9977C523 20.9977 527.454 21.1761 530.212 18.4143H530.216Z" fill="#0F1454"/>
<path d="M535.785 2.84431C533.022 5.88231 533 10.9974 533 10.9974C533 10.9974 537.455 11.1937 540.215 8.15569C542.974 5.12178 543 0.00256956 543 0.00256956C543 0.00256956 538.545 -0.193694 535.785 2.84431Z" fill="#0F1454"/>
<path d="M530.216 2.8442C532.978 5.88224 533 10.9974 533 10.9974C533 10.9974 528.546 11.1937 525.788 8.15566C523.026 5.12171 523 0.00242966 523 0.00242966C523 0.00242966 527.454 -0.189748 530.216 2.8442Z" fill="#0F1454"/>
<path d="M574 21C568.478 21 564 16.2986 564 10.5C564 4.70138 568.478 0 574 0H584V21H574Z" fill="#0F1454"/>
<path fill-rule="evenodd" clip-rule="evenodd" d="M564 10.5C558.201 10.5 553.5 5.79862 553.5 0C553.5 5.79862 548.799 10.5 543 10.5C548.799 10.5 553.5 15.2014 553.5 21C553.5 15.2014 558.201 10.5 564 10.5Z" fill="#0F1454"/>
<path d="M752 0H731V21H752V0Z" fill="#34D399"/>
<path d="M731 0H709V21H731V0Z" fill="#0F1454"/>
<path d="M731 0V21L752 0H731Z" fill="#0F1454"/>
<path d="M720 0L709 10.5L720 21V0Z" fill="#34D399"/>
<path d="M731 0L720 10.5L731 21V0Z" fill="#FFBB0C"/>
<path d="M669 0H647V21H669V0Z" fill="#34D399"/>
<path d="M647 0H626V21H647V0Z" fill="#FFBB0C"/>
<path d="M626 0H605V21H626V0Z" fill="#0F1454"/>
<path fill-rule="evenodd" clip-rule="evenodd" d="M657.996 18.2003C662.451 18.2003 666.063 14.7523 666.063 10.5C666.063 6.24768 662.451 2.79974 657.996 2.79974C653.541 2.79974 649.929 6.24768 649.929 10.5C649.929 14.7523 653.541 18.2003 657.996 18.2003ZM669 10.5C669 16.2986 664.075 21 658 21C651.925 21 647 16.2986 647 10.5C647 4.70138 651.925 0 658 0C664.075 0 669 4.70138 669 10.5Z" fill="#0F1454"/>
<path fill-rule="evenodd" clip-rule="evenodd" d="M657.5 13.9979C659.016 13.9979 660.248 12.6543 660.248 11C660.248 9.3457 659.016 8.0021 657.5 8.0021C655.984 8.0021 654.752 9.3457 654.752 11C654.752 12.6543 655.984 13.9979 657.5 13.9979ZM663 11C663 14.3128 660.537 17 657.5 17C654.463 17 652 14.3128 652 11C652 7.6872 654.463 5 657.5 5C660.537 5 663 7.6872 663 11Z" fill="#34D399"/>
<path d="M690 0H669V21H690V0Z" fill="#0F1454"/>
<path d="M626 0V21L647 0H626Z" fill="#0F1454"/>
<path d="M669 21H690L669 0V21Z" fill="#FFBB0C"/>
<path d="M616 0L605 10.5L615.996 21V0H616Z" fill="#34D399"/>
<path d="M626 0L616 10.5L626 21V0Z" fill="#34D399"/>
<path d="M711 0H690V21H711V0Z" fill="#34D399"/>
<path d="M700.5 0L690 10.5L700.5 21L711 10.5L700.5 0Z" fill="white"/>
<path d="M812 0H792V21H812V0Z" fill="#34D399"/>
<path d="M792 0H772V21H792V0Z" fill="#34D399"/>
<path d="M772 0H751V21H772V0Z" fill="#FFBB0C"/>
<path d="M833 0H812V21H833V0Z" fill="#FFBB0C"/>
<path d="M833 11L822.5 0L812 11H833Z" fill="#34D399"/>
<path d="M833 21L822.5 11L812 21H833Z" fill="#34D399"/>
<path d="M764.064 18.4143C761.025 15.6525 761 11.0023 761 11.0023C761 11.0023 765.901 10.8239 768.936 13.5857C771.975 16.3476 772 20.9977 772 20.9977C772 20.9977 767.099 21.1761 764.064 18.4143Z" fill="#0F1454"/>
<path d="M758.216 18.4143C760.978 15.6525 761 11.0023 761 11.0023C761 11.0023 756.546 10.8239 753.788 13.5857C751.026 16.3438 751 20.9977 751 20.9977C751 20.9977 755.454 21.1761 758.212 18.4143H758.216Z" fill="#0F1454"/>
<path d="M764.064 2.84431C761.025 5.88231 761 10.9974 761 10.9974C761 10.9974 765.901 11.1937 768.936 8.15569C771.971 5.12178 772 0.00256956 772 0.00256956C772 0.00256956 767.099 -0.193694 764.064 2.84431Z" fill="#0F1454"/>
<path d="M758.216 2.8442C760.978 5.88224 761 10.9974 761 10.9974C761 10.9974 756.546 11.1937 753.788 8.15566C751.026 5.12171 751 0.00242966 751 0.00242966C751 0.00242966 755.454 -0.189748 758.216 2.8442Z" fill="#0F1454"/>
<path d="M802 21C796.478 21 792 16.2986 792 10.5C792 4.70138 796.478 0 802 0H812V21H802Z" fill="#0F1454"/>
<path fill-rule="evenodd" clip-rule="evenodd" d="M792 10.5C786.478 10.5 782 5.79862 782 0C782 5.79862 777.522 10.5 772 10.5C777.522 10.5 782 15.2014 782 21C782 15.2014 786.478 10.5 792 10.5Z" fill="#0F1454"/>
<path d="M980 0H959V21H980V0Z" fill="#34D399"/>
<path d="M959 0H937V21H959V0Z" fill="#0F1454"/>
<path d="M959 0V21L980 0H959Z" fill="#0F1454"/>
<path d="M948 0L937 10.5L948 21V0Z" fill="#34D399"/>
<path d="M959 0L948 10.5L959 21V0Z" fill="#FFBB0C"/>
<path d="M897 0H875V21H897V0Z" fill="#34D399"/>
<path d="M875 0H854V21H875V0Z" fill="#FFBB0C"/>
<path d="M854 0H833V21H854V0Z" fill="#0F1454"/>
<path fill-rule="evenodd" clip-rule="evenodd" d="M885.996 18.2003C890.451 18.2003 894.063 14.7523 894.063 10.5C894.063 6.24768 890.451 2.79974 885.996 2.79974C881.541 2.79974 877.929 6.24768 877.929 10.5C877.929 14.7523 881.541 18.2003 885.996 18.2003ZM897 10.5C897 16.2986 892.075 21 886 21C879.925 21 875 16.2986 875 10.5C875 4.70138 879.925 0 886 0C892.075 0 897 4.70138 897 10.5Z" fill="#0F1454"/>
<path fill-rule="evenodd" clip-rule="evenodd" d="M885.5 13.9979C887.016 13.9979 888.248 12.6543 888.248 11C888.248 9.3457 887.016 8.0021 885.5 8.0021C883.984 8.0021 882.752 9.3457 882.752 11C882.752 12.6543 883.984 13.9979 885.5 13.9979ZM891 11C891 14.3128 888.537 17 885.5 17C882.463 17 880 14.3128 880 11C880 7.6872 882.463 5 885.5 5C888.537 5 891 7.6872 891 11Z" fill="#34D399"/>
<path d="M918 0H897V21H918V0Z" fill="#0F1454"/>
<path d="M854 0V21L875 0H854Z" fill="#0F1454"/>
<path d="M897 21H918L897 0V21Z" fill="#FFBB0C"/>
<path d="M844 0L833 10.5L843.996 21V0H844Z" fill="#34D399"/>
<path d="M854 0L844 10.5L854 21V0Z" fill="#34D399"/>
<path d="M939 0H918V21H939V0Z" fill="#34D399"/>
<path d="M928.5 0L918 10.5L928.5 21L939 10.5L928.5 0Z" fill="white"/>
<path d="M1040 0H1020V21H1040V0Z" fill="#34D399"/>
<path d="M1020 0H1000V21H1020V0Z" fill="#34D399"/>
<path d="M1000 0H979V21H1000V0Z" fill="#FFBB0C"/>
<path d="M1061 0H1040V21H1061V0Z" fill="#FFBB0C"/>
<path d="M1061 11L1050.5 0L1040 11H1061Z" fill="#34D399"/>
<path d="M1061 21L1050.5 11L1040 21H1061Z" fill="#34D399"/>
<path d="M992.064 18.4143C989.025 15.6525 989 11.0023 989 11.0023C989 11.0023 993.901 10.8239 996.936 13.5857C999.975 16.3476 1000 20.9977 1000 20.9977C1000 20.9977 995.099 21.1761 992.064 18.4143Z" fill="#0F1454"/>
<path d="M986.216 18.4143C988.978 15.6525 989 11.0023 989 11.0023C989 11.0023 984.546 10.8239 981.788 13.5857C979.026 16.3438 979 20.9977 979 20.9977C979 20.9977 983.454 21.1761 986.212 18.4143H986.216Z" fill="#0F1454"/>
<path d="M992.064 2.84431C989.025 5.88231 989 10.9974 989 10.9974C989 10.9974 993.901 11.1937 996.936 8.15569C999.971 5.12178 1000 0.00256956 1000 0.00256956C1000 0.00256956 995.099 -0.193694 992.064 2.84431Z" fill="#0F1454"/>
<path d="M986.216 2.8442C988.978 5.88224 989 10.9974 989 10.9974C989 10.9974 984.546 11.1937 981.788 8.15566C979.026 5.12171 979 0.00242966 979 0.00242966C979 0.00242966 983.454 -0.189748 986.216 2.8442Z" fill="#0F1454"/>
<path d="M1030 21C1024.48 21 1020 16.2986 1020 10.5C1020 4.70138 1024.48 0 1030 0H1040V21H1030Z" fill="#0F1454"/>
<path fill-rule="evenodd" clip-rule="evenodd" d="M1020 10.5C1014.48 10.5 1010 5.79862 1010 0C1010 5.79862 1005.52 10.5 1000 10.5C1005.52 10.5 1010 15.2014 1010 21C1010 15.2014 1014.48 10.5 1020 10.5Z" fill="#0F1454"/>
<path d="M1122 0H1102V21H1122V0Z" fill="#34D399"/>
<path d="M1102 0H1081V21H1102V0Z" fill="#34D399"/>
<path d="M1081 0H1061V21H1081V0Z" fill="#FFBB0C"/>
<path d="M1143 0H1122V21H1143V0Z" fill="#FFBB0C"/>
<path d="M1143 11L1132.5 0L1122 11H1143Z" fill="#34D399"/>
<path d="M1143 21L1132.5 11L1122 21H1143Z" fill="#34D399"/>
<path d="M1073.79 18.4143C1071.02 15.6525 1071 11.0023 1071 11.0023C1071 11.0023 1075.46 10.8239 1078.21 13.5857C1080.98 16.3476 1081 20.9977 1081 20.9977C1081 20.9977 1076.54 21.1761 1073.79 18.4143Z" fill="#0F1454"/>
<path d="M1068.22 18.4143C1070.98 15.6525 1071 11.0023 1071 11.0023C1071 11.0023 1066.55 10.8239 1063.79 13.5857C1061.03 16.3438 1061 20.9977 1061 20.9977C1061 20.9977 1065.45 21.1761 1068.21 18.4143H1068.22Z" fill="#0F1454"/>
<path d="M1073.79 2.84431C1071.02 5.88231 1071 10.9974 1071 10.9974C1071 10.9974 1075.46 11.1937 1078.21 8.15569C1080.97 5.12178 1081 0.00256956 1081 0.00256956C1081 0.00256956 1076.54 -0.193694 1073.79 2.84431Z" fill="#0F1454"/>
<path d="M1068.22 2.8442C1070.98 5.88224 1071 10.9974 1071 10.9974C1071 10.9974 1066.55 11.1937 1063.79 8.15566C1061.03 5.12171 1061 0.00242966 1061 0.00242966C1061 0.00242966 1065.45 -0.189748 1068.22 2.8442Z" fill="#0F1454"/>
<path d="M1112 21C1106.48 21 1102 16.2986 1102 10.5C1102 4.70138 1106.48 0 1112 0H1122V21H1112Z" fill="#0F1454"/>
<path fill-rule="evenodd" clip-rule="evenodd" d="M1102 10.5C1096.2 10.5 1091.5 5.79862 1091.5 0C1091.5 5.79862 1086.8 10.5 1081 10.5C1086.8 10.5 1091.5 15.2014 1091.5 21C1091.5 15.2014 1096.2 10.5 1102 10.5Z" fill="#0F1454"/>
<path d="M1290 0H1269V21H1290V0Z" fill="#34D399"/>
<path d="M1269 0H1247V21H1269V0Z" fill="#0F1454"/>
<path d="M1269 0V21L1290 0H1269Z" fill="#0F1454"/>
<path d="M1258 0L1247 10.5L1258 21V0Z" fill="#34D399"/>
<path d="M1269 0L1258 10.5L1269 21V0Z" fill="#FFBB0C"/>
<path d="M1207 0H1185V21H1207V0Z" fill="#34D399"/>
<path d="M1185 0H1164V21H1185V0Z" fill="#FFBB0C"/>
<path d="M1164 0H1143V21H1164V0Z" fill="#0F1454"/>
<path fill-rule="evenodd" clip-rule="evenodd" d="M1196 18.2003C1200.45 18.2003 1204.06 14.7523 1204.06 10.5C1204.06 6.24768 1200.45 2.79974 1196 2.79974C1191.54 2.79974 1187.93 6.24768 1187.93 10.5C1187.93 14.7523 1191.54 18.2003 1196 18.2003ZM1207 10.5C1207 16.2986 1202.07 21 1196 21C1189.93 21 1185 16.2986 1185 10.5C1185 4.70138 1189.93 0 1196 0C1202.07 0 1207 4.70138 1207 10.5Z" fill="#0F1454"/>
<path fill-rule="evenodd" clip-rule="evenodd" d="M1195.5 13.9979C1197.02 13.9979 1198.25 12.6543 1198.25 11C1198.25 9.3457 1197.02 8.0021 1195.5 8.0021C1193.98 8.0021 1192.75 9.3457 1192.75 11C1192.75 12.6543 1193.98 13.9979 1195.5 13.9979ZM1201 11C1201 14.3128 1198.54 17 1195.5 17C1192.46 17 1190 14.3128 1190 11C1190 7.6872 1192.46 5 1195.5 5C1198.54 5 1201 7.6872 1201 11Z" fill="#34D399"/>
<path d="M1228 0H1207V21H1228V0Z" fill="#0F1454"/>
<path d="M1164 0V21L1185 0H1164Z" fill="#0F1454"/>
<path d="M1207 21H1228L1207 0V21Z" fill="#FFBB0C"/>
<path d="M1154 0L1143 10.5L1154 21V0H1154Z" fill="#34D399"/>
<path d="M1164 0L1154 10.5L1164 21V0Z" fill="#34D399"/>
<path d="M1249 0H1228V21H1249V0Z" fill="#34D399"/>
<path d="M1238.5 0L1228 10.5L1238.5 21L1249 10.5L1238.5 0Z" fill="white"/>
<path d="M1350 0H1330V21H1350V0Z" fill="#34D399"/>
<path d="M1330 0H1310V21H1330V0Z" fill="#34D399"/>
<path d="M1310 0H1289V21H1310V0Z" fill="#FFBB0C"/>
<path d="M1371 0H1350V21H1371V0Z" fill="#FFBB0C"/>
<path d="M1371 11L1360.5 0L1350 11H1371Z" fill="#34D399"/>
<path d="M1371 21L1360.5 11L1350 21H1371Z" fill="#34D399"/>
<path d="M1302.06 18.4143C1299.02 15.6525 1299 11.0023 1299 11.0023C1299 11.0023 1303.9 10.8239 1306.94 13.5857C1309.98 16.3476 1310 20.9977 1310 20.9977C1310 20.9977 1305.1 21.1761 1302.06 18.4143Z" fill="#0F1454"/>
<path d="M1296.22 18.4143C1298.98 15.6525 1299 11.0023 1299 11.0023C1299 11.0023 1294.55 10.8239 1291.79 13.5857C1289.03 16.3438 1289 20.9977 1289 20.9977C1289 20.9977 1293.45 21.1761 1296.21 18.4143H1296.22Z" fill="#0F1454"/>
<path d="M1302.06 2.84431C1299.02 5.88231 1299 10.9974 1299 10.9974C1299 10.9974 1303.9 11.1937 1306.94 8.15569C1309.97 5.12178 1310 0.00256956 1310 0.00256956C1310 0.00256956 1305.1 -0.193694 1302.06 2.84431Z" fill="#0F1454"/>
<path d="M1296.22 2.8442C1298.98 5.88224 1299 10.9974 1299 10.9974C1299 10.9974 1294.55 11.1937 1291.79 8.15566C1289.03 5.12171 1289 0.00242966 1289 0.00242966C1289 0.00242966 1293.45 -0.189748 1296.22 2.8442Z" fill="#0F1454"/>
<path d="M1340 21C1334.48 21 1330 16.2986 1330 10.5C1330 4.70138 1334.48 0 1340 0H1350V21H1340Z" fill="#0F1454"/>
<path fill-rule="evenodd" clip-rule="evenodd" d="M1330 10.5C1324.48 10.5 1320 5.79862 1320 0C1320 5.79862 1315.52 10.5 1310 10.5C1315.52 10.5 1320 15.2014 1320 21C1320 15.2014 1324.48 10.5 1330 10.5Z" fill="#0F1454"/>
<path d="M1435 0H1413V21H1435V0Z" fill="#34D399"/>
<path d="M1413 0H1392V21H1413V0Z" fill="#FFBB0C"/>
<path d="M1392 0H1371V21H1392V0Z" fill="#0F1454"/>
<path fill-rule="evenodd" clip-rule="evenodd" d="M1424 18.2003C1428.45 18.2003 1432.06 14.7523 1432.06 10.5C1432.06 6.24768 1428.45 2.79974 1424 2.79974C1419.54 2.79974 1415.93 6.24768 1415.93 10.5C1415.93 14.7523 1419.54 18.2003 1424 18.2003ZM1435 10.5C1435 16.2986 1430.07 21 1424 21C1417.93 21 1413 16.2986 1413 10.5C1413 4.70138 1417.93 0 1424 0C1430.07 0 1435 4.70138 1435 10.5Z" fill="#0F1454"/>
<path fill-rule="evenodd" clip-rule="evenodd" d="M1423.5 13.9979C1425.02 13.9979 1426.25 12.6543 1426.25 11C1426.25 9.3457 1425.02 8.0021 1423.5 8.0021C1421.98 8.0021 1420.75 9.3457 1420.75 11C1420.75 12.6543 1421.98 13.9979 1423.5 13.9979ZM1429 11C1429 14.3128 1426.54 17 1423.5 17C1420.46 17 1418 14.3128 1418 11C1418 7.6872 1420.46 5 1423.5 5C1426.54 5 1429 7.6872 1429 11Z" fill="#34D399"/>
<path d="M1456 0H1435V21H1456V0Z" fill="#0F1454"/>
<path d="M1392 0V21L1413 0H1392Z" fill="#0F1454"/>
<path d="M1435 21H1456L1435 0V21Z" fill="#FFBB0C"/>
<path d="M1382 0L1371 10.5L1382 21V0H1382Z" fill="#34D399"/>
<path d="M1392 0L1382 10.5L1392 21V0Z" fill="#34D399"/>
</svg>
