<svg width="64" height="64" viewBox="0 0 64 64" fill="none" xmlns="http://www.w3.org/2000/svg">
<path fill-rule="evenodd" clip-rule="evenodd" d="M33.1743 33.6914C32.2413 33.6914 31.483 32.933 31.483 32C31.483 31.067 32.2413 30.3086 33.1743 30.3086C34.1073 30.3086 34.8657 31.067 34.8657 32C34.8657 32.933 34.1073 33.6914 33.1743 33.6914ZM29.945 32C29.945 33.7851 31.3892 35.2293 33.1743 35.2293C34.9594 35.2293 36.4037 33.7851 36.4037 32C36.4037 30.2149 34.9594 28.7706 33.1743 28.7706C31.3892 28.7706 29.945 30.2149 29.945 32Z" fill="#FFBB0C"/>
<path d="M8.2016e-05 0H21.7249V21.1376H8.2016e-05V0Z" fill="#34D399"/>
<path d="M21.7247 0H42.8623V21.1376H21.7247V0Z" fill="#FFBB0C"/>
<path d="M29.3497 18.4048C32.27 15.4859 32.2936 10.5713 32.2936 10.5713C32.2936 10.5713 27.585 10.3827 24.6686 13.3017C21.7484 16.2206 21.7248 21.1352 21.7248 21.1352C21.7248 21.1352 26.4334 21.3238 29.3497 18.4048Z" fill="white"/>
<path d="M35.2374 18.4048C32.3171 15.4859 32.2935 10.5713 32.2935 10.5713C32.2935 10.5713 37.0021 10.3827 39.9184 13.3017C42.8387 16.2206 42.8623 21.1352 42.8623 21.1352C42.8623 21.1352 38.1537 21.3238 35.2374 18.4048Z" fill="white"/>
<path d="M29.3497 2.73281C32.27 5.65172 32.2936 10.5663 32.2936 10.5663C32.2936 10.5663 27.585 10.7549 24.6686 7.836C21.7484 4.92101 21.7248 0.00246884 21.7248 0.00246884C21.7248 0.00246884 26.4334 -0.186102 29.3497 2.73281Z" fill="white"/>
<path d="M35.2363 2.73281C32.3171 5.65172 32.2935 10.5663 32.2935 10.5663C32.2935 10.5663 37.0003 10.7549 39.9156 7.836C42.8348 4.92101 42.8623 0.00246884 42.8623 0.00246884C42.8623 0.00246884 38.1555 -0.186102 35.2402 2.73281H35.2363Z" fill="white"/>
<path fill-rule="evenodd" clip-rule="evenodd" d="M8.2016e-05 10.5688C5.99883 10.5688 10.8625 5.83662 10.8625 0C10.8625 5.83662 15.7261 10.5688 21.7249 10.5688C15.7261 10.5688 10.8625 15.301 10.8625 21.1376C10.8625 15.301 5.99883 10.5688 8.2016e-05 10.5688Z" fill="#0F1454"/>
<path d="M42.8624 21.1376H64V42.8623H42.8624V21.1376Z" fill="#0F1454"/>
<path fill-rule="evenodd" clip-rule="evenodd" d="M53.4312 39.966C49.151 39.966 45.6805 36.399 45.6805 32C45.6805 27.6009 49.151 24.0339 53.4312 24.0339C57.7114 24.0339 61.1819 27.6009 61.1819 32C61.1819 36.399 57.7114 39.966 53.4312 39.966ZM42.8624 32C42.8624 37.9987 47.5946 42.8623 53.4312 42.8623C59.2678 42.8623 64 37.9987 64 32C64 26.0012 59.2678 21.1376 53.4312 21.1376C47.5946 21.1376 42.8624 26.0012 42.8624 32Z" fill="#FFBB0C"/>
<path fill-rule="evenodd" clip-rule="evenodd" d="M53.1376 34.787C51.5996 34.787 50.3506 33.5379 50.3506 32C50.3506 30.462 51.5996 29.2129 53.1376 29.2129C54.6755 29.2129 55.9246 30.462 55.9246 32C55.9246 33.5379 54.6755 34.787 53.1376 34.787ZM47.5596 32C47.5596 35.0798 50.0578 37.578 53.1376 37.578C56.2174 37.578 58.7156 35.0798 58.7156 32C58.7156 28.9202 56.2174 26.422 53.1376 26.422C50.0578 26.422 47.5596 28.9202 47.5596 32Z" fill="white"/>
<path d="M42.8624 0H64V21.1376H42.8624V0Z" fill="#0F1454"/>
<path d="M64 21.1376H42.8624L64 0V21.1376Z" fill="#FFBB0C"/>
<path d="M42.8624 42.8624H64V64H42.8624V42.8624Z" fill="#34D399"/>
<path d="M53.4312 42.8624L64 53.4312L53.4312 64L42.8624 53.4312L53.4312 42.8624Z" fill="#0F1454"/>
</svg>
