<svg width="18" height="16" viewBox="0 0 18 16" fill="none" xmlns="http://www.w3.org/2000/svg">
<path d="M15.2501 8.51514L9.00009 14.7051L2.75009 8.51514C2.33784 8.11399 2.01312 7.63182 1.79638 7.09901C1.57963 6.56619 1.47556 5.99427 1.4907 5.41925C1.50585 4.84424 1.63989 4.27859 1.88439 3.75792C2.12888 3.23726 2.47853 2.77286 2.91133 2.39396C3.34412 2.01507 3.85068 1.72988 4.3991 1.55638C4.94752 1.38287 5.52593 1.3248 6.09789 1.38581C6.66986 1.44683 7.223 1.62561 7.72248 1.9109C8.22196 2.19619 8.65696 2.58181 9.00009 3.04348C9.3447 2.58516 9.7802 2.20291 10.2793 1.92065C10.7785 1.63838 11.3305 1.46219 11.9009 1.40308C12.4712 1.34397 13.0477 1.40323 13.5941 1.57714C14.1405 1.75105 14.6451 2.03587 15.0764 2.41378C15.5077 2.79169 15.8563 3.25455 16.1004 3.77339C16.3446 4.29223 16.479 4.85588 16.4953 5.42907C16.5117 6.00225 16.4095 6.57264 16.1952 7.10452C15.9809 7.6364 15.6592 8.11833 15.2501 8.52014" stroke="#64748B" stroke-width="1.5" stroke-linecap="round" stroke-linejoin="round"/>
</svg>
