<svg width="12" height="11" viewBox="0 0 12 11" fill="none" xmlns="http://www.w3.org/2000/svg">
<path d="M6.6501 2.72219H6.65565M4.4279 9.38878H2.20571C1.76369 9.38878 1.33977 9.21319 1.02721 8.90063C0.714655 8.58807 0.539063 8.16415 0.539062 7.72213V2.16665C0.539062 1.72462 0.714655 1.30071 1.02721 0.988149C1.33977 0.675593 1.76369 0.5 2.20571 0.5H7.76119C8.20322 0.5 8.62713 0.675593 8.93969 0.988149C9.25225 1.30071 9.42784 1.72462 9.42784 2.16665V4.38884M0.539062 6.61094L2.76126 4.38874C3.27681 3.89264 3.91235 3.89264 4.4279 4.38874L6.09455 6.05539L6.6501 5.49983C6.82232 5.33428 7.00787 5.22372 7.19842 5.16872M8.55007 6.95004C8.65841 6.8417 8.78703 6.75577 8.92858 6.69713C9.07013 6.6385 9.22185 6.60832 9.37506 6.60832C9.52828 6.60832 9.67999 6.6385 9.82154 6.69713C9.9631 6.75577 10.0917 6.8417 10.2001 6.95004C10.3084 7.05838 10.3943 7.187 10.453 7.32855C10.5116 7.4701 10.5418 7.62182 10.5418 7.77503C10.5418 7.92825 10.5116 8.07996 10.453 8.22151C10.3943 8.36307 10.3084 8.49168 10.2001 8.60002L8.31674 10.5H6.6501V8.83335L8.55007 6.95004Z" stroke="white" stroke-linecap="round" stroke-linejoin="round"/>
</svg>
