<svg width="17" height="17" viewBox="0 0 17 17" fill="none" xmlns="http://www.w3.org/2000/svg">
<path d="M4.91667 5.49967H11.5833M4.91667 8.83301H9.91667M5.75 12.9997H3.25C2.58696 12.9997 1.95107 12.7363 1.48223 12.2674C1.01339 11.7986 0.75 11.1627 0.75 10.4997V3.83301C0.75 3.16997 1.01339 2.53408 1.48223 2.06524C1.95107 1.5964 2.58696 1.33301 3.25 1.33301H13.25C13.913 1.33301 14.5489 1.5964 15.0178 2.06524C15.4866 2.53408 15.75 3.16997 15.75 3.83301V10.4997C15.75 11.1627 15.4866 11.7986 15.0178 12.2674C14.5489 12.7363 13.913 12.9997 13.25 12.9997H10.75L8.25 15.4997L5.75 12.9997Z" stroke="#354052" stroke-width="1.5" stroke-linecap="round" stroke-linejoin="round"/>
</svg>
