<svg width="16" height="18" viewBox="0 0 16 18" fill="none" xmlns="http://www.w3.org/2000/svg">
<path d="M5.49992 13.1676V14.001C5.49992 14.664 5.76331 15.2999 6.23215 15.7687C6.70099 16.2376 7.33688 16.501 7.99992 16.501C8.66296 16.501 9.29884 16.2376 9.76769 15.7687C10.2365 15.2999 10.4999 14.664 10.4999 14.001V13.1676M6.33325 3.16764C6.33325 2.72562 6.50885 2.30169 6.82141 1.98913C7.13397 1.67657 7.55789 1.50098 7.99992 1.50098C8.44195 1.50098 8.86587 1.67657 9.17843 1.98913C9.49099 2.30169 9.66658 2.72562 9.66658 3.16764C10.6236 3.62017 11.4394 4.32458 12.0266 5.20539C12.6138 6.0862 12.9503 7.1102 12.9999 8.16764V10.6676C13.0626 11.1857 13.2461 11.6819 13.5356 12.1161C13.8251 12.5503 14.2125 12.9105 14.6666 13.1676H1.33325C1.78737 12.9105 2.17476 12.5503 2.46424 12.1161C2.75372 11.6819 2.93721 11.1857 2.99992 10.6676V8.16764C3.04955 7.1102 3.386 6.0862 3.97321 5.20539C4.56042 4.32458 5.37624 3.62017 6.33325 3.16764Z" stroke="#354052" stroke-width="1.5" stroke-linecap="round" stroke-linejoin="round"/>
</svg>
