<svg width="23" height="23" viewBox="0 0 23 23" fill="none" xmlns="http://www.w3.org/2000/svg">
<path fill-rule="evenodd" clip-rule="evenodd" d="M4.31954 11.0958C4.31954 7.38612 7.32679 4.37887 11.0364 4.37887C14.7461 4.37887 17.7533 7.38612 17.7533 11.0958C17.7533 12.9047 17.0382 14.5467 15.8753 15.7543C15.8419 15.7803 15.8098 15.8085 15.7792 15.8392C15.7486 15.8698 15.7203 15.9018 15.6944 15.9351C14.4868 17.0978 12.8451 17.8126 11.0364 17.8126C7.32679 17.8126 4.31954 14.8054 4.31954 11.0958ZM16.465 17.9675C14.9727 19.1479 13.0869 19.8526 11.0364 19.8526C6.20013 19.8526 2.27954 15.9321 2.27954 11.0958C2.27954 6.25946 6.20013 2.33887 11.0364 2.33887C15.8727 2.33887 19.7933 6.25946 19.7933 11.0958C19.7933 13.1465 19.0884 15.0327 17.9075 16.525L21.4286 20.0461C21.827 20.4445 21.827 21.0903 21.4286 21.4886C21.0303 21.8869 20.3845 21.8869 19.9861 21.4886L16.465 17.9675Z" fill="#64748B"/>
</svg>
