<svg width="168" height="168" viewBox="0 0 168 168" fill="none" xmlns="http://www.w3.org/2000/svg">
<path d="M2 146.259C3.10457 146.259 4 145.363 4 144.259C4 143.154 3.10457 142.259 2 142.259C0.89543 142.259 0 143.154 0 144.259C0 145.363 0.89543 146.259 2 146.259Z" fill="#0F1454"/>
<path d="M11 142.259H8C7.46957 142.259 6.96086 142.47 6.58579 142.845C6.21071 143.22 6 143.729 6 144.259C6 144.79 6.21071 145.298 6.58579 145.673C6.96086 146.049 7.46957 146.259 8 146.259H11C11.5304 146.259 12.0391 146.049 12.4142 145.673C12.7893 145.298 13 144.79 13 144.259C13 143.729 12.7893 143.22 12.4142 142.845C12.0391 142.47 11.5304 142.259 11 142.259Z" fill="#0F1454"/>
<path d="M160 142.259H157C156.47 142.259 155.961 142.47 155.586 142.845C155.211 143.22 155 143.729 155 144.259C155 144.79 155.211 145.298 155.586 145.673C155.961 146.049 156.47 146.259 157 146.259H160C160.53 146.259 161.039 146.049 161.414 145.673C161.789 145.298 162 144.79 162 144.259C162 143.729 161.789 143.22 161.414 142.845C161.039 142.47 160.53 142.259 160 142.259Z" fill="#0F1454"/>
<path d="M166 146.259C167.105 146.259 168 145.363 168 144.259C168 143.154 167.105 142.259 166 142.259C164.895 142.259 164 143.154 164 144.259C164 145.363 164.895 146.259 166 146.259Z" fill="#0F1454"/>
<path d="M118.154 150.259H109.846C109.343 150.3 108.874 150.528 108.532 150.898C108.19 151.269 108 151.755 108 152.259C108 152.764 108.19 153.25 108.532 153.62C108.874 153.991 109.343 154.219 109.846 154.259H118.154C118.657 154.219 119.126 153.991 119.468 153.62C119.81 153.25 120 152.764 120 152.259C120 151.755 119.81 151.269 119.468 150.898C119.126 150.528 118.657 150.3 118.154 150.259Z" fill="#34D399"/>
<path d="M58.1539 150.259H49.8462C49.3434 150.3 48.8742 150.528 48.5321 150.898C48.19 151.269 48 151.755 48 152.259C48 152.764 48.19 153.25 48.5321 153.62C48.8742 153.991 49.3434 154.219 49.8462 154.259H58.1539C58.6567 154.219 59.1258 153.991 59.468 153.62C59.8101 153.25 60.0001 152.764 60.0001 152.259C60.0001 151.755 59.8101 151.269 59.468 150.898C59.1258 150.528 58.6567 150.3 58.1539 150.259Z" fill="#34D399"/>
<path d="M104 150.259H64C63.4696 150.259 62.9609 150.47 62.5858 150.845C62.2107 151.22 62 151.729 62 152.259C62 152.79 62.2107 153.298 62.5858 153.673C62.9609 154.049 63.4696 154.259 64 154.259H79.94V156.259H72C71.4696 156.259 70.9609 156.47 70.5858 156.845C70.2107 157.22 70 157.729 70 158.259C70 158.79 70.2107 159.298 70.5858 159.673C70.9609 160.049 71.4696 160.259 72 160.259H97C97.5304 160.259 98.0391 160.049 98.4142 159.673C98.7893 159.298 99 158.79 99 158.259C99 157.729 98.7893 157.22 98.4142 156.845C98.0391 156.47 97.5304 156.259 97 156.259H88.06V154.259H104C104.53 154.259 105.039 154.049 105.414 153.673C105.789 153.298 106 152.79 106 152.259C106 151.729 105.789 151.22 105.414 150.845C105.039 150.47 104.53 150.259 104 150.259Z" fill="#34D399"/>
<path d="M2 146.259C3.10457 146.259 4 145.363 4 144.259C4 143.154 3.10457 142.259 2 142.259C0.89543 142.259 0 143.154 0 144.259C0 145.363 0.89543 146.259 2 146.259Z" fill="#0F1454"/>
<path d="M11 142.259H8C7.46957 142.259 6.96086 142.47 6.58579 142.845C6.21071 143.22 6 143.729 6 144.259C6 144.79 6.21071 145.298 6.58579 145.673C6.96086 146.049 7.46957 146.259 8 146.259H11C11.5304 146.259 12.0391 146.049 12.4142 145.673C12.7893 145.298 13 144.79 13 144.259C13 143.729 12.7893 143.22 12.4142 142.845C12.0391 142.47 11.5304 142.259 11 142.259Z" fill="#0F1454"/>
<path d="M160 142.259H157C156.47 142.259 155.961 142.47 155.586 142.845C155.211 143.22 155 143.729 155 144.259C155 144.79 155.211 145.298 155.586 145.673C155.961 146.049 156.47 146.259 157 146.259H160C160.53 146.259 161.039 146.049 161.414 145.673C161.789 145.298 162 144.79 162 144.259C162 143.729 161.789 143.22 161.414 142.845C161.039 142.47 160.53 142.259 160 142.259Z" fill="#0F1454"/>
<path d="M166 146.259C167.105 146.259 168 145.363 168 144.259C168 143.154 167.105 142.259 166 142.259C164.895 142.259 164 143.154 164 144.259C164 145.363 164.895 146.259 166 146.259Z" fill="#0F1454"/>
<path d="M118.154 150.259H109.846C109.343 150.3 108.874 150.528 108.532 150.898C108.19 151.269 108 151.755 108 152.259C108 152.764 108.19 153.25 108.532 153.62C108.874 153.991 109.343 154.219 109.846 154.259H118.154C118.657 154.219 119.126 153.991 119.468 153.62C119.81 153.25 120 152.764 120 152.259C120 151.755 119.81 151.269 119.468 150.898C119.126 150.528 118.657 150.3 118.154 150.259Z" fill="#34D399"/>
<path d="M58.1539 150.259H49.8462C49.3434 150.3 48.8742 150.528 48.5321 150.898C48.19 151.269 48 151.755 48 152.259C48 152.764 48.19 153.25 48.5321 153.62C48.8742 153.991 49.3434 154.219 49.8462 154.259H58.1539C58.6567 154.219 59.1258 153.991 59.468 153.62C59.8101 153.25 60.0001 152.764 60.0001 152.259C60.0001 151.755 59.8101 151.269 59.468 150.898C59.1258 150.528 58.6567 150.3 58.1539 150.259Z" fill="#34D399"/>
<path d="M104 150.259H64C63.4696 150.259 62.9609 150.47 62.5858 150.845C62.2107 151.22 62 151.729 62 152.259C62 152.79 62.2107 153.298 62.5858 153.673C62.9609 154.049 63.4696 154.259 64 154.259H79.94V156.259H72C71.4696 156.259 70.9609 156.47 70.5858 156.845C70.2107 157.22 70 157.729 70 158.259C70 158.79 70.2107 159.298 70.5858 159.673C70.9609 160.049 71.4696 160.259 72 160.259H97C97.5304 160.259 98.0391 160.049 98.4142 159.673C98.7893 159.298 99 158.79 99 158.259C99 157.729 98.7893 157.22 98.4142 156.845C98.0391 156.47 97.5304 156.259 97 156.259H88.06V154.259H104C104.53 154.259 105.039 154.049 105.414 153.673C105.789 153.298 106 152.79 106 152.259C106 151.729 105.789 151.22 105.414 150.845C105.039 150.47 104.53 150.259 104 150.259Z" fill="#34D399"/>
<path d="M61.706 77.2567C61.4306 76.8985 61.0867 76.5987 60.6944 76.3745C60.3021 76.1504 59.8691 76.0064 59.4207 75.951C58.9723 75.8956 58.5173 75.9298 58.0822 76.0517C57.6471 76.1736 57.2406 76.3807 56.8862 76.661L51.3008 81.0838C50.593 81.65 50.1358 82.4714 50.0277 83.3713C49.9196 84.2712 50.1691 85.1776 50.7227 85.8953L63.9082 102.929C64.1842 103.288 64.5293 103.589 64.9231 103.813C65.317 104.037 65.7517 104.18 66.2017 104.234C66.3407 104.251 66.4806 104.26 66.6206 104.26C67.386 104.26 68.1288 104 68.7275 103.523L70.2537 102.315C71.8029 103.319 73.6089 103.855 75.4551 103.858C76.7522 103.866 78.0364 103.6 79.2228 103.075C80.4092 102.55 81.4708 101.78 82.3374 100.815C83.1294 99.9281 83.7357 98.8917 84.1206 97.7667C84.5054 96.6418 84.661 95.4511 84.5781 94.2651C84.4579 92.4029 83.778 90.6205 82.6274 89.1515L108.329 73.9593L108.336 73.9549C108.751 73.7065 109.108 73.3729 109.385 72.9762C109.661 72.5796 109.85 72.1288 109.939 71.6536C110.031 71.1691 110.018 70.6708 109.902 70.1915C109.787 69.7122 109.571 69.263 109.269 68.8733L94.3516 49.6022C94.0494 49.2103 93.6664 48.888 93.2286 48.6571C92.7909 48.4263 92.3086 48.2923 91.8145 48.2643C91.3275 48.2364 90.8402 48.3142 90.3861 48.4923C89.932 48.6704 89.5218 48.9446 89.1836 49.2961L61.9746 77.6036L61.706 77.2567ZM66.7124 100.017L54.2178 83.8763L58.9009 80.1678L71.396 96.3085L66.7124 100.017ZM79.3491 98.1557C78.6507 98.9171 77.7447 99.4574 76.7428 99.7101C75.7409 99.9628 74.687 99.9168 73.711 99.5777L74.3135 99.1005C75.0209 98.5341 75.4778 97.7126 75.5857 96.8127C75.6936 95.9129 75.444 95.0067 74.8906 94.289L74.5909 93.9018L79.1107 91.2301C79.9729 92.1225 80.4952 93.2888 80.5869 94.5263C80.6335 95.1832 80.5479 95.8429 80.3353 96.4662C80.1227 97.0896 79.7874 97.664 79.3491 98.1557ZM91.5879 52.5665L105.737 70.845L72.1235 90.7138L64.4497 80.8006L91.5879 52.5665Z" fill="#34D399"/>
<path d="M105.636 55.758C105.78 55.977 105.967 56.1654 106.185 56.3124C106.402 56.4594 106.647 56.5621 106.904 56.6146C107.161 56.6671 107.426 56.6684 107.684 56.6184C107.942 56.5685 108.187 56.4682 108.406 56.3234L117.878 50.0616C118.319 49.7686 118.626 49.3126 118.731 48.7936C118.837 48.2747 118.732 47.7351 118.44 47.2933C118.148 46.8515 117.693 46.5435 117.174 46.4369C116.655 46.3303 116.115 46.4338 115.673 46.7247L106.201 52.9864C105.982 53.1313 105.794 53.3178 105.646 53.5355C105.499 53.7532 105.397 53.9977 105.344 54.2551C105.292 54.5124 105.29 54.7776 105.34 55.0355C105.39 55.2934 105.491 55.5389 105.636 55.758Z" fill="#0F1454"/>
<path d="M102.622 50.8646C102.88 50.9147 103.145 50.9134 103.403 50.8607C103.66 50.8081 103.904 50.7052 104.122 50.5579C104.34 50.4106 104.526 50.2219 104.67 50.0024C104.815 49.783 104.915 49.5372 104.964 49.2791L107.014 38.637C107.112 38.1168 107.001 37.5787 106.703 37.1407C106.406 36.7027 105.947 36.4005 105.427 36.3003C104.907 36.2001 104.369 36.3102 103.93 36.6063C103.491 36.9025 103.188 37.3606 103.086 37.8801L101.036 48.5223C100.986 48.7802 100.988 49.0454 101.041 49.3027C101.094 49.5601 101.197 49.8045 101.344 50.022C101.491 50.2395 101.68 50.4258 101.899 50.5704C102.118 50.715 102.364 50.815 102.622 50.8646Z" fill="#0F1454"/>
<path d="M109.679 60.1609C109.596 60.6848 109.725 61.22 110.037 61.6489C110.349 62.0777 110.819 62.365 111.343 62.4476L122.688 64.2342C122.792 64.2506 122.898 64.259 123.003 64.2591C123.506 64.2583 123.99 64.0678 124.359 63.7258C124.728 63.3838 124.955 62.9152 124.994 62.4136C125.033 61.912 124.881 61.4141 124.569 61.0192C124.258 60.6243 123.808 60.3615 123.311 60.283L111.966 58.4964C111.442 58.4141 110.907 58.5432 110.478 58.8553C110.049 59.1675 109.761 59.6371 109.679 60.1609Z" fill="#0F1454"/>
<path d="M150.721 142.259L91 142.259V135.259H142C143.591 135.257 145.116 134.625 146.241 133.5C147.366 132.375 147.998 130.85 148 129.259V71.2588C147.998 69.668 147.366 68.1429 146.241 67.0181C145.116 65.8932 143.591 65.2605 142 65.2588H111.529L112.432 66.4243C113.081 67.2622 113.544 68.2283 113.792 69.2588H142C142.53 69.2594 143.039 69.4703 143.414 69.8452C143.788 70.2202 143.999 70.7285 144 71.2588V129.259C143.999 129.789 143.788 130.298 143.414 130.673C143.039 131.048 142.53 131.258 142 131.259H26C25.4697 131.259 24.9613 131.048 24.5864 130.673C24.2114 130.298 24.0005 129.789 24 129.259V71.2588C24.0005 70.7285 24.2114 70.2201 24.5864 69.8452C24.9613 69.4702 25.4697 69.2593 26 69.2588H64.447L68.2918 65.2588H26C24.4092 65.2605 22.8841 65.8932 21.7593 67.0181C20.6344 68.1429 20.0017 69.668 20 71.2588V129.259C20.0017 130.85 20.6344 132.375 21.7593 133.5C22.8841 134.625 24.4092 135.257 26 135.259H77V142.259L17.2787 142.259C16.9942 142.222 16.705 142.246 16.4305 142.329C16.1559 142.413 15.9024 142.554 15.6867 142.743C15.4711 142.933 15.2983 143.166 15.18 143.427C15.0616 143.689 15.0004 143.972 15.0004 144.259C15.0004 144.546 15.0616 144.83 15.18 145.091C15.2983 145.353 15.4711 145.586 15.6867 145.775C15.9024 145.964 16.1559 146.105 16.4305 146.189C16.705 146.272 16.9942 146.296 17.2787 146.259H150.721C151.006 146.296 151.295 146.272 151.57 146.189C151.844 146.105 152.098 145.964 152.313 145.775C152.529 145.586 152.702 145.353 152.82 145.091C152.938 144.83 153 144.546 153 144.259C153 143.972 152.938 143.689 152.82 143.427C152.702 143.166 152.529 142.933 152.313 142.743C152.098 142.554 151.844 142.413 151.57 142.329C151.295 142.246 151.006 142.222 150.721 142.259ZM81 135.259H87V142.259H81V135.259Z" fill="#0F1454"/>
<path d="M83.3047 18.2593C83.898 18.2593 84.478 18.0833 84.9714 17.7537C85.4647 17.424 85.8493 16.9555 86.0763 16.4073C86.3034 15.8592 86.3628 15.256 86.247 14.674C86.1313 14.0921 85.8456 13.5575 85.426 13.138C85.0065 12.7184 84.4719 12.4327 83.89 12.3169C83.308 12.2012 82.7048 12.2606 82.1566 12.4876C81.6085 12.7147 81.1399 13.0992 80.8103 13.5926C80.4806 14.0859 80.3047 14.6659 80.3047 15.2593C80.3056 16.0546 80.622 16.8172 81.1844 17.3796C81.7468 17.942 82.5093 18.2584 83.3047 18.2593ZM83.3047 13.7593C83.6014 13.7593 83.8914 13.8473 84.138 14.0121C84.3847 14.1769 84.577 14.4112 84.6905 14.6853C84.804 14.9593 84.8337 15.2609 84.7759 15.5519C84.718 15.8429 84.5751 16.1102 84.3653 16.3199C84.1556 16.5297 83.8883 16.6726 83.5973 16.7305C83.3063 16.7883 83.0047 16.7586 82.7307 16.6451C82.4566 16.5316 82.2223 16.3393 82.0575 16.0926C81.8927 15.846 81.8047 15.556 81.8047 15.2593C81.8051 14.8616 81.9632 14.4803 82.2445 14.1991C82.5257 13.9178 82.907 13.7597 83.3047 13.7593Z" fill="#0F1454"/>
<path d="M158.305 70.2593C157.909 70.2593 157.522 70.3766 157.194 70.5963C156.865 70.8161 156.608 71.1285 156.457 71.4939C156.306 71.8594 156.266 72.2615 156.343 72.6495C156.42 73.0374 156.611 73.3938 156.89 73.6735C157.17 73.9532 157.527 74.1437 157.915 74.2208C158.302 74.298 158.705 74.2584 159.07 74.107C159.436 73.9557 159.748 73.6993 159.968 73.3704C160.187 73.0415 160.305 72.6548 160.305 72.2593C160.304 71.729 160.093 71.2207 159.718 70.8457C159.343 70.4708 158.835 70.2599 158.305 70.2593ZM158.305 73.2593C158.107 73.2593 157.914 73.2006 157.749 73.0907C157.585 72.9809 157.456 72.8247 157.381 72.642C157.305 72.4592 157.285 72.2582 157.324 72.0642C157.362 71.8702 157.458 71.692 157.598 71.5522C157.737 71.4123 157.916 71.3171 158.11 71.2785C158.304 71.2399 158.505 71.2597 158.687 71.3354C158.87 71.4111 159.026 71.5393 159.136 71.7037C159.246 71.8682 159.305 72.0615 159.305 72.2593C159.304 72.5244 159.199 72.7786 159.011 72.9661C158.824 73.1536 158.57 73.259 158.305 73.2593Z" fill="#0F1454"/>
<path d="M66.3047 52.2593C65.9091 52.2593 65.5225 52.3766 65.1936 52.5963C64.8647 52.8161 64.6083 53.1285 64.4569 53.4939C64.3056 53.8594 64.2659 54.2615 64.3431 54.6495C64.4203 55.0374 64.6108 55.3938 64.8905 55.6735C65.1702 55.9532 65.5265 56.1437 65.9145 56.2208C66.3025 56.298 66.7046 56.2584 67.0701 56.107C67.4355 55.9557 67.7479 55.6993 67.9676 55.3704C68.1874 55.0415 68.3047 54.6548 68.3047 54.2593C68.3041 53.729 68.0932 53.2207 67.7182 52.8457C67.3433 52.4708 66.8349 52.2599 66.3047 52.2593ZM66.3047 55.2593C66.1069 55.2593 65.9136 55.2006 65.7491 55.0907C65.5847 54.9809 65.4565 54.8247 65.3808 54.642C65.3051 54.4592 65.2853 54.2582 65.3239 54.0642C65.3625 53.8702 65.4577 53.692 65.5976 53.5522C65.7374 53.4123 65.9156 53.3171 66.1096 53.2785C66.3036 53.2399 66.5046 53.2597 66.6874 53.3354C66.8701 53.4111 67.0263 53.5393 67.1362 53.7037C67.246 53.8682 67.3047 54.0615 67.3047 54.2593C67.3044 54.5244 67.199 54.7786 67.0115 54.9661C66.824 55.1536 66.5698 55.259 66.3047 55.2593Z" fill="#0F1454"/>
<path d="M129.305 39.2593C128.909 39.2593 128.522 39.3766 128.194 39.5963C127.865 39.8161 127.608 40.1285 127.457 40.4939C127.306 40.8594 127.266 41.2615 127.343 41.6495C127.42 42.0374 127.611 42.3938 127.89 42.6735C128.17 42.9532 128.527 43.1437 128.915 43.2208C129.302 43.298 129.705 43.2584 130.07 43.107C130.436 42.9557 130.748 42.6993 130.968 42.3704C131.187 42.0415 131.305 41.6548 131.305 41.2593C131.304 40.729 131.093 40.2207 130.718 39.8457C130.343 39.4708 129.835 39.2599 129.305 39.2593ZM129.305 42.2593C129.107 42.2593 128.914 42.2006 128.749 42.0907C128.585 41.9809 128.456 41.8247 128.381 41.642C128.305 41.4592 128.285 41.2582 128.324 41.0642C128.362 40.8702 128.458 40.692 128.598 40.5522C128.737 40.4123 128.916 40.3171 129.11 40.2785C129.304 40.2399 129.505 40.2597 129.687 40.3354C129.87 40.4111 130.026 40.5393 130.136 40.7037C130.246 40.8682 130.305 41.0615 130.305 41.2593C130.304 41.5244 130.199 41.7786 130.011 41.9661C129.824 42.1536 129.57 42.259 129.305 42.2593Z" fill="#0F1454"/>
<path d="M17.3047 29.2593C17.3047 28.8637 17.1874 28.477 16.9676 28.1481C16.7479 27.8192 16.4355 27.5629 16.0701 27.4115C15.7046 27.2601 15.3025 27.2205 14.9145 27.2977C14.5265 27.3749 14.1702 27.5654 13.8905 27.8451C13.6108 28.1248 13.4203 28.4811 13.3431 28.8691C13.2659 29.2571 13.3056 29.6592 13.4569 30.0246C13.6083 30.3901 13.8646 30.7025 14.1935 30.9222C14.5224 31.142 14.9091 31.2593 15.3047 31.2593C15.8349 31.2587 16.3433 31.0478 16.7182 30.6728C17.0932 30.2979 17.3041 29.7895 17.3047 29.2593ZM14.3047 29.2593C14.3047 29.0615 14.3633 28.8682 14.4732 28.7037C14.5831 28.5393 14.7393 28.4111 14.922 28.3354C15.1047 28.2597 15.3058 28.2399 15.4998 28.2785C15.6938 28.3171 15.8719 28.4123 16.0118 28.5522C16.1516 28.692 16.2469 28.8702 16.2855 29.0642C16.3241 29.2582 16.3043 29.4592 16.2286 29.642C16.1529 29.8247 16.0247 29.9809 15.8603 30.0907C15.6958 30.2006 15.5025 30.2593 15.3047 30.2593C15.0396 30.259 14.7854 30.1536 14.5979 29.9661C14.4104 29.7786 14.305 29.5244 14.3047 29.2593Z" fill="#0F1454"/>
<path d="M10.888 70.2712L12.375 68.3152L11.436 67.7832L10.481 69.9732H10.45L9.48001 67.7992L8.52501 68.3462L9.99601 70.2552V70.2872L7.69501 69.9892V71.0532L10.011 70.7562V70.7872L8.52501 72.6962L9.41601 73.2592L10.434 71.0532H10.465L11.404 73.2432L12.39 72.6802L10.888 70.8032V70.7712L13.25 71.0532V69.9892L10.888 70.3022V70.2712Z" fill="#34D399"/>
<path d="M41.081 39.3262L40.225 40.4252L40.739 40.7502L41.325 39.4792H41.342L41.883 40.7412L42.451 40.4162L41.586 39.3352V39.3172L42.946 39.4792V38.8662L41.586 39.0462V39.0292L42.442 37.9022L41.902 37.5962L41.352 38.8572H41.334L40.775 37.6052L40.225 37.9202L41.072 39.0202V39.0382L39.747 38.8662V39.4792L41.081 39.3082V39.3262Z" fill="#34D399"/>
<path d="M163.305 40.9731V39.9291L160.988 40.2361V40.2061L162.446 38.2871L161.525 37.7661L160.589 39.9141H160.558L159.607 37.7811L158.67 38.3181L160.113 40.1911V40.2211L157.856 39.9291V40.9731L160.128 40.6821V40.7121L158.67 42.5841L159.545 43.1371L160.543 40.9731H160.573L161.494 43.1221L162.461 42.5691L160.988 40.7271V40.6971L163.305 40.9731Z" fill="#34D399"/>
<path d="M139.748 9.84521L141.006 8.19121L140.211 7.74121L139.404 9.59421H139.377L138.557 7.75421L137.748 8.21721L138.993 9.83221V9.85921L137.047 9.60721V10.5072L139.006 10.2562V10.2822L137.748 11.8972L138.503 12.3742L139.364 10.5072H139.39L140.185 12.3612L141.019 11.8842L139.748 10.2952V10.2692L141.746 10.5072V9.60721L139.748 9.87221V9.84521Z" fill="#34D399"/>
</svg>
