<svg width="168" height="168" viewBox="0 0 168 168" fill="none" xmlns="http://www.w3.org/2000/svg">
<path d="M157 34C157 33.4067 156.824 32.8266 156.494 32.3333C156.165 31.8399 155.696 31.4554 155.148 31.2284C154.6 31.0013 153.997 30.9419 153.415 31.0576C152.833 31.1734 152.298 31.4591 151.879 31.8787C151.459 32.2982 151.173 32.8328 151.058 33.4147C150.942 33.9967 151.001 34.5999 151.228 35.148C151.455 35.6962 151.84 36.1648 152.333 36.4944C152.827 36.8241 153.407 37 154 37C154.795 36.9991 155.558 36.6827 156.12 36.1203C156.683 35.5579 156.999 34.7954 157 34ZM154 35.5C153.703 35.5 153.413 35.412 153.167 35.2472C152.92 35.0824 152.728 34.8481 152.614 34.574C152.501 34.2999 152.471 33.9983 152.529 33.7074C152.587 33.4164 152.73 33.1491 152.939 32.9393C153.149 32.7296 153.416 32.5867 153.707 32.5288C153.998 32.4709 154.3 32.5007 154.574 32.6142C154.848 32.7277 155.082 32.92 155.247 33.1666C155.412 33.4133 155.5 33.7033 155.5 34C155.5 34.3977 155.341 34.779 155.06 35.0602C154.779 35.3414 154.398 35.4996 154 35.5Z" fill="#0F1454"/>
<path d="M50 24C50.5933 24 51.1734 23.8241 51.6667 23.4944C52.1601 23.1648 52.5446 22.6962 52.7716 22.1481C52.9987 21.5999 53.0581 20.9967 52.9424 20.4147C52.8266 19.8328 52.5409 19.2982 52.1213 18.8787C51.7018 18.4591 51.1672 18.1734 50.5853 18.0576C50.0033 17.9419 49.4001 18.0013 48.852 18.2284C48.3038 18.4554 47.8352 18.8399 47.5056 19.3333C47.1759 19.8266 47 20.4067 47 21C47.0009 21.7954 47.3173 22.5579 47.8797 23.1203C48.4421 23.6827 49.2046 23.9991 50 24ZM50 19.5C50.2967 19.5 50.5867 19.588 50.8334 19.7528C51.08 19.9176 51.2723 20.1519 51.3858 20.426C51.4994 20.7001 51.5291 21.0017 51.4712 21.2926C51.4133 21.5836 51.2704 21.8509 51.0607 22.0607C50.8509 22.2704 50.5836 22.4133 50.2926 22.4712C50.0017 22.5291 49.7001 22.4994 49.426 22.3858C49.1519 22.2723 48.9176 22.08 48.7528 21.8334C48.588 21.5867 48.5 21.2967 48.5 21C48.5004 20.6023 48.6586 20.221 48.9398 19.9398C49.221 19.6586 49.6023 19.5004 50 19.5Z" fill="#0F1454"/>
<path d="M132 71C132.396 71 132.782 70.8827 133.111 70.6629C133.44 70.4432 133.696 70.1308 133.848 69.7654C133.999 69.3999 134.039 68.9978 133.962 68.6098C133.884 68.2219 133.694 67.8655 133.414 67.5858C133.135 67.3061 132.778 67.1156 132.39 67.0384C132.002 66.9613 131.6 67.0009 131.235 67.1522C130.869 67.3036 130.557 67.56 130.337 67.8889C130.117 68.2178 130 68.6044 130 69C130.001 69.5302 130.212 70.0386 130.586 70.4135C130.961 70.7885 131.47 70.9994 132 71ZM132 68C132.198 68 132.391 68.0587 132.556 68.1685C132.72 68.2784 132.848 68.4346 132.924 68.6173C133 68.8 133.019 69.0011 132.981 69.1951C132.942 69.3891 132.847 69.5673 132.707 69.7071C132.567 69.847 132.389 69.9422 132.195 69.9808C132.001 70.0194 131.8 69.9996 131.617 69.9239C131.435 69.8482 131.278 69.72 131.169 69.5556C131.059 69.3911 131 69.1978 131 69C131 68.7349 131.106 68.4807 131.293 68.2932C131.481 68.1057 131.735 68.0003 132 68Z" fill="#0F1454"/>
<path d="M116 45C116.396 45 116.782 44.8827 117.111 44.6629C117.44 44.4432 117.696 44.1308 117.848 43.7654C117.999 43.3999 118.039 42.9978 117.962 42.6098C117.884 42.2219 117.694 41.8655 117.414 41.5858C117.135 41.3061 116.778 41.1156 116.39 41.0384C116.002 40.9613 115.6 41.0009 115.235 41.1522C114.869 41.3036 114.557 41.56 114.337 41.8889C114.117 42.2178 114 42.6044 114 43C114.001 43.5302 114.212 44.0386 114.586 44.4135C114.961 44.7885 115.47 44.9994 116 45ZM116 42C116.198 42 116.391 42.0586 116.556 42.1685C116.72 42.2784 116.848 42.4346 116.924 42.6173C117 42.8 117.019 43.0011 116.981 43.1951C116.942 43.3891 116.847 43.5673 116.707 43.7071C116.567 43.847 116.389 43.9422 116.195 43.9808C116.001 44.0194 115.8 43.9996 115.617 43.9239C115.435 43.8482 115.278 43.72 115.169 43.5556C115.059 43.3911 115 43.1978 115 43C115 42.7349 115.106 42.4807 115.293 42.2932C115.481 42.1057 115.735 42.0003 116 42Z" fill="#0F1454"/>
<path d="M86 5C86.3956 5 86.7822 4.8827 87.1111 4.66294C87.44 4.44318 87.6964 4.13082 87.8478 3.76537C87.9991 3.39992 88.0387 2.99778 87.9616 2.60982C87.8844 2.22186 87.6939 1.86549 87.4142 1.58579C87.1345 1.30608 86.7781 1.1156 86.3902 1.03843C86.0022 0.96126 85.6001 1.00087 85.2346 1.15224C84.8692 1.30362 84.5568 1.55996 84.3371 1.88886C84.1173 2.21776 84 2.60444 84 3C84.0006 3.53025 84.2115 4.0386 84.5865 4.41355C84.9614 4.78849 85.4698 4.99939 86 5ZM86 2C86.1978 2 86.3911 2.05865 86.5556 2.16853C86.72 2.27841 86.8482 2.43459 86.9239 2.61732C86.9996 2.80004 87.0194 3.00111 86.9808 3.19509C86.9422 3.38907 86.847 3.56726 86.7071 3.70711C86.5673 3.84696 86.3891 3.9422 86.1951 3.98079C86.0011 4.01937 85.8 3.99957 85.6173 3.92388C85.4346 3.84819 85.2784 3.72002 85.1685 3.55557C85.0587 3.39112 85 3.19778 85 3C85.0003 2.73487 85.1057 2.48067 85.2932 2.29319C85.4807 2.10571 85.7349 2.00027 86 2Z" fill="#0F1454"/>
<path d="M17 42C17.3956 42 17.7822 41.8827 18.1111 41.6629C18.44 41.4432 18.6964 41.1308 18.8478 40.7654C18.9991 40.3999 19.0387 39.9978 18.9616 39.6098C18.8844 39.2219 18.6939 38.8655 18.4142 38.5858C18.1345 38.3061 17.7781 38.1156 17.3902 38.0384C17.0022 37.9613 16.6001 38.0009 16.2346 38.1522C15.8692 38.3036 15.5568 38.56 15.3371 38.8889C15.1173 39.2178 15 39.6044 15 40C15.0006 40.5302 15.2115 41.0386 15.5865 41.4135C15.9614 41.7885 16.4698 41.9994 17 42ZM17 39C17.1978 39 17.3911 39.0586 17.5556 39.1685C17.72 39.2784 17.8482 39.4346 17.9239 39.6173C17.9996 39.8 18.0194 40.0011 17.9808 40.1951C17.9422 40.3891 17.847 40.5673 17.7071 40.7071C17.5673 40.847 17.3891 40.9422 17.1951 40.9808C17.0011 41.0194 16.8 40.9996 16.6173 40.9239C16.4346 40.8482 16.2784 40.72 16.1685 40.5556C16.0586 40.3911 16 40.1978 16 40C16.0003 39.7349 16.1057 39.4807 16.2932 39.2932C16.4807 39.1057 16.7349 39.0003 17 39Z" fill="#0F1454"/>
<path d="M2 148C3.10457 148 4 147.105 4 146C4 144.895 3.10457 144 2 144C0.89543 144 0 144.895 0 146C0 147.105 0.89543 148 2 148Z" fill="#0F1454"/>
<path d="M11 144H8C7.46957 144 6.96086 144.211 6.58579 144.586C6.21071 144.961 6 145.47 6 146C6 146.53 6.21071 147.039 6.58579 147.414C6.96086 147.789 7.46957 148 8 148H11C11.5304 148 12.0391 147.789 12.4142 147.414C12.7893 147.039 13 146.53 13 146C13 145.47 12.7893 144.961 12.4142 144.586C12.0391 144.211 11.5304 144 11 144Z" fill="#0F1454"/>
<path d="M160 144H157C156.47 144 155.961 144.211 155.586 144.586C155.211 144.961 155 145.47 155 146C155 146.53 155.211 147.039 155.586 147.414C155.961 147.789 156.47 148 157 148H160C160.53 148 161.039 147.789 161.414 147.414C161.789 147.039 162 146.53 162 146C162 145.47 161.789 144.961 161.414 144.586C161.039 144.211 160.53 144 160 144Z" fill="#0F1454"/>
<path d="M166 148C167.105 148 168 147.105 168 146C168 144.895 167.105 144 166 144C164.895 144 164 144.895 164 146C164 147.105 164.895 148 166 148Z" fill="#0F1454"/>
<path d="M150.721 144H94.8551C96.6204 142.509 98.0684 140.678 99.1133 138.617C100.158 136.555 100.779 134.306 100.938 132H128.817C134.788 128.045 131.088 122.632 128 118.306V118H127.782C127.695 117.879 127.609 117.759 127.524 117.639C121.204 108.765 118.536 97.3838 118.351 86.548C118.187 77.0581 119.915 64.3579 115.595 55.6147C111.544 47.4565 104.487 41.1867 95.9092 38.1235C96.5467 36.5396 96.8739 34.848 96.8731 33.1406C96.9083 31.4278 96.6013 29.7252 95.9702 28.1325C95.3391 26.5398 94.3965 25.0891 93.1976 23.8653C91.9987 22.6416 90.5677 21.6693 88.9883 21.0056C87.4089 20.3419 85.713 20 83.9998 20C82.2867 20 80.5907 20.3419 79.0113 21.0056C77.432 21.6693 76.0009 22.6416 74.8021 23.8653C73.6032 25.0891 72.6606 26.5398 72.0294 28.1325C71.3983 29.7252 71.0914 31.4278 71.1266 33.1406C71.1264 34.8352 71.4494 36.5143 72.0782 38.0879C63.4981 41.1615 56.4455 47.4449 52.4059 55.6147C48.0875 64.3579 49.8155 77.0581 49.6515 86.548C49.4659 97.38 46.7921 108.769 40.4757 117.639C40.3907 117.758 40.3048 117.879 40.2179 118H40.0001V118.306C36.9121 122.632 33.212 128.045 39.1831 132H67.0611C67.2207 134.306 67.8414 136.556 68.8864 138.617C69.9313 140.678 71.3793 142.509 73.1446 144H17.2788C16.9943 143.963 16.7051 143.987 16.4306 144.07C16.156 144.154 15.9025 144.295 15.6868 144.484C15.4712 144.674 15.2984 144.907 15.1801 145.168C15.0617 145.429 15.0005 145.713 15.0005 146C15.0005 146.287 15.0617 146.571 15.1801 146.832C15.2984 147.093 15.4712 147.327 15.6868 147.516C15.9025 147.705 16.156 147.846 16.4306 147.93C16.7051 148.013 16.9943 148.037 17.2788 148H150.721C151.006 148.037 151.295 148.013 151.57 147.93C151.844 147.846 152.098 147.705 152.313 147.516C152.529 147.327 152.702 147.093 152.82 146.832C152.939 146.571 153 146.287 153 146C153 145.713 152.939 145.429 152.82 145.168C152.702 144.907 152.529 144.674 152.313 144.484C152.098 144.295 151.844 144.154 151.57 144.07C151.295 143.987 151.006 143.963 150.721 144ZM53.6509 86.6172C53.6905 84.3164 53.6255 81.9141 53.5566 79.3711C53.3516 71.7925 53.1191 63.2026 55.9922 57.3862C59.5657 50.1379 65.8213 44.566 73.4331 41.8516L77.3263 40.4497L75.7935 36.6064C75.3526 35.5042 75.1262 34.3278 75.1265 33.1406C75.0913 31.9532 75.2947 30.7708 75.7248 29.6634C76.1548 28.5561 76.8028 27.5463 77.6302 26.6939C78.4577 25.8415 79.4478 25.1639 80.5419 24.7012C81.636 24.2384 82.8118 24 83.9998 24C85.1877 24 86.3636 24.2384 87.4577 24.7012C88.5518 25.1639 89.5419 25.8415 90.3693 26.6939C91.1968 27.5463 91.8447 28.5561 92.2748 29.6634C92.7048 30.7708 92.9083 31.9532 92.873 33.1406C92.874 34.3367 92.6449 35.5218 92.1982 36.6313L90.6515 40.4785L94.5518 41.8862C102.163 44.5901 108.423 50.149 112.009 57.3867C114.883 63.2031 114.65 71.793 114.445 79.3721C114.376 81.9146 114.312 84.3164 114.352 86.6162C114.498 95.166 116.148 107.33 122.951 118H45.0425C50.4023 109.544 53.4474 98.5068 53.6509 86.6172ZM40.5563 128C40.2975 127.77 40.112 127.469 40.0226 127.134C39.8014 125.936 41.0406 123.842 42.296 122H125.704C126.959 123.842 128.199 125.936 127.978 127.134C127.888 127.469 127.703 127.77 127.444 128H40.5563ZM71.0558 132H96.9443C96.6969 135.264 95.2257 138.313 92.8255 140.539C90.4252 142.764 87.273 144 84.0001 144C80.7271 144 77.5749 142.764 75.1746 140.539C72.7744 138.313 71.3032 135.264 71.0558 132Z" fill="#0F1454"/>
<path d="M63.02 98.7439C63.249 98.8727 63.501 98.9551 63.7619 98.9864C64.0227 99.0178 64.2871 98.9974 64.5401 98.9264C64.793 98.8555 65.0295 98.7355 65.236 98.5731C65.4425 98.4107 65.615 98.2093 65.7436 97.9802C69.1937 91.8405 68.7548 84.6779 68.33 77.7517C67.7436 68.1804 67.2367 59.9143 76.018 54.7219C76.4746 54.4519 76.8053 54.0116 76.9372 53.4977C77.0692 52.9839 76.9916 52.4387 76.7216 51.9821C76.4516 51.5255 76.0112 51.1948 75.4974 51.0629C74.9836 50.9309 74.4384 51.0085 73.9818 51.2785C63.0946 57.7165 63.7548 68.4904 64.3373 77.9963C64.7445 84.6364 65.1288 90.9084 62.2562 96.0202C61.9963 96.4827 61.9308 97.0294 62.0741 97.5402C62.2173 98.051 62.5576 98.484 63.02 98.7439Z" fill="#34D399"/>
<path d="M60 106C61.1046 106 62 105.105 62 104C62 102.895 61.1046 102 60 102C58.8954 102 58 102.895 58 104C58 105.105 58.8954 106 60 106Z" fill="#34D399"/>
<path d="M40.5831 84.0114L42.0701 82.0564L41.1311 81.5244L40.1771 83.7144H40.1451L39.1751 81.5394L38.2201 82.0874L39.6911 83.9964V84.0274L37.3911 83.7304V84.7944L39.7071 84.4974V84.5284L38.2201 86.4364L39.1121 87.0004L40.1301 84.7944H40.1601L41.0991 86.9844L42.0851 86.4214L40.5831 84.5434V84.5124L42.9451 84.7944V83.7304L40.5831 84.0424V84.0114Z" fill="#34D399"/>
<path d="M48.0381 47.2199L48.5781 48.4809L49.1461 48.1569L48.2811 47.0749V47.0569L49.6411 47.2199V46.6069L48.2811 46.7869V46.7689L49.1371 45.6429L48.5971 45.3369L48.0471 46.5979H48.0291L47.4711 45.3449L46.9201 45.6609L47.7681 46.7599V46.7779L46.4431 46.6069V47.2199L47.7771 47.0489V47.0669L46.9201 48.1659L47.4341 48.4899L48.0201 47.2199H48.0381Z" fill="#34D399"/>
<path d="M145 86.7129V85.6699L142.683 85.9769V85.9459L144.142 84.0279L143.221 83.5059L142.285 85.6539H142.253L141.302 83.5209L140.365 84.0589L141.808 85.9309V85.9619L139.552 85.6699V86.7129L141.823 86.4219V86.4529L140.365 88.3249L141.24 88.8779L142.238 86.7129H142.268L143.189 88.8619L144.156 88.3099L142.683 86.4679V86.4369L145 86.7129Z" fill="#34D399"/>
<path d="M125.443 7.58645L126.701 5.93145L125.907 5.48145L125.099 7.33445H125.073L124.252 5.49445L123.444 5.95845L124.689 7.57345V7.59945L122.742 7.34845V8.24845L124.702 7.99645V8.02345L123.444 9.63844L124.198 10.1154L125.06 8.24845H125.085L125.88 10.1014L126.714 9.62545L125.443 8.03645V8.00945L127.442 8.24845V7.34845L125.443 7.61245V7.58645Z" fill="#34D399"/>
<path d="M118.154 153H109.846C109.343 153.04 108.874 153.268 108.532 153.639C108.19 154.01 108 154.496 108 155C108 155.504 108.19 155.99 108.532 156.361C108.874 156.732 109.343 156.96 109.846 157H118.154C118.657 156.96 119.126 156.732 119.468 156.361C119.81 155.99 120 155.504 120 155C120 154.496 119.81 154.01 119.468 153.639C119.126 153.268 118.657 153.04 118.154 153Z" fill="#34D399"/>
<path d="M58.1539 153H49.8462C49.3434 153.04 48.8742 153.268 48.5321 153.639C48.19 154.01 48 154.496 48 155C48 155.504 48.19 155.99 48.5321 156.361C48.8742 156.732 49.3434 156.96 49.8462 157H58.1539C58.6567 156.96 59.1258 156.732 59.468 156.361C59.8101 155.99 60.0001 155.504 60.0001 155C60.0001 154.496 59.8101 154.01 59.468 153.639C59.1258 153.268 58.6567 153.04 58.1539 153Z" fill="#34D399"/>
<path d="M104 153H64C63.4696 153 62.9609 153.211 62.5858 153.586C62.2107 153.961 62 154.47 62 155C62 155.53 62.2107 156.039 62.5858 156.414C62.9609 156.789 63.4696 157 64 157H79.94V159H72C71.4696 159 70.9609 159.211 70.5858 159.586C70.2107 159.961 70 160.47 70 161C70 161.53 70.2107 162.039 70.5858 162.414C70.9609 162.789 71.4696 163 72 163H97C97.5304 163 98.0391 162.789 98.4142 162.414C98.7893 162.039 99 161.53 99 161C99 160.47 98.7893 159.961 98.4142 159.586C98.0391 159.211 97.5304 159 97 159H88.06V157H104C104.53 157 105.039 156.789 105.414 156.414C105.789 156.039 106 155.53 106 155C106 154.47 105.789 153.961 105.414 153.586C105.039 153.211 104.53 153 104 153Z" fill="#34D399"/>
</svg>
