<svg width="252" height="250" viewBox="0 0 252 250" fill="none" xmlns="http://www.w3.org/2000/svg">
<g clip-path="url(#clip0_134_88)">
<path d="M62.9433 97.6201C59.9792 97.6201 57.0818 98.4929 54.6172 100.128C52.1527 101.763 50.2319 104.087 49.0976 106.806C47.9633 109.526 47.6665 112.518 48.2448 115.404C48.823 118.291 50.2503 120.942 52.3462 123.023C54.4421 125.105 57.1125 126.522 60.0196 127.096C62.9267 127.67 65.9399 127.376 68.6784 126.249C71.4168 125.123 73.7574 123.216 75.4041 120.768C77.0508 118.321 77.9298 115.444 77.9298 112.501C77.9253 108.556 76.3449 104.773 73.5354 101.984C70.7258 99.1938 66.9166 97.6246 62.9433 97.6201ZM62.9433 121.43C61.1649 121.43 59.4264 120.906 57.9477 119.925C56.469 118.944 55.3164 117.549 54.6359 115.918C53.9553 114.286 53.7772 112.491 54.1242 110.759C54.4711 109.027 55.3275 107.436 56.5851 106.188C57.8426 104.939 59.4448 104.089 61.1891 103.744C62.9333 103.4 64.7413 103.576 66.3843 104.252C68.0274 104.928 69.4317 106.072 70.4198 107.541C71.4078 109.009 71.9352 110.735 71.9352 112.501C71.9352 114.869 70.9878 117.14 69.3015 118.815C67.6152 120.489 65.3281 121.43 62.9433 121.43Z" fill="#34D399"/>
<path d="M98.9108 97.6201C95.9468 97.6201 93.0493 98.4929 90.5848 100.128C88.1203 101.763 86.1994 104.087 85.0651 106.806C83.9308 109.526 83.634 112.518 84.2123 115.404C84.7905 118.291 86.2179 120.942 88.3138 123.023C90.4097 125.105 93.08 126.522 95.9871 127.096C98.8942 127.67 101.907 127.376 104.646 126.249C107.384 125.123 109.725 123.216 111.372 120.768C113.018 118.321 113.897 115.444 113.897 112.501C113.893 108.556 112.312 104.773 109.503 101.984C106.693 99.1938 102.884 97.6246 98.9108 97.6201ZM98.9108 121.43C97.1324 121.43 95.3939 120.906 93.9152 119.925C92.4365 118.944 91.284 117.549 90.6034 115.918C89.9228 114.286 89.7447 112.491 90.0917 110.759C90.4387 109.027 91.295 107.436 92.5526 106.188C93.8101 104.939 95.4123 104.089 97.1566 103.744C98.9008 103.4 100.709 103.576 102.352 104.252C103.995 104.928 105.399 106.072 106.387 107.541C107.375 109.009 107.903 110.735 107.903 112.501C107.903 114.869 106.955 117.14 105.269 118.815C103.583 120.489 101.296 121.43 98.9108 121.43Z" fill="#0F1454"/>
<path d="M134.878 97.6201C131.914 97.6201 129.017 98.4929 126.552 100.128C124.088 101.763 122.167 104.087 121.033 106.806C119.898 109.526 119.602 112.518 120.18 115.404C120.758 118.291 122.186 120.942 124.281 123.023C126.377 125.105 129.048 126.522 131.955 127.096C134.862 127.67 137.875 127.376 140.614 126.249C143.352 125.123 145.693 123.216 147.339 120.768C148.986 118.321 149.865 115.444 149.865 112.501C149.86 108.556 148.28 104.773 145.471 101.984C142.661 99.1938 138.852 97.6246 134.878 97.6201ZM134.878 121.43C133.1 121.43 131.362 120.906 129.883 119.925C128.404 118.944 127.252 117.549 126.571 115.918C125.89 114.286 125.712 112.491 126.059 110.759C126.406 109.027 127.263 107.436 128.52 106.188C129.778 104.939 131.38 104.089 133.124 103.744C134.868 103.4 136.676 103.576 138.32 104.252C139.963 104.928 141.367 106.072 142.355 107.541C143.343 109.009 143.87 110.735 143.87 112.501C143.87 114.869 142.923 117.14 141.237 118.815C139.55 120.489 137.263 121.43 134.878 121.43Z" fill="#34D399"/>
<path d="M170.846 97.6201C167.882 97.6201 164.984 98.4929 162.52 100.128C160.055 101.763 158.135 104.087 157 106.806C155.866 109.526 155.569 112.518 156.147 115.404C156.726 118.291 158.153 120.942 160.249 123.023C162.345 125.105 165.015 126.522 167.922 127.096C170.829 127.67 173.843 127.376 176.581 126.249C179.32 125.123 181.66 123.216 183.307 120.768C184.954 118.321 185.832 115.444 185.832 112.501C185.828 108.556 184.248 104.773 181.438 101.984C178.629 99.1938 174.819 97.6246 170.846 97.6201ZM170.846 121.43C169.068 121.43 167.329 120.906 165.85 119.925C164.372 118.944 163.219 117.549 162.539 115.918C161.858 114.286 161.68 112.491 162.027 110.759C162.374 109.027 163.23 107.436 164.488 106.188C165.745 104.939 167.348 104.089 169.092 103.744C170.836 103.4 172.644 103.576 174.287 104.252C175.93 104.928 177.334 106.072 178.322 107.541C179.311 109.009 179.838 110.735 179.838 112.501C179.838 114.869 178.891 117.14 177.204 118.815C175.518 120.489 173.231 121.43 170.846 121.43Z" fill="#0F1454"/>
<path d="M62.9433 133.334C59.9792 133.334 57.0818 134.207 54.6172 135.842C52.1527 137.478 50.2319 139.802 49.0976 142.521C47.9633 145.24 47.6665 148.232 48.2448 151.119C48.823 154.005 50.2503 156.657 52.3462 158.738C54.4421 160.819 57.1125 162.236 60.0196 162.81C62.9267 163.385 65.9399 163.09 68.6784 161.964C71.4168 160.837 73.7574 158.93 75.4041 156.483C77.0508 154.036 77.9298 151.159 77.9298 148.215C77.9253 144.27 76.3449 140.488 73.5354 137.698C70.7258 134.908 66.9166 133.339 62.9433 133.334ZM62.9433 157.144C61.1649 157.144 59.4264 156.62 57.9477 155.639C56.469 154.658 55.3164 153.264 54.6359 151.632C53.9553 150.001 53.7772 148.206 54.1242 146.474C54.4711 144.742 55.3275 143.151 56.5851 141.902C57.8426 140.653 59.4448 139.803 61.1891 139.458C62.9333 139.114 64.7413 139.291 66.3843 139.966C68.0274 140.642 69.4317 141.787 70.4198 143.255C71.4078 144.723 71.9352 146.45 71.9352 148.215C71.9352 150.583 70.9878 152.854 69.3015 154.529C67.6152 156.203 65.3281 157.144 62.9433 157.144Z" fill="#0F1454"/>
<path d="M98.9108 133.334C95.9468 133.334 93.0493 134.207 90.5848 135.842C88.1203 137.478 86.1994 139.802 85.0651 142.521C83.9308 145.24 83.634 148.232 84.2123 151.119C84.7905 154.005 86.2179 156.657 88.3138 158.738C90.4097 160.819 93.08 162.236 95.9871 162.81C98.8942 163.385 101.907 163.09 104.646 161.964C107.384 160.837 109.725 158.93 111.372 156.483C113.018 154.036 113.897 151.159 113.897 148.215C113.893 144.27 112.312 140.488 109.503 137.698C106.693 134.908 102.884 133.339 98.9108 133.334Z" fill="#34D399"/>
<path d="M134.878 133.334C131.914 133.334 129.017 134.207 126.552 135.842C124.088 137.478 122.167 139.802 121.033 142.521C119.898 145.24 119.602 148.232 120.18 151.119C120.758 154.005 122.186 156.657 124.281 158.738C126.377 160.819 129.048 162.236 131.955 162.81C134.862 163.385 137.875 163.09 140.614 161.964C143.352 160.837 145.693 158.93 147.339 156.483C148.986 154.036 149.865 151.159 149.865 148.215C149.86 144.27 148.28 140.488 145.471 137.698C142.661 134.908 138.852 133.339 134.878 133.334ZM134.878 157.144C133.1 157.144 131.362 156.62 129.883 155.639C128.404 154.658 127.252 153.264 126.571 151.632C125.89 150.001 125.712 148.206 126.059 146.474C126.406 144.742 127.263 143.151 128.52 141.902C129.778 140.653 131.38 139.803 133.124 139.458C134.868 139.114 136.676 139.291 138.32 139.966C139.963 140.642 141.367 141.787 142.355 143.255C143.343 144.723 143.87 146.45 143.87 148.215C143.87 150.583 142.923 152.854 141.237 154.529C139.55 156.203 137.263 157.144 134.878 157.144Z" fill="#0F1454"/>
<path d="M62.9433 169.049C59.9792 169.049 57.0818 169.922 54.6172 171.557C52.1527 173.192 50.2319 175.516 49.0976 178.235C47.9633 180.954 47.6665 183.946 48.2448 186.833C48.823 189.72 50.2503 192.371 52.3462 194.452C54.4421 196.533 57.1125 197.951 60.0196 198.525C62.9267 199.099 65.9399 198.804 68.6784 197.678C71.4168 196.552 73.7574 194.644 75.4041 192.197C77.0508 189.75 77.9298 186.873 77.9298 183.93C77.9253 179.984 76.3449 176.202 73.5354 173.412C70.7258 170.623 66.9166 169.053 62.9433 169.049ZM62.9433 192.858C61.1649 192.858 59.4264 192.335 57.9477 191.354C56.469 190.373 55.3164 188.978 54.6359 187.347C53.9553 185.715 53.7772 183.92 54.1242 182.188C54.4711 180.456 55.3275 178.865 56.5851 177.616C57.8426 176.368 59.4448 175.517 61.1891 175.173C62.9333 174.828 64.7413 175.005 66.3843 175.681C68.0274 176.357 69.4317 177.501 70.4198 178.969C71.4078 180.438 71.9352 182.164 71.9352 183.93C71.9352 186.298 70.9878 188.569 69.3015 190.243C67.6152 191.918 65.3281 192.858 62.9433 192.858Z" fill="#34D399"/>
<path d="M98.9108 169.049C95.9468 169.049 93.0493 169.922 90.5848 171.557C88.1203 173.192 86.1994 175.516 85.0651 178.235C83.9308 180.954 83.634 183.946 84.2123 186.833C84.7905 189.72 86.2179 192.371 88.3138 194.452C90.4097 196.533 93.08 197.951 95.9871 198.525C98.8942 199.099 101.907 198.804 104.646 197.678C107.384 196.552 109.725 194.644 111.372 192.197C113.018 189.75 113.897 186.873 113.897 183.93C113.893 179.984 112.312 176.202 109.503 173.412C106.693 170.623 102.884 169.053 98.9108 169.049ZM98.9108 192.858C97.1324 192.858 95.3939 192.335 93.9152 191.354C92.4365 190.373 91.284 188.978 90.6034 187.347C89.9228 185.715 89.7447 183.92 90.0917 182.188C90.4387 180.456 91.295 178.865 92.5526 177.616C93.8101 176.368 95.4123 175.517 97.1566 175.173C98.9008 174.828 100.709 175.005 102.352 175.681C103.995 176.357 105.399 177.501 106.387 178.969C107.375 180.438 107.903 182.164 107.903 183.93C107.903 186.298 106.955 188.569 105.269 190.243C103.583 191.918 101.296 192.858 98.9108 192.858Z" fill="#0F1454"/>
<path d="M204.141 174.872C203.51 174.392 202.714 174.181 201.926 174.284C201.138 174.387 200.424 174.796 199.939 175.422L182.297 198.266L171.262 189.173C170.959 188.923 170.609 188.735 170.233 188.62C169.857 188.504 169.462 188.464 169.07 188.5C168.678 188.536 168.297 188.648 167.949 188.831C167.601 189.013 167.292 189.262 167.041 189.562C166.789 189.863 166.6 190.21 166.484 190.584C166.368 190.957 166.326 191.35 166.363 191.739C166.399 192.128 166.513 192.506 166.696 192.852C166.88 193.198 167.13 193.504 167.433 193.754L180.865 204.821C181.403 205.264 182.081 205.507 182.78 205.507C182.892 205.507 183.004 205.501 183.115 205.488C183.515 205.444 183.903 205.319 184.254 205.122C184.605 204.925 184.912 204.66 185.158 204.342L204.696 179.045C204.935 178.735 205.111 178.381 205.213 178.003C205.315 177.626 205.341 177.232 205.289 176.844C205.238 176.457 205.11 176.083 204.913 175.745C204.716 175.406 204.454 175.11 204.141 174.872Z" fill="#34D399"/>
<path d="M46.4581 75.2988H187.331C188.126 75.2988 188.888 74.9853 189.451 74.4271C190.013 73.869 190.328 73.112 190.328 72.3226C190.328 71.5333 190.013 70.7763 189.451 70.2181C188.888 69.66 188.126 69.3464 187.331 69.3464H46.4581C45.6632 69.3464 44.9008 69.66 44.3387 70.2181C43.7766 70.7763 43.4608 71.5333 43.4608 72.3226C43.4608 73.112 43.7766 73.869 44.3387 74.4271C44.9008 74.9853 45.6632 75.2988 46.4581 75.2988Z" fill="#34D399"/>
<path d="M134.878 169.049C132.481 169.045 130.117 169.613 127.986 170.705C125.855 171.796 124.019 173.38 122.632 175.322C121.245 177.264 120.348 179.508 120.015 181.866C119.683 184.224 119.925 186.627 120.721 188.873C121.518 191.118 122.845 193.142 124.592 194.772C126.339 196.403 128.455 197.594 130.761 198.244C133.068 198.895 135.498 198.987 137.848 198.511C140.197 198.036 142.398 197.008 144.264 195.514C143.289 188.526 144.132 181.407 146.714 174.835C145.318 173.036 143.525 171.579 141.473 170.576C139.421 169.573 137.165 169.051 134.878 169.049ZM134.878 192.858C133.1 192.858 131.362 192.335 129.883 191.354C128.404 190.373 127.252 188.978 126.571 187.347C125.89 185.715 125.712 183.92 126.059 182.188C126.406 180.456 127.263 178.865 128.52 177.616C129.778 176.368 131.38 175.517 133.124 175.173C134.868 174.828 136.676 175.005 138.319 175.681C139.963 176.357 141.367 177.501 142.355 178.969C143.343 180.438 143.87 182.164 143.87 183.93C143.87 186.298 142.923 188.569 141.237 190.243C139.55 191.918 137.263 192.858 134.878 192.858Z" fill="#34D399"/>
<path d="M185.832 148.215C185.834 145.829 185.258 143.477 184.153 141.358C183.047 139.239 181.445 137.415 179.48 136.04C177.516 134.665 175.247 133.78 172.866 133.458C170.484 133.137 168.06 133.388 165.797 134.192C163.534 134.996 161.499 136.329 159.864 138.078C158.228 139.827 157.041 141.94 156.401 144.241C155.761 146.541 155.687 148.96 156.186 151.295C156.686 153.629 157.743 155.81 159.269 157.653C160.824 156.388 162.467 155.234 164.187 154.201C163.208 153.126 162.507 151.831 162.144 150.428C161.782 149.024 161.769 147.554 162.107 146.144C162.445 144.735 163.123 143.428 164.084 142.337C165.045 141.246 166.258 140.404 167.62 139.883C168.982 139.362 170.451 139.179 171.9 139.348C173.35 139.517 174.736 140.034 175.939 140.855C177.141 141.675 178.125 142.774 178.805 144.056C179.484 145.339 179.839 146.766 179.838 148.215C179.838 148.362 179.823 148.505 179.816 148.65C181.808 148.363 183.819 148.217 185.832 148.215Z" fill="#34D399"/>
<path d="M35.9676 91.1468V198.811C35.9712 201.967 37.2355 204.993 39.4832 207.225C41.7308 209.456 44.7782 210.712 47.9568 210.715H149.516C148.402 208.81 147.443 206.819 146.647 204.763H47.9568C46.3669 204.763 44.8422 204.136 43.718 203.02C42.5938 201.903 41.9622 200.389 41.9622 198.811V91.6677H191.827V148.647C193.855 148.937 195.859 149.375 197.822 149.957V91.1468C199.573 90.531 201.089 89.3923 202.162 87.887C203.235 86.3817 203.813 84.5835 203.816 82.7391V61.9058C203.814 59.5386 202.865 57.2691 201.18 55.5953C199.494 53.9214 197.208 52.9799 194.824 52.9772H179.838V44.1019C179.84 43.078 179.636 42.064 179.238 41.1193C178.841 40.1746 178.257 39.3183 177.522 38.6004C175.358 36.4259 172.425 35.177 169.348 35.1201C167.97 35.1201 166.606 35.3895 165.333 35.9129C164.06 36.4364 162.904 37.2037 161.929 38.1709C160.955 39.1382 160.183 40.2866 159.655 41.5504C159.128 42.8143 158.857 44.1688 158.857 45.5368V52.9773H127.385V44.1019C127.387 43.078 127.183 42.064 126.786 41.1193C126.388 40.1746 125.804 39.3183 125.069 38.6004C122.906 36.4259 119.972 35.177 116.895 35.1201C115.517 35.1201 114.153 35.3895 112.88 35.9129C111.607 36.4364 110.451 37.2037 109.477 38.1709C108.503 39.1382 107.73 40.2866 107.203 41.5504C106.675 42.8143 106.404 44.1688 106.404 45.5368V52.9773H74.9325V44.1019C74.9345 43.078 74.7306 42.064 74.3329 41.1193C73.9351 40.1746 73.3515 39.3183 72.6162 38.6004C70.4531 36.4259 67.5197 35.177 64.4421 35.1201C63.0645 35.1201 61.7003 35.3895 60.4275 35.9129C59.1547 36.4364 57.9982 37.2037 57.024 38.1709C56.0499 39.1382 55.2771 40.2866 54.7499 41.5504C54.2227 42.8143 53.9514 44.1688 53.9514 45.5368V52.9773H38.9649C36.5809 52.9799 34.2954 53.9215 32.6097 55.5953C30.9239 57.2692 29.9757 59.5386 29.973 61.9058V82.7392C29.9763 84.5835 30.5541 86.3817 31.6274 87.887C32.7007 89.3923 34.2168 90.531 35.9676 91.1468ZM35.9676 61.9058C35.9676 61.1164 36.2834 60.3594 36.8455 59.8013C37.4076 59.2431 38.17 58.9296 38.9649 58.9296H56.9487C57.7436 58.9296 58.506 58.616 59.0681 58.0579C59.6302 57.4997 59.946 56.7427 59.946 55.9534V45.5367C59.946 44.9504 60.0622 44.3699 60.2882 43.8283C60.5141 43.2866 60.8452 42.7945 61.2627 42.3799C61.6802 41.9654 62.1758 41.6365 62.7213 41.4122C63.2668 41.1879 63.8514 41.0724 64.4419 41.0724C65.9619 41.1248 67.3995 41.7716 68.4414 42.8719C68.6022 43.034 68.729 43.2262 68.8142 43.4373C68.8994 43.6485 68.9415 43.8744 68.9379 44.1019V55.9534C68.9379 56.7428 69.2537 57.4998 69.8158 58.0579C70.3779 58.6161 71.1403 58.9296 71.9352 58.9296H109.401C110.196 58.9296 110.959 58.6161 111.521 58.0579C112.083 57.4998 112.399 56.7428 112.399 55.9534V45.5368C112.399 44.9505 112.515 44.37 112.741 43.8283C112.967 43.2867 113.298 42.7945 113.715 42.38C114.133 41.9654 114.629 41.6366 115.174 41.4122C115.72 41.1879 116.304 41.0724 116.895 41.0725C118.415 41.1249 119.852 41.7717 120.894 42.8719C121.055 43.034 121.182 43.2262 121.267 43.4373C121.352 43.6485 121.394 43.8744 121.391 44.1019V55.9534C121.391 56.7428 121.706 57.4998 122.269 58.0579C122.831 58.6161 123.593 58.9296 124.388 58.9296H161.854C162.649 58.9296 163.411 58.6161 163.974 58.0579C164.536 57.4998 164.851 56.7428 164.851 55.9534V45.5368C164.851 44.9505 164.968 44.37 165.194 43.8283C165.42 43.2867 165.751 42.7945 166.168 42.38C166.586 41.9654 167.081 41.6366 167.627 41.4122C168.172 41.1879 168.757 41.0724 169.347 41.0725C170.867 41.1249 172.305 41.7717 173.347 42.8719C173.508 43.034 173.634 43.2262 173.72 43.4374C173.805 43.6485 173.847 43.8744 173.843 44.1019V55.9534C173.843 56.7428 174.159 57.4998 174.721 58.0579C175.283 58.6161 176.046 58.9296 176.841 58.9296H194.824C195.218 58.9296 195.608 59.0066 195.971 59.1562C196.335 59.3057 196.666 59.525 196.944 59.8013C197.222 60.0777 197.443 60.4058 197.594 60.7669C197.744 61.128 197.822 61.515 197.822 61.9058V82.7392C197.822 83.5285 197.506 84.2855 196.944 84.8437C196.382 85.4018 195.619 85.7154 194.824 85.7154H38.9649C38.17 85.7154 37.4076 85.4018 36.8455 84.8437C36.2834 84.2855 35.9676 83.5285 35.9676 82.7392V61.9058Z" fill="#0F1454"/>
<path d="M2.9973 225.597C4.65266 225.597 5.9946 224.264 5.9946 222.62C5.9946 220.977 4.65266 219.644 2.9973 219.644C1.34194 219.644 0 220.977 0 222.62C0 224.264 1.34194 225.597 2.9973 225.597Z" fill="#0F1454"/>
<path d="M16.4851 219.644H11.9892C11.1942 219.644 10.4319 219.958 9.86977 220.516C9.30767 221.074 8.99188 221.831 8.99188 222.62C8.99188 223.41 9.30767 224.167 9.86977 224.725C10.4319 225.283 11.1942 225.596 11.9892 225.596H16.4851C17.2801 225.596 18.0424 225.283 18.6045 224.725C19.1666 224.167 19.4824 223.41 19.4824 222.62C19.4824 221.831 19.1666 221.074 18.6045 220.516C18.0424 219.958 17.2801 219.644 16.4851 219.644Z" fill="#0F1454"/>
<path d="M239.784 219.644H235.288C234.493 219.644 233.731 219.958 233.169 220.516C232.606 221.074 232.291 221.831 232.291 222.62C232.291 223.41 232.606 224.167 233.169 224.725C233.731 225.283 234.493 225.596 235.288 225.596H239.784C240.579 225.596 241.341 225.283 241.903 224.725C242.465 224.167 242.781 223.41 242.781 222.62C242.781 221.831 242.465 221.074 241.903 220.516C241.341 219.958 240.579 219.644 239.784 219.644Z" fill="#0F1454"/>
<path d="M248.776 225.597C250.431 225.597 251.773 224.264 251.773 222.62C251.773 220.977 250.431 219.644 248.776 219.644C247.12 219.644 245.778 220.977 245.778 222.62C245.778 224.264 247.12 225.597 248.776 225.597Z" fill="#0F1454"/>
<path d="M177.071 231.549H164.621C163.867 231.609 163.164 231.948 162.651 232.5C162.139 233.051 161.854 233.774 161.854 234.525C161.854 235.276 162.139 235.999 162.651 236.55C163.164 237.102 163.867 237.441 164.621 237.501H177.071C177.825 237.441 178.528 237.102 179.04 236.55C179.553 235.999 179.838 235.276 179.838 234.525C179.838 233.774 179.553 233.051 179.04 232.5C178.528 231.948 177.825 231.609 177.071 231.549Z" fill="#34D399"/>
<path d="M87.1522 231.549H74.7018C73.9483 231.609 73.2452 231.948 72.7325 232.5C72.2198 233.051 71.9351 233.774 71.9351 234.525C71.9351 235.276 72.2198 235.999 72.7325 236.55C73.2452 237.102 73.9483 237.441 74.7018 237.501H87.1522C87.9057 237.441 88.6088 237.102 89.1215 236.55C89.6342 235.999 89.9189 235.276 89.9189 234.525C89.9189 233.774 89.6342 233.051 89.1215 232.5C88.6088 231.948 87.9057 231.609 87.1522 231.549Z" fill="#34D399"/>
<path d="M155.86 231.549H95.9136C95.1186 231.549 94.3562 231.862 93.7941 232.421C93.232 232.979 92.9163 233.736 92.9163 234.525C92.9163 235.314 93.232 236.071 93.7941 236.63C94.3562 237.188 95.1186 237.501 95.9136 237.501H119.802V240.477H107.903C107.108 240.477 106.345 240.791 105.783 241.349C105.221 241.907 104.905 242.664 104.905 243.454C104.905 244.243 105.221 245 105.783 245.558C106.345 246.116 107.108 246.43 107.903 246.43H145.369C146.164 246.43 146.926 246.116 147.488 245.558C148.05 245 148.366 244.243 148.366 243.454C148.366 242.664 148.05 241.907 147.488 241.349C146.926 240.791 146.164 240.477 145.369 240.477H131.971V237.501H155.86C156.654 237.501 157.417 237.188 157.979 236.63C158.541 236.071 158.857 235.314 158.857 234.525C158.857 233.736 158.541 232.979 157.979 232.421C157.417 231.862 156.654 231.549 155.86 231.549Z" fill="#34D399"/>
<path d="M225.878 219.644H205.685C212.13 215.408 217.03 209.222 219.658 202.004C222.286 194.786 222.502 186.919 220.274 179.57C218.046 172.22 213.493 165.779 207.29 161.2C201.086 156.621 193.562 154.148 185.833 154.148C178.103 154.148 170.579 156.621 164.375 161.2C158.172 165.779 153.619 172.22 151.391 179.57C149.163 186.919 149.379 194.786 152.007 202.004C154.635 209.222 159.535 215.408 165.981 219.644H25.8948C25.4683 219.589 25.035 219.624 24.6235 219.749C24.2121 219.873 23.8321 220.083 23.509 220.365C23.1858 220.646 22.9269 220.993 22.7495 221.382C22.5721 221.771 22.4803 222.193 22.4803 222.62C22.4803 223.047 22.5721 223.469 22.7495 223.858C22.9269 224.247 23.1858 224.594 23.509 224.876C23.8321 225.158 24.2121 225.368 24.6235 225.492C25.035 225.616 25.4683 225.652 25.8948 225.596H225.878C226.305 225.652 226.738 225.616 227.15 225.492C227.561 225.368 227.941 225.158 228.264 224.876C228.587 224.594 228.846 224.247 229.024 223.858C229.201 223.469 229.293 223.047 229.293 222.62C229.293 222.193 229.201 221.771 229.024 221.382C228.846 220.993 228.587 220.646 228.264 220.365C227.941 220.083 227.561 219.873 227.15 219.749C226.738 219.624 226.305 219.589 225.878 219.644ZM155.86 189.882C155.86 183.996 157.617 178.242 160.911 173.347C164.204 168.453 168.886 164.638 174.362 162.386C179.839 160.133 185.866 159.544 191.68 160.692C197.494 161.84 202.835 164.675 207.027 168.837C211.218 173 214.073 178.303 215.23 184.076C216.386 189.849 215.793 195.833 213.524 201.272C211.255 206.71 207.414 211.358 202.485 214.628C197.556 217.899 191.761 219.644 185.833 219.644C177.883 219.644 170.259 216.508 164.638 210.927C159.017 205.346 155.86 197.775 155.86 189.882Z" fill="#0F1454"/>
<path d="M155.86 28.3956C156.749 28.3956 157.618 28.1338 158.357 27.6432C159.097 27.1527 159.673 26.4555 160.013 25.6397C160.354 24.824 160.443 23.9264 160.269 23.0604C160.096 22.1944 159.667 21.3989 159.039 20.7746C158.41 20.1503 157.609 19.7251 156.737 19.5528C155.865 19.3806 154.961 19.469 154.139 19.8069C153.318 20.1448 152.615 20.717 152.121 21.4511C151.627 22.1853 151.364 23.0484 151.364 23.9313C151.365 25.1149 151.839 26.2496 152.682 27.0866C153.525 27.9235 154.668 28.3943 155.86 28.3956ZM155.86 21.6992C156.304 21.6992 156.739 21.8301 157.109 22.0754C157.478 22.3206 157.766 22.6693 157.936 23.0771C158.107 23.485 158.151 23.9338 158.064 24.3668C157.978 24.7998 157.764 25.1975 157.449 25.5097C157.135 25.8219 156.734 26.0345 156.298 26.1206C155.862 26.2067 155.41 26.1625 154.999 25.9936C154.589 25.8246 154.237 25.5385 153.99 25.1714C153.743 24.8044 153.612 24.3728 153.612 23.9313C153.612 23.3395 153.849 22.7721 154.271 22.3536C154.692 21.9351 155.264 21.6998 155.86 21.6992Z" fill="#0F1454"/>
<path d="M237.243 102.084C236.65 102.084 236.071 102.259 235.578 102.586C235.085 102.913 234.701 103.378 234.474 103.922C234.247 104.466 234.188 105.064 234.304 105.641C234.419 106.219 234.705 106.749 235.124 107.165C235.543 107.581 236.077 107.865 236.659 107.98C237.24 108.094 237.843 108.036 238.39 107.81C238.938 107.585 239.406 107.204 239.735 106.714C240.065 106.225 240.241 105.649 240.241 105.061C240.24 104.272 239.924 103.515 239.362 102.957C238.8 102.399 238.038 102.085 237.243 102.084ZM237.243 106.549C236.947 106.549 236.657 106.461 236.411 106.298C236.164 106.134 235.972 105.902 235.859 105.63C235.745 105.358 235.716 105.059 235.773 104.77C235.831 104.482 235.974 104.217 236.184 104.008C236.393 103.8 236.66 103.659 236.951 103.601C237.242 103.544 237.543 103.573 237.817 103.686C238.091 103.798 238.325 103.989 238.489 104.234C238.654 104.479 238.742 104.766 238.742 105.061C238.742 105.455 238.583 105.833 238.303 106.112C238.022 106.391 237.641 106.548 237.243 106.549Z" fill="#0F1454"/>
<path d="M218.803 7.01782C218.21 7.01782 217.631 7.19237 217.138 7.5194C216.645 7.84643 216.261 8.31125 216.034 8.85507C215.807 9.3989 215.747 9.99731 215.863 10.5746C215.979 11.152 216.264 11.6823 216.683 12.0985C217.103 12.5147 217.637 12.7982 218.218 12.913C218.8 13.0279 219.402 12.9689 219.95 12.7437C220.498 12.5184 220.966 12.1369 221.295 11.6475C221.624 11.1581 221.8 10.5826 221.8 9.99401C221.799 9.20495 221.483 8.44847 220.921 7.89052C220.359 7.33258 219.597 7.01872 218.803 7.01782ZM218.803 11.4821C218.506 11.4821 218.217 11.3948 217.97 11.2313C217.724 11.0678 217.532 10.8354 217.418 10.5635C217.305 10.2916 217.275 9.99236 217.333 9.7037C217.391 9.41504 217.534 9.14988 217.743 8.94177C217.953 8.73366 218.22 8.59193 218.51 8.53451C218.801 8.47709 219.103 8.50656 219.376 8.61919C219.65 8.73182 219.884 8.92256 220.049 9.16727C220.214 9.41199 220.301 9.6997 220.301 9.99401C220.301 10.3886 220.143 10.7668 219.862 11.0458C219.581 11.3248 219.2 11.4817 218.803 11.4821Z" fill="#0F1454"/>
<path d="M212.808 75.2986C212.215 75.2986 211.636 75.4731 211.143 75.8002C210.65 76.1272 210.266 76.592 210.039 77.1358C209.812 77.6797 209.753 78.2781 209.869 78.8554C209.984 79.4327 210.27 79.963 210.689 80.3793C211.108 80.7955 211.642 81.0789 212.223 81.1938C212.805 81.3086 213.408 81.2497 213.955 81.0244C214.503 80.7992 214.971 80.4177 215.3 79.9283C215.63 79.4388 215.806 78.8634 215.806 78.2748C215.805 77.4857 215.489 76.7292 214.927 76.1713C214.365 75.6133 213.603 75.2995 212.808 75.2986ZM212.808 79.7629C212.512 79.7629 212.222 79.6756 211.976 79.5121C211.729 79.3486 211.537 79.1162 211.424 78.8442C211.31 78.5723 211.281 78.2731 211.338 77.9845C211.396 77.6958 211.539 77.4306 211.748 77.2225C211.958 77.0144 212.225 76.8727 212.516 76.8153C212.807 76.7579 213.108 76.7873 213.382 76.9C213.656 77.0126 213.89 77.2033 214.054 77.448C214.219 77.6928 214.307 77.9805 214.307 78.2748C214.306 78.6693 214.148 79.0476 213.867 79.3266C213.587 79.6056 213.206 79.7625 212.808 79.7629Z" fill="#0F1454"/>
<path d="M53.9514 25.4196C53.9514 24.8309 53.7756 24.2555 53.4463 23.7661C53.1169 23.2766 52.6488 22.8952 52.1011 22.6699C51.5534 22.4446 50.9508 22.3857 50.3693 22.5005C49.7879 22.6154 49.2539 22.8988 48.8347 23.3151C48.4155 23.7313 48.13 24.2616 48.0144 24.8389C47.8987 25.4162 47.9581 26.0147 48.1849 26.5585C48.4118 27.1023 48.796 27.5671 49.2889 27.8942C49.7818 28.2212 50.3613 28.3957 50.9541 28.3957C51.7487 28.3948 52.5106 28.081 53.0725 27.523C53.6344 26.9651 53.9505 26.2086 53.9514 25.4196ZM49.4554 25.4196C49.4554 25.1252 49.5433 24.8375 49.708 24.5928C49.8727 24.3481 50.1067 24.1574 50.3806 24.0447C50.6544 23.9321 50.9558 23.9026 51.2465 23.96C51.5372 24.0175 51.8042 24.1592 52.0138 24.3673C52.2234 24.5754 52.3661 24.8406 52.4239 25.1292C52.4818 25.4179 52.4521 25.7171 52.3387 25.989C52.2252 26.2609 52.0331 26.4933 51.7867 26.6569C51.5402 26.8204 51.2505 26.9076 50.9541 26.9076C50.5567 26.9073 50.1758 26.7503 49.8948 26.4714C49.6139 26.1924 49.4558 25.8141 49.4554 25.4196Z" fill="#0F1454"/>
<path d="M16.3173 102.101L18.5458 99.1921L17.1385 98.4004L15.7073 101.659H15.6609L14.2072 98.4227L12.776 99.2382L14.9805 102.079V102.125L11.5321 101.683V103.265L15.003 102.823V102.871L12.776 105.71L14.1113 106.549L15.6369 103.265H15.6834L17.0906 106.525L18.5683 105.688L16.3173 102.893V102.847L19.8571 103.265V101.683L16.3173 102.147V102.101Z" fill="#34D399"/>
<path d="M8.59328 10.2216L7.31044 11.857L8.08074 12.3407L8.95895 10.4493H8.98593L9.7952 12.3273L10.6464 11.8436L9.3501 10.235V10.2082L11.3883 10.4493V9.5371L9.3501 9.80644V9.77966L10.6329 8.10257L9.82367 7.64722L8.99941 9.52371H8.97244L8.13619 7.66061L7.31044 8.12936L8.58129 9.76626V9.79305L6.59558 9.5371V10.4493L8.59328 10.1948V10.2216Z" fill="#34D399"/>
<path d="M249.861 41.8482V40.2962L246.388 40.753V40.7069L248.575 37.8527L247.195 37.0759L245.792 40.2724H245.744L244.32 37.0982L242.915 37.8974L245.079 40.6846V40.7292L241.696 40.2962V41.8482L245.101 41.4152V41.4613L242.915 44.2471L244.226 45.0685L245.723 41.8482H245.767L247.147 45.0462L248.597 44.2247L246.388 41.4837V41.4375L249.861 41.8482Z" fill="#34D399"/>
<path d="M102.959 6.70226L104.844 4.23947L103.654 3.56982L102.443 6.32726H102.403L101.174 3.58917L99.9629 4.27965L101.829 6.68292V6.72161L98.9109 6.3481V7.68738L101.848 7.31387V7.35256L99.9629 9.75584L101.093 10.4657L102.383 7.68738H102.422L103.614 10.4448L104.864 9.73649L102.959 7.37191V7.33322L105.955 7.68738V6.3481L102.959 6.74096V6.70226Z" fill="#34D399"/>
</g>
<defs>
<clipPath id="clip0_134_88">
<rect width="251.773" height="250" fill="white"/>
</clipPath>
</defs>
</svg>
