<svg width="168" height="168" viewBox="0 0 168 168" fill="none" xmlns="http://www.w3.org/2000/svg">
<path d="M2 147.258C3.10457 147.258 4 146.363 4 145.258C4 144.153 3.10457 143.258 2 143.258C0.89543 143.258 0 144.153 0 145.258C0 146.363 0.89543 147.258 2 147.258Z" fill="#0F1454"/>
<path d="M11 143.258H8C7.46957 143.258 6.96086 143.469 6.58579 143.844C6.21071 144.219 6 144.728 6 145.258C6 145.789 6.21071 146.297 6.58579 146.673C6.96086 147.048 7.46957 147.258 8 147.258H11C11.5304 147.258 12.0391 147.048 12.4142 146.673C12.7893 146.297 13 145.789 13 145.258C13 144.728 12.7893 144.219 12.4142 143.844C12.0391 143.469 11.5304 143.258 11 143.258Z" fill="#0F1454"/>
<path d="M160 143.258H157C156.47 143.258 155.961 143.469 155.586 143.844C155.211 144.219 155 144.728 155 145.258C155 145.789 155.211 146.297 155.586 146.673C155.961 147.048 156.47 147.258 157 147.258H160C160.53 147.258 161.039 147.048 161.414 146.673C161.789 146.297 162 145.789 162 145.258C162 144.728 161.789 144.219 161.414 143.844C161.039 143.469 160.53 143.258 160 143.258Z" fill="#0F1454"/>
<path d="M166 147.258C167.105 147.258 168 146.363 168 145.258C168 144.153 167.105 143.258 166 143.258C164.895 143.258 164 144.153 164 145.258C164 146.363 164.895 147.258 166 147.258Z" fill="#0F1454"/>
<path d="M118.154 151.258H109.846C109.343 151.299 108.874 151.527 108.532 151.897C108.19 152.268 108 152.754 108 153.258C108 153.763 108.19 154.249 108.532 154.619C108.874 154.99 109.343 155.218 109.846 155.258H118.154C118.657 155.218 119.126 154.99 119.468 154.619C119.81 154.249 120 153.763 120 153.258C120 152.754 119.81 152.268 119.468 151.897C119.126 151.527 118.657 151.299 118.154 151.258Z" fill="#34D399"/>
<path d="M58.1539 151.258H49.8461C49.3433 151.299 48.8742 151.527 48.5321 151.897C48.1899 152.268 48 152.754 48 153.258C48 153.763 48.1899 154.249 48.5321 154.619C48.8742 154.99 49.3433 155.218 49.8461 155.258H58.1539C58.6566 155.218 59.1258 154.99 59.4679 154.619C59.81 154.249 60 153.763 60 153.258C60 152.754 59.81 152.268 59.4679 151.897C59.1258 151.527 58.6566 151.299 58.1539 151.258Z" fill="#34D399"/>
<path d="M104 151.258H64C63.4696 151.258 62.9609 151.469 62.5858 151.844C62.2107 152.219 62 152.728 62 153.258C62 153.789 62.2107 154.297 62.5858 154.673C62.9609 155.048 63.4696 155.258 64 155.258H79.94V157.258H72C71.4696 157.258 70.9609 157.469 70.5858 157.844C70.2107 158.219 70 158.728 70 159.258C70 159.789 70.2107 160.297 70.5858 160.673C70.9609 161.048 71.4696 161.258 72 161.258H97C97.5304 161.258 98.0391 161.048 98.4142 160.673C98.7893 160.297 99 159.789 99 159.258C99 158.728 98.7893 158.219 98.4142 157.844C98.0391 157.469 97.5304 157.258 97 157.258H88.06V155.258H104C104.53 155.258 105.039 155.048 105.414 154.673C105.789 154.297 106 153.789 106 153.258C106 152.728 105.789 152.219 105.414 151.844C105.039 151.469 104.53 151.258 104 151.258Z" fill="#34D399"/>
<path d="M24 116.764H47.3861L60.2241 129.138C60.7892 129.683 61.5021 130.049 62.2739 130.192C63.0457 130.334 63.8424 130.247 64.5647 129.94C65.287 129.633 65.903 129.12 66.3361 128.465C66.7691 127.811 67 127.043 67 126.258V116.764H70C71.0609 116.764 72.0783 116.343 72.8284 115.593C73.5786 114.843 74 113.825 74 112.764V86.2583C74 85.1974 73.5786 84.18 72.8284 83.4299C72.0783 82.6797 71.0609 82.2583 70 82.2583H24C22.9391 82.2583 21.9217 82.6797 21.1716 83.4299C20.4214 84.18 20 85.1974 20 86.2583V112.764C20 113.825 20.4214 114.843 21.1716 115.593C21.9217 116.343 22.9391 116.764 24 116.764ZM24 86.2583H70V112.764H63V126.258L49 112.764H24V86.2583Z" fill="#0F1454"/>
<path d="M98 85.0896H101V95.2583C101 96.0515 101.236 96.8268 101.677 97.4857C102.119 98.1445 102.747 98.6572 103.48 98.9585C104.214 99.2599 105.021 99.3363 105.798 99.178C106.575 99.0197 107.288 98.634 107.845 98.0697L120.671 85.0896H144C145.061 85.0896 146.078 84.6682 146.828 83.918C147.579 83.1679 148 82.1505 148 81.0896V53.2583C148 52.1974 147.579 51.18 146.828 50.4299C146.078 49.6797 145.061 49.2583 144 49.2583H98C96.9391 49.2583 95.9217 49.6797 95.1716 50.4299C94.4214 51.18 94 52.1974 94 53.2583V81.0896C94 82.1505 94.4214 83.1679 95.1716 83.918C95.9217 84.6682 96.9391 85.0896 98 85.0896ZM98 53.2583H144V81.0896H119L105 95.2583V81.0896H98V53.2583Z" fill="#0F1454"/>
<path d="M37 77.2583H90V73.2583H37C35.4076 73.2605 33.852 73.7374 32.5319 74.628C31.2118 75.5186 30.1872 76.7825 29.589 78.2583H34.3795C35.1021 77.617 36.0339 77.2614 37 77.2583Z" fill="#34D399"/>
<path d="M29 120.764V131.258C29.0024 133.379 29.846 135.413 31.3458 136.912C32.8456 138.412 34.879 139.256 37 139.258H131C133.121 139.256 135.154 138.412 136.654 136.912C138.154 135.413 138.998 133.379 139 131.258V89.0894H135V131.258C135 131.784 134.897 132.304 134.696 132.789C134.495 133.274 134.2 133.715 133.828 134.087C133.457 134.458 133.016 134.753 132.531 134.954C132.045 135.155 131.525 135.258 131 135.258H37C35.9391 135.258 34.9217 134.837 34.1716 134.087C33.4214 133.337 33 132.319 33 131.258V120.764H29Z" fill="#34D399"/>
<path d="M150.721 143.258H17.2787C16.9942 143.221 16.705 143.245 16.4305 143.328C16.1559 143.412 15.9024 143.553 15.6867 143.742C15.4711 143.932 15.2983 144.165 15.18 144.426C15.0616 144.688 15.0004 144.971 15.0004 145.258C15.0004 145.545 15.0616 145.829 15.18 146.09C15.2983 146.352 15.4711 146.585 15.6867 146.774C15.9024 146.963 16.1559 147.104 16.4305 147.188C16.705 147.271 16.9942 147.295 17.2787 147.258H150.721C151.006 147.295 151.295 147.271 151.57 147.188C151.844 147.104 152.098 146.963 152.313 146.774C152.529 146.585 152.702 146.352 152.82 146.09C152.938 145.829 153 145.545 153 145.258C153 144.971 152.938 144.688 152.82 144.426C152.702 144.165 152.529 143.932 152.313 143.742C152.098 143.553 151.844 143.412 151.57 143.328C151.295 143.245 151.006 143.221 150.721 143.258Z" fill="#0F1454"/>
<path d="M110 37.2583C110.593 37.2583 111.173 37.0824 111.667 36.7527C112.16 36.4231 112.545 35.9545 112.772 35.4064C112.999 34.8582 113.058 34.255 112.942 33.673C112.827 33.0911 112.541 32.5565 112.121 32.137C111.702 31.7174 111.167 31.4317 110.585 31.3159C110.003 31.2002 109.4 31.2596 108.852 31.4867C108.304 31.7137 107.835 32.0982 107.506 32.5916C107.176 33.0849 107 33.665 107 34.2583C107.001 35.0537 107.317 35.8162 107.88 36.3786C108.442 36.941 109.205 37.2574 110 37.2583ZM110 32.7583C110.297 32.7583 110.587 32.8463 110.833 33.0111C111.08 33.1759 111.272 33.4102 111.386 33.6843C111.499 33.9584 111.529 34.26 111.471 34.5509C111.413 34.8419 111.27 35.1092 111.061 35.319C110.851 35.5287 110.584 35.6716 110.293 35.7295C110.002 35.7874 109.7 35.7577 109.426 35.6441C109.152 35.5306 108.918 35.3383 108.753 35.0917C108.588 34.845 108.5 34.555 108.5 34.2583C108.5 33.8606 108.659 33.4793 108.94 33.1981C109.221 32.9169 109.602 32.7587 110 32.7583Z" fill="#0F1454"/>
<path d="M158.305 73.2583C157.909 73.2583 157.522 73.3756 157.194 73.5954C156.865 73.8151 156.608 74.1275 156.457 74.4929C156.306 74.8584 156.266 75.2605 156.343 75.6485C156.42 76.0364 156.611 76.3928 156.891 76.6725C157.17 76.9522 157.527 77.1427 157.915 77.2199C158.303 77.297 158.705 77.2574 159.07 77.1061C159.436 76.9547 159.748 76.6983 159.968 76.3694C160.187 76.0405 160.305 75.6539 160.305 75.2583C160.304 74.7281 160.093 74.2197 159.718 73.8448C159.343 73.4698 158.835 73.2589 158.305 73.2583ZM158.305 76.2583C158.107 76.2583 157.914 76.1996 157.749 76.0898C157.585 75.9799 157.457 75.8237 157.381 75.641C157.305 75.4583 157.285 75.2572 157.324 75.0632C157.363 74.8692 157.458 74.691 157.598 74.5512C157.737 74.4113 157.916 74.3161 158.11 74.2775C158.304 74.2389 158.505 74.2587 158.687 74.3344C158.87 74.4101 159.026 74.5383 159.136 74.7027C159.246 74.8672 159.305 75.0605 159.305 75.2583C159.304 75.5234 159.199 75.7776 159.012 75.9651C158.824 76.1526 158.57 76.258 158.305 76.2583Z" fill="#0F1454"/>
<path d="M71.3047 57.2583C70.9092 57.2583 70.5225 57.3756 70.1936 57.5954C69.8647 57.8151 69.6083 58.1275 69.457 58.4929C69.3056 58.8584 69.266 59.2605 69.3431 59.6485C69.4203 60.0364 69.6108 60.3928 69.8905 60.6725C70.1702 60.9522 70.5266 61.1427 70.9145 61.2199C71.3025 61.297 71.7046 61.2574 72.0701 61.1061C72.4355 60.9547 72.7479 60.6983 72.9677 60.3694C73.1874 60.0405 73.3047 59.6539 73.3047 59.2583C73.3041 58.7281 73.0932 58.2197 72.7183 57.8448C72.3433 57.4698 71.835 57.2589 71.3047 57.2583ZM71.3047 60.2583C71.1069 60.2583 70.9136 60.1997 70.7491 60.0898C70.5847 59.9799 70.4565 59.8237 70.3808 59.641C70.3052 59.4583 70.2853 59.2572 70.3239 59.0632C70.3625 58.8692 70.4578 58.691 70.5976 58.5512C70.7375 58.4113 70.9156 58.3161 71.1096 58.2775C71.3036 58.2389 71.5047 58.2587 71.6874 58.3344C71.8701 58.4101 72.0263 58.5383 72.1362 58.7027C72.2461 58.8672 72.3047 59.0605 72.3047 59.2583C72.3045 59.5234 72.199 59.7776 72.0115 59.9651C71.8241 60.1526 71.5699 60.258 71.3047 60.2583Z" fill="#0F1454"/>
<path d="M154.581 7.05847C154.185 7.05847 153.798 7.17577 153.469 7.39553C153.141 7.6153 152.884 7.92765 152.733 8.29311C152.581 8.65856 152.542 9.06069 152.619 9.44865C152.696 9.83661 152.887 10.193 153.166 10.4727C153.446 10.7524 153.802 10.9429 154.19 11.02C154.578 11.0972 154.98 11.0576 155.346 10.9062C155.711 10.7549 156.024 10.4985 156.244 10.1696C156.463 9.84071 156.581 9.45403 156.581 9.05847C156.58 8.52822 156.369 8.01987 155.994 7.64493C155.619 7.26999 155.111 7.05908 154.581 7.05847ZM154.581 10.0585C154.383 10.0585 154.189 9.99982 154.025 9.88994C153.861 9.78006 153.732 9.62388 153.657 9.44116C153.581 9.25843 153.561 9.05736 153.6 8.86338C153.638 8.6694 153.734 8.49122 153.873 8.35137C154.013 8.21151 154.191 8.11627 154.385 8.07769C154.579 8.0391 154.781 8.0589 154.963 8.13459C155.146 8.21028 155.302 8.33845 155.412 8.5029C155.522 8.66735 155.581 8.86069 155.581 9.05847C155.58 9.32361 155.475 9.57781 155.287 9.76529C155.1 9.95277 154.846 10.0582 154.581 10.0585Z" fill="#0F1454"/>
<path d="M17.3047 32.2583C17.3047 31.8627 17.1874 31.4761 16.9677 31.1472C16.7479 30.8183 16.4355 30.5619 16.0701 30.4105C15.7046 30.2592 15.3025 30.2196 14.9145 30.2967C14.5266 30.3739 14.1702 30.5644 13.8905 30.8441C13.6108 31.1238 13.4203 31.4802 13.3431 31.8681C13.266 32.2561 13.3056 32.6582 13.457 33.0237C13.6083 33.3891 13.8647 33.7015 14.1936 33.9212C14.5225 34.141 14.9092 34.2583 15.3047 34.2583C15.835 34.2577 16.3433 34.0468 16.7183 33.6718C17.0932 33.2969 17.3041 32.7885 17.3047 32.2583ZM14.3047 32.2583C14.3047 32.0605 14.3634 31.8672 14.4732 31.7027C14.5831 31.5383 14.7393 31.4101 14.922 31.3344C15.1048 31.2587 15.3058 31.2389 15.4998 31.2775C15.6938 31.3161 15.872 31.4113 16.0118 31.5512C16.1517 31.691 16.2469 31.8692 16.2855 32.0632C16.3241 32.2572 16.3043 32.4583 16.2286 32.641C16.1529 32.8237 16.0247 32.9799 15.8603 33.0898C15.6958 33.1997 15.5025 33.2583 15.3047 33.2583C15.0396 33.258 14.7854 33.1526 14.5979 32.9651C14.4104 32.7776 14.305 32.5234 14.3047 32.2583Z" fill="#0F1454"/>
<path d="M10.888 73.27L12.375 71.314L11.436 70.782L10.481 72.972H10.45L9.48001 70.797L8.52501 71.345L9.99601 73.254V73.285L7.69501 72.988V74.052L10.011 73.755V73.786L8.52501 75.695L9.41601 76.258L10.434 74.052H10.465L11.404 76.242L12.39 75.679L10.888 73.801V73.77L13.25 74.052V72.988L10.888 73.301V73.27Z" fill="#34D399"/>
<path d="M52.081 38.325L51.225 39.424L51.739 39.748L52.325 38.478H52.342L52.883 39.739L53.451 39.415L52.586 38.334V38.316L53.946 38.478V37.865L52.586 38.045V38.027L53.442 36.901L52.902 36.595L52.352 37.856H52.334L51.775 36.604L51.225 36.919L52.072 38.019V38.037L50.747 37.865V38.478L52.081 38.307V38.325Z" fill="#34D399"/>
<path d="M160.029 38.693V37.65L157.712 37.956V37.926L159.17 36.008L158.249 35.486L157.313 37.634H157.282L156.331 35.501L155.394 36.038L156.837 37.911V37.941L154.581 37.65V38.693L156.852 38.402V38.433L155.394 40.304L156.269 40.857L157.267 38.693H157.297L158.218 40.842L159.185 40.289L157.712 38.448V38.417L160.029 38.693Z" fill="#34D399"/>
<path d="M74.351 8.84594L75.609 7.19194L74.815 6.74194L74.008 8.59494H73.981L73.16 6.75494L72.352 7.21794L73.597 8.83294V8.85994L71.65 8.60794V9.50794L73.61 9.25694V9.28294L72.352 10.8979L73.106 11.3749L73.968 9.50794H73.994L74.788 11.3619L75.622 10.8849L74.351 9.29594V9.26994L76.35 9.50794V8.60794L74.351 8.87294V8.84594Z" fill="#34D399"/>
</svg>
