<svg width="168" height="168" viewBox="0 0 168 168" fill="none" xmlns="http://www.w3.org/2000/svg">
<path d="M110 72.7885H72C71.4696 72.7885 70.9609 72.9992 70.5858 73.3742C70.2107 73.7493 70 74.258 70 74.7885C70 75.3189 70.2107 75.8276 70.5858 76.2027C70.9609 76.5777 71.4696 76.7885 72 76.7885H110C110.53 76.7885 111.039 76.5777 111.414 76.2027C111.789 75.8276 112 75.3189 112 74.7885C112 74.258 111.789 73.7493 111.414 73.3742C111.039 72.9992 110.53 72.7885 110 72.7885Z" fill="#34D399"/>
<path d="M110 82.7885H72C71.4696 82.7885 70.9609 82.9992 70.5858 83.3742C70.2107 83.7493 70 84.258 70 84.7885C70 85.3189 70.2107 85.8276 70.5858 86.2027C70.9609 86.5777 71.4696 86.7885 72 86.7885H110C110.53 86.7885 111.039 86.5777 111.414 86.2027C111.789 85.8276 112 85.3189 112 84.7885C112 84.258 111.789 83.7493 111.414 83.3742C111.039 82.9992 110.53 82.7885 110 82.7885Z" fill="white"/>
<path d="M110 92.7885H72C71.4696 92.7885 70.9609 92.9992 70.5858 93.3742C70.2107 93.7493 70 94.258 70 94.7885C70 95.3189 70.2107 95.8276 70.5858 96.2027C70.9609 96.5777 71.4696 96.7885 72 96.7885H110C110.53 96.7885 111.039 96.5777 111.414 96.2027C111.789 95.8276 112 95.3189 112 94.7885C112 94.258 111.789 93.7493 111.414 93.3742C111.039 92.9992 110.53 92.7885 110 92.7885Z" fill="#34D399"/>
<path d="M147.638 61.184C147.412 60.8614 147.096 60.6128 146.73 60.4691C146.363 60.3254 145.962 60.2931 145.578 60.3763L132 63.3099V57.7885C131.998 56.1977 131.366 54.6726 130.241 53.5477C129.116 52.4229 127.591 51.7902 126 51.7885H75.4199C75.7275 53.1019 75.9132 54.4409 75.9746 55.7885H126C126.53 55.7891 127.039 56 127.414 56.3749C127.788 56.7498 127.999 57.2582 128 57.7885V65.7884C128 66.087 128.067 66.3817 128.196 66.651C128.324 66.9203 128.512 67.1574 128.744 67.3449C128.976 67.5324 129.248 67.6655 129.538 67.7345C129.828 67.8035 130.131 67.8066 130.422 67.7435L141.778 65.2894L128.307 86.724C128.106 87.043 128 87.4119 128 87.7884V111.788C127.999 112.319 127.788 112.827 127.414 113.202C127.039 113.577 126.53 113.788 126 113.788H55.9624C55.4372 113.783 54.9356 113.569 54.5678 113.194C54.1999 112.819 53.9957 112.314 54 111.788V78.7884C52.6582 78.7869 51.3193 78.6627 50 78.4174V111.788C49.9968 113.374 50.6228 114.897 51.7406 116.021C52.8583 117.146 54.3767 117.782 55.9624 117.788H126C127.591 117.787 129.116 117.154 130.241 116.029C131.366 114.904 131.998 113.379 132 111.788V88.3646L147.693 63.3959C147.903 63.0626 148.009 62.675 147.999 62.2815C147.989 61.888 147.864 61.5062 147.638 61.184Z" fill="white"/>
<path d="M54 74.7885C57.5601 74.7885 61.0402 73.7328 64.0003 71.7549C66.9604 69.777 69.2675 66.9658 70.6298 63.6768C71.9922 60.3877 72.3487 56.7685 71.6541 53.2768C70.9596 49.7852 69.2453 46.5779 66.7279 44.0605C64.2106 41.5432 61.0033 39.8289 57.5116 39.1343C54.02 38.4398 50.4008 38.7963 47.1117 40.1586C43.8226 41.521 41.0114 43.8281 39.0335 46.7882C37.0557 49.7483 36 53.2284 36 56.7885C36.0055 61.5607 37.9036 66.1359 41.2781 69.5104C44.6526 72.8848 49.2278 74.783 54 74.7885ZM54 42.7885C56.7689 42.7885 59.4757 43.6095 61.778 45.1479C64.0803 46.6862 65.8747 48.8727 66.9343 51.4309C67.9939 53.9891 68.2712 56.804 67.731 59.5197C67.1908 62.2355 65.8574 64.73 63.8995 66.688C61.9416 68.6459 59.447 69.9793 56.7313 70.5195C54.0155 71.0596 51.2006 70.7824 48.6424 69.7228C46.0843 68.6631 43.8978 66.8687 42.3594 64.5664C40.8211 62.2642 40 59.5574 40 56.7885C40.0042 53.0767 41.4805 49.5182 44.1051 46.8936C46.7297 44.269 50.2882 42.7926 54 42.7885Z" fill="#34D399"/>
<path d="M48.9875 63.7614C49.3993 64.1804 49.8651 64.5426 50.3728 64.8382C50.8824 65.1346 51.4256 65.3691 51.9908 65.5367C52.5971 65.7099 53.2252 65.7947 53.8558 65.7884C54.6766 65.7921 55.4893 65.6254 56.2424 65.2989C56.9767 64.9826 57.6426 64.5268 58.2032 63.9568C58.7636 63.3845 59.2103 62.7111 59.5196 61.9723C59.8438 61.1982 60.0073 60.3664 60 59.5272C60.0069 58.6853 59.8339 57.8517 59.4926 57.082C59.167 56.346 58.7063 55.6776 58.1344 55.1114C57.5739 54.5747 56.9243 54.1396 56.2147 53.8255L58.8752 51.115C59.2181 50.7532 59.4051 50.2712 59.3961 49.7728C59.3974 49.2543 59.2013 48.7547 58.8476 48.3756C58.534 48.0745 58.1284 47.8876 57.6958 47.8448C57.5434 47.8065 57.3867 47.7875 57.2295 47.7884H50.5097C50.2643 47.7814 50.0202 47.8263 49.7934 47.9202C49.5665 48.0141 49.362 48.1548 49.1933 48.3331C48.8581 48.7024 48.6724 49.1833 48.6724 49.6821C48.6724 50.1809 48.8581 50.6618 49.1933 51.0311C49.36 51.2129 49.5638 51.3568 49.7909 51.4532C50.018 51.5495 50.2631 51.596 50.5097 51.5895H53.4172L51.2229 53.8531C51.0467 54.0261 50.9073 54.233 50.813 54.4613C50.7187 54.6896 50.6716 54.9345 50.6744 55.1815C50.6727 55.4306 50.7231 55.6774 50.8223 55.9059C50.9215 56.1345 51.0674 56.3398 51.2506 56.5086C51.5204 56.8133 51.89 57.0117 52.2931 57.0682C52.3737 57.0877 52.4564 57.097 52.5394 57.0958C52.6497 57.096 52.7599 57.0867 52.8687 57.0682H53.8558C54.1797 57.0598 54.5018 57.1188 54.8017 57.2415C55.1016 57.3641 55.3727 57.5477 55.598 57.7806C55.8262 58.0096 56.0058 58.2823 56.1259 58.5825C56.246 58.8826 56.3042 59.204 56.297 59.5272C56.306 59.8549 56.2488 60.1811 56.1287 60.4862C56.0086 60.7913 55.8281 61.069 55.598 61.3026C55.3725 61.5352 55.1013 61.7186 54.8015 61.8412C54.5016 61.9638 54.1796 62.0229 53.8558 62.0149C53.4497 62.0422 53.0425 61.9803 52.6629 61.8333C52.44 61.7163 52.2402 61.5598 52.0731 61.3714C51.9091 61.1868 51.758 60.991 51.621 60.7855C51.4746 60.5708 51.2939 60.3817 51.086 60.2258C50.9255 60.0507 50.7306 59.9108 50.5135 59.8147C50.2963 59.7186 50.0617 59.6684 49.8242 59.6673C49.5002 59.6608 49.1812 59.7483 48.9058 59.919C48.6489 60.0774 48.4365 60.2984 48.2885 60.5614C48.1399 60.8289 48.0466 61.1235 48.0139 61.4277C47.9766 61.7396 48.0143 62.056 48.1238 62.3504C48.2955 62.8827 48.5915 63.3665 48.9875 63.7614Z" fill="#34D399"/>
<path d="M160 146.788H157C156.47 146.788 155.961 146.999 155.586 147.374C155.211 147.749 155 148.258 155 148.788C155 149.319 155.211 149.828 155.586 150.203C155.961 150.578 156.47 150.788 157 150.788H160C160.53 150.788 161.039 150.578 161.414 150.203C161.789 149.828 162 149.319 162 148.788C162 148.258 161.789 147.749 161.414 147.374C161.039 146.999 160.53 146.788 160 146.788Z" fill="white"/>
<path d="M166 150.788C167.105 150.788 168 149.893 168 148.788C168 147.683 167.105 146.788 166 146.788C164.895 146.788 164 147.683 164 148.788C164 149.893 164.895 150.788 166 150.788Z" fill="white"/>
<path d="M118.154 154.788H109.846C109.343 154.829 108.874 155.057 108.532 155.427C108.19 155.798 108 156.284 108 156.788C108 157.293 108.19 157.779 108.532 158.149C108.874 158.52 109.343 158.748 109.846 158.788H118.154C118.657 158.748 119.126 158.52 119.468 158.149C119.81 157.779 120 157.293 120 156.788C120 156.284 119.81 155.798 119.468 155.427C119.126 155.057 118.657 154.829 118.154 154.788Z" fill="#34D399"/>
<path d="M58.1539 154.788H49.8461C49.3433 154.829 48.8742 155.057 48.5321 155.427C48.1899 155.798 48 156.284 48 156.788C48 157.293 48.1899 157.779 48.5321 158.149C48.8742 158.52 49.3433 158.748 49.8461 158.788H58.1539C58.6566 158.748 59.1258 158.52 59.4679 158.149C59.81 157.779 60 157.293 60 156.788C60 156.284 59.81 155.798 59.4679 155.427C59.1258 155.057 58.6566 154.829 58.1539 154.788Z" fill="#34D399"/>
<path d="M104 154.788H64C63.4696 154.788 62.9609 154.999 62.5858 155.374C62.2107 155.749 62 156.258 62 156.788C62 157.319 62.2107 157.828 62.5858 158.203C62.9609 158.578 63.4696 158.788 64 158.788H79.94V160.788H72C71.4696 160.788 70.9609 160.999 70.5858 161.374C70.2107 161.749 70 162.258 70 162.788C70 163.319 70.2107 163.828 70.5858 164.203C70.9609 164.578 71.4696 164.788 72 164.788H97C97.5304 164.788 98.0391 164.578 98.4142 164.203C98.7893 163.828 99 163.319 99 162.788C99 162.258 98.7893 161.749 98.4142 161.374C98.0391 160.999 97.5304 160.788 97 160.788H88.06V158.788H104C104.53 158.788 105.039 158.578 105.414 158.203C105.789 157.828 106 157.319 106 156.788C106 156.258 105.789 155.749 105.414 155.374C105.039 154.999 104.53 154.788 104 154.788Z" fill="#34D399"/>
<path d="M2 150.788C3.10457 150.788 4 149.893 4 148.788C4 147.683 3.10457 146.788 2 146.788C0.89543 146.788 0 147.683 0 148.788C0 149.893 0.89543 150.788 2 150.788Z" fill="white"/>
<path d="M11 146.788H8C7.46957 146.788 6.96086 146.999 6.58579 147.374C6.21071 147.749 6 148.258 6 148.788C6 149.319 6.21071 149.827 6.58579 150.203C6.96086 150.578 7.46957 150.788 8 150.788H11C11.5304 150.788 12.0391 150.578 12.4142 150.203C12.7893 149.827 13 149.319 13 148.788C13 148.258 12.7893 147.749 12.4142 147.374C12.0391 146.999 11.5304 146.788 11 146.788Z" fill="white"/>
<path d="M150.721 146.788H37.4841L56.5762 134.788H91C92.5908 134.787 94.1159 134.154 95.2407 133.029C96.3656 131.904 96.9983 130.379 97 128.788V121.788H93V128.788C92.993 129.317 92.7801 129.821 92.4065 130.195C92.0329 130.568 91.5283 130.781 91 130.788H56.0001C55.6235 130.788 55.2545 130.895 54.9356 131.095L33.5015 144.567L35.9551 133.21C36.018 132.918 36.0148 132.616 35.9457 132.326C35.8766 132.036 35.7435 131.765 35.5561 131.532C35.3686 131.3 35.1316 131.113 34.8623 130.984C34.5931 130.855 34.2985 130.788 34.0001 130.788H26.0001C25.4718 130.781 24.9671 130.568 24.5936 130.195C24.22 129.821 24.007 129.317 24.0001 128.788V83.6936C24.0134 83.176 24.2315 82.6848 24.6063 82.3277C24.9812 81.9706 25.4824 81.7766 26.0001 81.7883H46.0001V77.7883H26.0001C24.4219 77.7777 22.9039 78.3934 21.7791 79.5005C20.6543 80.6075 20.0145 82.1155 20.0001 83.6936V128.788C20.0018 130.379 20.6345 131.904 21.7593 133.029C22.8842 134.154 24.4093 134.787 26.0001 134.788H31.5221L28.9294 146.788H17.2787C16.9942 146.751 16.705 146.775 16.4305 146.859C16.1559 146.942 15.9024 147.083 15.6867 147.273C15.4711 147.462 15.2983 147.695 15.18 147.956C15.0616 148.218 15.0004 148.501 15.0004 148.788C15.0004 149.075 15.0616 149.359 15.18 149.62C15.2983 149.882 15.4711 150.115 15.6867 150.304C15.9024 150.493 16.1559 150.635 16.4305 150.718C16.705 150.802 16.9942 150.826 17.2787 150.788H150.721C151.006 150.826 151.295 150.802 151.57 150.718C151.844 150.635 152.098 150.493 152.313 150.304C152.529 150.115 152.702 149.882 152.82 149.62C152.938 149.359 153 149.075 153 148.788C153 148.501 152.938 148.218 152.82 147.956C152.702 147.695 152.529 147.462 152.313 147.273C152.098 147.083 151.844 146.942 151.57 146.859C151.295 146.775 151.006 146.751 150.721 146.788Z" fill="white"/>
<path d="M43 35.7018C43.5933 35.7018 44.1734 35.5258 44.6667 35.1962C45.1601 34.8665 45.5446 34.398 45.7716 33.8498C45.9987 33.3017 46.0581 32.6985 45.9424 32.1165C45.8266 31.5346 45.5409 31 45.1213 30.5805C44.7018 30.1609 44.1672 29.8752 43.5853 29.7594C43.0033 29.6437 42.4001 29.7031 41.852 29.9301C41.3038 30.1572 40.8352 30.5417 40.5056 31.0351C40.1759 31.5284 40 32.1084 40 32.7018C40.0009 33.4972 40.3173 34.2597 40.8797 34.8221C41.4421 35.3845 42.2046 35.7009 43 35.7018ZM43 31.2018C43.2967 31.2018 43.5867 31.2898 43.8334 31.4546C44.08 31.6194 44.2723 31.8537 44.3858 32.1278C44.4994 32.4018 44.5291 32.7034 44.4712 32.9944C44.4133 33.2854 44.2704 33.5527 44.0607 33.7624C43.8509 33.9722 43.5836 34.1151 43.2926 34.173C43.0017 34.2308 42.7001 34.2011 42.426 34.0876C42.1519 33.9741 41.9176 33.7818 41.7528 33.5351C41.588 33.2885 41.5 32.9985 41.5 32.7018C41.5004 32.3041 41.6586 31.9228 41.9398 31.6416C42.221 31.3603 42.6023 31.2022 43 31.2018Z" fill="white"/>
<path d="M158.305 67.7883C157.909 67.7883 157.522 67.9056 157.194 68.1254C156.865 68.3452 156.608 68.6575 156.457 69.023C156.306 69.3884 156.266 69.7906 156.343 70.1785C156.42 70.5665 156.611 70.9228 156.89 71.2025C157.17 71.4823 157.527 71.6727 157.915 71.7499C158.302 71.8271 158.705 71.7875 159.07 71.6361C159.436 71.4847 159.748 71.2284 159.968 70.8995C160.187 70.5706 160.305 70.1839 160.305 69.7883C160.304 69.2581 160.093 68.7497 159.718 68.3748C159.343 67.9998 158.835 67.7889 158.305 67.7883ZM158.305 70.7883C158.107 70.7883 157.914 70.7297 157.749 70.6198C157.585 70.5099 157.457 70.3537 157.381 70.171C157.305 69.9883 157.285 69.7872 157.324 69.5932C157.363 69.3993 157.458 69.2211 157.598 69.0812C157.737 68.9414 157.916 68.8461 158.11 68.8075C158.304 68.769 158.505 68.7888 158.687 68.8645C158.87 68.9401 159.026 69.0683 159.136 69.2328C159.246 69.3972 159.305 69.5905 159.305 69.7883C159.304 70.0535 159.199 70.3077 159.012 70.4951C158.824 70.6826 158.57 70.7881 158.305 70.7883Z" fill="white"/>
<path d="M89 3.21155C88.6044 3.21155 88.2178 3.32885 87.8889 3.54861C87.56 3.76837 87.3036 4.08073 87.1522 4.44618C87.0009 4.81163 86.9613 5.21377 87.0384 5.60173C87.1156 5.98969 87.3061 6.34606 87.5858 6.62576C87.8655 6.90547 88.2219 7.09595 88.6098 7.17312C88.9978 7.25029 89.3999 7.21068 89.7654 7.05931C90.1308 6.90793 90.4432 6.65159 90.6629 6.32269C90.8827 5.99379 91 5.60711 91 5.21155C90.9994 4.6813 90.7885 4.17295 90.4135 3.798C90.0386 3.42306 89.5302 3.21215 89 3.21155ZM89 6.21155C88.8022 6.21155 88.6089 6.1529 88.4444 6.04302C88.28 5.93314 88.1518 5.77696 88.0761 5.59423C88.0004 5.41151 87.9806 5.21044 88.0192 5.01646C88.0578 4.82248 88.153 4.64429 88.2929 4.50444C88.4327 4.36459 88.6109 4.26935 88.8049 4.23076C88.9989 4.19218 89.2 4.21198 89.3827 4.28767C89.5654 4.36336 89.7216 4.49153 89.8315 4.65598C89.9413 4.82043 90 5.01377 90 5.21155C89.9997 5.47668 89.8943 5.73088 89.7068 5.91836C89.5193 6.10584 89.2651 6.21128 89 6.21155Z" fill="white"/>
<path d="M160.305 22.7883C159.909 22.7883 159.522 22.9056 159.194 23.1254C158.865 23.3452 158.608 23.6575 158.457 24.023C158.306 24.3884 158.266 24.7905 158.343 25.1785C158.42 25.5665 158.611 25.9228 158.89 26.2025C159.17 26.4822 159.527 26.6727 159.915 26.7499C160.302 26.8271 160.705 26.7875 161.07 26.6361C161.436 26.4847 161.748 26.2284 161.968 25.8995C162.187 25.5706 162.305 25.1839 162.305 24.7883C162.304 24.2581 162.093 23.7497 161.718 23.3748C161.343 22.9998 160.835 22.7889 160.305 22.7883ZM160.305 25.7883C160.107 25.7883 159.914 25.7297 159.749 25.6198C159.585 25.5099 159.457 25.3537 159.381 25.171C159.305 24.9883 159.285 24.7872 159.324 24.5932C159.363 24.3993 159.458 24.2211 159.598 24.0812C159.737 23.9414 159.916 23.8461 160.11 23.8075C160.304 23.769 160.505 23.7888 160.687 23.8645C160.87 23.9401 161.026 24.0683 161.136 24.2328C161.246 24.3972 161.305 24.5905 161.305 24.7883C161.304 25.0535 161.199 25.3077 161.012 25.4951C160.824 25.6826 160.57 25.7881 160.305 25.7883Z" fill="white"/>
<path d="M17.3047 26.7883C17.3047 26.3928 17.1874 26.0061 16.9676 25.6772C16.7479 25.3483 16.4355 25.0919 16.0701 24.9406C15.7046 24.7892 15.3025 24.7496 14.9145 24.8268C14.5266 24.9039 14.1702 25.0944 13.8905 25.3741C13.6108 25.6538 13.4203 26.0102 13.3431 26.3982C13.266 26.7861 13.3056 27.1882 13.4569 27.5537C13.6083 27.9192 13.8647 28.2315 14.1936 28.4513C14.5225 28.671 14.9091 28.7883 15.3047 28.7883C15.835 28.7877 16.3433 28.5768 16.7182 28.2019C17.0932 27.8269 17.3041 27.3186 17.3047 26.7883ZM14.3047 26.7883C14.3047 26.5905 14.3634 26.3972 14.4732 26.2328C14.5831 26.0683 14.7393 25.9401 14.922 25.8645C15.1047 25.7888 15.3058 25.769 15.4998 25.8075C15.6938 25.8461 15.872 25.9414 16.0118 26.0812C16.1517 26.2211 16.2469 26.3993 16.2855 26.5932C16.3241 26.7872 16.3043 26.9883 16.2286 27.171C16.1529 27.3537 16.0247 27.5099 15.8603 27.6198C15.6958 27.7297 15.5025 27.7883 15.3047 27.7883C15.0396 27.7881 14.7854 27.6826 14.5979 27.4951C14.4104 27.3077 14.305 27.0535 14.3047 26.7883Z" fill="white"/>
<path d="M10.888 67.8L12.375 65.844L11.436 65.312L10.481 67.502H10.45L9.48001 65.328L8.52501 65.875L9.99601 67.784V67.816L7.69501 67.518V68.582L10.011 68.285V68.316L8.52501 70.225L9.41601 70.788L10.434 68.582H10.465L11.404 70.772L12.39 70.209L10.888 68.332V68.3L13.25 68.582V67.518L10.888 67.831V67.8Z" fill="#34D399"/>
<path d="M45.734 8.94204L44.878 10.041L45.392 10.365L45.978 9.09504H45.996L46.536 10.356L47.104 10.032L46.239 8.95004V8.93204L47.599 9.09504V8.48204L46.239 8.66204V8.64404L47.095 7.51804L46.555 7.21204L46.005 8.47304H45.987L45.429 7.22004L44.878 7.53604L45.726 8.63504V8.65304L44.401 8.48204V9.09504L45.734 8.92404V8.94204Z" fill="#34D399"/>
<path d="M126.782 27.31V26.266L124.465 26.573V26.543L125.923 24.624L125.002 24.103L124.066 26.251H124.035L123.084 24.118L122.147 24.655L123.59 26.528V26.558L121.333 26.266V27.31L123.605 27.019V27.049L122.147 28.921L123.022 29.474L124.02 27.31H124.05L124.971 29.459L125.938 28.906L124.465 27.064V27.034L126.782 27.31Z" fill="#34D399"/>
<path d="M87.351 36.306L88.609 34.652L87.815 34.202L87.008 36.055H86.981L86.16 34.215L85.352 34.678L86.597 36.294V36.32L84.65 36.068V36.968L86.61 36.717V36.744L85.352 38.358L86.106 38.835L86.968 36.968H86.994L87.788 38.822L88.622 38.345L87.351 36.756V36.73L89.35 36.968V36.068L87.351 36.333V36.306Z" fill="#34D399"/>
</svg>
