<svg width="168" height="168" viewBox="0 0 168 168" fill="none" xmlns="http://www.w3.org/2000/svg">
<path d="M110 72.7881H72C71.4696 72.7881 70.9609 72.9988 70.5858 73.3739C70.2107 73.749 70 74.2577 70 74.7881C70 75.3185 70.2107 75.8272 70.5858 76.2023C70.9609 76.5774 71.4696 76.7881 72 76.7881H110C110.53 76.7881 111.039 76.5774 111.414 76.2023C111.789 75.8272 112 75.3185 112 74.7881C112 74.2577 111.789 73.749 111.414 73.3739C111.039 72.9988 110.53 72.7881 110 72.7881Z" fill="#34D399"/>
<path d="M110 82.7881H72C71.4696 82.7881 70.9609 82.9988 70.5858 83.3739C70.2107 83.749 70 84.2577 70 84.7881C70 85.3185 70.2107 85.8272 70.5858 86.2023C70.9609 86.5774 71.4696 86.7881 72 86.7881H110C110.53 86.7881 111.039 86.5774 111.414 86.2023C111.789 85.8272 112 85.3185 112 84.7881C112 84.2577 111.789 83.749 111.414 83.3739C111.039 82.9988 110.53 82.7881 110 82.7881Z" fill="#0F1454"/>
<path d="M110 92.7881H72C71.4696 92.7881 70.9609 92.9988 70.5858 93.3739C70.2107 93.749 70 94.2577 70 94.7881C70 95.3185 70.2107 95.8272 70.5858 96.2023C70.9609 96.5774 71.4696 96.7881 72 96.7881H110C110.53 96.7881 111.039 96.5774 111.414 96.2023C111.789 95.8272 112 95.3185 112 94.7881C112 94.2577 111.789 93.749 111.414 93.3739C111.039 92.9988 110.53 92.7881 110 92.7881Z" fill="#34D399"/>
<path d="M147.638 61.1836C147.412 60.8611 147.096 60.6124 146.73 60.4687C146.363 60.325 145.962 60.2928 145.578 60.376L132 63.3096V57.7881C131.998 56.1973 131.366 54.6722 130.241 53.5474C129.116 52.4225 127.591 51.7898 126 51.7881H75.4199C75.7275 53.1015 75.9132 54.4405 75.9746 55.7881H126C126.53 55.7887 127.039 55.9996 127.414 56.3745C127.788 56.7495 127.999 57.2578 128 57.7881V65.7881C128 66.0866 128.067 66.3813 128.196 66.6506C128.324 66.92 128.512 67.1571 128.744 67.3446C128.976 67.532 129.248 67.6651 129.538 67.7341C129.828 67.8031 130.131 67.8062 130.422 67.7432L141.778 65.2891L128.307 86.7237C128.106 87.0426 128 87.4115 128 87.7881V111.788C127.999 112.318 127.788 112.827 127.414 113.202C127.039 113.577 126.53 113.787 126 113.788H55.9624C55.4372 113.782 54.9356 113.569 54.5678 113.194C54.1999 112.819 53.9957 112.313 54 111.788V78.7881C52.6582 78.7865 51.3193 78.6623 50 78.417V111.788C49.9968 113.374 50.6228 114.896 51.7406 116.021C52.8583 117.146 54.3767 117.781 55.9624 117.788H126C127.591 117.786 129.116 117.154 130.241 116.029C131.366 114.904 131.998 113.379 132 111.788V88.3643L147.693 63.3955C147.903 63.0623 148.009 62.6746 147.999 62.2811C147.989 61.8877 147.864 61.5059 147.638 61.1836Z" fill="#0F1454"/>
<path d="M54 74.7881C57.5601 74.7881 61.0402 73.7324 64.0003 71.7545C66.9604 69.7767 69.2675 66.9655 70.6298 63.6764C71.9922 60.3873 72.3487 56.7681 71.6541 53.2765C70.9596 49.7848 69.2453 46.5775 66.7279 44.0602C64.2106 41.5428 61.0033 39.8285 57.5116 39.134C54.02 38.4394 50.4008 38.7959 47.1117 40.1583C43.8226 41.5206 41.0114 43.8277 39.0335 46.7878C37.0557 49.7479 36 53.228 36 56.7881C36.0055 61.5603 37.9036 66.1355 41.2781 69.51C44.6526 72.8845 49.2278 74.7826 54 74.7881ZM54 42.7881C56.7689 42.7881 59.4757 43.6092 61.778 45.1475C64.0803 46.6859 65.8747 48.8724 66.9343 51.4305C67.9939 53.9887 68.2712 56.8036 67.731 59.5194C67.1908 62.2351 65.8574 64.7297 63.8995 66.6876C61.9416 68.6455 59.447 69.9789 56.7313 70.5191C54.0155 71.0593 51.2006 70.782 48.6424 69.7224C46.0843 68.6628 43.8978 66.8684 42.3594 64.5661C40.8211 62.2638 40 59.557 40 56.7881C40.0042 53.0763 41.4805 49.5178 44.1051 46.8932C46.7297 44.2686 50.2882 42.7923 54 42.7881Z" fill="#34D399"/>
<path d="M48.9876 63.7618C49.3993 64.1808 49.8652 64.5429 50.3728 64.8386C50.8824 65.135 51.4256 65.3695 51.9908 65.5371C52.5971 65.7103 53.2253 65.795 53.8558 65.7888C54.6766 65.7925 55.4893 65.6258 56.2424 65.2993C56.9767 64.983 57.6426 64.5272 58.2032 63.9571C58.7636 63.3849 59.2103 62.7115 59.5196 61.9726C59.8439 61.1986 60.0073 60.3667 60 59.5276C60.0069 58.6857 59.8339 57.852 59.4927 57.0824C59.1671 56.3464 58.7064 55.678 58.1344 55.1118C57.574 54.5751 56.9244 54.14 56.2148 53.8259L58.8753 51.1153C59.2181 50.7535 59.4052 50.2715 59.3961 49.7732C59.3975 49.2547 59.2013 48.7551 58.8476 48.376C58.5341 48.0749 58.1284 47.888 57.6958 47.8452C57.5434 47.8068 57.3867 47.7879 57.2295 47.7888H50.5098C50.2644 47.7818 50.0203 47.8267 49.7934 47.9206C49.5665 48.0144 49.3621 48.1551 49.1934 48.3335C48.8581 48.7028 48.6724 49.1837 48.6724 49.6825C48.6724 50.1813 48.8581 50.6622 49.1934 51.0315C49.3601 51.2133 49.5639 51.3572 49.791 51.4535C50.0181 51.5498 50.2632 51.5963 50.5098 51.5898H53.4172L51.223 53.8535C51.0467 54.0265 50.9073 54.2334 50.813 54.4616C50.7188 54.6899 50.6716 54.9349 50.6744 55.1819C50.6728 55.431 50.7231 55.6777 50.8224 55.9063C50.9216 56.1348 51.0674 56.3401 51.2506 56.509C51.5204 56.8137 51.8901 57.0121 52.2931 57.0686C52.3737 57.0881 52.4565 57.0974 52.5394 57.0962C52.6498 57.0963 52.7599 57.0871 52.8687 57.0686H53.8558C54.1797 57.0602 54.5018 57.1192 54.8017 57.2418C55.1016 57.3645 55.3728 57.5481 55.598 57.781C55.8263 58.0099 56.0058 58.2827 56.126 58.5829C56.2461 58.883 56.3043 59.2043 56.297 59.5276C56.3061 59.8553 56.2488 60.1815 56.1287 60.4866C56.0086 60.7917 55.8281 61.0693 55.598 61.3029C55.3726 61.5356 55.1014 61.719 54.8015 61.8416C54.5017 61.9641 54.1797 62.0233 53.8558 62.0152C53.4497 62.0426 53.0425 61.9806 52.6629 61.8337C52.44 61.7167 52.2402 61.5602 52.0732 61.3718C51.9091 61.1871 51.7581 60.9914 51.621 60.7859C51.4747 60.5712 51.2939 60.3821 51.086 60.2262C50.9256 60.0511 50.7307 59.9111 50.5135 59.815C50.2964 59.7189 50.0617 59.6688 49.8243 59.6677C49.5003 59.6612 49.1813 59.7486 48.9059 59.9194C48.649 60.0777 48.4365 60.2988 48.2886 60.5617C48.14 60.8292 48.0466 61.1238 48.014 61.4281C47.9767 61.74 48.0144 62.0563 48.1239 62.3508C48.2955 62.8831 48.5916 63.3668 48.9876 63.7618Z" fill="#34D399"/>
<path d="M160 146.788H157C156.47 146.788 155.961 146.999 155.586 147.374C155.211 147.749 155 148.258 155 148.788C155 149.319 155.211 149.827 155.586 150.202C155.961 150.577 156.47 150.788 157 150.788H160C160.53 150.788 161.039 150.577 161.414 150.202C161.789 149.827 162 149.319 162 148.788C162 148.258 161.789 147.749 161.414 147.374C161.039 146.999 160.53 146.788 160 146.788Z" fill="#0F1454"/>
<path d="M166 150.788C167.105 150.788 168 149.893 168 148.788C168 147.684 167.105 146.788 166 146.788C164.895 146.788 164 147.684 164 148.788C164 149.893 164.895 150.788 166 150.788Z" fill="#0F1454"/>
<path d="M118.154 154.788H109.846C109.343 154.828 108.874 155.057 108.532 155.427C108.19 155.798 108 156.284 108 156.788C108 157.292 108.19 157.778 108.532 158.149C108.874 158.52 109.343 158.748 109.846 158.788H118.154C118.657 158.748 119.126 158.52 119.468 158.149C119.81 157.778 120 157.292 120 156.788C120 156.284 119.81 155.798 119.468 155.427C119.126 155.057 118.657 154.828 118.154 154.788Z" fill="#34D399"/>
<path d="M58.1539 154.788H49.8462C49.3434 154.828 48.8742 155.057 48.5321 155.427C48.19 155.798 48 156.284 48 156.788C48 157.292 48.19 157.778 48.5321 158.149C48.8742 158.52 49.3434 158.748 49.8462 158.788H58.1539C58.6567 158.748 59.1258 158.52 59.468 158.149C59.8101 157.778 60.0001 157.292 60.0001 156.788C60.0001 156.284 59.8101 155.798 59.468 155.427C59.1258 155.057 58.6567 154.828 58.1539 154.788Z" fill="#34D399"/>
<path d="M104 154.788H64C63.4696 154.788 62.9609 154.999 62.5858 155.374C62.2107 155.749 62 156.258 62 156.788C62 157.319 62.2107 157.827 62.5858 158.202C62.9609 158.577 63.4696 158.788 64 158.788H79.94V160.788H72C71.4696 160.788 70.9609 160.999 70.5858 161.374C70.2107 161.749 70 162.258 70 162.788C70 163.319 70.2107 163.827 70.5858 164.202C70.9609 164.577 71.4696 164.788 72 164.788H97C97.5304 164.788 98.0391 164.577 98.4142 164.202C98.7893 163.827 99 163.319 99 162.788C99 162.258 98.7893 161.749 98.4142 161.374C98.0391 160.999 97.5304 160.788 97 160.788H88.06V158.788H104C104.53 158.788 105.039 158.577 105.414 158.202C105.789 157.827 106 157.319 106 156.788C106 156.258 105.789 155.749 105.414 155.374C105.039 154.999 104.53 154.788 104 154.788Z" fill="#34D399"/>
<path d="M2 150.788C3.10457 150.788 4 149.893 4 148.788C4 147.684 3.10457 146.788 2 146.788C0.89543 146.788 0 147.684 0 148.788C0 149.893 0.89543 150.788 2 150.788Z" fill="#0F1454"/>
<path d="M11 146.789H8C7.46957 146.789 6.96086 147 6.58579 147.375C6.21071 147.75 6 148.259 6 148.789C6 149.319 6.21071 149.828 6.58579 150.203C6.96086 150.578 7.46957 150.789 8 150.789H11C11.5304 150.789 12.0391 150.578 12.4142 150.203C12.7893 149.828 13 149.319 13 148.789C13 148.259 12.7893 147.75 12.4142 147.375C12.0391 147 11.5304 146.789 11 146.789Z" fill="#0F1454"/>
<path d="M150.721 146.789H37.4843L56.5763 134.789H91.0001C92.5909 134.787 94.116 134.155 95.2408 133.03C96.3657 131.905 96.9984 130.38 97.0001 128.789V121.789H93.0001V128.789C92.9931 129.317 92.7802 129.822 92.4066 130.196C92.033 130.569 91.5284 130.782 91.0001 130.789H56.0002C55.6236 130.789 55.2547 130.896 54.9357 131.096L33.5016 144.568L35.9553 133.211C36.0181 132.919 36.0149 132.617 35.9458 132.327C35.8768 132.037 35.7436 131.765 35.5562 131.533C35.3687 131.301 35.1317 131.114 34.8625 130.985C34.5932 130.856 34.2986 130.789 34.0002 130.789H26.0002C25.4719 130.782 24.9673 130.569 24.5937 130.196C24.2201 129.822 24.0072 129.317 24.0002 128.789V83.6945C24.0136 83.1769 24.2316 82.6857 24.6065 82.3286C24.9814 81.9714 25.4825 81.7775 26.0002 81.7892H46.0002V77.7892H26.0002C24.422 77.7785 22.904 78.3943 21.7792 79.5013C20.6544 80.6084 20.0146 82.1163 20.0002 83.6945V128.789C20.0019 130.38 20.6346 131.905 21.7595 133.03C22.8843 134.155 24.4094 134.787 26.0002 134.789H31.5222L28.9295 146.789H17.2788C16.9943 146.752 16.7051 146.776 16.4306 146.859C16.156 146.943 15.9025 147.084 15.6868 147.273C15.4712 147.463 15.2984 147.696 15.1801 147.957C15.0617 148.219 15.0005 148.502 15.0005 148.789C15.0005 149.076 15.0617 149.36 15.1801 149.621C15.2984 149.883 15.4712 150.116 15.6868 150.305C15.9025 150.494 16.156 150.635 16.4306 150.719C16.7051 150.802 16.9943 150.826 17.2788 150.789H150.721C151.006 150.826 151.295 150.802 151.57 150.719C151.844 150.635 152.098 150.494 152.313 150.305C152.529 150.116 152.702 149.883 152.82 149.621C152.939 149.36 153 149.076 153 148.789C153 148.502 152.939 148.219 152.82 147.957C152.702 147.696 152.529 147.463 152.313 147.273C152.098 147.084 151.844 146.943 151.57 146.859C151.295 146.776 151.006 146.752 150.721 146.789Z" fill="#0F1454"/>
<path d="M43 35.7022C43.5933 35.7022 44.1734 35.5262 44.6667 35.1966C45.1601 34.8669 45.5446 34.3984 45.7716 33.8502C45.9987 33.302 46.0581 32.6988 45.9424 32.1169C45.8266 31.5349 45.5409 31.0004 45.1213 30.5808C44.7018 30.1613 44.1672 29.8755 43.5853 29.7598C43.0033 29.644 42.4001 29.7034 41.852 29.9305C41.3038 30.1576 40.8352 30.5421 40.5056 31.0354C40.1759 31.5288 40 32.1088 40 32.7022C40.0009 33.4975 40.3173 34.2601 40.8797 34.8225C41.4421 35.3849 42.2046 35.7012 43 35.7022ZM43 31.2022C43.2967 31.2022 43.5867 31.2901 43.8334 31.4549C44.08 31.6198 44.2723 31.854 44.3858 32.1281C44.4994 32.4022 44.5291 32.7038 44.4712 32.9948C44.4133 33.2858 44.2704 33.553 44.0607 33.7628C43.8509 33.9726 43.5836 34.1154 43.2926 34.1733C43.0017 34.2312 42.7001 34.2015 42.426 34.088C42.1519 33.9744 41.9176 33.7822 41.7528 33.5355C41.588 33.2888 41.5 32.9988 41.5 32.7022C41.5004 32.3044 41.6586 31.9231 41.9398 31.6419C42.221 31.3607 42.6023 31.2025 43 31.2022Z" fill="#0F1454"/>
<path d="M158.305 67.7891C157.909 67.7891 157.522 67.9064 157.194 68.1261C156.865 68.3459 156.608 68.6582 156.457 69.0237C156.306 69.3891 156.266 69.7913 156.343 70.1792C156.42 70.5672 156.611 70.9236 156.89 71.2033C157.17 71.483 157.527 71.6735 157.915 71.7506C158.302 71.8278 158.705 71.7882 159.07 71.6368C159.436 71.4855 159.748 71.2291 159.968 70.9002C160.187 70.5713 160.305 70.1846 160.305 69.7891C160.304 69.2588 160.093 68.7505 159.718 68.3755C159.343 68.0006 158.835 67.7897 158.305 67.7891ZM158.305 70.7891C158.107 70.7891 157.914 70.7304 157.749 70.6205C157.585 70.5107 157.456 70.3545 157.381 70.1718C157.305 69.989 157.285 69.788 157.324 69.594C157.362 69.4 157.458 69.2218 157.598 69.082C157.737 68.9421 157.916 68.8469 158.11 68.8083C158.304 68.7697 158.505 68.7895 158.687 68.8652C158.87 68.9409 159.026 69.069 159.136 69.2335C159.246 69.3979 159.305 69.5913 159.305 69.7891C159.304 70.0542 159.199 70.3084 159.011 70.4959C158.824 70.6834 158.57 70.7888 158.305 70.7891Z" fill="#0F1454"/>
<path d="M89 3.21191C88.6044 3.21191 88.2178 3.32921 87.8889 3.54897C87.56 3.76874 87.3036 4.0811 87.1522 4.44655C87.0009 4.812 86.9613 5.21413 87.0384 5.60209C87.1156 5.99006 87.3061 6.34642 87.5858 6.62613C87.8655 6.90583 88.2219 7.09631 88.6098 7.17348C88.9978 7.25066 89.3999 7.21105 89.7654 7.05967C90.1308 6.9083 90.4432 6.65195 90.6629 6.32305C90.8827 5.99416 91 5.60748 91 5.21191C90.9994 4.68167 90.7885 4.17331 90.4135 3.79837C90.0386 3.42343 89.5302 3.21252 89 3.21191ZM89 6.21191C88.8022 6.21191 88.6089 6.15327 88.4444 6.04338C88.28 5.9335 88.1518 5.77732 88.0761 5.5946C88.0004 5.41187 87.9806 5.2108 88.0192 5.01682C88.0578 4.82284 88.153 4.64466 88.2929 4.50481C88.4327 4.36495 88.6109 4.26971 88.8049 4.23113C88.9989 4.19254 89.2 4.21235 89.3827 4.28803C89.5654 4.36372 89.7216 4.49189 89.8315 4.65634C89.9413 4.82079 90 5.01413 90 5.21191C89.9997 5.47705 89.8943 5.73125 89.7068 5.91873C89.5193 6.10621 89.2651 6.21165 89 6.21191Z" fill="#0F1454"/>
<path d="M160.305 22.7891C159.909 22.7891 159.522 22.9064 159.194 23.1261C158.865 23.3459 158.608 23.6582 158.457 24.0237C158.306 24.3891 158.266 24.7913 158.343 25.1792C158.42 25.5672 158.611 25.9236 158.89 26.2033C159.17 26.483 159.527 26.6735 159.915 26.7506C160.302 26.8278 160.705 26.7882 161.07 26.6368C161.436 26.4854 161.748 26.2291 161.968 25.9002C162.187 25.5713 162.305 25.1846 162.305 24.7891C162.304 24.2588 162.093 23.7505 161.718 23.3755C161.343 23.0006 160.835 22.7897 160.305 22.7891ZM160.305 25.7891C160.107 25.7891 159.914 25.7304 159.749 25.6205C159.585 25.5106 159.456 25.3545 159.381 25.1717C159.305 24.989 159.285 24.788 159.324 24.594C159.362 24.4 159.458 24.2218 159.598 24.082C159.737 23.9421 159.916 23.8469 160.11 23.8083C160.304 23.7697 160.505 23.7895 160.687 23.8652C160.87 23.9409 161.026 24.069 161.136 24.2335C161.246 24.3979 161.305 24.5913 161.305 24.7891C161.304 25.0542 161.199 25.3084 161.011 25.4959C160.824 25.6834 160.57 25.7888 160.305 25.7891Z" fill="#0F1454"/>
<path d="M17.3047 26.7891C17.3047 26.3935 17.1874 26.0068 16.9676 25.6779C16.7479 25.349 16.4355 25.0927 16.0701 24.9413C15.7046 24.7899 15.3025 24.7503 14.9145 24.8275C14.5265 24.9047 14.1702 25.0951 13.8905 25.3749C13.6108 25.6546 13.4203 26.0109 13.3431 26.3989C13.2659 26.7868 13.3056 27.189 13.4569 27.5544C13.6083 27.9199 13.8646 28.2322 14.1935 28.452C14.5224 28.6718 14.9091 28.7891 15.3047 28.7891C15.8349 28.7885 16.3433 28.5775 16.7182 28.2026C17.0932 27.8277 17.3041 27.3193 17.3047 26.7891ZM14.3047 26.7891C14.3047 26.5913 14.3633 26.3979 14.4732 26.2335C14.5831 26.069 14.7393 25.9409 14.922 25.8652C15.1047 25.7895 15.3058 25.7697 15.4998 25.8083C15.6938 25.8469 15.8719 25.9421 16.0118 26.082C16.1516 26.2218 16.2469 26.4 16.2855 26.594C16.3241 26.788 16.3043 26.989 16.2286 27.1717C16.1529 27.3545 16.0247 27.5107 15.8603 27.6205C15.6958 27.7304 15.5025 27.7891 15.3047 27.7891C15.0396 27.7888 14.7854 27.6834 14.5979 27.4959C14.4104 27.3084 14.305 27.0542 14.3047 26.7891Z" fill="#0F1454"/>
<path d="M10.8881 67.7995L12.3751 65.8435L11.4361 65.3115L10.4811 67.5015H10.4501L9.48007 65.3275L8.52507 65.8745L9.99607 67.7835V67.8155L7.69507 67.5175V68.5815L10.0111 68.2845V68.3155L8.52507 70.2245L9.41607 70.7875L10.4341 68.5815H10.4651L11.4041 70.7715L12.3901 70.2085L10.8881 68.3315V68.2995L13.2501 68.5815V67.5175L10.8881 67.8305V67.7995Z" fill="#34D399"/>
<path d="M45.7339 8.94191L44.8779 10.0409L45.3919 10.3649L45.9779 9.09491H45.9959L46.5359 10.3559L47.1039 10.0319L46.2389 8.94991V8.93191L47.5989 9.09491V8.48191L46.2389 8.66191V8.64391L47.0949 7.51791L46.5549 7.21191L46.0049 8.47291H45.9869L45.4289 7.21991L44.8779 7.53591L45.7259 8.63491V8.65291L44.4009 8.48191V9.09491L45.7339 8.92391V8.94191Z" fill="#34D399"/>
<path d="M126.782 27.3095V26.2655L124.465 26.5725V26.5425L125.923 24.6235L125.002 24.1025L124.066 26.2505H124.035L123.084 24.1175L122.147 24.6545L123.59 26.5275V26.5575L121.333 26.2655V27.3095L123.605 27.0185V27.0485L122.147 28.9205L123.022 29.4735L124.02 27.3095H124.05L124.971 29.4585L125.938 28.9055L124.465 27.0635V27.0335L126.782 27.3095Z" fill="#34D399"/>
<path d="M87.3509 36.3061L88.6089 34.6521L87.8149 34.2021L87.0079 36.0551H86.9809L86.1599 34.2151L85.3519 34.6782L86.5969 36.2941V36.3201L84.6499 36.0681V36.9681L86.6099 36.7171V36.7441L85.3519 38.3582L86.1059 38.8351L86.9679 36.9681H86.9939L87.7879 38.8221L88.6219 38.3451L87.3509 36.7561V36.7301L89.3499 36.9681V36.0681L87.3509 36.3331V36.3061Z" fill="#34D399"/>
</svg>
