<svg width="252" height="252" viewBox="0 0 252 252" fill="none" xmlns="http://www.w3.org/2000/svg">
<path d="M127.5 46.7441C110.886 46.7441 94.6459 51.6707 80.8321 60.9007C67.0184 70.1307 56.2519 83.2497 49.8942 98.5987C43.5364 113.948 41.8729 130.837 45.1141 147.132C48.3552 163.426 56.3555 178.394 68.1031 190.141C79.8507 201.889 94.8181 209.889 111.112 213.13C127.407 216.371 144.296 214.708 159.645 208.35C174.994 201.992 188.113 191.226 197.343 177.412C206.574 163.598 211.5 147.358 211.5 130.744C211.475 108.474 202.617 87.1224 186.869 71.3748C171.122 55.6271 149.771 46.7691 127.5 46.7441ZM127.5 208.744C112.073 208.744 96.9926 204.17 84.1656 195.599C71.3385 187.028 61.3411 174.846 55.4374 160.593C49.5338 146.341 47.9891 130.658 50.9988 115.527C54.0084 100.397 61.4372 86.4983 72.3457 75.5898C83.2542 64.6813 97.1525 57.2525 112.283 54.2429C127.414 51.2332 143.097 52.7779 157.349 58.6815C171.602 64.5852 183.784 74.5826 192.355 87.4097C200.925 100.237 205.5 115.317 205.5 130.744C205.477 151.424 197.251 171.25 182.628 185.873C168.006 200.495 148.18 208.721 127.5 208.744Z" fill="#34D399"/>
<path d="M173.396 92.6061L102.405 162.466L81.6735 140.676C81.1249 140.1 80.3698 139.765 79.5742 139.745C78.7786 139.725 78.0078 140.022 77.4313 140.571C76.8547 141.119 76.5197 141.875 76.5 142.67C76.4802 143.466 76.7772 144.237 77.3258 144.813L100.161 168.813C100.436 169.102 100.765 169.333 101.13 169.492C101.494 169.652 101.887 169.738 102.285 169.745H102.335C103.122 169.745 103.878 169.435 104.439 168.883L177.603 96.8834C177.885 96.6074 178.11 96.2785 178.264 95.9155C178.419 95.5526 178.5 95.1627 178.504 94.7682C178.508 94.3737 178.434 93.9824 178.286 93.6166C178.138 93.2508 177.92 92.9178 177.643 92.6365C177.366 92.3552 177.037 92.1313 176.674 91.9775C176.31 91.8238 175.92 91.7431 175.526 91.7403C175.131 91.7375 174.74 91.8125 174.375 91.9611C174.009 92.1096 173.677 92.3288 173.396 92.6061Z" fill="#0F1454"/>
<path d="M225.331 219.755H158.642C179.755 211.922 197.442 196.917 208.61 177.363C219.779 157.809 223.718 134.951 219.739 112.787C215.76 90.6224 204.116 70.5622 186.843 56.1142C169.57 41.6662 147.768 33.75 125.249 33.75C102.731 33.75 80.9287 41.6662 63.6559 56.1142C46.3832 70.5622 34.7391 90.6224 30.76 112.787C26.781 134.951 30.7201 157.809 41.8887 177.363C53.0572 196.917 70.7443 211.922 91.8568 219.755H25.1675C24.7407 219.699 24.3069 219.735 23.8951 219.861C23.4833 219.986 23.103 220.197 22.7795 220.481C22.4561 220.765 22.1969 221.115 22.0194 221.507C21.8418 221.899 21.75 222.325 21.75 222.755C21.75 223.186 21.8418 223.611 22.0194 224.003C22.1969 224.395 22.4561 224.745 22.7795 225.029C23.103 225.313 23.4833 225.524 23.8951 225.65C24.3069 225.775 24.7407 225.811 25.1675 225.755H225.331C225.758 225.811 226.192 225.775 226.604 225.65C227.016 225.524 227.396 225.313 227.719 225.029C228.043 224.745 228.302 224.395 228.48 224.003C228.657 223.611 228.749 223.186 228.749 222.755C228.749 222.325 228.657 221.899 228.48 221.507C228.302 221.115 228.043 220.765 227.719 220.481C227.396 220.197 227.016 219.986 226.604 219.861C226.192 219.735 225.758 219.699 225.331 219.755ZM35.2494 129.755C35.2494 111.955 40.5279 94.5543 50.4172 79.7538C60.3065 64.9534 74.3626 53.4179 90.8079 46.606C107.253 39.7941 125.349 38.0118 142.808 41.4845C160.266 44.9572 176.302 53.5288 188.889 66.1156C201.476 78.7023 210.047 94.7387 213.52 112.197C216.993 129.655 215.21 147.751 208.399 164.197C201.587 180.642 190.051 194.698 175.251 204.587C160.45 214.477 143.05 219.755 125.249 219.755C101.388 219.728 78.5121 210.237 61.6397 193.365C44.7673 176.492 35.2765 153.616 35.2494 129.755Z" fill="#0F1454"/>
<path d="M132.75 26.4941C133.64 26.4941 134.51 26.2302 135.25 25.7358C135.99 25.2413 136.567 24.5385 136.907 23.7162C137.248 22.894 137.337 21.9892 137.164 21.1162C136.99 20.2433 136.561 19.4415 135.932 18.8122C135.303 18.1828 134.501 17.7542 133.628 17.5806C132.755 17.407 131.85 17.4961 131.028 17.8367C130.206 18.1773 129.503 18.7541 129.008 19.4941C128.514 20.2341 128.25 21.1041 128.25 21.9941C128.251 23.1872 128.726 24.331 129.57 25.1746C130.413 26.0182 131.557 26.4928 132.75 26.4941ZM132.75 19.7441C133.195 19.7441 133.63 19.8761 134 20.1233C134.37 20.3706 134.658 20.722 134.829 21.1331C134.999 21.5442 135.044 21.9966 134.957 22.4331C134.87 22.8696 134.656 23.2705 134.341 23.5851C134.026 23.8998 133.625 24.1141 133.189 24.2009C132.752 24.2877 132.3 24.2432 131.889 24.0729C131.478 23.9026 131.126 23.6142 130.879 23.2442C130.632 22.8742 130.5 22.4392 130.5 21.9941C130.501 21.3976 130.738 20.8256 131.16 20.4038C131.581 19.982 132.153 19.7447 132.75 19.7441Z" fill="#0F1454"/>
<path d="M237.457 101.869C236.864 101.869 236.284 102.045 235.79 102.375C235.297 102.704 234.912 103.173 234.685 103.721C234.458 104.269 234.399 104.872 234.515 105.454C234.63 106.036 234.916 106.571 235.336 106.99C235.755 107.41 236.29 107.696 236.872 107.811C237.454 107.927 238.057 107.868 238.605 107.641C239.153 107.414 239.622 107.029 239.951 106.536C240.281 106.043 240.457 105.462 240.457 104.869C240.456 104.074 240.14 103.311 239.577 102.749C239.015 102.186 238.252 101.87 237.457 101.869ZM237.457 106.369C237.16 106.369 236.87 106.281 236.624 106.116C236.377 105.952 236.185 105.717 236.071 105.443C235.958 105.169 235.928 104.867 235.986 104.577C236.044 104.286 236.187 104.018 236.396 103.808C236.606 103.599 236.873 103.456 237.164 103.398C237.455 103.34 237.757 103.37 238.031 103.483C238.305 103.597 238.539 103.789 238.704 104.036C238.869 104.282 238.957 104.572 238.957 104.869C238.957 105.267 238.798 105.648 238.517 105.929C238.236 106.211 237.855 106.369 237.457 106.369Z" fill="#0F1454"/>
<path d="M195 5.37012C194.407 5.37012 193.827 5.54606 193.333 5.87571C192.84 6.20535 192.455 6.67389 192.228 7.22207C192.001 7.77025 191.942 8.37345 192.058 8.95539C192.173 9.53733 192.459 10.0719 192.879 10.4914C193.298 10.911 193.833 11.1967 194.415 11.3125C194.997 11.4282 195.6 11.3688 196.148 11.1418C196.696 10.9147 197.165 10.5302 197.494 10.0368C197.824 9.54348 198 8.96346 198 8.37012C197.999 7.57475 197.683 6.81221 197.12 6.2498C196.558 5.68739 195.795 5.37103 195 5.37012ZM195 9.87012C194.703 9.87012 194.413 9.78214 194.167 9.61732C193.92 9.4525 193.728 9.21823 193.614 8.94414C193.501 8.67005 193.471 8.36845 193.529 8.07748C193.587 7.78651 193.73 7.51924 193.939 7.30946C194.149 7.09968 194.416 6.95682 194.707 6.89894C194.998 6.84106 195.3 6.87077 195.574 6.9843C195.848 7.09783 196.082 7.29009 196.247 7.53676C196.412 7.78344 196.5 8.07345 196.5 8.37012C196.5 8.76782 196.341 9.14912 196.06 9.43034C195.779 9.71156 195.398 9.86972 195 9.87012Z" fill="#0F1454"/>
<path d="M242 22.8711C241.407 22.8711 240.827 23.047 240.333 23.3767C239.84 23.7063 239.455 24.1749 239.228 24.723C239.001 25.2712 238.942 25.8744 239.058 26.4564C239.173 27.0383 239.459 27.5729 239.879 27.9924C240.298 28.412 240.833 28.6977 241.415 28.8134C241.997 28.9292 242.6 28.8698 243.148 28.6427C243.696 28.4157 244.165 28.0312 244.494 27.5378C244.824 27.0445 245 26.4644 245 25.8711C244.999 25.0757 244.683 24.3132 244.12 23.7508C243.558 23.1884 242.795 22.872 242 22.8711ZM242 27.3711C241.703 27.3711 241.413 27.2831 241.167 27.1183C240.92 26.9535 240.728 26.7192 240.614 26.4451C240.501 26.171 240.471 25.8694 240.529 25.5785C240.587 25.2875 240.73 25.0202 240.939 24.8104C241.149 24.6007 241.416 24.4578 241.707 24.3999C241.998 24.342 242.3 24.3717 242.574 24.4853C242.848 24.5988 243.082 24.7911 243.247 25.0377C243.412 25.2844 243.5 25.5744 243.5 25.8711C243.5 26.2688 243.341 26.6501 243.06 26.9313C242.779 27.2125 242.398 27.3707 242 27.3711Z" fill="#0F1454"/>
<path d="M45.457 45.8701C45.457 45.2768 45.2811 44.6968 44.9514 44.2034C44.6218 43.7101 44.1533 43.3255 43.6051 43.0985C43.0569 42.8714 42.4537 42.812 41.8718 42.9278C41.2898 43.0435 40.7553 43.3292 40.3357 43.7488C39.9162 44.1684 39.6304 44.7029 39.5147 45.2848C39.3989 45.8668 39.4583 46.47 39.6854 47.0182C39.9125 47.5663 40.297 48.0349 40.7903 48.3645C41.2837 48.6942 41.8637 48.8701 42.457 48.8701C43.2524 48.8692 44.0149 48.5528 44.5773 47.9904C45.1398 47.428 45.4561 46.6655 45.457 45.8701ZM40.957 45.8701C40.957 45.5734 41.045 45.2834 41.2098 45.0368C41.3746 44.7901 41.6089 44.5978 41.883 44.4843C42.1571 44.3708 42.4587 44.3411 42.7497 44.3989C43.0406 44.4568 43.3079 44.5997 43.5177 44.8095C43.7275 45.0192 43.8703 45.2865 43.9282 45.5775C43.9861 45.8685 43.9564 46.1701 43.8429 46.4441C43.7293 46.7182 43.5371 46.9525 43.2904 47.1173C43.0437 47.2821 42.7537 47.3701 42.457 47.3701C42.0593 47.3697 41.678 47.2116 41.3968 46.9303C41.1156 46.6491 40.9574 46.2678 40.957 45.8701Z" fill="#0F1454"/>
<path d="M16.3315 101.886L18.562 98.9523L17.1535 98.1543L15.721 101.439H15.6745L14.2195 98.1783L12.787 98.9988L14.9935 101.864V101.91L11.542 101.463V103.059L15.016 102.614V102.66L12.787 105.524L14.1235 106.37L15.6505 103.059H15.697L17.1055 106.346L18.5845 105.501L16.3315 102.684V102.636L19.8745 103.059V101.463L16.3315 101.933V101.886Z" fill="#34D399"/>
<path d="M18.2432 9.35672L16.9592 11.0052L17.7287 11.4927L18.6077 9.58622H18.6347L19.4462 11.4792L20.2982 10.9917L19.0007 9.37022V9.34322L21.0407 9.58622V8.66672L19.0007 8.93822V8.91122L20.2847 7.22072L19.4732 6.76172L18.6497 8.65322H18.6212L17.7842 6.77522L16.9592 7.24772L18.2297 8.89772V8.92472L16.2422 8.66672V9.58622L18.2432 9.32972V9.35672Z" fill="#34D399"/>
<path d="M97.9577 9.44091V7.87491L94.4822 8.33541V8.28891L96.6692 5.41191L95.2877 4.62891L93.8837 7.85241H93.8372L92.4107 4.65141L91.0052 5.45841L93.1697 8.26641V8.31291L89.7842 7.87491V9.44091L93.1922 9.00291V9.04941L91.0052 11.8574L92.3177 12.6869L93.8147 9.44091H93.8597L95.2412 12.6629L96.6917 11.8349L94.4822 9.07191V9.02541L97.9577 9.44091Z" fill="#34D399"/>
<path d="M208.287 53.7591L210.174 51.2766L208.982 50.6016L207.771 53.3811H207.731L206.501 50.6211L205.287 51.3156L207.155 53.7396V53.7786L204.236 53.4006V54.7506L207.174 54.3741V54.4146L205.287 56.8356L206.42 57.5511L207.711 54.7506H207.75L208.941 57.5316L210.194 56.8161L208.287 54.4341V54.3936L211.284 54.7506V53.4006L208.287 53.7981V53.7591Z" fill="#34D399"/>
<path d="M3 226.371C4.65685 226.371 6 225.028 6 223.371C6 221.714 4.65685 220.371 3 220.371C1.34315 220.371 0 221.714 0 223.371C0 225.028 1.34315 226.371 3 226.371Z" fill="#0F1454"/>
<path d="M16.5 220.369H12C11.2044 220.369 10.4413 220.685 9.87868 221.248C9.31607 221.81 9 222.573 9 223.369C9 224.165 9.31607 224.928 9.87868 225.49C10.4413 226.053 11.2044 226.369 12 226.369H16.5C17.2956 226.369 18.0587 226.053 18.6213 225.49C19.1839 224.928 19.5 224.165 19.5 223.369C19.5 222.573 19.1839 221.81 18.6213 221.248C18.0587 220.685 17.2956 220.369 16.5 220.369Z" fill="#0F1454"/>
<path d="M240 220.369H235.5C234.704 220.369 233.941 220.685 233.379 221.248C232.816 221.81 232.5 222.573 232.5 223.369C232.5 224.165 232.816 224.928 233.379 225.49C233.941 226.053 234.704 226.369 235.5 226.369H240C240.796 226.369 241.559 226.053 242.121 225.49C242.684 224.928 243 224.165 243 223.369C243 222.573 242.684 221.81 242.121 221.248C241.559 220.685 240.796 220.369 240 220.369Z" fill="#0F1454"/>
<path d="M249 226.371C250.657 226.371 252 225.028 252 223.371C252 221.714 250.657 220.371 249 220.371C247.343 220.371 246 221.714 246 223.371C246 225.028 247.343 226.371 249 226.371Z" fill="#0F1454"/>
<path d="M177.231 232.369H164.769C164.015 232.43 163.311 232.772 162.798 233.328C162.285 233.884 162 234.613 162 235.369C162 236.126 162.285 236.855 162.798 237.411C163.311 237.966 164.015 238.309 164.769 238.369H177.231C177.985 238.309 178.689 237.966 179.202 237.411C179.715 236.855 180 236.126 180 235.369C180 234.613 179.715 233.884 179.202 233.328C178.689 232.772 177.985 232.43 177.231 232.369Z" fill="#34D399"/>
<path d="M87.2308 232.369H74.7692C74.0151 232.43 73.3113 232.772 72.7981 233.328C72.285 233.884 72 234.613 72 235.369C72 236.126 72.285 236.855 72.7981 237.411C73.3113 237.966 74.0151 238.309 74.7692 238.369H87.2308C87.985 238.309 88.6888 237.966 89.2019 237.411C89.7151 236.855 90.0001 236.126 90.0001 235.369C90.0001 234.613 89.7151 233.884 89.2019 233.328C88.6888 232.772 87.985 232.43 87.2308 232.369Z" fill="#34D399"/>
<path d="M156 232.369H96C95.2044 232.369 94.4413 232.685 93.8787 233.248C93.3161 233.81 93 234.573 93 235.369C93 236.165 93.3161 236.928 93.8787 237.49C94.4413 238.053 95.2044 238.369 96 238.369H119.91V241.369H108C107.204 241.369 106.441 241.685 105.879 242.248C105.316 242.81 105 243.573 105 244.369C105 245.165 105.316 245.928 105.879 246.49C106.441 247.053 107.204 247.369 108 247.369H145.5C146.296 247.369 147.059 247.053 147.621 246.49C148.184 245.928 148.5 245.165 148.5 244.369C148.5 243.573 148.184 242.81 147.621 242.248C147.059 241.685 146.296 241.369 145.5 241.369H132.09V238.369H156C156.796 238.369 157.559 238.053 158.121 237.49C158.684 236.928 159 236.165 159 235.369C159 234.573 158.684 233.81 158.121 233.248C157.559 232.685 156.796 232.369 156 232.369Z" fill="#34D399"/>
</svg>
