<svg width="169" height="168" viewBox="0 0 169 168" fill="none" xmlns="http://www.w3.org/2000/svg">
<g clip-path="url(#clip0_3536_14815)">
<path d="M85.5 31.1631C74.4243 31.1631 63.5972 34.4474 54.3881 40.6008C45.1789 46.7541 38.0013 55.5002 33.7628 65.7328C29.5243 75.9655 28.4153 87.2252 30.576 98.0881C32.7368 108.951 38.0703 118.929 45.902 126.761C53.7338 134.593 63.712 139.926 74.575 142.087C85.4379 144.248 96.6976 143.139 106.93 138.9C117.163 134.662 125.909 127.484 132.062 118.275C138.216 109.066 141.5 98.2388 141.5 87.1631C141.483 72.3161 135.578 58.0819 125.08 47.5835C114.581 37.0851 100.347 31.1797 85.5 31.1631ZM85.5 139.163C75.2154 139.163 65.1617 136.113 56.6104 130.4C48.059 124.686 41.394 116.564 37.4583 107.063C33.5225 97.5609 32.4928 87.1054 34.4992 77.0184C36.5056 66.9314 41.4581 57.6659 48.7305 50.3935C56.0028 43.1212 65.2683 38.1687 75.3553 36.1623C85.4423 34.1558 95.8978 35.1856 105.4 39.1214C114.901 43.0571 123.023 49.7221 128.736 58.2734C134.45 66.8248 137.5 76.8785 137.5 87.1631C137.484 100.95 132.001 114.167 122.252 123.915C112.504 133.664 99.2865 139.147 85.5 139.163Z" fill="#34D399"/>
<path d="M116.098 61.7374L68.7705 108.311L54.9492 93.7842C54.5835 93.3999 54.0801 93.1766 53.5497 93.1634C53.0193 93.1502 52.5054 93.3482 52.1211 93.7139C51.7367 94.0796 51.5134 94.5831 51.5002 95.1134C51.487 95.6438 51.6851 96.1577 52.0508 96.5421L67.2744 112.542C67.4574 112.734 67.6768 112.888 67.9199 112.995C68.163 113.102 68.425 113.159 68.6904 113.163H68.7236C69.2483 113.163 69.7519 112.957 70.1259 112.589L118.902 64.5889C119.09 64.4049 119.24 64.1857 119.343 63.9437C119.446 63.7017 119.5 63.4418 119.503 63.1788C119.505 62.9158 119.456 62.6549 119.357 62.4111C119.259 62.1672 119.113 61.9452 118.929 61.7577C118.744 61.5702 118.525 61.4209 118.283 61.3184C118.041 61.2158 117.78 61.1621 117.517 61.1602C117.254 61.1583 116.994 61.2083 116.75 61.3074C116.506 61.4064 116.285 61.5525 116.098 61.7374Z" fill="white"/>
<path d="M150.721 146.503H106.261C120.336 141.281 132.128 131.278 139.573 118.242C147.019 105.206 149.645 89.9674 146.992 75.1912C144.34 60.4149 136.577 47.0414 125.062 37.4094C113.547 27.7775 99.012 22.5 83.9995 22.5C68.987 22.5 54.4523 27.7775 42.9372 37.4094C31.422 47.0414 23.6593 60.4149 21.0066 75.1912C18.3539 89.9674 20.98 105.206 28.4257 118.242C35.8714 131.278 47.6627 141.281 61.7377 146.503H17.2782C16.9937 146.466 16.7045 146.49 16.43 146.574C16.1554 146.657 15.9019 146.798 15.6862 146.988C15.4706 147.177 15.2978 147.41 15.1795 147.671C15.0611 147.933 14.9999 148.216 14.9999 148.503C14.9999 148.79 15.0611 149.074 15.1795 149.335C15.2978 149.597 15.4706 149.83 15.6862 150.019C15.9019 150.209 16.1554 150.35 16.43 150.433C16.7045 150.517 16.9937 150.541 17.2782 150.503H150.721C151.005 150.541 151.295 150.517 151.569 150.433C151.844 150.35 152.097 150.209 152.313 150.019C152.528 149.83 152.701 149.597 152.82 149.335C152.938 149.074 152.999 148.79 152.999 148.503C152.999 148.216 152.938 147.933 152.82 147.671C152.701 147.41 152.528 147.177 152.313 146.988C152.097 146.798 151.844 146.657 151.569 146.574C151.295 146.49 151.005 146.466 150.721 146.503ZM23.9995 86.5034C23.9995 74.6366 27.5184 63.0362 34.1113 53.1692C40.7042 43.3023 50.0749 35.6119 61.0385 31.0707C72.0021 26.5294 84.0661 25.3412 95.7049 27.6563C107.344 29.9714 118.035 35.6859 126.426 44.077C134.817 52.4682 140.532 63.1592 142.847 74.798C145.162 86.4369 143.974 98.5009 139.432 109.464C134.891 120.428 127.201 129.799 117.334 136.392C107.467 142.985 95.8664 146.503 83.9995 146.503C68.0921 146.485 52.8413 140.158 41.593 128.91C30.3447 117.662 24.0175 102.411 23.9995 86.5034Z" fill="white"/>
<path d="M89 17.6631C89.5933 17.6631 90.1734 17.4871 90.6667 17.1575C91.1601 16.8279 91.5446 16.3593 91.7716 15.8111C91.9987 15.263 92.0581 14.6598 91.9424 14.0778C91.8266 13.4959 91.5409 12.9613 91.1213 12.5418C90.7018 12.1222 90.1672 11.8365 89.5853 11.7207C89.0033 11.605 88.4001 11.6644 87.852 11.8914C87.3038 12.1185 86.8352 12.503 86.5056 12.9964C86.1759 13.4897 86 14.0697 86 14.6631C86.0009 15.4585 86.3173 16.221 86.8797 16.7834C87.4421 17.3458 88.2046 17.6622 89 17.6631ZM89 13.1631C89.2967 13.1631 89.5867 13.2511 89.8334 13.4159C90.08 13.5807 90.2723 13.815 90.3858 14.0891C90.4993 14.3632 90.5291 14.6648 90.4712 14.9557C90.4133 15.2467 90.2704 15.514 90.0607 15.7237C89.8509 15.9335 89.5836 16.0764 89.2926 16.1343C89.0017 16.1921 88.7001 16.1624 88.426 16.0489C88.1519 15.9354 87.9176 15.7431 87.7528 15.4964C87.588 15.2498 87.5 14.9598 87.5 14.6631C87.5004 14.2654 87.6586 13.8841 87.9398 13.6029C88.221 13.3216 88.6023 13.1635 89 13.1631Z" fill="white"/>
<path d="M158.805 67.9131C158.409 67.9131 158.022 68.0304 157.694 68.2501C157.365 68.4699 157.108 68.7823 156.957 69.1477C156.806 69.5132 156.766 69.9153 156.843 70.3033C156.92 70.6912 157.111 71.0476 157.39 71.3273C157.67 71.607 158.027 71.7975 158.415 71.8747C158.802 71.9518 159.205 71.9122 159.57 71.7608C159.936 71.6095 160.248 71.3531 160.468 71.0242C160.687 70.6953 160.805 70.3086 160.805 69.9131C160.804 69.3828 160.593 68.8745 160.218 68.4995C159.843 68.1246 159.335 67.9137 158.805 67.9131ZM158.805 70.9131C158.607 70.9131 158.414 70.8544 158.249 70.7446C158.085 70.6347 157.956 70.4785 157.881 70.2958C157.805 70.113 157.785 69.912 157.824 69.718C157.862 69.524 157.958 69.3458 158.098 69.206C158.237 69.0661 158.416 68.9709 158.61 68.9323C158.804 68.8937 159.005 68.9135 159.187 68.9892C159.37 69.0649 159.526 69.1931 159.636 69.3575C159.746 69.522 159.805 69.7153 159.805 69.9131C159.804 70.1782 159.699 70.4324 159.511 70.6199C159.324 70.8074 159.07 70.9128 158.805 70.9131Z" fill="white"/>
<path d="M130.5 3.58008C130.104 3.58008 129.718 3.69738 129.389 3.91714C129.06 4.1369 128.804 4.44926 128.652 4.81471C128.501 5.18016 128.461 5.5823 128.538 5.97026C128.616 6.35822 128.806 6.71459 129.086 6.99429C129.365 7.274 129.722 7.46448 130.11 7.54165C130.498 7.61882 130.9 7.57921 131.265 7.42784C131.631 7.27646 131.943 7.02012 132.163 6.69122C132.383 6.36232 132.5 5.97564 132.5 5.58008C132.499 5.04983 132.288 4.54148 131.914 4.16653C131.539 3.79159 131.03 3.58068 130.5 3.58008ZM130.5 6.58008C130.302 6.58008 130.109 6.52143 129.944 6.41155C129.78 6.30167 129.652 6.14549 129.576 5.96276C129.5 5.78004 129.481 5.57897 129.519 5.38499C129.558 5.19101 129.653 5.01282 129.793 4.87297C129.933 4.73312 130.111 4.63788 130.305 4.59929C130.499 4.56071 130.7 4.58051 130.883 4.6562C131.065 4.73189 131.222 4.86006 131.331 5.02451C131.441 5.18896 131.5 5.3823 131.5 5.58008C131.5 5.84521 131.394 6.09941 131.207 6.28689C131.019 6.47437 130.765 6.57981 130.5 6.58008Z" fill="white"/>
<path d="M161.833 15.2471C161.438 15.2471 161.051 15.3644 160.722 15.5841C160.393 15.8039 160.137 16.1163 159.986 16.4817C159.834 16.8472 159.795 17.2493 159.872 17.6373C159.949 18.0252 160.139 18.3816 160.419 18.6613C160.699 18.941 161.055 19.1315 161.443 19.2086C161.831 19.2858 162.233 19.2462 162.599 19.0948C162.964 18.9435 163.276 18.6871 163.496 18.3582C163.716 18.0293 163.833 17.6426 163.833 17.2471C163.833 16.7168 163.622 16.2085 163.247 15.8335C162.872 15.4586 162.364 15.2477 161.833 15.2471ZM161.833 18.2471C161.636 18.2471 161.442 18.1884 161.278 18.0785C161.113 17.9687 160.985 17.8125 160.909 17.6298C160.834 17.447 160.814 17.246 160.853 17.052C160.891 16.858 160.986 16.6798 161.126 16.54C161.266 16.4001 161.444 16.3049 161.638 16.2663C161.832 16.2277 162.033 16.2475 162.216 16.3232C162.399 16.3989 162.555 16.5271 162.665 16.6915C162.775 16.8559 162.833 17.0493 162.833 17.2471C162.833 17.5122 162.728 17.7664 162.54 17.9539C162.353 18.1414 162.098 18.2468 161.833 18.2471Z" fill="white"/>
<path d="M30.8047 30.5801C30.8047 30.1845 30.6874 29.7978 30.4676 29.4689C30.2479 29.14 29.9355 28.8837 29.5701 28.7323C29.2046 28.5809 28.8025 28.5413 28.4145 28.6185C28.0265 28.6957 27.6702 28.8862 27.3905 29.1659C27.1108 29.4456 26.9203 29.8019 26.8431 30.1899C26.7659 30.5779 26.8056 30.98 26.9569 31.3454C27.1083 31.7109 27.3646 32.0233 27.6935 32.243C28.0224 32.4628 28.4091 32.5801 28.8047 32.5801C29.3349 32.5795 29.8433 32.3686 30.2182 31.9936C30.5932 31.6187 30.8041 31.1103 30.8047 30.5801ZM27.8047 30.5801C27.8047 30.3823 27.8633 30.189 27.9732 30.0245C28.0831 29.8601 28.2393 29.7319 28.422 29.6562C28.6047 29.5805 28.8058 29.5607 28.9998 29.5993C29.1938 29.6379 29.3719 29.7331 29.5118 29.873C29.6516 30.0128 29.7469 30.191 29.7855 30.385C29.8241 30.579 29.8043 30.78 29.7286 30.9628C29.6529 31.1455 29.5247 31.3017 29.3603 31.4115C29.1958 31.5214 29.0025 31.5801 28.8047 31.5801C28.5396 31.5798 28.2854 31.4744 28.0979 31.2869C27.9104 31.0994 27.805 30.8452 27.8047 30.5801Z" fill="white"/>
<path d="M11.388 67.9245L12.875 65.9685L11.936 65.4365L10.981 67.6265H10.95L9.98001 65.4525L9.02501 65.9995L10.496 67.9095V67.9405L8.19501 67.6425V68.7065L10.511 68.4095V68.4405L9.02501 70.3495L9.91601 70.9135L10.934 68.7065H10.965L11.904 70.8975L12.89 70.3345L11.388 68.4565V68.4245L13.75 68.7065V67.6425L11.388 67.9555V67.9245Z" fill="#34D399"/>
<path d="M12.662 6.23781L11.806 7.33681L12.319 7.66181L12.905 6.39081H12.923L13.464 7.65281L14.032 7.32781L13.167 6.24681V6.22881L14.527 6.39081V5.77781L13.167 5.95881V5.94081L14.023 4.81381L13.482 4.50781L12.933 5.76881H12.914L12.356 4.51681L11.806 4.83181L12.653 5.93181V5.94981L11.328 5.77781V6.39081L12.662 6.21981V6.23781Z" fill="#34D399"/>
<path d="M65.805 6.29394V5.24994L63.488 5.55694V5.52594L64.946 3.60794L64.025 3.08594L63.089 5.23494H63.058L62.107 3.10094L61.17 3.63894L62.613 5.51094V5.54194L60.356 5.24994V6.29394L62.628 6.00194V6.03294L61.17 7.90494L62.045 8.45794L63.043 6.29394H63.073L63.994 8.44194L64.961 7.88994L63.488 6.04794V6.01694L65.805 6.29394Z" fill="#34D399"/>
<path d="M139.358 35.8394L140.616 34.1844L139.821 33.7344L139.014 35.5874H138.987L138.167 33.7474L137.358 34.2104L138.603 35.8264V35.8524L136.657 35.6004V36.5004L138.616 36.2494V36.2764L137.358 37.8904L138.113 38.3674L138.974 36.5004H139L139.794 38.3544L140.629 37.8774L139.358 36.2894V36.2624L141.356 36.5004V35.6004L139.358 35.8654V35.8394Z" fill="#34D399"/>
<path d="M2.5 150.914C3.60457 150.914 4.5 150.019 4.5 148.914C4.5 147.809 3.60457 146.914 2.5 146.914C1.39543 146.914 0.5 147.809 0.5 148.914C0.5 150.019 1.39543 150.914 2.5 150.914Z" fill="white"/>
<path d="M11.5 146.913H8.5C7.96957 146.913 7.46086 147.124 7.08579 147.499C6.71071 147.874 6.5 148.383 6.5 148.913C6.5 149.444 6.71071 149.952 7.08579 150.327C7.46086 150.702 7.96957 150.913 8.5 150.913H11.5C12.0304 150.913 12.5391 150.702 12.9142 150.327C13.2893 149.952 13.5 149.444 13.5 148.913C13.5 148.383 13.2893 147.874 12.9142 147.499C12.5391 147.124 12.0304 146.913 11.5 146.913Z" fill="white"/>
<path d="M160.5 146.913H157.5C156.97 146.913 156.461 147.124 156.086 147.499C155.711 147.874 155.5 148.383 155.5 148.913C155.5 149.444 155.711 149.952 156.086 150.327C156.461 150.702 156.97 150.913 157.5 150.913H160.5C161.03 150.913 161.539 150.702 161.914 150.327C162.289 149.952 162.5 149.444 162.5 148.913C162.5 148.383 162.289 147.874 161.914 147.499C161.539 147.124 161.03 146.913 160.5 146.913Z" fill="white"/>
<path d="M166.5 150.914C167.605 150.914 168.5 150.019 168.5 148.914C168.5 147.809 167.605 146.914 166.5 146.914C165.395 146.914 164.5 147.809 164.5 148.914C164.5 150.019 165.395 150.914 166.5 150.914Z" fill="white"/>
<path d="M118.654 154.913H110.346C109.843 154.953 109.374 155.182 109.032 155.552C108.69 155.923 108.5 156.409 108.5 156.913C108.5 157.417 108.69 157.903 109.032 158.274C109.374 158.645 109.843 158.873 110.346 158.913H118.654C119.157 158.873 119.626 158.645 119.968 158.274C120.31 157.903 120.5 157.417 120.5 156.913C120.5 156.409 120.31 155.923 119.968 155.552C119.626 155.182 119.157 154.953 118.654 154.913Z" fill="#34D399"/>
<path d="M58.6539 154.913H50.3462C49.8434 154.953 49.3742 155.182 49.0321 155.552C48.69 155.923 48.5 156.409 48.5 156.913C48.5 157.417 48.69 157.903 49.0321 158.274C49.3742 158.645 49.8434 158.873 50.3462 158.913H58.6539C59.1567 158.873 59.6258 158.645 59.968 158.274C60.3101 157.903 60.5001 157.417 60.5001 156.913C60.5001 156.409 60.3101 155.923 59.968 155.552C59.6258 155.182 59.1567 154.953 58.6539 154.913Z" fill="#34D399"/>
<path d="M104.5 154.913H64.5C63.9696 154.913 63.4609 155.124 63.0858 155.499C62.7107 155.874 62.5 156.383 62.5 156.913C62.5 157.444 62.7107 157.952 63.0858 158.327C63.4609 158.702 63.9696 158.913 64.5 158.913H80.44V160.913H72.5C71.9696 160.913 71.4609 161.124 71.0858 161.499C70.7107 161.874 70.5 162.383 70.5 162.913C70.5 163.444 70.7107 163.952 71.0858 164.327C71.4609 164.702 71.9696 164.913 72.5 164.913H97.5C98.0304 164.913 98.5391 164.702 98.9142 164.327C99.2893 163.952 99.5 163.444 99.5 162.913C99.5 162.383 99.2893 161.874 98.9142 161.499C98.5391 161.124 98.0304 160.913 97.5 160.913H88.56V158.913H104.5C105.03 158.913 105.539 158.702 105.914 158.327C106.289 157.952 106.5 157.444 106.5 156.913C106.5 156.383 106.289 155.874 105.914 155.499C105.539 155.124 105.03 154.913 104.5 154.913Z" fill="#34D399"/>
</g>
<defs>
<clipPath id="clip0_3536_14815">
<rect width="168" height="168" fill="white" transform="translate(0.5)"/>
</clipPath>
</defs>
</svg>
