<svg width="397" height="397" viewBox="0 0 397 397" fill="none" xmlns="http://www.w3.org/2000/svg">
<path d="M177.232 138.118C179.842 138.118 181.958 136.002 181.958 133.392C181.958 130.782 179.842 128.666 177.232 128.666C174.622 128.666 172.506 130.782 172.506 133.392C172.506 136.002 174.622 138.118 177.232 138.118Z" fill="#34D399"/>
<path d="M229.22 138.118C231.83 138.118 233.946 136.002 233.946 133.392C233.946 130.782 231.83 128.666 229.22 128.666C226.61 128.666 224.494 130.782 224.494 133.392C224.494 136.002 226.61 138.118 229.22 138.118Z" fill="#34D399"/>
<path d="M281.458 247.41C279.86 243.379 277.429 239.732 274.323 236.707C271.217 233.682 267.506 231.348 263.434 229.858C259.312 228.343 254.917 227.718 250.536 228.024C246.155 228.329 241.889 229.559 238.017 231.631C237.89 231.698 237.763 231.774 237.643 231.852L143.902 293.815C139.338 296.603 135.829 300.827 133.926 305.824C132.023 310.822 131.834 316.31 133.388 321.427L133.411 321.501C134.27 324.36 135.732 327.002 137.697 329.249C139.662 331.496 142.086 333.296 144.805 334.529C147.995 335.965 151.457 336.697 154.956 336.675C159.071 336.645 163.134 335.755 166.884 334.062L265.308 286.424C272.523 283.273 278.236 277.448 281.247 270.174C284.258 262.899 284.334 254.739 281.458 247.41ZM261.334 277.847L162.911 325.485C160.706 326.536 158.308 327.119 155.867 327.195C153.426 327.271 150.996 326.84 148.731 325.928C147.216 325.248 145.867 324.247 144.779 322.992C143.69 321.738 142.888 320.262 142.428 318.666L142.41 318.606C141.484 315.472 141.628 312.118 142.817 309.074C144.006 306.03 146.174 303.468 148.979 301.79L242.663 239.867C245.342 238.469 248.284 237.646 251.3 237.451C254.315 237.255 257.339 237.692 260.176 238.733C262.996 239.762 265.566 241.376 267.717 243.469C269.869 245.562 271.554 248.087 272.661 250.877C274.639 255.964 274.564 261.62 272.45 266.652C270.337 271.684 266.351 275.698 261.334 277.847Z" fill="#0F1454"/>
<path d="M189.048 114.472C189.048 113.219 188.55 112.017 187.663 111.13C186.777 110.244 185.575 109.746 184.321 109.746H170.143C168.889 109.746 167.687 110.244 166.801 111.13C165.915 112.017 165.417 113.219 165.417 114.472C165.417 115.726 165.915 116.928 166.801 117.814C167.687 118.701 168.889 119.198 170.143 119.198H184.321C185.575 119.198 186.777 118.7 187.663 117.814C188.55 116.928 189.048 115.726 189.048 114.472Z" fill="#0F1454"/>
<path d="M241.036 114.472C241.036 113.219 240.538 112.017 239.651 111.13C238.765 110.244 237.563 109.746 236.31 109.746H222.131C220.878 109.746 219.675 110.244 218.789 111.13C217.903 112.017 217.405 113.219 217.405 114.472C217.405 115.726 217.903 116.928 218.789 117.814C219.675 118.701 220.878 119.198 222.131 119.198H236.31C237.563 119.198 238.765 118.7 239.651 117.814C240.538 116.928 241.036 115.726 241.036 114.472Z" fill="#0F1454"/>
<path d="M293.882 123.012L292.315 132.631C292.172 133.507 292.279 134.405 292.622 135.222C292.965 136.04 293.532 136.745 294.257 137.256C294.982 137.767 295.837 138.064 296.722 138.112C297.608 138.16 298.49 137.958 299.266 137.529L307.202 133.141L315.139 137.529C315.915 137.958 316.796 138.16 317.682 138.112C318.568 138.064 319.422 137.767 320.147 137.256C320.873 136.745 321.439 136.04 321.783 135.223C322.126 134.405 322.232 133.507 322.089 132.631L320.522 123.013L327.127 116.242C327.734 115.62 328.157 114.843 328.351 113.996C328.545 113.149 328.501 112.265 328.226 111.441C327.95 110.617 327.452 109.885 326.787 109.326C326.122 108.766 325.316 108.401 324.457 108.27L315.522 106.903L311.481 98.2933C311.1 97.4805 310.495 96.7931 309.737 96.3115C308.979 95.83 308.1 95.5742 307.202 95.5742C306.304 95.5742 305.425 95.83 304.668 96.3115C303.91 96.7931 303.305 97.4805 302.924 98.2933L298.883 106.903L289.947 108.27C289.088 108.401 288.282 108.766 287.617 109.326C286.953 109.885 286.455 110.617 286.179 111.441C285.903 112.265 285.86 113.149 286.053 113.996C286.247 114.843 286.671 115.62 287.277 116.242L293.882 123.012ZM302.804 115.866C303.571 115.749 304.298 115.445 304.92 114.98C305.542 114.516 306.04 113.905 306.369 113.202L307.202 111.427L308.035 113.202C308.365 113.905 308.863 114.516 309.485 114.98C310.107 115.445 310.833 115.749 311.601 115.866L313.939 116.224L312.09 118.119C311.573 118.649 311.188 119.292 310.966 119.998C310.743 120.703 310.69 121.451 310.809 122.182L311.195 124.545L309.489 123.603C308.789 123.216 308.002 123.013 307.202 123.013C306.402 123.013 305.615 123.216 304.915 123.603L303.21 124.545L303.595 122.182C303.715 121.451 303.661 120.703 303.439 119.998C303.216 119.292 302.831 118.649 302.315 118.119L300.466 116.224L302.804 115.866Z" fill="#34D399"/>
<path d="M349.738 211.393V201.939C349.734 198.179 348.24 194.574 345.581 191.916C342.923 189.257 339.319 187.761 335.56 187.757H330.006C330.55 186.24 330.83 184.641 330.833 183.029V173.575C330.83 169.815 329.335 166.21 326.677 163.552C324.019 160.893 320.414 159.397 316.655 159.393H302.31C302.417 160.19 302.473 160.993 302.476 161.798V168.847H316.655C317.908 168.849 319.109 169.348 319.995 170.234C320.881 171.12 321.379 172.322 321.381 173.575V183.029C321.379 184.282 320.881 185.484 319.995 186.37C319.109 187.256 317.908 187.755 316.655 187.757H307.202V197.211H335.56C336.813 197.213 338.014 197.712 338.9 198.598C339.786 199.484 340.284 200.686 340.286 201.939V211.394C340.284 212.647 339.786 213.848 338.9 214.734C338.014 215.62 336.813 216.119 335.56 216.121H307.202V225.576H321.381C322.634 225.577 323.835 226.076 324.721 226.962C325.607 227.848 326.106 229.05 326.107 230.303V239.758C326.106 241.011 325.607 242.212 324.721 243.098C323.835 243.985 322.634 244.483 321.381 244.485H300.978C299.339 248.424 296.426 251.7 292.705 253.789C292.625 253.834 292.558 253.896 292.477 253.94H335.56C336.813 253.941 338.014 254.44 338.9 255.326C339.786 256.212 340.284 257.414 340.286 258.667V268.122C340.284 269.375 339.786 270.576 338.9 271.462C338.014 272.349 336.813 272.847 335.56 272.849H290.336C289.03 276.223 287.271 279.404 285.109 282.304H335.56C339.319 282.299 342.923 280.803 345.581 278.145C348.24 275.486 349.734 271.881 349.738 268.122V258.667C349.734 254.907 348.24 251.303 345.581 248.644C342.923 245.985 339.319 244.49 335.56 244.485H334.732C335.276 242.968 335.556 241.369 335.56 239.758V230.303C335.556 228.692 335.276 227.093 334.732 225.576H335.56C339.319 225.571 342.923 224.075 345.582 221.416C348.24 218.758 349.735 215.153 349.738 211.393Z" fill="#0F1454"/>
<path d="M124.504 272.849H61.4405C60.1873 272.848 58.9859 272.349 58.0999 271.463C57.2139 270.577 56.7156 269.375 56.7143 268.122V258.667C56.7156 257.414 57.2139 256.213 58.0999 255.326C58.9859 254.44 60.1873 253.942 61.4405 253.94H113.981C111.792 252.733 109.865 251.103 108.312 249.144C107.749 248.449 107.229 247.719 106.757 246.959C106.271 246.167 105.842 245.34 105.475 244.485H75.619C74.3659 244.484 73.1645 243.985 72.2785 243.099C71.3925 242.213 70.8941 241.011 70.8929 239.758V230.303C70.8941 229.05 71.3925 227.849 72.2785 226.962C73.1645 226.076 74.3659 225.577 75.619 225.576H102.883C100.549 222.98 99.2548 219.613 99.25 216.121H61.4405C60.1873 216.12 58.9859 215.621 58.0999 214.735C57.2139 213.849 56.7156 212.647 56.7143 211.394V201.939C56.7156 200.686 57.2139 199.485 58.0999 198.598C58.9859 197.712 60.1873 197.214 61.4405 197.212H99.25V187.757H80.3452C79.0921 187.756 77.8907 187.257 77.0047 186.371C76.1186 185.485 75.6203 184.283 75.619 183.03V173.575C75.6203 172.322 76.1186 171.121 77.0047 170.235C77.8907 169.348 79.0921 168.85 80.3452 168.848H100.079C100.79 166.821 101.954 164.981 103.481 163.47C103.64 163.314 103.811 163.174 103.976 163.026V161.799C103.98 160.994 104.035 160.191 104.142 159.393H61.4405C60.1873 159.392 58.9859 158.893 58.0999 158.007C57.2139 157.121 56.7156 155.919 56.7143 154.666V145.211C56.7156 143.958 57.2139 142.757 58.0999 141.87C58.9859 140.984 60.1873 140.486 61.4405 140.484H130.937C130.431 137.355 130.128 134.197 130.03 131.029H61.4405C57.6809 131.034 54.0766 132.53 51.4185 135.188C48.7604 137.847 47.2656 141.452 47.2619 145.211V154.666C47.2656 158.426 48.7604 162.03 51.4185 164.689C54.0766 167.348 57.6809 168.843 61.4405 168.848H66.9937C66.4498 170.365 66.17 171.964 66.1667 173.575V183.03C66.17 184.642 66.4498 186.241 66.9937 187.758H61.4405C57.6809 187.762 54.0766 189.258 51.4185 191.917C48.7604 194.575 47.2656 198.18 47.2619 201.939V211.394C47.2656 215.154 48.7604 218.758 51.4185 221.417C54.0766 224.076 57.6809 225.572 61.4405 225.576H62.2676C61.7236 227.093 61.4438 228.692 61.4405 230.303V239.758C61.4438 241.37 61.7236 242.969 62.2676 244.485H61.4405C57.6809 244.49 54.0766 245.986 51.4185 248.644C48.7604 251.303 47.2656 254.908 47.2619 258.667V268.122C47.2656 271.882 48.7604 275.486 51.4185 278.145C54.0766 280.804 57.6809 282.3 61.4405 282.304H132.44L124.504 272.849Z" fill="#0F1454"/>
<path d="M136.54 218.475C141.337 215.997 146.903 215.456 152.087 216.965C157.271 218.473 161.678 221.916 164.396 226.582L183.328 256.421L191.212 251.21L172.46 221.653C170.406 218.118 167.66 215.033 164.386 212.584C161.112 210.136 157.377 208.373 153.405 207.402C149.433 206.431 145.306 206.272 141.272 206.934C137.237 207.596 133.378 209.066 129.925 211.256C126.471 213.445 123.496 216.309 121.176 219.676C118.857 223.043 117.24 226.844 116.425 230.85C115.609 234.857 115.61 238.987 116.429 242.992C117.247 246.998 118.866 250.798 121.188 254.163C121.27 254.281 121.359 254.396 121.451 254.507L144.565 282.042L152.502 276.796L128.837 248.602C127.185 246.17 126.069 243.415 125.563 240.518C125.057 237.622 125.171 234.651 125.9 231.803C126.628 228.954 127.953 226.293 129.788 223.995C131.622 221.698 133.924 219.816 136.54 218.475Z" fill="#0F1454"/>
<path d="M203.226 165.561L217.364 161.424C217.462 160.644 217.363 159.85 217.076 159.118C216.789 158.385 216.323 157.735 215.721 157.229C215.118 156.722 214.399 156.375 213.627 156.218C212.856 156.06 212.058 156.099 211.305 156.33C208.717 157.112 205.976 157.242 203.325 156.708C200.981 156.289 198.803 155.216 197.041 153.613C196.135 152.75 194.923 152.282 193.671 152.311C192.42 152.34 191.231 152.865 190.366 153.769C189.5 154.674 189.029 155.885 189.056 157.136C189.082 158.388 189.603 159.578 190.506 160.445C191.396 161.277 192.36 162.026 193.386 162.682L203.226 165.561Z" fill="#0F1454"/>
<path d="M153.729 151.078C149.974 142.799 148.355 133.711 149.021 124.645C149.687 115.579 152.617 106.825 157.541 99.1838C162.466 91.5428 169.228 85.259 177.21 80.9077C185.191 76.5563 194.136 74.2762 203.227 74.2763C212.317 74.2764 221.262 76.5565 229.244 80.908C237.225 85.2596 243.987 91.5434 248.912 99.1845C253.836 106.826 256.765 115.58 257.431 124.646C258.097 133.712 256.479 142.8 252.724 151.079L264.114 147.746C267.106 138.192 267.807 128.068 266.162 118.193C264.517 108.318 260.571 98.9691 254.643 90.9014C248.716 82.8338 240.973 76.2742 232.041 71.7531C223.108 67.2319 213.238 64.876 203.227 64.876C193.215 64.8759 183.345 67.2316 174.413 71.7526C165.48 76.2737 157.737 82.8331 151.81 90.9007C145.882 98.9682 141.936 108.317 140.29 118.192C138.645 128.067 139.346 138.191 142.338 147.745L153.729 151.078Z" fill="#0F1454"/>
<path d="M125.529 152.683C124.117 152.274 122.629 152.199 121.183 152.464C119.737 152.73 118.373 153.329 117.198 154.213C116.024 155.098 115.072 156.244 114.418 157.561C113.763 158.877 113.425 160.328 113.429 161.798V168.856C112.193 168.877 111.011 169.359 110.112 170.207C109.666 170.647 109.311 171.171 109.069 171.75C108.827 172.328 108.702 172.948 108.702 173.575V216.121C108.702 216.748 108.827 217.369 109.069 217.947C109.311 218.525 109.666 219.049 110.112 219.489C110.179 219.555 110.259 219.603 110.329 219.665C112.301 215.614 114.947 211.927 118.155 208.763V178.903C126.303 180.853 132.333 187.307 132.333 194.848C132.33 196.646 131.985 198.427 131.317 200.097C134.624 198.773 138.093 197.9 141.633 197.5C141.734 196.62 141.785 195.734 141.786 194.848C141.786 183.727 133.872 174.145 122.878 170.467L122.878 161.759L198.5 183.886V245.047L199.1 245.992L207.952 240.141V183.886L283.571 161.798L283.569 179.924C272.577 183.603 264.667 193.184 264.667 204.303C264.667 215.42 272.574 224.998 283.561 228.679L283.561 232.792C286.386 236.119 288.647 239.888 290.252 243.947L290.258 243.963C292.02 242.187 293.014 239.79 293.024 237.288V230.303C294.277 230.303 295.479 229.805 296.366 228.918C297.252 228.032 297.75 226.829 297.75 225.576V183.03C297.75 182.403 297.626 181.783 297.383 181.204C297.141 180.626 296.787 180.102 296.34 179.662C295.437 178.821 294.257 178.341 293.024 178.311V161.798C293.028 160.328 292.689 158.877 292.034 157.561C291.38 156.244 290.428 155.098 289.253 154.214C288.079 153.329 286.714 152.73 285.268 152.465C283.822 152.199 282.334 152.274 280.922 152.683L203.226 175.417L125.529 152.683ZM274.119 204.303C274.119 196.762 280.149 190.308 288.298 188.357V220.248C280.149 218.298 274.119 211.844 274.119 204.303Z" fill="#34D399"/>
<path d="M117.564 89.0682C118.966 89.0682 120.337 88.6524 121.503 87.8735C122.668 87.0945 123.577 85.9873 124.114 84.6919C124.65 83.3965 124.791 81.9711 124.517 80.5959C124.244 79.2207 123.568 77.9575 122.577 76.9661C121.585 75.9746 120.322 75.2994 118.947 75.0259C117.572 74.7523 116.146 74.8927 114.851 75.4293C113.556 75.9659 112.448 76.8745 111.669 78.0403C110.891 79.2062 110.475 80.5768 110.475 81.9789C110.477 83.8585 111.224 85.6604 112.554 86.9894C113.883 88.3185 115.684 89.0661 117.564 89.0682ZM117.564 78.4343C118.265 78.4343 118.95 78.6422 119.533 79.0317C120.116 79.4212 120.571 79.9748 120.839 80.6225C121.107 81.2702 121.177 81.9829 121.041 82.6705C120.904 83.3581 120.566 83.9896 120.07 84.4854C119.575 84.9811 118.943 85.3187 118.256 85.4555C117.568 85.5922 116.855 85.522 116.208 85.2538C115.56 84.9855 115.006 84.5311 114.617 83.9482C114.227 83.3653 114.019 82.68 114.019 81.9789C114.02 81.0391 114.394 80.1381 115.059 79.4735C115.723 78.809 116.624 78.4352 117.564 78.4343Z" fill="#0F1454"/>
<path d="M375.993 110.132C375.058 110.132 374.145 110.409 373.367 110.928C372.59 111.448 371.984 112.186 371.627 113.049C371.269 113.913 371.175 114.863 371.358 115.78C371.54 116.697 371.99 117.539 372.651 118.2C373.312 118.861 374.154 119.311 375.071 119.493C375.988 119.676 376.938 119.582 377.802 119.224C378.665 118.867 379.403 118.261 379.923 117.484C380.442 116.707 380.719 115.793 380.719 114.858C380.718 113.605 380.219 112.404 379.333 111.518C378.447 110.632 377.246 110.133 375.993 110.132ZM375.993 117.221C375.526 117.221 375.069 117.083 374.68 116.823C374.292 116.563 373.989 116.194 373.81 115.762C373.631 115.331 373.584 114.855 373.675 114.397C373.767 113.939 373.992 113.518 374.322 113.187C374.653 112.857 375.074 112.632 375.532 112.54C375.99 112.449 376.466 112.496 376.897 112.675C377.329 112.854 377.698 113.157 377.958 113.545C378.218 113.934 378.356 114.391 378.356 114.858C378.355 115.485 378.106 116.085 377.663 116.528C377.22 116.971 376.62 117.22 375.993 117.221Z" fill="#0F1454"/>
<path d="M21.007 32.1504C20.0722 32.1504 19.1584 32.4276 18.3812 32.9469C17.604 33.4662 16.9982 34.2043 16.6405 35.0679C16.2828 35.9315 16.1892 36.8818 16.3716 37.7986C16.5539 38.7154 17.0041 39.5575 17.665 40.2185C18.326 40.8795 19.1681 41.3296 20.0849 41.512C21.0017 41.6943 21.952 41.6007 22.8156 41.243C23.6792 40.8853 24.4173 40.2795 24.9366 39.5023C25.456 38.7251 25.7331 37.8113 25.7331 36.8766C25.7317 35.6236 25.2333 34.4223 24.3473 33.5362C23.4613 32.6502 22.26 32.1518 21.007 32.1504ZM21.007 39.2397C20.5396 39.2397 20.0827 39.1011 19.6941 38.8414C19.3055 38.5818 19.0026 38.2127 18.8237 37.7809C18.6449 37.3491 18.5981 36.874 18.6893 36.4156C18.7804 35.9572 19.0055 35.5361 19.336 35.2056C19.6665 34.8751 20.0875 34.6501 20.5459 34.5589C21.0043 34.4677 21.4795 34.5145 21.9113 34.6934C22.3431 34.8722 22.7121 35.1751 22.9718 35.5637C23.2315 35.9523 23.37 36.4092 23.37 36.8766C23.3694 37.5031 23.1203 38.1038 22.6772 38.5469C22.2342 38.9899 21.6335 39.2391 21.007 39.2397Z" fill="#0F1454"/>
<path d="M276.221 16.4033C275.286 16.4033 274.373 16.6805 273.595 17.1998C272.818 17.7191 272.212 18.4573 271.855 19.3209C271.497 20.1845 271.403 21.1348 271.586 22.0515C271.768 22.9683 272.218 23.8105 272.879 24.4714C273.54 25.1324 274.382 25.5825 275.299 25.7649C276.216 25.9473 277.166 25.8537 278.03 25.4959C278.893 25.1382 279.632 24.5325 280.151 23.7552C280.67 22.978 280.947 22.0643 280.947 21.1295C280.946 19.8765 280.448 18.6752 279.562 17.7892C278.676 16.9031 277.474 16.4048 276.221 16.4033ZM276.221 23.4926C275.754 23.4926 275.297 23.354 274.908 23.0944C274.52 22.8347 274.217 22.4656 274.038 22.0338C273.859 21.602 273.812 21.1269 273.904 20.6685C273.995 20.2101 274.22 19.789 274.55 19.4586C274.881 19.1281 275.302 18.903 275.76 18.8118C276.219 18.7206 276.694 18.7674 277.126 18.9463C277.557 19.1252 277.926 19.428 278.186 19.8166C278.446 20.2053 278.584 20.6621 278.584 21.1295C278.584 21.7561 278.334 22.3567 277.891 22.7998C277.448 23.2428 276.848 23.492 276.221 23.4926Z" fill="#0F1454"/>
<path d="M207.101 40.4205C207.101 39.4858 206.824 38.572 206.304 37.7948C205.785 37.0176 205.047 36.4118 204.183 36.0541C203.32 35.6964 202.369 35.6028 201.452 35.7852C200.536 35.9675 199.694 36.4176 199.033 37.0786C198.372 37.7396 197.921 38.5817 197.739 39.4985C197.557 40.4153 197.65 41.3656 198.008 42.2292C198.366 43.0928 198.972 43.8309 199.749 44.3502C200.526 44.8695 201.44 45.1467 202.375 45.1467C203.628 45.1453 204.829 44.6469 205.715 43.7609C206.601 42.8748 207.099 41.6736 207.101 40.4205ZM200.011 40.4205C200.011 39.9532 200.15 39.4963 200.41 39.1077C200.669 38.7191 201.038 38.4162 201.47 38.2373C201.902 38.0585 202.377 38.0117 202.836 38.1028C203.294 38.194 203.715 38.4191 204.045 38.7496C204.376 39.0801 204.601 39.5011 204.692 39.9595C204.783 40.4179 204.737 40.893 204.558 41.3248C204.379 41.7566 204.076 42.1257 203.687 42.3854C203.299 42.645 202.842 42.7836 202.375 42.7836C201.748 42.783 201.147 42.5338 200.704 42.0908C200.261 41.6478 200.012 41.0471 200.011 40.4205Z" fill="#0F1454"/>
<path d="M38.5255 117.247L42.0395 112.627L39.8205 111.37L37.5661 116.545H37.4905L35.1983 111.406L32.9415 112.701L36.4176 117.212V117.285L30.9802 116.583V119.097L36.4531 118.396V118.469L32.9415 122.978L35.0471 124.31L37.4527 119.097H37.5259L39.7449 124.273L42.0749 122.942L38.5255 118.504V118.431L44.1072 119.097V116.583L38.5255 117.323V117.247Z" fill="#34D399"/>
<path d="M123.791 19.5882L121.768 22.1852L122.98 22.9508L124.367 19.9473H124.408L125.686 22.9296L127.028 22.1639L124.984 19.6071V19.5645L128.198 19.9473V18.5011L124.984 18.9265V18.884L127.007 16.2231L125.728 15.5L124.431 18.4799H124.386L123.068 15.5189L121.768 16.2656L123.769 18.8627V18.9052L120.638 18.5011V19.9473L123.791 19.5456V19.5882Z" fill="#34D399"/>
<path d="M289.749 79.4779V77.0108L284.273 77.7363V77.663L287.719 73.1306L285.542 71.8994L283.33 76.9753H283.257L281.01 71.9349L278.796 73.2038L282.206 77.6276V77.7008L276.872 77.0108V79.4779L282.241 78.7902V78.8611L278.796 83.2848L280.863 84.5916L283.222 79.4779H283.293L285.469 84.5538L287.754 83.2494L284.273 78.8965V78.8256L289.749 79.4779Z" fill="#34D399"/>
<path d="M357.614 33.5349L360.587 29.6239L358.708 28.5605L356.801 32.9394H356.738L354.8 28.5913L352.888 29.6877L355.83 33.5041V33.5656L351.232 32.9724V35.0992L355.861 34.5061V34.5675L352.888 38.3839L354.672 39.5111L356.707 35.0992H356.768L358.645 39.478L360.618 38.3532L357.614 34.5983V34.5368L362.336 35.0992V32.9724L357.614 33.5963V33.5349Z" fill="#34D399"/>
<path d="M4.72619 348.417C7.33639 348.417 9.45238 346.301 9.45238 343.691C9.45238 341.081 7.33639 338.965 4.72619 338.965C2.11599 338.965 0 341.081 0 343.691C0 346.301 2.11599 348.417 4.72619 348.417Z" fill="#0F1454"/>
<path d="M25.9941 338.966H18.9048C17.6513 338.966 16.4492 339.464 15.5629 340.35C14.6765 341.236 14.1786 342.439 14.1786 343.692C14.1786 344.945 14.6765 346.148 15.5629 347.034C16.4492 347.92 17.6513 348.418 18.9048 348.418H25.9941C27.2475 348.418 28.4497 347.92 29.336 347.034C30.2223 346.148 30.7203 344.945 30.7203 343.692C30.7203 342.439 30.2223 341.236 29.336 340.35C28.4497 339.464 27.2475 338.966 25.9941 338.966Z" fill="#0F1454"/>
<path d="M378.095 338.966H371.006C369.753 338.966 368.55 339.464 367.664 340.35C366.778 341.236 366.28 342.439 366.28 343.692C366.28 344.945 366.778 346.148 367.664 347.034C368.55 347.92 369.753 348.418 371.006 348.418H378.095C379.349 348.418 380.551 347.92 381.437 347.034C382.324 346.148 382.821 344.945 382.821 343.692C382.821 342.439 382.324 341.236 381.437 340.35C380.551 339.464 379.349 338.966 378.095 338.966Z" fill="#0F1454"/>
<path d="M392.274 348.417C394.884 348.417 397 346.301 397 343.691C397 341.081 394.884 338.965 392.274 338.965C389.664 338.965 387.548 341.081 387.548 343.691C387.548 346.301 389.664 348.417 392.274 348.417Z" fill="#0F1454"/>
<path d="M279.209 357.871H259.577C258.389 357.966 257.28 358.506 256.472 359.381C255.663 360.257 255.214 361.405 255.214 362.597C255.214 363.789 255.663 364.937 256.472 365.813C257.28 366.689 258.389 367.228 259.577 367.323H279.209C280.397 367.228 281.506 366.689 282.314 365.813C283.123 364.937 283.572 363.789 283.572 362.597C283.572 361.405 283.123 360.257 282.314 359.381C281.506 358.506 280.397 357.966 279.209 357.871Z" fill="#34D399"/>
<path d="M137.423 357.871H117.791C116.603 357.966 115.494 358.506 114.686 359.381C113.877 360.257 113.429 361.405 113.429 362.597C113.429 363.789 113.877 364.937 114.686 365.813C115.494 366.689 116.603 367.228 117.791 367.323H137.423C138.611 367.228 139.72 366.689 140.528 365.813C141.337 364.937 141.786 363.789 141.786 362.597C141.786 361.405 141.337 360.257 140.528 359.381C139.72 358.506 138.611 357.966 137.423 357.871Z" fill="#34D399"/>
<path d="M245.762 357.871H151.238C149.985 357.871 148.783 358.369 147.896 359.255C147.01 360.142 146.512 361.344 146.512 362.597C146.512 363.851 147.01 365.053 147.896 365.939C148.783 366.826 149.985 367.323 151.238 367.323H188.906V372.05H170.143C168.889 372.05 167.687 372.548 166.801 373.434C165.915 374.32 165.417 375.522 165.417 376.776C165.417 378.029 165.915 379.231 166.801 380.118C167.687 381.004 168.889 381.502 170.143 381.502H229.22C230.474 381.502 231.676 381.004 232.562 380.118C233.448 379.231 233.946 378.029 233.946 376.776C233.946 375.522 233.448 374.32 232.562 373.434C231.676 372.548 230.474 372.05 229.22 372.05H208.094V367.323H245.762C247.015 367.323 248.217 366.826 249.104 365.939C249.99 365.053 250.488 363.851 250.488 362.597C250.488 361.344 249.99 360.142 249.104 359.255C248.217 358.369 247.015 357.871 245.762 357.871Z" fill="#34D399"/>
<path d="M356.169 338.966H230.264C231.328 337.392 232.173 335.68 232.776 333.878C233.776 330.54 234.106 327.039 233.748 323.573C233.39 320.108 232.351 316.748 230.69 313.686L222.199 317.795C223.331 319.761 224.056 321.935 224.332 324.187C224.608 326.439 224.428 328.723 223.804 330.904C223.299 332.468 222.458 333.902 221.338 335.105C220.218 336.307 218.848 337.249 217.324 337.864L217.262 337.892C215.827 338.487 214.307 338.849 212.759 338.966H210.786C208.681 338.85 206.625 338.286 204.755 337.312C202.886 336.337 201.246 334.975 199.945 333.317L197.108 329.938L188.334 334.184C188.334 334.184 191.442 337.887 192.348 338.966H40.8312C40.1588 338.878 39.4754 338.935 38.8267 339.132C38.178 339.329 37.5788 339.663 37.0692 340.11C36.5596 340.558 36.1513 341.108 35.8716 341.726C35.5919 342.344 35.4473 343.014 35.4473 343.692C35.4473 344.37 35.5919 345.041 35.8716 345.658C36.1513 346.276 36.5596 346.827 37.0692 347.274C37.5788 347.722 38.178 348.055 38.8267 348.252C39.4754 348.45 40.1588 348.506 40.8312 348.418H356.169C356.841 348.506 357.525 348.45 358.173 348.252C358.822 348.055 359.421 347.722 359.931 347.274C360.44 346.827 360.849 346.276 361.128 345.658C361.408 345.041 361.553 344.37 361.553 343.692C361.553 343.014 361.408 342.344 361.128 341.726C360.849 341.108 360.44 340.558 359.931 340.11C359.421 339.663 358.822 339.329 358.173 339.132C357.525 338.935 356.841 338.878 356.169 338.966Z" fill="#0F1454"/>
</svg>
