<svg width="168" height="168" viewBox="0 0 168 168" fill="none" xmlns="http://www.w3.org/2000/svg">
<path d="M106.302 51.5513C104.978 51.5509 103.677 51.8923 102.525 52.5424C102.399 51.2233 101.935 49.9586 101.18 48.8702C100.424 47.7817 99.4007 46.906 98.2086 46.3271C97.0165 45.7483 95.6955 45.4859 94.3727 45.5651C93.0499 45.6443 91.7697 46.0624 90.6552 46.7793C90.0826 45.1075 88.9547 43.6822 87.4593 42.7406C85.9638 41.7991 84.1911 41.3979 82.436 41.6041C80.6809 41.8102 79.0493 42.6112 77.8127 43.8736C76.5762 45.1361 75.8092 46.7839 75.6395 48.5429C74.4625 47.8813 73.1326 47.5395 71.7824 47.5516C70.4322 47.5637 69.1087 47.9292 67.9437 48.6118C66.7787 49.2944 65.8127 50.2703 65.1421 51.4422C64.4714 52.6141 64.1194 53.9413 64.1211 55.2915V59.521L68.1211 63.521V55.2915C68.1211 54.2996 68.5152 53.3482 69.2166 52.6468C69.918 51.9454 70.8694 51.5513 71.8613 51.5513C72.8533 51.5513 73.8046 51.9454 74.5061 52.6468C75.2075 53.3482 75.6016 54.2996 75.6016 55.2915V68.3814C75.6016 68.9118 75.8123 69.4205 76.1874 69.7956C76.5624 70.1707 77.0711 70.3814 77.6016 70.3814C78.132 70.3814 78.6407 70.1707 79.0158 69.7956C79.3909 69.4205 79.6016 68.9118 79.6016 68.3814V49.2915C79.6016 48.2996 79.9956 47.3482 80.6971 46.6468C81.3985 45.9454 82.3498 45.5513 83.3418 45.5513C84.3338 45.5513 85.2851 45.9454 85.9865 46.6468C86.688 47.3482 87.082 48.2996 87.082 49.2915V70.3814C87.082 70.9118 87.2927 71.4205 87.6678 71.7956C88.0429 72.1707 88.5516 72.3814 89.082 72.3814C89.6125 72.3814 90.1212 72.1707 90.4963 71.7956C90.8713 71.4205 91.082 70.9118 91.082 70.3814V53.2915C91.082 52.2996 91.4761 51.3482 92.1775 50.6468C92.879 49.9454 93.8303 49.5513 94.8223 49.5513C95.8142 49.5513 96.7656 49.9454 97.467 50.6468C98.1684 51.3482 98.5625 52.2996 98.5625 53.2915V72.3814C98.5625 72.9118 98.7732 73.4205 99.1483 73.7956C99.5234 74.1707 100.032 74.3814 100.562 74.3814C101.093 74.3814 101.602 74.1707 101.977 73.7956C102.352 73.4205 102.562 72.9118 102.562 72.3814V59.2915C102.562 58.2997 102.956 57.3484 103.657 56.6469C104.358 55.9454 105.309 55.5511 106.301 55.5508C107.293 55.5505 108.244 55.9442 108.946 56.6453C109.647 57.3464 110.041 58.2975 110.042 59.2893C110.034 59.9662 109.697 89.0903 109.05 104.45L112.864 108.264C113.64 94.2219 114.023 60.9635 114.042 59.314C114.042 59.3099 114.041 59.3062 114.041 59.3021L114.042 59.2915C114.04 57.2394 113.223 55.2721 111.772 53.8211C110.321 52.37 108.354 51.5537 106.302 51.5513Z" fill="#34D399"/>
<path d="M56.1533 102.953C61.4553 108.398 65.3444 115.058 67.4815 122.352C68.323 125.192 70.0574 127.686 72.4275 129.463C74.7977 131.24 77.6774 132.206 80.6397 132.217H94.9434C98.1412 132.228 101.277 131.332 103.986 129.633C106.695 127.934 108.867 125.502 110.25 122.619L107.201 119.569C106.309 122.105 104.65 124.301 102.453 125.851C100.256 127.4 97.6316 128.228 94.9434 128.217H80.6397C78.5418 128.209 76.5025 127.525 74.824 126.267C73.1455 125.008 71.9172 123.242 71.3213 121.231C69.0003 113.309 64.7758 106.074 59.0166 100.16C53.3926 94.3921 47.0615 87.9849 47.0527 87.977C46.6933 87.6175 46.4109 87.1885 46.2229 86.7162C46.0349 86.2439 45.9451 85.7382 45.9591 85.23C45.9731 84.7219 46.0905 84.2219 46.3042 83.7606C46.518 83.2994 46.8235 82.8866 47.2021 82.5474C47.9795 81.9217 48.9642 81.6123 49.9597 81.6809C50.9552 81.7495 51.8881 82.1911 52.5723 82.9175L59.8076 90.1529C60.4887 90.8339 61.3564 91.2976 62.3011 91.4855C63.2457 91.6734 64.2248 91.5769 65.1147 91.2084C66.0045 90.8398 66.765 90.2157 67.3002 89.4149C67.8353 88.6141 68.121 87.6726 68.1211 86.7095V80.4897L64.1211 76.4897V86.7095C64.1211 86.8815 64.07 87.0497 63.9744 87.1928C63.8788 87.3359 63.7429 87.4474 63.5839 87.5132C63.425 87.5791 63.25 87.5963 63.0813 87.5627C62.9125 87.5292 62.7575 87.4464 62.6358 87.3247L55.4004 80.0894C53.9985 78.6272 52.0889 77.7587 50.0655 77.6629C48.0421 77.5672 46.0591 78.2515 44.5254 79.5747C43.7399 80.2753 43.1068 81.1299 42.6655 82.0855C42.2241 83.041 41.984 84.0771 41.96 85.1294C41.9343 86.1775 42.1209 87.2199 42.5086 88.194C42.8963 89.168 43.477 90.0536 44.2159 90.7974C44.2178 90.7983 50.5381 97.1939 56.1533 102.953Z" fill="#34D399"/>
<path d="M2 151.884C3.10457 151.884 4 150.988 4 149.884C4 148.779 3.10457 147.884 2 147.884C0.89543 147.884 0 148.779 0 149.884C0 150.988 0.89543 151.884 2 151.884Z" fill="#F2F2F7"/>
<path d="M11 147.884H8C7.46957 147.884 6.96086 148.095 6.58579 148.47C6.21071 148.845 6 149.354 6 149.884C6 150.415 6.21071 150.923 6.58579 151.298C6.96086 151.674 7.46957 151.884 8 151.884H11C11.5304 151.884 12.0391 151.674 12.4142 151.298C12.7893 150.923 13 150.415 13 149.884C13 149.354 12.7893 148.845 12.4142 148.47C12.0391 148.095 11.5304 147.884 11 147.884Z" fill="#F2F2F7"/>
<path d="M160 147.884H157C156.47 147.884 155.961 148.095 155.586 148.47C155.211 148.845 155 149.354 155 149.884C155 150.415 155.211 150.923 155.586 151.298C155.961 151.674 156.47 151.884 157 151.884H160C160.53 151.884 161.039 151.674 161.414 151.298C161.789 150.923 162 150.415 162 149.884C162 149.354 161.789 148.845 161.414 148.47C161.039 148.095 160.53 147.884 160 147.884Z" fill="#F2F2F7"/>
<path d="M166 151.884C167.105 151.884 168 150.988 168 149.884C168 148.779 167.105 147.884 166 147.884C164.895 147.884 164 148.779 164 149.884C164 150.988 164.895 151.884 166 151.884Z" fill="#F2F2F7"/>
<path d="M118.154 155.884H109.846C109.343 155.925 108.874 156.153 108.532 156.523C108.19 156.894 108 157.38 108 157.884C108 158.389 108.19 158.875 108.532 159.245C108.874 159.616 109.343 159.844 109.846 159.884H118.154C118.657 159.844 119.126 159.616 119.468 159.245C119.81 158.875 120 158.389 120 157.884C120 157.38 119.81 156.894 119.468 156.523C119.126 156.153 118.657 155.925 118.154 155.884Z" fill="#34D399"/>
<path d="M58.1539 155.884H49.8461C49.3433 155.925 48.8742 156.153 48.5321 156.523C48.1899 156.894 48 157.38 48 157.884C48 158.389 48.1899 158.875 48.5321 159.245C48.8742 159.616 49.3433 159.844 49.8461 159.884H58.1539C58.6566 159.844 59.1258 159.616 59.4679 159.245C59.81 158.875 60 158.389 60 157.884C60 157.38 59.81 156.894 59.4679 156.523C59.1258 156.153 58.6566 155.925 58.1539 155.884Z" fill="#34D399"/>
<path d="M104 155.884H64C63.4696 155.884 62.9609 156.095 62.5858 156.47C62.2107 156.845 62 157.354 62 157.884C62 158.415 62.2107 158.923 62.5858 159.298C62.9609 159.674 63.4696 159.884 64 159.884H79.94V161.884H72C71.4696 161.884 70.9609 162.095 70.5858 162.47C70.2107 162.845 70 163.354 70 163.884C70 164.415 70.2107 164.923 70.5858 165.298C70.9609 165.674 71.4696 165.884 72 165.884H97C97.5304 165.884 98.0391 165.674 98.4142 165.298C98.7893 164.923 99 164.415 99 163.884C99 163.354 98.7893 162.845 98.4142 162.47C98.0391 162.095 97.5304 161.884 97 161.884H88.06V159.884H104C104.53 159.884 105.039 159.674 105.414 159.298C105.789 158.923 106 158.415 106 157.884C106 157.354 105.789 156.845 105.414 156.47C105.039 156.095 104.53 155.884 104 155.884Z" fill="#34D399"/>
<path d="M150.721 147.884H106.262C120.337 142.662 132.128 132.659 139.574 119.623C147.02 106.587 149.646 91.3483 146.993 76.5721C144.34 61.7958 136.578 48.4223 125.062 38.7903C113.547 29.1583 99.0125 23.8809 84 23.8809C68.9875 23.8809 54.4528 29.1583 42.9376 38.7903C31.4224 48.4223 23.6597 61.7958 21.007 76.5721C18.3543 91.3483 20.9805 106.587 28.4262 119.623C35.8719 132.659 47.6633 142.662 61.7383 147.884H17.2787C16.9942 147.847 16.705 147.871 16.4305 147.955C16.1559 148.038 15.9024 148.179 15.6867 148.369C15.4711 148.558 15.2983 148.791 15.18 149.052C15.0616 149.314 15.0004 149.597 15.0004 149.884C15.0004 150.171 15.0616 150.455 15.18 150.716C15.2983 150.978 15.4711 151.211 15.6867 151.4C15.9024 151.589 16.1559 151.731 16.4305 151.814C16.705 151.898 16.9942 151.922 17.2787 151.884H150.721C151.006 151.922 151.295 151.898 151.57 151.814C151.844 151.731 152.098 151.589 152.313 151.4C152.529 151.211 152.702 150.978 152.82 150.716C152.938 150.455 153 150.171 153 149.884C153 149.597 152.938 149.314 152.82 149.052C152.702 148.791 152.529 148.558 152.313 148.369C152.098 148.179 151.844 148.038 151.57 147.955C151.295 147.871 151.006 147.847 150.721 147.884ZM84 27.8843C95.6967 27.8814 107.139 31.2982 116.919 37.7143C126.699 44.1304 134.39 53.2658 139.045 63.9962C143.7 74.7267 145.116 86.584 143.12 98.109C141.123 109.634 135.8 120.324 127.807 128.863L43.0214 44.0776C54.1205 33.6586 68.7768 27.867 84 27.8843ZM24 87.8844C23.9826 72.6611 29.7743 58.0049 40.1932 46.9057L124.979 131.691C116.44 139.685 105.75 145.007 94.2247 147.004C82.6997 149.001 70.8423 147.584 60.1119 142.929C49.3814 138.274 40.246 130.583 33.83 120.803C27.4139 111.023 23.9971 99.581 24 87.8844Z" fill="#F2F2F7"/>
<path d="M6.5 9.88428C7.09334 9.88428 7.67336 9.70833 8.16671 9.37869C8.66006 9.04904 9.04458 8.58051 9.27164 8.03233C9.4987 7.48415 9.55811 6.88095 9.44236 6.29901C9.3266 5.71706 9.04088 5.18252 8.62132 4.76296C8.20176 4.3434 7.66721 4.05768 7.08527 3.94192C6.50333 3.82617 5.90013 3.88558 5.35195 4.11264C4.80377 4.3397 4.33524 4.72422 4.00559 5.21757C3.67595 5.71092 3.5 6.29093 3.5 6.88428C3.50091 7.67965 3.81727 8.44218 4.37969 9.00459C4.9421 9.56701 5.70463 9.88337 6.5 9.88428ZM6.5 5.38428C6.79667 5.38428 7.08668 5.47225 7.33336 5.63707C7.58003 5.8019 7.77229 6.03616 7.88582 6.31025C7.99935 6.58434 8.02906 6.88594 7.97118 7.17691C7.9133 7.46789 7.77044 7.73516 7.56066 7.94494C7.35088 8.15472 7.08361 8.29758 6.79264 8.35546C6.50166 8.41333 6.20006 8.38363 5.92597 8.2701C5.65189 8.15657 5.41762 7.96431 5.2528 7.71763C5.08797 7.47096 5 7.18095 5 6.88428C5.00039 6.48657 5.15855 6.10527 5.43977 5.82405C5.72099 5.54283 6.1023 5.38467 6.5 5.38428Z" fill="#F2F2F7"/>
<path d="M162.25 61.3843C161.854 61.3843 161.468 61.5016 161.139 61.7213C160.81 61.9411 160.554 62.2535 160.402 62.6189C160.251 62.9844 160.211 63.3865 160.288 63.7745C160.366 64.1624 160.556 64.5188 160.836 64.7985C161.115 65.0782 161.472 65.2687 161.86 65.3459C162.248 65.423 162.65 65.3834 163.015 65.232C163.381 65.0807 163.693 64.8243 163.913 64.4954C164.133 64.1665 164.25 63.7798 164.25 63.3843C164.249 62.854 164.038 62.3457 163.664 61.9707C163.289 61.5958 162.78 61.3849 162.25 61.3843ZM162.25 64.3843C162.052 64.3843 161.859 64.3256 161.694 64.2157C161.53 64.1059 161.402 63.9497 161.326 63.767C161.25 63.5842 161.231 63.3832 161.269 63.1892C161.308 62.9952 161.403 62.817 161.543 62.6772C161.683 62.5373 161.861 62.4421 162.055 62.4035C162.249 62.3649 162.45 62.3847 162.633 62.4604C162.815 62.5361 162.972 62.6643 163.081 62.8287C163.191 62.9932 163.25 63.1865 163.25 63.3843C163.25 63.6494 163.144 63.9036 162.957 64.0911C162.769 64.2786 162.515 64.384 162.25 64.3843Z" fill="#F2F2F7"/>
<path d="M119.75 23.6343C119.354 23.6343 118.968 23.7516 118.639 23.9713C118.31 24.1911 118.054 24.5035 117.902 24.8689C117.751 25.2344 117.711 25.6365 117.788 26.0245C117.866 26.4124 118.056 26.7688 118.336 27.0485C118.615 27.3282 118.972 27.5187 119.36 27.5958C119.748 27.673 120.15 27.6334 120.515 27.482C120.881 27.3307 121.193 27.0743 121.413 26.7454C121.633 26.4165 121.75 26.0298 121.75 25.6343C121.749 25.104 121.538 24.5957 121.164 24.2207C120.789 23.8458 120.28 23.6349 119.75 23.6343ZM119.75 26.6343C119.552 26.6343 119.359 26.5756 119.194 26.4657C119.03 26.3559 118.902 26.1997 118.826 26.017C118.75 25.8342 118.731 25.6332 118.769 25.4392C118.808 25.2452 118.903 25.067 119.043 24.9272C119.183 24.7873 119.361 24.6921 119.555 24.6535C119.749 24.6149 119.95 24.6347 120.133 24.7104C120.315 24.7861 120.472 24.9143 120.581 25.0787C120.691 25.2432 120.75 25.4365 120.75 25.6343C120.75 25.8994 120.644 26.1536 120.457 26.3411C120.269 26.5286 120.015 26.634 119.75 26.6343Z" fill="#F2F2F7"/>
<path d="M162 23.1343C161.604 23.1343 161.218 23.2516 160.889 23.4713C160.56 23.6911 160.304 24.0035 160.152 24.3689C160.001 24.7344 159.961 25.1365 160.038 25.5245C160.116 25.9124 160.306 26.2688 160.586 26.5485C160.865 26.8282 161.222 27.0187 161.61 27.0958C161.998 27.173 162.4 27.1334 162.765 26.982C163.131 26.8307 163.443 26.5743 163.663 26.2454C163.883 25.9165 164 25.5298 164 25.1343C163.999 24.604 163.788 24.0957 163.414 23.7207C163.039 23.3458 162.53 23.1349 162 23.1343ZM162 26.1343C161.802 26.1343 161.609 26.0756 161.444 25.9657C161.28 25.8559 161.152 25.6997 161.076 25.517C161 25.3342 160.981 25.1332 161.019 24.9392C161.058 24.7452 161.153 24.567 161.293 24.4272C161.433 24.2873 161.611 24.1921 161.805 24.1535C161.999 24.1149 162.2 24.1347 162.383 24.2104C162.565 24.2861 162.722 24.4143 162.831 24.5787C162.941 24.7432 163 24.9365 163 25.1343C163 25.3994 162.894 25.6536 162.707 25.8411C162.519 26.0286 162.265 26.134 162 26.1343Z" fill="#F2F2F7"/>
<path d="M28 31.3843C28 30.9887 27.8827 30.602 27.6629 30.2731C27.4432 29.9442 27.1308 29.6879 26.7654 29.5365C26.3999 29.3851 25.9978 29.3455 25.6098 29.4227C25.2219 29.4999 24.8655 29.6904 24.5858 29.9701C24.3061 30.2498 24.1156 30.6061 24.0384 30.9941C23.9613 31.3821 24.0009 31.7842 24.1522 32.1496C24.3036 32.5151 24.56 32.8275 24.8889 33.0472C25.2178 33.267 25.6044 33.3843 26 33.3843C26.5302 33.3837 27.0386 33.1728 27.4135 32.7978C27.7885 32.4229 27.9994 31.9145 28 31.3843ZM25 31.3843C25 31.1865 25.0586 30.9932 25.1685 30.8287C25.2784 30.6643 25.4346 30.5361 25.6173 30.4604C25.8 30.3847 26.0011 30.3649 26.1951 30.4035C26.3891 30.4421 26.5673 30.5373 26.7071 30.6772C26.847 30.817 26.9422 30.9952 26.9808 31.1892C27.0194 31.3832 26.9996 31.5842 26.9239 31.767C26.8482 31.9497 26.72 32.1059 26.5556 32.2157C26.3911 32.3256 26.1978 32.3843 26 32.3843C25.7349 32.384 25.4807 32.2786 25.2932 32.0911C25.1057 31.9036 25.0003 31.6494 25 31.3843Z" fill="#F2F2F7"/>
<path d="M10.888 68.8962L12.375 66.9402L11.436 66.4082L10.481 68.5982H10.45L9.48001 66.4242L8.52501 66.9712L9.99601 68.8802V68.9122L7.69501 68.6142V69.6782L10.011 69.3812V69.4122L8.52501 71.3212L9.41601 71.8842L10.434 69.6782H10.465L11.404 71.8682L12.39 71.3052L10.888 69.4282V69.3962L13.25 69.6782V68.6142L10.888 68.9272V68.8962Z" fill="#34D399"/>
<path d="M69.68 6.11379L68.824 7.21279L69.337 7.53779L69.923 6.26679H69.941L70.482 7.52879L71.049 7.20479L70.185 6.12279V6.10479L71.545 6.26679V5.65479L70.185 5.83479V5.81679L71.041 4.69079L70.5 4.38379L69.95 5.64579H69.932L69.374 4.39279L68.824 4.70879L69.671 5.80779V5.82579L68.346 5.65479V6.26679L69.68 6.09579V6.11379Z" fill="#34D399"/>
<path d="M146.805 43.8481V42.8041L144.488 43.1111V43.0811L145.946 41.1621L145.025 40.6411L144.089 42.7891H144.058L143.107 40.6561L142.17 41.1931L143.613 43.0661V43.0961L141.356 42.8041V43.8481L143.628 43.5571V43.5871L142.17 45.4591L143.045 46.0121L144.043 43.8481H144.073L144.994 45.9971L145.961 45.4441L144.488 43.6021V43.5721L146.805 43.8481Z" fill="#34D399"/>
<path d="M139.248 4.22021L140.506 2.56621L139.711 2.11621L138.904 3.96921H138.877L138.057 2.12921L137.248 2.59221L138.493 4.20721V4.23421L136.547 3.98221V4.88221L138.506 4.63121V4.65721L137.248 6.27221L138.003 6.74921L138.864 4.88221H138.89L139.685 6.73621L140.519 6.25921L139.248 4.67021V4.64421L141.246 4.88221V3.98221L139.248 4.24721V4.22021Z" fill="#34D399"/>
</svg>
