<svg width="168" height="168" viewBox="0 0 168 168" fill="none" xmlns="http://www.w3.org/2000/svg">
<mask id="mask0_108_117" style="mask-type:luminance" maskUnits="userSpaceOnUse" x="0" y="0" width="168" height="168">
<path d="M168 0H0V168H168V0Z" fill="white"/>
</mask>
<g mask="url(#mask0_108_117)">
<path d="M92.1667 9.79147C92.76 9.79147 93.34 9.61557 93.8334 9.28591C94.3267 8.95627 94.7112 8.48773 94.9383 7.93955C95.1654 7.39138 95.2248 6.78818 95.109 6.20623C94.9933 5.62429 94.7075 5.08974 94.288 4.67018C93.8684 4.25063 93.3339 3.9649 92.7519 3.84915C92.17 3.73339 91.5668 3.7928 91.0186 4.01987C90.4704 4.24693 90.0019 4.63145 89.6723 5.12479C89.3426 5.61814 89.1667 6.19816 89.1667 6.7915C89.1676 7.58687 89.4839 8.34941 90.0464 8.91182C90.6088 9.47427 91.3713 9.79057 92.1667 9.79147ZM92.1667 5.2915C92.4633 5.2915 92.7533 5.37948 93 5.5443C93.2467 5.70912 93.439 5.94339 93.5525 6.21748C93.666 6.49157 93.6957 6.79317 93.6378 7.08414C93.58 7.37511 93.4371 7.64239 93.2273 7.85216C93.0176 8.06194 92.7503 8.2048 92.4593 8.26268C92.1683 8.32056 91.8667 8.29086 91.5926 8.17732C91.3186 8.06379 91.0843 7.87153 90.9195 7.62486C90.7546 7.37819 90.6667 7.08818 90.6667 6.7915C90.6671 6.3938 90.8252 6.0125 91.1064 5.73128C91.3877 5.45006 91.769 5.2919 92.1667 5.2915Z" fill="white"/>
<path d="M36.6584 4.7915C36.2628 4.7915 35.8762 4.9088 35.5473 5.12856C35.2184 5.34833 34.962 5.66068 34.8107 6.02614C34.6593 6.39159 34.6197 6.79372 34.6968 7.18168C34.774 7.56965 34.9645 7.92601 35.2442 8.20572C35.5239 8.48542 35.8803 8.6759 36.2682 8.75307C36.6562 8.83024 37.0583 8.79064 37.4238 8.63926C37.7892 8.48789 38.1016 8.23154 38.3214 7.90264C38.5411 7.57375 38.6584 7.18707 38.6584 6.7915C38.6578 6.26126 38.4469 5.7529 38.072 5.37796C37.697 5.00302 37.1887 4.79211 36.6584 4.7915ZM36.6584 7.7915C36.4606 7.7915 36.2673 7.73285 36.1028 7.62297C35.9384 7.51309 35.8102 7.35691 35.7345 7.17419C35.6588 6.99146 35.639 6.79039 35.6776 6.59641C35.7162 6.40243 35.8115 6.22425 35.9513 6.0844C36.0912 5.94454 36.2693 5.8493 36.4633 5.81072C36.6573 5.77213 36.8584 5.79194 37.0411 5.86762C37.2238 5.94331 37.38 6.07148 37.4899 6.23593C37.5998 6.40038 37.6584 6.59372 37.6584 6.7915C37.6581 7.05664 37.5527 7.31084 37.3652 7.49832C37.1777 7.6858 36.9235 7.79124 36.6584 7.7915Z" fill="white"/>
<path d="M142.553 5.45801C142.157 5.45801 141.77 5.57531 141.441 5.79507C141.112 6.01483 140.856 6.32719 140.705 6.69264C140.553 7.05809 140.514 7.46023 140.591 7.84819C140.668 8.23615 140.859 8.59252 141.138 8.87222C141.418 9.15193 141.774 9.34241 142.162 9.41957C142.55 9.49677 142.952 9.45717 143.318 9.30577C143.683 9.15439 143.996 8.89805 144.215 8.56915C144.435 8.24025 144.553 7.85357 144.553 7.45801C144.552 6.92776 144.341 6.4194 143.966 6.04446C143.591 5.66952 143.083 5.45861 142.553 5.45801ZM142.553 8.45801C142.355 8.45801 142.161 8.39936 141.997 8.28948C141.833 8.1796 141.704 8.02342 141.629 7.84069C141.553 7.65796 141.533 7.4569 141.572 7.26292C141.61 7.06894 141.706 6.89075 141.845 6.7509C141.985 6.61105 142.163 6.51581 142.357 6.47722C142.551 6.43864 142.752 6.45844 142.935 6.53413C143.118 6.60982 143.274 6.73799 143.384 6.90244C143.494 7.06689 143.553 7.26023 143.553 7.45801C143.552 7.72314 143.447 7.97734 143.259 8.16482C143.072 8.3523 142.818 8.45774 142.553 8.45801Z" fill="white"/>
<path d="M126.818 20.208C126.423 20.208 126.036 20.3253 125.707 20.5451C125.378 20.7649 125.122 21.0772 124.971 21.4427C124.819 21.8081 124.78 22.2103 124.857 22.5982C124.934 22.9862 125.124 23.3425 125.404 23.6223C125.684 23.902 126.04 24.0924 126.428 24.1696C126.816 24.2468 127.218 24.2072 127.584 24.0558C127.949 23.9044 128.262 23.6481 128.481 23.3192C128.701 22.9903 128.818 22.6036 128.818 22.208C128.818 21.6778 128.607 21.1694 128.232 20.7945C127.857 20.4196 127.349 20.2086 126.818 20.208ZM126.818 23.208C126.621 23.208 126.427 23.1494 126.263 23.0395C126.098 22.9296 125.97 22.7734 125.894 22.5907C125.819 22.408 125.799 22.2069 125.838 22.0129C125.876 21.819 125.971 21.6408 126.111 21.5009C126.251 21.3611 126.429 21.2658 126.623 21.2273C126.817 21.1887 127.018 21.2085 127.201 21.2842C127.384 21.3598 127.54 21.488 127.65 21.6525C127.76 21.8169 127.818 22.0103 127.818 22.208C127.818 22.4732 127.713 22.7274 127.525 22.9149C127.338 23.1023 127.083 23.2078 126.818 23.208Z" fill="white"/>
<path d="M24.8251 46.125C24.8251 45.7295 24.7078 45.3428 24.488 45.0139C24.2683 44.685 23.9559 44.4286 23.5904 44.2773C23.225 44.1259 22.8229 44.0863 22.4349 44.1635C22.0469 44.2406 21.6906 44.4311 21.4109 44.7108C21.1312 44.9905 20.9407 45.3469 20.8635 45.7348C20.7863 46.1228 20.8259 46.5249 20.9773 46.8904C21.1287 47.2558 21.385 47.5682 21.7139 47.788C22.0428 48.0077 22.4295 48.125 22.8251 48.125C23.3553 48.1244 23.8637 47.9135 24.2386 47.5386C24.6136 47.1636 24.8245 46.6553 24.8251 46.125ZM21.8251 46.125C21.8251 45.9272 21.8837 45.7339 21.9936 45.5695C22.1035 45.405 22.2597 45.2768 22.4424 45.2012C22.6251 45.1255 22.8262 45.1056 23.0202 45.1441C23.2142 45.1827 23.3923 45.2781 23.5322 45.4179C23.672 45.5578 23.7673 45.736 23.8059 45.9299C23.8445 46.1239 23.8246 46.325 23.749 46.5077C23.6733 46.6904 23.5451 46.8466 23.3807 46.9565C23.2162 47.0664 23.0229 47.125 22.8251 47.125C22.5599 47.1248 22.3057 47.0193 22.1183 46.8318C21.9308 46.6444 21.8253 46.3902 21.8251 46.125Z" fill="white"/>
<path d="M59.574 15.3708L61.06 13.4158L60.122 12.8838L59.167 15.0738H59.135L58.166 12.8988L57.211 13.4468L58.682 15.3558V15.3868L56.381 15.0898V16.1538L58.697 15.8568V15.8878L57.211 17.7958L58.102 18.3598L59.12 16.1538H59.151L60.09 18.3438L61.076 17.7808L59.574 15.9028V15.8718L61.936 16.1538V15.0898L59.574 15.4028V15.3708Z" fill="#34D399"/>
<path d="M7.967 18.2432L7.111 19.3422L7.624 19.6672L8.21 18.3962H8.228L8.769 19.6582L9.336 19.3332L8.472 18.2522V18.2342L9.832 18.3962V17.7842L8.472 17.9642V17.9462L9.328 16.8202L8.787 16.5132L8.237 17.7742H8.219L7.661 16.5222L7.111 16.8382L7.958 17.9372V17.9552L6.633 17.7842V18.3962L7.967 18.2252V18.2432Z" fill="#34D399"/>
<path d="M146.277 47.646V46.603L143.96 46.91V46.879L145.418 44.961L144.497 44.439L143.561 46.587H143.53L142.579 44.454L141.642 44.992L143.085 46.864V46.895L140.828 46.603V47.646L143.1 47.355V47.386L141.642 49.258L142.517 49.811L143.515 47.646H143.545L144.466 49.795L145.433 49.243L143.96 47.401V47.37L146.277 47.646Z" fill="#34D399"/>
<path d="M162.176 21.9131L163.434 20.2581L162.64 19.8081L161.833 21.6611H161.806L160.985 19.8211L160.177 20.2851L161.422 21.9001V21.9261L159.475 21.6751V22.5751L161.435 22.3241V22.3501L160.177 23.9651L160.931 24.4421L161.793 22.5751H161.819L162.613 24.4281L163.447 23.9521L162.176 22.3631V22.3371L164.175 22.5751V21.6751L162.176 21.9391V21.9131Z" fill="#34D399"/>
<path d="M2 150.208C3.10457 150.208 4 149.313 4 148.208C4 147.103 3.10457 146.208 2 146.208C0.89543 146.208 0 147.103 0 148.208C0 149.313 0.89543 150.208 2 150.208Z" fill="white"/>
<path d="M11 146.208H8C7.46957 146.208 6.96086 146.419 6.58579 146.794C6.21071 147.169 6 147.678 6 148.208C6 148.739 6.21071 149.248 6.58579 149.623C6.96086 149.998 7.46957 150.208 8 150.208H11C11.5304 150.208 12.0391 149.998 12.4142 149.623C12.7893 149.248 13 148.739 13 148.208C13 147.678 12.7893 147.169 12.4142 146.794C12.0391 146.419 11.5304 146.208 11 146.208Z" fill="white"/>
<path d="M160 146.208H157C156.47 146.208 155.961 146.419 155.586 146.794C155.211 147.169 155 147.678 155 148.208C155 148.739 155.211 149.248 155.586 149.623C155.961 149.998 156.47 150.208 157 150.208H160C160.53 150.208 161.039 149.998 161.414 149.623C161.789 149.248 162 148.739 162 148.208C162 147.678 161.789 147.169 161.414 146.794C161.039 146.419 160.53 146.208 160 146.208Z" fill="white"/>
<path d="M166 150.208C167.105 150.208 168 149.313 168 148.208C168 147.103 167.105 146.208 166 146.208C164.895 146.208 164 147.103 164 148.208C164 149.313 164.895 150.208 166 150.208Z" fill="white"/>
<path d="M118.154 154.208H109.846C109.343 154.249 108.874 154.477 108.532 154.848C108.19 155.218 108 155.704 108 156.208C108 156.713 108.19 157.199 108.532 157.569C108.874 157.94 109.343 158.168 109.846 158.208H118.154C118.657 158.168 119.126 157.94 119.468 157.569C119.81 157.199 120 156.713 120 156.208C120 155.704 119.81 155.218 119.468 154.848C119.126 154.477 118.657 154.249 118.154 154.208Z" fill="#34D399"/>
<path d="M58.1539 154.208H49.8461C49.3433 154.249 48.8742 154.477 48.5321 154.848C48.1899 155.218 48 155.704 48 156.208C48 156.713 48.1899 157.199 48.5321 157.569C48.8742 157.94 49.3433 158.168 49.8461 158.208H58.1539C58.6566 158.168 59.1258 157.94 59.4679 157.569C59.81 157.199 60 156.713 60 156.208C60 155.704 59.81 155.218 59.4679 154.848C59.1258 154.477 58.6566 154.249 58.1539 154.208Z" fill="#34D399"/>
<path d="M104 154.208H64C63.4696 154.208 62.9609 154.419 62.5858 154.794C62.2107 155.169 62 155.678 62 156.208C62 156.739 62.2107 157.248 62.5858 157.623C62.9609 157.998 63.4696 158.208 64 158.208H79.94V160.208H72C71.4696 160.208 70.9609 160.419 70.5858 160.794C70.2107 161.169 70 161.678 70 162.208C70 162.739 70.2107 163.248 70.5858 163.623C70.9609 163.998 71.4696 164.208 72 164.208H97C97.5304 164.208 98.0391 163.998 98.4142 163.623C98.7893 163.248 99 162.739 99 162.208C99 161.678 98.7893 161.169 98.4142 160.794C98.0391 160.419 97.5304 160.208 97 160.208H88.06V158.208H104C104.53 158.208 105.039 157.998 105.414 157.623C105.789 157.248 106 156.739 106 156.208C106 155.678 105.789 155.169 105.414 154.794C105.039 154.419 104.53 154.208 104 154.208Z" fill="#34D399"/>
<path d="M150.721 146.208H130.111C132.059 143.971 133.09 141.081 133 138.117C133 137.586 132.789 137.078 132.414 136.702C132.039 136.327 131.53 136.117 131 136.117H109.438C108.914 134.268 108.533 132.382 108.299 130.476C106.437 116.501 108.99 102.509 111.733 90.6662C112.636 86.7744 113.632 82.8113 114.595 78.9786C118.147 64.8483 121.819 50.2372 121.819 35.2441C121.806 31.7782 120.418 28.4592 117.96 26.0154C115.502 23.5715 112.175 22.2025 108.709 22.2085H48.1104C44.6444 22.2025 41.3175 23.5716 38.8597 26.0154C36.4018 28.4592 35.0138 31.7782 35 35.2441V40.2071C35 42.5941 35.9482 44.8833 37.636 46.5711C39.3239 48.2589 41.6131 49.2071 44 49.2071C46.3869 49.2071 48.6761 48.2589 50.364 46.5711C52.0518 44.8833 53 42.5941 53 40.2071V39.7072C53 39.1768 52.7893 38.6681 52.4142 38.293C52.0391 37.9179 51.5304 37.7072 51 37.7072C50.4696 37.7072 49.9609 37.9179 49.5858 38.293C49.2107 38.6681 49 39.1768 49 39.7072V40.2072C49 41.5332 48.4732 42.805 47.5355 43.7427C46.5978 44.6804 45.3261 45.2072 44 45.2072C42.6739 45.2072 41.4021 44.6804 40.4645 43.7427C39.5268 42.805 39 41.5332 39 40.2072V35.2442C39.0197 32.841 39.9881 30.5429 41.6944 28.8505C43.4007 27.1581 45.7066 26.2085 48.1099 26.2085C50.5131 26.2085 52.819 27.1581 54.5253 28.8505C56.2316 30.5429 57.2001 32.841 57.2197 35.2442C57.2197 49.7421 53.6084 64.1092 50.1162 78.0036C49.1484 81.8539 48.1475 85.8355 47.2373 89.7639C44.4121 101.958 41.7871 116.394 43.7344 131.004C44.2891 135.17 45.3574 140.502 48.7139 144.781C49.117 145.287 49.5555 145.764 50.0261 146.208H17.2787C16.9942 146.171 16.705 146.195 16.4305 146.279C16.1559 146.362 15.9024 146.503 15.6867 146.693C15.4711 146.882 15.2983 147.115 15.18 147.376C15.0616 147.638 15.0004 147.922 15.0004 148.208C15.0004 148.495 15.0616 148.779 15.18 149.04C15.2983 149.302 15.4711 149.535 15.6867 149.724C15.9024 149.914 16.1559 150.055 16.4305 150.138C16.705 150.222 16.9942 150.246 17.2787 150.208H150.721C151.006 150.246 151.295 150.222 151.57 150.138C151.844 150.055 152.098 149.914 152.313 149.724C152.529 149.535 152.702 149.302 152.82 149.04C152.938 148.779 153 148.495 153 148.208C153 147.922 152.938 147.638 152.82 147.376C152.702 147.115 152.529 146.882 152.313 146.693C152.098 146.503 151.844 146.362 151.57 146.279C151.295 146.195 151.006 146.171 150.721 146.208ZM107.972 140.116L107.979 140.117L107.99 140.116H128.818C127.765 145.544 122.387 146.18 119.935 146.18L69.5166 146.19C71.0089 144.48 71.9632 142.367 72.2597 140.116H107.972ZM47.6992 130.476C45.8369 116.501 48.3906 102.509 51.1338 90.6662C52.0361 86.7744 53.0322 82.8114 53.9951 78.9787C57.5469 64.8484 61.2197 50.2372 61.2197 35.2442C61.2181 31.8672 59.8968 28.6246 57.5378 26.2082H108.709C111.115 26.2011 113.425 27.1484 115.133 28.8424C116.84 30.5364 117.807 32.8386 117.819 35.2441C117.819 49.742 114.208 64.1091 110.716 78.0036C109.748 81.8538 108.747 85.8355 107.837 89.7639C105.012 101.958 102.387 116.394 104.334 131.003C104.552 132.725 104.87 134.432 105.287 136.117H70.4004C69.87 136.117 69.3613 136.327 68.9862 136.702C68.6112 137.077 68.4004 137.586 68.4004 138.117C68.4903 139.77 68.0322 141.408 67.0969 142.774C66.1617 144.141 64.8016 145.161 63.2275 145.676C61.2146 146.326 59.0526 146.352 57.0245 145.752C54.9964 145.152 53.1968 143.953 51.8613 142.313C49.1016 138.794 48.1875 134.138 47.6992 130.476Z" fill="white"/>
</g>
</svg>
