<svg width="169" height="169" viewBox="0 0 169 169" fill="none" xmlns="http://www.w3.org/2000/svg">
<g clip-path="url(#clip0_1495_12026)">
<path d="M92.6667 10.4194C93.26 10.4194 93.84 10.2435 94.3334 9.91384C94.8267 9.5842 95.2112 9.11566 95.4383 8.56748C95.6654 8.01931 95.7248 7.41611 95.609 6.83416C95.4933 6.25222 95.2075 5.71767 94.788 5.29811C94.3684 4.87856 93.8339 4.59283 93.2519 4.47708C92.67 4.36132 92.0668 4.42073 91.5186 4.6478C90.9704 4.87486 90.5019 5.25938 90.1723 5.75272C89.8426 6.24607 89.6667 6.82609 89.6667 7.41943C89.6676 8.2148 89.9839 8.97734 90.5464 9.53975C91.1088 10.1022 91.8713 10.4185 92.6667 10.4194ZM92.6667 5.91943C92.9633 5.91943 93.2533 6.00741 93.5 6.17223C93.7467 6.33705 93.939 6.57132 94.0525 6.84541C94.166 7.1195 94.1957 7.4211 94.1378 7.71207C94.08 8.00304 93.9371 8.27032 93.7273 8.48009C93.5176 8.68987 93.2503 8.83273 92.9593 8.89061C92.6683 8.94849 92.3667 8.91879 92.0926 8.80525C91.8186 8.69172 91.5843 8.49946 91.4195 8.25279C91.2546 8.00612 91.1667 7.71611 91.1667 7.41943C91.1671 7.02173 91.3252 6.64043 91.6064 6.35921C91.8877 6.07799 92.269 5.91983 92.6667 5.91943Z" fill="#0F1454"/>
<path d="M37.1584 5.41943C36.7628 5.41943 36.3762 5.53673 36.0473 5.75649C35.7184 5.97626 35.462 6.28861 35.3107 6.65407C35.1593 7.01952 35.1197 7.42165 35.1968 7.80961C35.274 8.19758 35.4645 8.55394 35.7442 8.83365C36.0239 9.11335 36.3803 9.30383 36.7682 9.381C37.1562 9.45817 37.5583 9.41857 37.9238 9.26719C38.2892 9.11582 38.6016 8.85947 38.8214 8.53057C39.0411 8.20168 39.1584 7.815 39.1584 7.41943C39.1578 6.88919 38.9469 6.38083 38.572 6.00589C38.197 5.63095 37.6887 5.42004 37.1584 5.41943ZM37.1584 8.41943C36.9606 8.41943 36.7673 8.36078 36.6028 8.2509C36.4384 8.14102 36.3102 7.98484 36.2345 7.80212C36.1588 7.61939 36.139 7.41832 36.1776 7.22434C36.2162 7.03036 36.3115 6.85218 36.4513 6.71233C36.5912 6.57247 36.7693 6.47723 36.9633 6.43865C37.1573 6.40006 37.3584 6.41987 37.5411 6.49555C37.7238 6.57124 37.88 6.69941 37.9899 6.86386C38.0998 7.02831 38.1584 7.22165 38.1584 7.41943C38.1581 7.68457 38.0527 7.93877 37.8652 8.12625C37.6777 8.31373 37.4235 8.41917 37.1584 8.41943Z" fill="#0F1454"/>
<path d="M143.053 6.08594C142.657 6.08594 142.27 6.20324 141.941 6.423C141.612 6.64276 141.356 6.95512 141.205 7.32057C141.053 7.68602 141.014 8.08816 141.091 8.47612C141.168 8.86408 141.359 9.22045 141.638 9.50015C141.918 9.77986 142.274 9.97034 142.662 10.0475C143.05 10.1247 143.452 10.0851 143.818 9.9337C144.183 9.78232 144.496 9.52598 144.715 9.19708C144.935 8.86818 145.053 8.4815 145.053 8.08594C145.052 7.55569 144.841 7.04733 144.466 6.67239C144.091 6.29745 143.583 6.08654 143.053 6.08594ZM143.053 9.08594C142.855 9.08594 142.661 9.02729 142.497 8.91741C142.333 8.80753 142.204 8.65135 142.129 8.46862C142.053 8.28589 142.033 8.08483 142.072 7.89085C142.11 7.69687 142.206 7.51868 142.345 7.37883C142.485 7.23898 142.663 7.14374 142.857 7.10515C143.051 7.06657 143.252 7.08637 143.435 7.16206C143.618 7.23775 143.774 7.36592 143.884 7.53037C143.994 7.69482 144.053 7.88816 144.053 8.08594C144.052 8.35107 143.947 8.60527 143.759 8.79275C143.572 8.98023 143.318 9.08567 143.053 9.08594Z" fill="#0F1454"/>
<path d="M127.318 20.8359C126.923 20.8359 126.536 20.9532 126.207 21.173C125.878 21.3928 125.622 21.7051 125.471 22.0706C125.319 22.436 125.28 22.8382 125.357 23.2261C125.434 23.6141 125.624 23.9704 125.904 24.2502C126.184 24.5299 126.54 24.7203 126.928 24.7975C127.316 24.8747 127.718 24.8351 128.084 24.6837C128.449 24.5323 128.762 24.276 128.981 23.9471C129.201 23.6182 129.318 23.2315 129.318 22.8359C129.318 22.3057 129.107 21.7973 128.732 21.4224C128.357 21.0475 127.849 20.8365 127.318 20.8359ZM127.318 23.8359C127.121 23.8359 126.927 23.7773 126.763 23.6674C126.598 23.5575 126.47 23.4013 126.394 23.2186C126.319 23.0359 126.299 22.8348 126.338 22.6408C126.376 22.4469 126.471 22.2687 126.611 22.1288C126.751 21.989 126.929 21.8937 127.123 21.8552C127.317 21.8166 127.518 21.8364 127.701 21.9121C127.884 21.9877 128.04 22.1159 128.15 22.2804C128.26 22.4448 128.318 22.6382 128.318 22.8359C128.318 23.1011 128.213 23.3553 128.025 23.5428C127.838 23.7302 127.583 23.8357 127.318 23.8359Z" fill="#0F1454"/>
<path d="M25.3251 46.7529C25.3251 46.3574 25.2078 45.9707 24.988 45.6418C24.7683 45.3129 24.4559 45.0565 24.0904 44.9052C23.725 44.7538 23.3229 44.7142 22.9349 44.7914C22.5469 44.8685 22.1906 45.059 21.9109 45.3387C21.6312 45.6184 21.4407 45.9748 21.3635 46.3627C21.2863 46.7507 21.3259 47.1528 21.4773 47.5183C21.6287 47.8837 21.885 48.1961 22.2139 48.4159C22.5428 48.6356 22.9295 48.7529 23.3251 48.7529C23.8553 48.7523 24.3637 48.5414 24.7386 48.1665C25.1136 47.7915 25.3245 47.2832 25.3251 46.7529ZM22.3251 46.7529C22.3251 46.5551 22.3837 46.3618 22.4936 46.1974C22.6035 46.0329 22.7597 45.9047 22.9424 45.8291C23.1251 45.7534 23.3262 45.7336 23.5202 45.7721C23.7142 45.8107 23.8923 45.906 24.0322 46.0458C24.172 46.1857 24.2673 46.3639 24.3059 46.5578C24.3445 46.7518 24.3246 46.9529 24.249 47.1356C24.1733 47.3183 24.0451 47.4745 23.8807 47.5844C23.7162 47.6943 23.5229 47.7529 23.3251 47.7529C23.0599 47.7527 22.8057 47.6472 22.6183 47.4597C22.4308 47.2723 22.3253 47.0181 22.3251 46.7529Z" fill="#0F1454"/>
<path d="M60.074 15.9987L61.56 14.0437L60.622 13.5117L59.667 15.7017H59.635L58.666 13.5267L57.711 14.0747L59.182 15.9837V16.0147L56.881 15.7177V16.7817L59.197 16.4847V16.5157L57.711 18.4237L58.602 18.9877L59.62 16.7817H59.651L60.59 18.9717L61.576 18.4087L60.074 16.5307V16.4997L62.436 16.7817V15.7177L60.074 16.0307V15.9987Z" fill="#34D399"/>
<path d="M8.467 18.8711L7.611 19.9701L8.124 20.2951L8.71 19.0241H8.728L9.269 20.2861L9.836 19.9611L8.972 18.8801V18.8621L10.332 19.0241V18.4121L8.972 18.5921V18.5741L9.828 17.4481L9.287 17.1411L8.737 18.4021H8.719L8.161 17.1501L7.611 17.4661L8.458 18.5651V18.5831L7.133 18.4121V19.0241L8.467 18.8531V18.8711Z" fill="#34D399"/>
<path d="M146.777 48.2739V47.2309L144.46 47.5379V47.5069L145.918 45.5889L144.997 45.0669L144.061 47.2149H144.03L143.079 45.0819L142.142 45.6199L143.585 47.4919V47.5229L141.328 47.2309V48.2739L143.6 47.9829V48.0139L142.142 49.8859L143.017 50.4389L144.015 48.2739H144.045L144.966 50.4229L145.933 49.8709L144.46 48.0289V47.9979L146.777 48.2739Z" fill="#34D399"/>
<path d="M162.676 22.541L163.934 20.886L163.14 20.436L162.333 22.289H162.306L161.485 20.449L160.677 20.913L161.922 22.528V22.554L159.975 22.303V23.203L161.935 22.952V22.978L160.677 24.593L161.431 25.07L162.293 23.203H162.319L163.113 25.056L163.947 24.58L162.676 22.991V22.965L164.675 23.203V22.303L162.676 22.567V22.541Z" fill="#34D399"/>
<path d="M2.5 150.836C3.60457 150.836 4.5 149.941 4.5 148.836C4.5 147.731 3.60457 146.836 2.5 146.836C1.39543 146.836 0.5 147.731 0.5 148.836C0.5 149.941 1.39543 150.836 2.5 150.836Z" fill="#0F1454"/>
<path d="M11.5 146.836H8.5C7.96957 146.836 7.46086 147.047 7.08579 147.422C6.71071 147.797 6.5 148.306 6.5 148.836C6.5 149.367 6.71071 149.876 7.08579 150.251C7.46086 150.626 7.96957 150.836 8.5 150.836H11.5C12.0304 150.836 12.5391 150.626 12.9142 150.251C13.2893 149.876 13.5 149.367 13.5 148.836C13.5 148.306 13.2893 147.797 12.9142 147.422C12.5391 147.047 12.0304 146.836 11.5 146.836Z" fill="#0F1454"/>
<path d="M160.5 146.836H157.5C156.97 146.836 156.461 147.047 156.086 147.422C155.711 147.797 155.5 148.306 155.5 148.836C155.5 149.367 155.711 149.876 156.086 150.251C156.461 150.626 156.97 150.836 157.5 150.836H160.5C161.03 150.836 161.539 150.626 161.914 150.251C162.289 149.876 162.5 149.367 162.5 148.836C162.5 148.306 162.289 147.797 161.914 147.422C161.539 147.047 161.03 146.836 160.5 146.836Z" fill="#0F1454"/>
<path d="M166.5 150.836C167.605 150.836 168.5 149.941 168.5 148.836C168.5 147.731 167.605 146.836 166.5 146.836C165.395 146.836 164.5 147.731 164.5 148.836C164.5 149.941 165.395 150.836 166.5 150.836Z" fill="#0F1454"/>
<path d="M118.654 154.836H110.346C109.843 154.877 109.374 155.105 109.032 155.476C108.69 155.846 108.5 156.332 108.5 156.836C108.5 157.341 108.69 157.827 109.032 158.197C109.374 158.568 109.843 158.796 110.346 158.836H118.654C119.157 158.796 119.626 158.568 119.968 158.197C120.31 157.827 120.5 157.341 120.5 156.836C120.5 156.332 120.31 155.846 119.968 155.476C119.626 155.105 119.157 154.877 118.654 154.836Z" fill="#34D399"/>
<path d="M58.6539 154.836H50.3461C49.8433 154.877 49.3742 155.105 49.0321 155.476C48.6899 155.846 48.5 156.332 48.5 156.836C48.5 157.341 48.6899 157.827 49.0321 158.197C49.3742 158.568 49.8433 158.796 50.3461 158.836H58.6539C59.1566 158.796 59.6258 158.568 59.9679 158.197C60.31 157.827 60.5 157.341 60.5 156.836C60.5 156.332 60.31 155.846 59.9679 155.476C59.6258 155.105 59.1566 154.877 58.6539 154.836Z" fill="#34D399"/>
<path d="M104.5 154.836H64.5C63.9696 154.836 63.4609 155.047 63.0858 155.422C62.7107 155.797 62.5 156.306 62.5 156.836C62.5 157.367 62.7107 157.876 63.0858 158.251C63.4609 158.626 63.9696 158.836 64.5 158.836H80.44V160.836H72.5C71.9696 160.836 71.4609 161.047 71.0858 161.422C70.7107 161.797 70.5 162.306 70.5 162.836C70.5 163.367 70.7107 163.876 71.0858 164.251C71.4609 164.626 71.9696 164.836 72.5 164.836H97.5C98.0304 164.836 98.5391 164.626 98.9142 164.251C99.2893 163.876 99.5 163.367 99.5 162.836C99.5 162.306 99.2893 161.797 98.9142 161.422C98.5391 161.047 98.0304 160.836 97.5 160.836H88.56V158.836H104.5C105.03 158.836 105.539 158.626 105.914 158.251C106.289 157.876 106.5 157.367 106.5 156.836C106.5 156.306 106.289 155.797 105.914 155.422C105.539 155.047 105.03 154.836 104.5 154.836Z" fill="#34D399"/>
<path d="M151.221 146.836H130.611C132.559 144.599 133.59 141.709 133.5 138.745C133.5 138.214 133.289 137.706 132.914 137.33C132.539 136.955 132.03 136.745 131.5 136.745H109.938C109.414 134.896 109.033 133.01 108.799 131.104C106.937 117.129 109.49 103.137 112.233 91.2941C113.136 87.4023 114.132 83.4392 115.095 79.6065C118.647 65.4762 122.319 50.8651 122.319 35.872C122.306 32.4061 120.918 29.0871 118.46 26.6433C116.002 24.1994 112.675 22.8304 109.209 22.8364H48.6104C45.1444 22.8304 41.8175 24.1995 39.3597 26.6433C36.9018 29.0871 35.5138 32.4061 35.5 35.872V40.835C35.5 43.222 36.4482 45.5112 38.136 47.199C39.8239 48.8868 42.1131 49.835 44.5 49.835C46.8869 49.835 49.1761 48.8868 50.864 47.199C52.5518 45.5112 53.5 43.222 53.5 40.835V40.3351C53.5 39.8047 53.2893 39.296 52.9142 38.9209C52.5391 38.5458 52.0304 38.3351 51.5 38.3351C50.9696 38.3351 50.4609 38.5458 50.0858 38.9209C49.7107 39.296 49.5 39.8047 49.5 40.3351V40.8351C49.5 42.1611 48.9732 43.4329 48.0355 44.3706C47.0978 45.3083 45.8261 45.8351 44.5 45.8351C43.1739 45.8351 41.9021 45.3083 40.9645 44.3706C40.0268 43.4329 39.5 42.1611 39.5 40.8351V35.8721C39.5197 33.4689 40.4881 31.1708 42.1944 29.4784C43.9007 27.786 46.2066 26.8364 48.6099 26.8364C51.0131 26.8364 53.319 27.786 55.0253 29.4784C56.7316 31.1708 57.7001 33.4689 57.7197 35.8721C57.7197 50.37 54.1084 64.7371 50.6162 78.6315C49.6484 82.4818 48.6475 86.4634 47.7373 90.3918C44.9121 102.586 42.2871 117.022 44.2344 131.632C44.7891 135.798 45.8574 141.13 49.2139 145.409C49.617 145.915 50.0555 146.392 50.5261 146.836H17.7787C17.4942 146.799 17.205 146.823 16.9305 146.907C16.6559 146.99 16.4024 147.131 16.1867 147.321C15.9711 147.51 15.7983 147.743 15.68 148.004C15.5616 148.266 15.5004 148.55 15.5004 148.836C15.5004 149.123 15.5616 149.407 15.68 149.668C15.7983 149.93 15.9711 150.163 16.1867 150.352C16.4024 150.542 16.6559 150.683 16.9305 150.766C17.205 150.85 17.4942 150.874 17.7787 150.836H151.221C151.506 150.874 151.795 150.85 152.07 150.766C152.344 150.683 152.598 150.542 152.813 150.352C153.029 150.163 153.202 149.93 153.32 149.668C153.438 149.407 153.5 149.123 153.5 148.836C153.5 148.55 153.438 148.266 153.32 148.004C153.202 147.743 153.029 147.51 152.813 147.321C152.598 147.131 152.344 146.99 152.07 146.907C151.795 146.823 151.506 146.799 151.221 146.836ZM108.472 140.744L108.479 140.745L108.49 140.744H129.318C128.265 146.172 122.887 146.808 120.435 146.808L70.0166 146.818C71.5089 145.108 72.4632 142.995 72.7597 140.744H108.472ZM48.1992 131.104C46.3369 117.129 48.8906 103.137 51.6338 91.2941C52.5361 87.4023 53.5322 83.4393 54.4951 79.6066C58.0469 65.4763 61.7197 50.8651 61.7197 35.8721C61.7181 32.4951 60.3968 29.2525 58.0378 26.8361H109.209C111.615 26.829 113.925 27.7763 115.633 29.4703C117.34 31.1643 118.307 33.4665 118.319 35.872C118.319 50.3699 114.708 64.737 111.216 78.6315C110.248 82.4817 109.247 86.4634 108.337 90.3918C105.512 102.586 102.887 117.022 104.834 131.631C105.052 133.353 105.37 135.06 105.787 136.745H70.9004C70.37 136.745 69.8613 136.955 69.4862 137.33C69.1112 137.705 68.9004 138.214 68.9004 138.745C68.9903 140.398 68.5322 142.036 67.5969 143.402C66.6617 144.769 65.3016 145.789 63.7275 146.304C61.7146 146.954 59.5526 146.98 57.5245 146.38C55.4964 145.78 53.6968 144.581 52.3613 142.941C49.6016 139.422 48.6875 134.766 48.1992 131.104Z" fill="#0F1454"/>
</g>
<defs>
<clipPath id="clip0_1495_12026">
<rect width="168" height="168" fill="white" transform="translate(0.5 0.62793)"/>
</clipPath>
</defs>
</svg>
