<svg width="375" height="375" viewBox="0 0 375 375" fill="none" xmlns="http://www.w3.org/2000/svg">
<g clip-path="url(#clip0_1736_18558)">
<path d="M242.889 220.36C249.332 218.611 255.113 214.997 259.506 209.971C263.9 204.945 266.709 198.733 267.582 192.115C268.454 185.497 267.35 178.768 264.408 172.776C261.467 166.784 256.82 161.795 251.051 158.436C250.152 152.919 247.328 147.898 243.08 144.264C238.832 140.63 233.434 138.618 227.844 138.585C226.84 138.585 225.837 138.65 224.841 138.779C224.733 138.793 221.864 134.498 221.472 134.072C220.028 132.504 218.377 131.138 216.565 130.013C212.853 127.709 208.572 126.488 204.203 126.486C199.835 126.485 195.553 127.705 191.84 130.007C187.047 126.226 180.961 124.477 174.892 125.137C168.823 125.796 163.255 128.812 159.387 133.535C157.578 133.092 155.723 132.869 153.861 132.87C148.832 132.882 143.939 134.505 139.899 137.5C135.86 140.495 132.885 144.706 131.413 149.514C128.318 150.377 125.429 151.855 122.917 153.859C120.406 155.863 118.324 158.353 116.795 161.179C115.267 164.005 114.324 167.111 114.022 170.309C113.719 173.508 114.065 176.735 115.037 179.798C112.649 181.961 110.721 184.582 109.367 187.506C108.013 190.43 107.261 193.597 107.156 196.817C107.051 200.038 107.595 203.246 108.755 206.252C109.916 209.258 111.669 212 113.911 214.314C113.944 214.586 113.995 214.856 114.065 215.121C120.043 237.608 137.399 240.471 138.135 240.581C139.298 240.749 140.48 240.451 141.426 239.752C142.371 239.054 143.002 238.011 143.183 236.849C143.364 235.688 143.079 234.502 142.391 233.549C141.703 232.596 140.667 231.953 139.508 231.759C136.528 230.979 133.753 229.565 131.371 227.613C128.989 225.661 127.056 223.218 125.706 220.45C129.316 221.193 133.057 220.97 136.553 219.805C137.111 219.623 137.628 219.333 138.074 218.951C138.519 218.569 138.885 218.102 139.151 217.579C139.416 217.055 139.575 216.484 139.62 215.899C139.664 215.313 139.593 214.725 139.409 214.167C139.226 213.609 138.935 213.093 138.551 212.648C138.168 212.204 137.701 211.839 137.177 211.574C136.653 211.31 136.082 211.152 135.496 211.109C134.911 211.066 134.322 211.139 133.765 211.323C131.406 212.096 128.87 212.147 126.482 211.468C124.094 210.79 121.963 209.413 120.362 207.515C119.963 207.046 119.469 206.666 118.914 206.398C117.065 203.835 116.071 200.754 116.072 197.593C116.071 188.664 125.063 180.324 134.052 183.437C134.606 183.63 135.193 183.713 135.778 183.679C136.364 183.646 136.938 183.497 137.466 183.242C137.995 182.986 138.467 182.629 138.858 182.191C139.248 181.752 139.548 181.242 139.74 180.687C139.933 180.133 140.014 179.546 139.98 178.96C139.945 178.374 139.796 177.801 139.539 177.273C139.283 176.745 138.925 176.273 138.487 175.883C138.048 175.494 137.536 175.195 136.982 175.003C132.475 173.443 127.577 173.436 123.066 174.984C122.926 174.178 122.852 173.363 122.844 172.545C122.82 168.948 124.105 165.465 126.46 162.744C128.814 160.024 132.077 158.253 135.641 157.761C136.588 157.64 137.471 157.219 138.16 156.559C138.85 155.9 139.311 155.037 139.474 154.096C140.012 150.876 141.609 147.928 144.012 145.718C146.416 143.509 149.488 142.165 152.742 141.9C152.855 141.909 152.963 141.934 153.078 141.934L153.281 141.933C155.89 141.949 158.43 142.772 160.553 144.287C162.677 145.803 164.28 147.937 165.144 150.399C165.558 151.502 166.385 152.401 167.45 152.905C168.515 153.409 169.734 153.48 170.85 153.101C171.964 152.703 172.875 151.878 173.382 150.808C173.889 149.738 173.95 148.511 173.551 147.396C172.279 143.829 170.093 140.658 167.212 138.2C169.672 135.703 172.962 134.195 176.459 133.961C179.956 133.726 183.417 134.782 186.188 136.929C184.127 140.337 183.037 144.243 183.036 148.226C183.036 149.41 183.506 150.546 184.343 151.383C185.18 152.22 186.316 152.69 187.5 152.691C188.684 152.691 189.819 152.22 190.657 151.383C191.494 150.546 191.964 149.41 191.964 148.226C192.004 145.169 193.122 142.223 195.121 139.909C197.12 137.595 199.871 136.061 202.891 135.578C209.47 134.413 215.928 139.29 218.011 145.353C219.585 149.933 224.48 147.513 227.844 147.513C231.176 147.543 234.399 148.704 236.983 150.807C239.568 152.91 241.36 155.828 242.067 159.084C242.01 159.235 241.962 159.39 241.922 159.546C241.401 162.137 240.087 164.501 238.162 166.312C236.237 168.123 233.797 169.291 231.18 169.654C230.006 169.808 228.941 170.422 228.219 171.36C227.498 172.299 227.179 173.486 227.332 174.66C227.506 175.824 228.126 176.876 229.06 177.593C229.993 178.311 231.169 178.638 232.339 178.506C235.713 178.053 238.932 176.808 241.733 174.872C244.533 172.937 246.836 170.365 248.452 167.369C252.151 170.011 255.061 173.611 256.869 177.782C258.677 181.953 259.315 186.537 258.715 191.043C258.084 195.891 256.029 200.443 252.811 204.123C249.593 207.804 245.356 210.447 240.636 211.719C236.057 212.938 231.217 212.75 226.746 211.181C225.976 210.915 225.149 210.865 224.353 211.036C223.558 211.206 222.824 211.592 222.231 212.15C219.558 214.688 216.014 216.106 212.328 216.114C211.156 216.114 210.109 216.09 209.144 216.038C212.032 213.345 214.142 209.924 215.252 206.134C216.362 202.344 216.431 198.325 215.452 194.5C215.306 193.932 215.05 193.398 214.698 192.929C214.347 192.46 213.906 192.065 213.401 191.766C212.897 191.467 212.338 191.271 211.758 191.188C211.178 191.105 210.587 191.138 210.019 191.283C209.451 191.429 208.917 191.685 208.448 192.037C207.979 192.388 207.584 192.829 207.285 193.334C206.987 193.838 206.79 194.397 206.707 194.977C206.624 195.557 206.657 196.148 206.802 196.716C207.665 200.002 207.199 203.494 205.504 206.438C203.81 209.382 201.024 211.539 197.75 212.443C197.688 212.459 197.635 212.49 197.574 212.508L193.213 213.277C186.526 213.87 180.26 216.796 175.513 221.544C171.651 225.627 171.652 230.505 171.652 234.822V263.393C171.652 264.577 172.122 265.713 172.959 266.55C173.796 267.387 174.932 267.857 176.116 267.857C177.3 267.857 178.435 267.387 179.273 266.55C180.11 265.713 180.58 264.577 180.58 263.393V234.808C180.58 231.214 180.647 229.111 181.999 227.68C185.337 224.416 189.729 222.448 194.386 222.129C194.471 222.119 194.556 222.106 194.639 222.092L197.523 221.584C201.822 224.748 206.981 225.042 212.328 225.042C217.37 225.042 222.275 223.403 226.303 220.372C231.739 221.81 237.456 221.806 242.889 220.36Z" fill="#2D4356"/>
<path d="M92.6187 181.167C93.1927 181.288 93.7848 181.293 94.3611 181.184C94.9374 181.075 95.4865 180.854 95.9769 180.532C96.4673 180.21 96.8894 179.795 97.2189 179.31C97.5484 178.825 97.7789 178.279 97.8971 177.705C98.0421 177.009 98.1947 176.316 98.3549 175.625C98.6209 174.472 98.4184 173.261 97.7918 172.257C97.1653 171.254 96.1659 170.54 95.0133 170.273C93.8607 170.005 92.6492 170.207 91.6449 170.832C90.6406 171.458 89.9258 172.456 89.6574 173.609C89.4819 174.365 89.3148 175.125 89.156 175.889C89.0366 176.463 89.0315 177.055 89.1409 177.631C89.2503 178.207 89.4722 178.755 89.7937 179.245C90.1153 179.736 90.5303 180.158 91.015 180.487C91.4997 180.817 92.0446 181.048 92.6187 181.167Z" fill="#0BCEB2"/>
<path d="M135.295 115.744C135.9 116.757 136.879 117.493 138.02 117.793C139.162 118.094 140.375 117.935 141.401 117.351C142.012 116.993 142.629 116.642 143.249 116.299C143.764 116.016 144.219 115.634 144.586 115.176C144.953 114.717 145.226 114.19 145.389 113.626C145.553 113.061 145.603 112.47 145.537 111.886C145.471 111.303 145.291 110.737 145.006 110.223C144.722 109.709 144.338 109.257 143.878 108.891C143.418 108.525 142.891 108.254 142.326 108.093C141.761 107.932 141.169 107.884 140.586 107.952C140.002 108.02 139.438 108.202 138.925 108.489C138.246 108.864 137.571 109.247 136.902 109.638C135.879 110.235 135.135 111.213 134.834 112.358C134.533 113.503 134.699 114.721 135.295 115.744Z" fill="#0BCEB2"/>
<path d="M177.004 105.477C177.868 105.477 178.748 105.318 179.609 105.245C180.787 105.142 181.876 104.577 182.637 103.672C183.398 102.767 183.77 101.598 183.669 100.42C183.569 99.2418 183.006 98.1516 182.103 97.3884C181.2 96.6253 180.031 96.2516 178.853 96.3493C178.073 96.4157 177.297 96.4909 176.525 96.5748C175.39 96.6989 174.346 97.2529 173.607 98.1229C172.868 98.993 172.49 100.113 172.552 101.253C172.613 102.393 173.109 103.466 173.937 104.252C174.765 105.037 175.863 105.476 177.004 105.477Z" fill="#0BCEB2"/>
<path d="M121.736 120.501C121.146 121.011 120.563 121.528 119.987 122.053C119.554 122.447 119.202 122.923 118.952 123.453C118.702 123.984 118.559 124.558 118.531 125.144C118.503 125.729 118.59 126.315 118.789 126.866C118.987 127.418 119.292 127.925 119.687 128.359C120.49 129.223 121.6 129.738 122.778 129.794C123.957 129.85 125.111 129.443 125.993 128.66C126.517 128.184 127.047 127.713 127.582 127.249C128.026 126.866 128.39 126.399 128.654 125.874C128.917 125.35 129.074 124.778 129.117 124.193C129.159 123.608 129.086 123.02 128.901 122.463C128.715 121.906 128.422 121.391 128.038 120.948C127.654 120.504 127.186 120.141 126.661 119.878C126.136 119.615 125.565 119.459 124.98 119.417C124.394 119.376 123.806 119.45 123.25 119.636C122.693 119.822 122.179 120.116 121.736 120.501Z" fill="#2D4356"/>
<path d="M157.418 109.707C157.892 109.715 158.364 109.643 158.815 109.495C159.488 109.273 160.165 109.059 160.845 108.852C161.406 108.682 161.928 108.402 162.381 108.03C162.834 107.658 163.209 107.2 163.485 106.682C163.761 106.165 163.932 105.599 163.989 105.015C164.046 104.432 163.988 103.843 163.817 103.282C163.647 102.721 163.367 102.199 162.995 101.746C162.623 101.293 162.165 100.918 161.648 100.642C161.13 100.366 160.564 100.194 159.98 100.137C159.397 100.08 158.808 100.139 158.247 100.309C157.501 100.536 156.76 100.771 156.022 101.013C154.898 101.384 153.966 102.186 153.433 103.243C152.899 104.3 152.807 105.526 153.178 106.65C153.487 107.532 154.059 108.298 154.817 108.845C155.576 109.391 156.483 109.692 157.418 109.707Z" fill="#2D4356"/>
<path d="M97.846 161.787C98.3823 162.025 98.96 162.154 99.5463 162.168C100.132 162.181 100.716 162.08 101.263 161.868C101.809 161.656 102.309 161.339 102.733 160.934C103.157 160.528 103.497 160.044 103.734 159.507C104.021 158.854 104.317 158.206 104.62 157.561C105.122 156.489 105.178 155.261 104.775 154.147C104.372 153.034 103.544 152.126 102.472 151.624C101.4 151.122 100.172 151.066 99.0584 151.469C97.945 151.871 97.0373 152.7 96.5349 153.772C96.2047 154.477 95.8817 155.187 95.566 155.9C95.0877 156.983 95.0593 158.212 95.4869 159.316C95.9144 160.42 96.763 161.309 97.846 161.787Z" fill="#2D4356"/>
<path d="M107.014 143.925C107.974 144.618 109.17 144.901 110.339 144.712C111.508 144.524 112.554 143.879 113.248 142.919C113.663 142.343 114.084 141.774 114.512 141.21C115.228 140.267 115.54 139.078 115.38 137.905C115.219 136.732 114.599 135.671 113.656 134.955C112.713 134.239 111.525 133.927 110.352 134.087C109.179 134.248 108.117 134.867 107.401 135.81C106.929 136.432 106.465 137.059 106.008 137.692C105.315 138.652 105.032 139.848 105.221 141.016C105.409 142.185 106.054 143.231 107.014 143.925Z" fill="#0BCEB2"/>
<path d="M87.0731 194.426C87.06 195.092 87.0535 195.76 87.0535 196.429V196.743C87.0535 197.927 87.5238 199.062 88.361 199.899C89.1982 200.737 90.3338 201.207 91.5178 201.207C92.7018 201.207 93.8373 200.737 94.6745 199.899C95.5117 199.062 95.982 197.927 95.982 196.743V196.429C95.982 195.816 95.9886 195.204 95.9995 194.594C96.0129 194.007 95.9102 193.422 95.6972 192.875C95.4842 192.327 95.1651 191.826 94.7582 191.402C94.3514 190.978 93.8648 190.638 93.3263 190.403C92.7879 190.167 92.2082 190.04 91.6206 190.029C91.0329 190.018 90.4489 190.123 89.902 190.338C89.355 190.554 88.856 190.875 88.4335 191.283C88.011 191.692 87.6733 192.18 87.4399 192.719C87.2064 193.259 87.0817 193.839 87.0731 194.426Z" fill="#2D4356"/>
<path d="M279.018 195.85C279.018 196.752 279.015 197.654 278.994 198.556C278.98 199.142 279.082 199.726 279.293 200.272C279.505 200.819 279.822 201.319 280.226 201.743C280.631 202.167 281.115 202.508 281.651 202.745C282.188 202.982 282.765 203.111 283.351 203.124L283.458 203.125C284.624 203.125 285.743 202.669 286.576 201.854C287.409 201.039 287.891 199.931 287.918 198.766C287.943 197.763 287.946 196.76 287.946 195.757C287.934 194.573 287.452 193.442 286.606 192.614C285.76 191.785 284.619 191.327 283.435 191.339C282.251 191.352 281.121 191.834 280.292 192.68C279.464 193.526 279.005 194.666 279.018 195.85Z" fill="#0BCEB2"/>
<path d="M276.914 176.835C277.067 177.526 277.21 178.219 277.344 178.915C277.571 180.075 278.25 181.098 279.231 181.758C280.212 182.419 281.415 182.664 282.576 182.438C283.737 182.213 284.761 181.537 285.423 180.558C286.086 179.578 286.334 178.376 286.111 177.215C285.961 176.448 285.803 175.685 285.638 174.924C285.384 173.767 284.682 172.758 283.685 172.119C282.687 171.481 281.477 171.264 280.32 171.518C279.163 171.771 278.155 172.474 277.516 173.471C276.877 174.468 276.661 175.678 276.914 176.835Z" fill="#2D4356"/>
<path d="M270.902 158.698C271.195 159.345 271.481 159.996 271.761 160.651C271.992 161.19 272.327 161.678 272.746 162.088C273.166 162.497 273.662 162.82 274.206 163.038C274.75 163.256 275.332 163.365 275.918 163.358C276.505 163.351 277.084 163.229 277.623 162.998C278.162 162.768 278.65 162.433 279.06 162.014C279.47 161.594 279.793 161.098 280.011 160.554C280.229 160.009 280.337 159.428 280.33 158.841C280.324 158.255 280.201 157.676 279.971 157.137C279.665 156.426 279.354 155.72 279.037 155.018C278.548 153.941 277.652 153.103 276.545 152.686C275.438 152.27 274.211 152.31 273.133 152.797C272.056 153.285 271.216 154.18 270.797 155.286C270.379 156.392 270.417 157.619 270.902 158.698Z" fill="#0BCEB2"/>
<path d="M262.185 135.971C261.232 136.672 260.596 137.724 260.418 138.895C260.239 140.065 260.533 141.259 261.235 142.212C261.655 142.784 262.07 143.359 262.477 143.94C262.813 144.421 263.241 144.831 263.736 145.147C264.231 145.463 264.783 145.678 265.361 145.78C265.939 145.882 266.532 145.869 267.105 145.742C267.678 145.614 268.22 145.375 268.701 145.038C269.181 144.701 269.591 144.273 269.906 143.778C270.22 143.282 270.434 142.729 270.536 142.151C270.637 141.573 270.623 140.981 270.494 140.408C270.366 139.835 270.126 139.293 269.788 138.813C269.342 138.177 268.888 137.545 268.428 136.92C267.726 135.966 266.674 135.33 265.503 135.152C264.332 134.974 263.139 135.269 262.185 135.971Z" fill="#2D4356"/>
<path d="M282.333 211.999C281.76 211.877 281.168 211.869 280.592 211.976C280.015 212.083 279.465 212.303 278.974 212.622C278.482 212.942 278.058 213.355 277.727 213.839C277.395 214.322 277.162 214.866 277.041 215.44C276.893 216.138 276.737 216.832 276.574 217.524C276.439 218.095 276.418 218.687 276.512 219.267C276.605 219.846 276.813 220.402 277.121 220.901C277.43 221.4 277.834 221.834 278.311 222.177C278.787 222.52 279.326 222.765 279.898 222.899C280.469 223.034 281.062 223.054 281.641 222.959C282.22 222.864 282.775 222.656 283.274 222.346C283.773 222.037 284.205 221.632 284.547 221.155C284.89 220.678 285.134 220.138 285.267 219.566C285.444 218.811 285.613 218.053 285.773 217.293C285.895 216.719 285.903 216.127 285.796 215.551C285.689 214.975 285.469 214.425 285.15 213.933C284.83 213.442 284.417 213.018 283.934 212.686C283.451 212.354 282.907 212.121 282.333 211.999Z" fill="#2D4356"/>
<path d="M197.494 96.4737C196.316 96.3575 195.14 96.7141 194.225 97.4651C193.31 98.216 192.73 99.2998 192.614 100.478C192.498 101.656 192.854 102.832 193.605 103.748C194.356 104.663 195.44 105.242 196.618 105.359C197.498 105.445 198.397 105.626 199.282 105.626C200.418 105.624 201.511 105.189 202.338 104.41C203.165 103.63 203.664 102.564 203.732 101.43C203.8 100.295 203.434 99.1777 202.706 98.3044C201.979 97.4311 200.946 96.868 199.818 96.7299C199.044 96.635 198.27 96.5497 197.494 96.4737Z" fill="#2D4356"/>
<path d="M215.334 109.219C216.441 109.699 217.614 110.008 218.813 110.136C219.869 110.136 220.891 109.761 221.697 109.079C222.503 108.397 223.042 107.451 223.216 106.409C223.391 105.368 223.191 104.298 222.651 103.39C222.112 102.482 221.268 101.795 220.269 101.45C219.533 101.195 218.79 100.949 218.042 100.712C217.483 100.532 216.894 100.465 216.309 100.513C215.723 100.562 215.154 100.725 214.632 100.995C214.11 101.264 213.646 101.633 213.267 102.082C212.889 102.53 212.602 103.049 212.424 103.609C212.246 104.168 212.18 104.757 212.23 105.342C212.28 105.927 212.445 106.497 212.715 107.018C212.985 107.539 213.356 108.002 213.805 108.379C214.255 108.757 214.774 109.043 215.334 109.219Z" fill="#0BCEB2"/>
<path d="M232.84 116.911C234.042 117.842 235.47 118.436 236.978 118.631C237.954 118.631 238.903 118.312 239.68 117.722C240.458 117.132 241.02 116.303 241.282 115.363C241.544 114.423 241.491 113.423 241.13 112.516C240.77 111.609 240.122 110.845 239.286 110.341C238.617 109.939 237.943 109.544 237.265 109.157C236.756 108.866 236.195 108.677 235.613 108.603C235.031 108.529 234.44 108.57 233.874 108.725C233.308 108.879 232.778 109.143 232.314 109.503C231.85 109.862 231.462 110.309 231.171 110.819C230.88 111.328 230.693 111.89 230.619 112.472C230.546 113.054 230.588 113.645 230.743 114.211C230.898 114.777 231.163 115.306 231.523 115.77C231.883 116.233 232.33 116.621 232.84 116.911Z" fill="#2D4356"/>
<path d="M247.995 121.779C247.605 122.216 247.305 122.727 247.112 123.28C246.92 123.834 246.838 124.42 246.872 125.005C246.906 125.591 247.055 126.163 247.311 126.691C247.566 127.219 247.923 127.691 248.361 128.081C248.891 128.552 249.414 129.03 249.932 129.514C250.361 129.915 250.864 130.228 251.413 130.435C251.962 130.641 252.547 130.738 253.133 130.718C253.72 130.699 254.297 130.564 254.831 130.321C255.365 130.078 255.847 129.733 256.247 129.304C256.648 128.875 256.96 128.372 257.166 127.822C257.372 127.272 257.467 126.688 257.446 126.101C257.426 125.515 257.29 124.938 257.047 124.404C256.803 123.87 256.457 123.389 256.027 122.99C255.456 122.455 254.88 121.93 254.299 121.412C253.861 121.022 253.35 120.722 252.797 120.529C252.243 120.336 251.656 120.255 251.071 120.289C250.485 120.323 249.912 120.472 249.384 120.728C248.857 120.983 248.384 121.34 247.995 121.779Z" fill="#0BCEB2"/>
<path d="M215.903 283.454C215.227 283.674 214.549 283.887 213.867 284.092C212.842 284.401 211.962 285.069 211.387 285.973C210.813 286.877 210.583 287.957 210.739 289.017C210.895 290.076 211.427 291.045 212.237 291.745C213.047 292.445 214.082 292.831 215.153 292.832C216.363 292.718 217.548 292.419 218.667 291.945C219.791 291.576 220.723 290.777 221.258 289.723C221.794 288.668 221.889 287.444 221.523 286.32C221.157 285.195 220.359 284.262 219.306 283.725C218.252 283.187 217.028 283.09 215.903 283.454Z" fill="#0BCEB2"/>
<path d="M141.902 275.796C141.288 275.443 140.678 275.083 140.072 274.714C139.061 274.099 137.846 273.911 136.696 274.191C135.545 274.472 134.553 275.198 133.938 276.21C133.323 277.221 133.135 278.436 133.416 279.586C133.696 280.737 134.422 281.729 135.434 282.344C136.102 282.749 136.774 283.147 137.451 283.537C137.959 283.831 138.521 284.021 139.103 284.098C139.685 284.174 140.276 284.135 140.843 283.983C141.41 283.83 141.941 283.568 142.406 283.21C142.872 282.852 143.262 282.406 143.554 281.897C143.847 281.388 144.036 280.826 144.112 280.244C144.187 279.662 144.147 279.071 143.993 278.504C143.84 277.937 143.576 277.407 143.218 276.942C142.859 276.477 142.412 276.088 141.902 275.796Z" fill="#0BCEB2"/>
<path d="M177.183 296.352C177.335 296.367 177.488 296.375 177.638 296.375C178.783 296.373 179.883 295.932 180.711 295.143C181.54 294.354 182.033 293.276 182.09 292.133C182.148 290.99 181.764 289.869 181.018 289.001C180.272 288.133 179.222 287.585 178.083 287.469C177.378 287.397 176.675 287.317 175.973 287.23C174.799 287.083 173.615 287.409 172.681 288.135C171.747 288.862 171.14 289.929 170.992 291.103C170.844 292.277 171.169 293.461 171.894 294.396C172.619 295.331 173.685 295.939 174.859 296.088C175.631 296.185 176.405 296.273 177.183 296.352Z" fill="#0BCEB2"/>
<path d="M159.386 283.548C158.707 283.329 158.031 283.103 157.358 282.868C156.241 282.482 155.016 282.554 153.952 283.07C152.888 283.586 152.072 284.502 151.683 285.619C151.294 286.736 151.364 287.961 151.878 289.026C152.391 290.091 153.306 290.909 154.422 291.3C155.158 291.556 155.898 291.805 156.641 292.045C157.767 292.406 158.99 292.306 160.042 291.766C161.094 291.226 161.889 290.291 162.252 289.166C162.615 288.041 162.518 286.818 161.98 285.765C161.443 284.711 160.51 283.914 159.386 283.548Z" fill="#2D4356"/>
<path d="M123.435 272.367C124.338 272.367 125.221 272.093 125.965 271.581C126.71 271.069 127.281 270.344 127.605 269.5C127.928 268.656 127.987 267.734 127.776 266.856C127.564 265.978 127.09 265.184 126.418 264.581C125.888 264.106 125.364 263.624 124.845 263.137C124.418 262.736 123.915 262.423 123.366 262.216C122.818 262.009 122.234 261.912 121.648 261.931C121.062 261.95 120.485 262.084 119.951 262.326C119.417 262.567 118.936 262.912 118.535 263.339C118.134 263.767 117.821 264.27 117.614 264.818C117.407 265.367 117.31 265.951 117.329 266.537C117.348 267.123 117.482 267.699 117.724 268.233C117.965 268.768 118.31 269.249 118.737 269.65C119.304 270.181 119.876 270.706 120.454 271.225C121.272 271.961 122.334 272.368 123.435 272.367Z" fill="#2D4356"/>
<path d="M239.441 277.278C239.147 276.771 238.756 276.327 238.29 275.971C237.824 275.615 237.293 275.354 236.726 275.204C236.16 275.053 235.569 275.015 234.988 275.093C234.407 275.171 233.847 275.362 233.34 275.657C232.727 276.011 232.108 276.36 231.489 276.702C230.974 276.984 230.52 277.364 230.152 277.822C229.785 278.279 229.511 278.805 229.347 279.368C229.183 279.932 229.131 280.522 229.196 281.106C229.26 281.689 229.439 282.254 229.721 282.768C230.004 283.283 230.386 283.736 230.844 284.103C231.303 284.469 231.829 284.742 232.393 284.905C232.957 285.068 233.547 285.118 234.13 285.052C234.714 284.987 235.278 284.807 235.792 284.523C236.472 284.15 237.147 283.769 237.817 283.38C238.324 283.086 238.769 282.695 239.125 282.229C239.481 281.763 239.742 281.232 239.893 280.665C240.043 280.099 240.081 279.508 240.004 278.927C239.926 278.346 239.735 277.786 239.441 277.278Z" fill="#2D4356"/>
<path d="M197.215 287.436C196.509 287.51 195.801 287.577 195.092 287.636C193.945 287.731 192.878 288.266 192.116 289.129C191.353 289.991 190.954 291.115 191.001 292.266C191.047 293.416 191.537 294.504 192.367 295.303C193.196 296.101 194.303 296.547 195.454 296.549C196.354 296.518 197.252 296.441 198.144 296.317C199.322 296.194 200.402 295.608 201.148 294.688C201.893 293.768 202.243 292.59 202.12 291.412C201.997 290.235 201.411 289.154 200.491 288.409C199.571 287.663 198.393 287.313 197.215 287.436Z" fill="#2D4356"/>
<path d="M248.786 264.397C248.26 264.872 247.729 265.341 247.192 265.803C246.748 266.185 246.383 266.651 246.119 267.175C245.855 267.698 245.697 268.268 245.653 268.853C245.609 269.437 245.681 270.025 245.865 270.582C246.048 271.139 246.339 271.654 246.721 272.098C247.104 272.542 247.57 272.907 248.093 273.171C248.617 273.435 249.187 273.594 249.772 273.637C250.356 273.681 250.944 273.609 251.5 273.426C252.057 273.243 252.573 272.951 253.017 272.569C253.61 272.06 254.195 271.545 254.772 271.023C255.207 270.63 255.56 270.155 255.812 269.626C256.063 269.096 256.208 268.522 256.238 267.937C256.268 267.351 256.182 266.765 255.985 266.213C255.789 265.661 255.485 265.152 255.092 264.717C254.699 264.282 254.224 263.929 253.694 263.677C253.165 263.425 252.591 263.281 252.005 263.251C251.42 263.221 250.834 263.307 250.282 263.504C249.729 263.7 249.221 264.004 248.786 264.397Z" fill="#0BCEB2"/>
<path d="M112.615 256.643C113.571 255.944 114.21 254.894 114.392 253.724C114.574 252.554 114.284 251.36 113.585 250.404C113.167 249.832 112.755 249.254 112.349 248.672C112.016 248.187 111.59 247.773 111.096 247.453C110.602 247.134 110.049 246.915 109.47 246.809C108.891 246.704 108.297 246.714 107.722 246.839C107.147 246.964 106.602 247.202 106.119 247.538C105.636 247.875 105.225 248.303 104.908 248.799C104.591 249.295 104.376 249.849 104.274 250.429C104.172 251.008 104.186 251.602 104.314 252.177C104.443 252.751 104.684 253.294 105.023 253.775C105.468 254.413 105.919 255.045 106.377 255.673C107.075 256.628 108.125 257.268 109.295 257.45C110.465 257.631 111.659 257.341 112.615 256.643Z" fill="#0BCEB2"/>
<path d="M267.814 249.192C266.856 248.496 265.661 248.209 264.491 248.394C263.322 248.579 262.273 249.221 261.577 250.178C261.161 250.751 260.737 251.32 260.306 251.884C259.589 252.825 259.275 254.013 259.433 255.185C259.591 256.358 260.208 257.42 261.148 258.138C262.089 258.856 263.276 259.172 264.449 259.015C265.622 258.859 266.685 258.243 267.404 257.303C267.875 256.685 268.34 256.06 268.801 255.427C269.146 254.953 269.394 254.415 269.53 253.845C269.667 253.275 269.691 252.684 269.599 252.105C269.507 251.526 269.302 250.971 268.996 250.471C268.69 249.971 268.288 249.536 267.814 249.192Z" fill="#2D4356"/>
<path d="M277.034 231.358C275.952 230.879 274.724 230.849 273.619 231.274C272.515 231.699 271.624 232.545 271.142 233.626C270.857 234.271 270.562 234.913 270.257 235.55C270.004 236.079 269.857 236.654 269.826 237.24C269.795 237.826 269.88 238.412 270.075 238.966C270.271 239.519 270.574 240.028 270.967 240.465C271.359 240.901 271.834 241.255 272.364 241.508C272.894 241.76 273.468 241.906 274.055 241.936C274.641 241.966 275.227 241.881 275.78 241.684C276.333 241.487 276.842 241.184 277.278 240.79C277.713 240.397 278.067 239.921 278.318 239.391C278.656 238.682 278.985 237.968 279.304 237.249C279.541 236.713 279.671 236.136 279.686 235.55C279.701 234.964 279.6 234.381 279.389 233.834C279.178 233.287 278.862 232.786 278.458 232.362C278.054 231.937 277.57 231.596 277.034 231.358Z" fill="#0BCEB2"/>
<path d="M103.974 233.889C103.686 233.243 103.403 232.592 103.127 231.938C102.898 231.398 102.566 230.908 102.149 230.496C101.731 230.084 101.236 229.759 100.693 229.538C100.15 229.317 99.5681 229.206 98.9816 229.21C98.3951 229.214 97.8152 229.334 97.275 229.562C96.7348 229.791 96.2449 230.123 95.8333 230.541C95.4216 230.959 95.0963 231.454 94.876 231.997C94.6556 232.541 94.5445 233.122 94.549 233.709C94.5534 234.295 94.6734 234.875 94.902 235.415C95.204 236.128 95.5127 236.837 95.8284 237.543C96.0675 238.079 96.4099 238.562 96.8362 238.966C97.2624 239.37 97.7641 239.685 98.3124 239.895C98.8608 240.104 99.4451 240.203 100.032 240.187C100.619 240.17 101.196 240.038 101.732 239.798C102.268 239.557 102.751 239.214 103.153 238.787C103.556 238.36 103.87 237.857 104.079 237.309C104.287 236.76 104.385 236.175 104.367 235.588C104.349 235.002 104.216 234.424 103.974 233.889Z" fill="#2D4356"/>
<path d="M98.0223 215.737C97.873 215.045 97.7335 214.349 97.5995 213.651C97.3764 212.489 96.7012 211.463 95.7223 210.799C94.7433 210.134 93.5407 209.886 92.3786 210.108C91.2165 210.329 90.19 211.003 89.5246 211.982C88.8592 212.96 88.6094 214.162 88.83 215.325C88.975 216.089 89.129 216.851 89.2921 217.611C89.5407 218.769 90.239 219.781 91.2334 220.423C92.2278 221.066 93.4368 221.288 94.5945 221.039C95.7522 220.79 96.7637 220.092 97.4066 219.098C98.0494 218.103 98.2709 216.894 98.0223 215.737Z" fill="#0BCEB2"/>
<path d="M187.5 80.357C190.149 80.357 192.738 79.5715 194.941 78.0999C197.143 76.6283 198.86 74.5366 199.873 72.0894C200.887 69.6422 201.152 66.9493 200.636 64.3513C200.119 61.7534 198.843 59.367 196.97 57.494C195.097 55.6209 192.711 54.3454 190.113 53.8286C187.515 53.3119 184.822 53.5771 182.375 54.5908C179.928 55.6044 177.836 57.321 176.364 59.5235C174.893 61.7259 174.107 64.3153 174.107 66.9642C174.111 70.515 175.523 73.9192 178.034 76.4301C180.545 78.9409 183.949 80.3531 187.5 80.357ZM187.5 62.4999C188.383 62.4999 189.246 62.7617 189.98 63.2522C190.714 63.7428 191.287 64.44 191.624 65.2557C191.962 66.0715 192.051 66.9691 191.879 67.8351C191.706 68.7011 191.281 69.4965 190.657 70.1209C190.032 70.7452 189.237 71.1704 188.371 71.3427C187.505 71.5149 186.607 71.4265 185.792 71.0886C184.976 70.7507 184.279 70.1785 183.788 69.4444C183.298 68.7102 183.036 67.8471 183.036 66.9642C183.037 65.7806 183.508 64.6458 184.345 63.8089C185.182 62.972 186.316 62.5012 187.5 62.4999Z" fill="#2D4356"/>
<path d="M71.4285 196.429C71.4285 193.78 70.6431 191.191 69.1714 188.988C67.6998 186.786 65.6081 185.069 63.1609 184.056C60.7137 183.042 58.0208 182.777 55.4229 183.293C52.8249 183.81 50.4385 185.086 48.5655 186.959C46.6925 188.832 45.4169 191.218 44.9002 193.816C44.3834 196.414 44.6486 199.107 45.6623 201.554C46.676 204.001 48.3926 206.093 50.595 207.565C52.7975 209.036 55.3868 209.822 58.0357 209.822C61.5865 209.818 64.9908 208.406 67.5016 205.895C70.0124 203.384 71.4247 199.98 71.4285 196.429ZM58.0357 200.893C57.1527 200.893 56.2896 200.631 55.5555 200.141C54.8213 199.65 54.2491 198.953 53.9112 198.137C53.5733 197.322 53.4849 196.424 53.6572 195.558C53.8294 194.692 54.2546 193.897 54.879 193.272C55.5033 192.648 56.2988 192.223 57.1647 192.05C58.0307 191.878 58.9284 191.967 59.7441 192.305C60.5598 192.642 61.2571 193.215 61.7476 193.949C62.2381 194.683 62.5 195.546 62.5 196.429C62.4988 197.613 62.0281 198.747 61.1911 199.584C60.3542 200.421 59.2193 200.892 58.0357 200.893Z" fill="#0BCEB2"/>
<path d="M252.232 295.158C249.583 295.158 246.994 295.944 244.792 297.415C242.589 298.887 240.873 300.979 239.859 303.426C238.845 305.873 238.58 308.566 239.097 311.164C239.613 313.762 240.889 316.148 242.762 318.021C244.635 319.894 247.021 321.17 249.619 321.687C252.217 322.203 254.91 321.938 257.357 320.924C259.805 319.911 261.896 318.194 263.368 315.992C264.84 313.789 265.625 311.2 265.625 308.551C265.621 305 264.209 301.596 261.698 299.085C259.187 296.574 255.783 295.162 252.232 295.158ZM252.232 313.015C251.349 313.015 250.486 312.754 249.752 312.263C249.018 311.772 248.446 311.075 248.108 310.259C247.77 309.444 247.681 308.546 247.854 307.68C248.026 306.814 248.451 306.019 249.075 305.394C249.7 304.77 250.495 304.345 251.361 304.173C252.227 304 253.125 304.089 253.941 304.427C254.756 304.765 255.454 305.337 255.944 306.071C256.435 306.805 256.697 307.668 256.697 308.551C256.695 309.735 256.225 310.87 255.388 311.706C254.551 312.543 253.416 313.014 252.232 313.015Z" fill="#0BCEB2"/>
<path d="M299.619 247.771C296.971 247.771 294.381 248.556 292.179 250.028C289.976 251.499 288.26 253.591 287.246 256.038C286.232 258.485 285.967 261.178 286.484 263.776C287.001 266.374 288.276 268.761 290.149 270.634C292.022 272.507 294.409 273.782 297.007 274.299C299.605 274.816 302.297 274.55 304.745 273.537C307.192 272.523 309.284 270.806 310.755 268.604C312.227 266.402 313.012 263.812 313.012 261.163C313.008 257.613 311.596 254.208 309.085 251.697C306.575 249.187 303.17 247.774 299.619 247.771ZM299.619 265.628C298.736 265.628 297.873 265.366 297.139 264.875C296.405 264.385 295.833 263.688 295.495 262.872C295.157 262.056 295.069 261.158 295.241 260.292C295.413 259.426 295.838 258.631 296.463 258.007C297.087 257.382 297.883 256.957 298.748 256.785C299.614 256.613 300.512 256.701 301.328 257.039C302.144 257.377 302.841 257.949 303.331 258.683C303.822 259.417 304.084 260.28 304.084 261.163C304.083 262.347 303.612 263.482 302.775 264.319C301.938 265.156 300.803 265.626 299.619 265.628Z" fill="#2D4356"/>
<path d="M299.619 145.092C302.268 145.092 304.858 144.307 307.06 142.835C309.263 141.364 310.979 139.272 311.993 136.825C313.006 134.377 313.272 131.685 312.755 129.087C312.238 126.489 310.963 124.102 309.09 122.229C307.217 120.356 304.83 119.081 302.232 118.564C299.634 118.047 296.941 118.312 294.494 119.326C292.047 120.34 289.955 122.056 288.484 124.259C287.012 126.461 286.227 129.051 286.227 131.699C286.23 135.25 287.643 138.655 290.154 141.165C292.664 143.676 296.069 145.088 299.619 145.092ZM299.619 127.235C300.502 127.235 301.366 127.497 302.1 127.988C302.834 128.478 303.406 129.175 303.744 129.991C304.082 130.807 304.17 131.704 303.998 132.57C303.826 133.436 303.4 134.232 302.776 134.856C302.152 135.481 301.356 135.906 300.49 136.078C299.624 136.25 298.727 136.162 297.911 135.824C297.095 135.486 296.398 134.914 295.907 134.18C295.417 133.446 295.155 132.582 295.155 131.699C295.156 130.516 295.627 129.381 296.464 128.544C297.301 127.707 298.436 127.237 299.619 127.235Z" fill="#2D4356"/>
<path d="M252.232 97.7017C254.881 97.7017 257.47 96.9163 259.673 95.4446C261.875 93.973 263.592 91.8813 264.606 89.4341C265.619 86.9869 265.884 84.294 265.368 81.6961C264.851 79.0981 263.575 76.7117 261.702 74.8387C259.829 72.9657 257.443 71.6901 254.845 71.1734C252.247 70.6566 249.554 70.9218 247.107 71.9355C244.66 72.9492 242.568 74.6658 241.096 76.8682C239.625 79.0707 238.839 81.66 238.839 84.3089C238.843 87.8597 240.256 91.264 242.766 93.7748C245.277 96.2856 248.681 97.6979 252.232 97.7017ZM252.232 79.8446C253.115 79.8446 253.978 80.1064 254.712 80.597C255.447 81.0875 256.019 81.7847 256.357 82.6005C256.695 83.4162 256.783 84.3138 256.611 85.1798C256.438 86.0458 256.013 86.8413 255.389 87.4656C254.765 88.09 253.969 88.5151 253.103 88.6874C252.237 88.8596 251.34 88.7712 250.524 88.4333C249.708 88.0955 249.011 87.5233 248.52 86.7891C248.03 86.055 247.768 85.1918 247.768 84.3089C247.769 83.1253 248.24 81.9906 249.077 81.1536C249.914 80.3167 251.049 79.8459 252.232 79.8446Z" fill="#0BCEB2"/>
<path d="M316.964 183.036C314.316 183.036 311.726 183.822 309.524 185.293C307.321 186.765 305.605 188.857 304.591 191.304C303.577 193.751 303.312 196.444 303.829 199.042C304.346 201.64 305.621 204.026 307.494 205.899C309.367 207.772 311.754 209.048 314.352 209.565C316.95 210.081 319.642 209.816 322.09 208.802C324.537 207.789 326.629 206.072 328.1 203.87C329.572 201.667 330.357 199.078 330.357 196.429C330.353 192.878 328.941 189.474 326.43 186.963C323.919 184.452 320.515 183.04 316.964 183.036ZM316.964 200.893C316.081 200.893 315.218 200.631 314.484 200.141C313.75 199.65 313.178 198.953 312.84 198.137C312.502 197.322 312.414 196.424 312.586 195.558C312.758 194.692 313.183 193.897 313.808 193.272C314.432 192.648 315.227 192.223 316.093 192.05C316.959 191.878 317.857 191.967 318.673 192.305C319.489 192.642 320.186 193.215 320.676 193.949C321.167 194.683 321.429 195.546 321.429 196.429C321.427 197.613 320.957 198.747 320.12 199.584C319.283 200.421 318.148 200.892 316.964 200.893Z" fill="#0BCEB2"/>
<path d="M122.768 97.7017C125.417 97.7017 128.006 96.9163 130.209 95.4446C132.411 93.973 134.128 91.8813 135.141 89.4341C136.155 86.9869 136.42 84.294 135.903 81.6961C135.387 79.0981 134.111 76.7117 132.238 74.8387C130.365 72.9657 127.979 71.6901 125.381 71.1734C122.783 70.6566 120.09 70.9218 117.643 71.9355C115.195 72.9492 113.104 74.6658 111.632 76.8682C110.16 79.0707 109.375 81.66 109.375 84.3089C109.379 87.8597 110.791 91.264 113.302 93.7748C115.813 96.2856 119.217 97.6979 122.768 97.7017ZM122.768 79.8446C123.651 79.8446 124.514 80.1064 125.248 80.597C125.982 81.0875 126.554 81.7847 126.892 82.6005C127.23 83.4162 127.319 84.3138 127.146 85.1798C126.974 86.0458 126.549 86.8413 125.925 87.4656C125.3 88.0899 124.505 88.5151 123.639 88.6874C122.773 88.8596 121.875 88.7712 121.059 88.4333C120.244 88.0954 119.546 87.5232 119.056 86.7891C118.565 86.055 118.304 85.1918 118.304 84.3089C118.305 83.1253 118.776 81.9906 119.613 81.1536C120.45 80.3167 121.584 79.8459 122.768 79.8446Z" fill="#0BCEB2"/>
<path d="M75.3765 145.088C78.0254 145.088 80.6147 144.303 82.8172 142.831C85.0196 141.36 86.7362 139.268 87.7499 136.821C88.7636 134.374 89.0288 131.681 88.512 129.083C87.9953 126.485 86.7197 124.098 84.8467 122.225C82.9737 120.352 80.5873 119.077 77.9893 118.56C75.3914 118.043 72.6985 118.309 70.2513 119.322C67.8041 120.336 65.7124 122.052 64.2407 124.255C62.7691 126.457 61.9836 129.047 61.9836 131.696C61.9875 135.246 63.3998 138.651 65.9106 141.161C68.4214 143.672 71.8257 145.085 75.3765 145.088ZM75.3765 127.231C76.2595 127.231 77.1226 127.493 77.8567 127.984C78.5909 128.474 79.1631 129.171 79.501 129.987C79.8389 130.803 79.9273 131.701 79.755 132.567C79.5828 133.433 79.1576 134.228 78.5332 134.852C77.9089 135.477 77.1134 135.902 76.2474 136.074C75.3815 136.246 74.4838 136.158 73.6681 135.82C72.8524 135.482 72.1551 134.91 71.6646 134.176C71.174 133.442 70.9122 132.579 70.9122 131.696C70.9136 130.512 71.3843 129.377 72.2213 128.54C73.0582 127.703 74.1929 127.233 75.3765 127.231Z" fill="#2D4356"/>
<path d="M75.3807 247.772C72.7318 247.772 70.1424 248.558 67.94 250.03C65.7375 251.501 64.0209 253.593 63.0073 256.04C61.9936 258.487 61.7284 261.18 62.2451 263.778C62.7619 266.376 64.0375 268.762 65.9105 270.636C67.7835 272.509 70.1699 273.784 72.7678 274.301C75.3658 274.818 78.0587 274.552 80.5059 273.539C82.9531 272.525 85.0448 270.808 86.5164 268.606C87.988 266.404 88.7735 263.814 88.7735 261.165C88.7696 257.615 87.3574 254.21 84.8466 251.699C82.3358 249.189 78.9315 247.776 75.3807 247.772ZM75.3807 265.63C74.4977 265.63 73.6346 265.368 72.9004 264.877C72.1663 264.387 71.5941 263.689 71.2562 262.874C70.9183 262.058 70.8299 261.16 71.0022 260.294C71.1744 259.428 71.5996 258.633 72.2239 258.009C72.8483 257.384 73.6437 256.959 74.5097 256.787C75.3757 256.615 76.2733 256.703 77.0891 257.041C77.9048 257.379 78.602 257.951 79.0926 258.685C79.5831 259.419 79.8449 260.282 79.8449 261.165C79.8438 262.349 79.373 263.484 78.5361 264.321C77.6991 265.158 76.5643 265.628 75.3807 265.63Z" fill="#2D4356"/>
<path d="M122.764 295.158C120.115 295.158 117.525 295.944 115.323 297.415C113.121 298.887 111.404 300.979 110.39 303.426C109.377 305.873 109.111 308.566 109.628 311.164C110.145 313.762 111.421 316.148 113.294 318.021C115.167 319.894 117.553 321.17 120.151 321.687C122.749 322.203 125.442 321.938 127.889 320.924C130.336 319.911 132.428 318.194 133.899 315.992C135.371 313.789 136.157 311.2 136.157 308.551C136.153 305 134.74 301.596 132.23 299.085C129.719 296.574 126.315 295.162 122.764 295.158ZM122.764 313.015C121.881 313.015 121.018 312.754 120.283 312.263C119.549 311.772 118.977 311.075 118.639 310.259C118.301 309.444 118.213 308.546 118.385 307.68C118.557 306.814 118.983 306.019 119.607 305.394C120.231 304.77 121.027 304.345 121.893 304.173C122.759 304 123.656 304.089 124.472 304.427C125.288 304.764 125.985 305.337 126.476 306.071C126.966 306.805 127.228 307.668 127.228 308.551C127.227 309.735 126.756 310.87 125.919 311.706C125.082 312.543 123.947 313.014 122.764 313.015Z" fill="#0BCEB2"/>
<path d="M4.46429 339.286C6.92984 339.286 8.92857 337.287 8.92857 334.822C8.92857 332.356 6.92984 330.357 4.46429 330.357C1.99873 330.357 0 332.356 0 334.822C0 337.287 1.99873 339.286 4.46429 339.286Z" fill="#2D4356"/>
<path d="M24.5535 330.357H17.8571C16.6731 330.357 15.5376 330.828 14.7004 331.665C13.8632 332.502 13.3928 333.638 13.3928 334.822C13.3928 336.006 13.8632 337.141 14.7004 337.978C15.5376 338.816 16.6731 339.286 17.8571 339.286H24.5535C25.7375 339.286 26.873 338.816 27.7103 337.978C28.5475 337.141 29.0178 336.006 29.0178 334.822C29.0178 333.638 28.5475 332.502 27.7103 331.665C26.873 330.828 25.7375 330.357 24.5535 330.357Z" fill="#2D4356"/>
<path d="M357.143 330.357H350.446C349.262 330.357 348.127 330.828 347.29 331.665C346.453 332.502 345.982 333.638 345.982 334.822C345.982 336.006 346.453 337.141 347.29 337.978C348.127 338.816 349.262 339.286 350.446 339.286H357.143C358.327 339.286 359.462 338.816 360.3 337.978C361.137 337.141 361.607 336.006 361.607 334.822C361.607 333.638 361.137 332.502 360.3 331.665C359.462 330.828 358.327 330.357 357.143 330.357Z" fill="#2D4356"/>
<path d="M370.536 339.286C373.001 339.286 375 337.287 375 334.822C375 332.356 373.001 330.357 370.536 330.357C368.07 330.357 366.072 332.356 366.072 334.822C366.072 337.287 368.07 339.286 370.536 339.286Z" fill="#2D4356"/>
<path d="M263.736 348.214H245.192C244.07 348.304 243.023 348.813 242.259 349.64C241.495 350.468 241.071 351.552 241.071 352.678C241.071 353.804 241.495 354.889 242.259 355.716C243.023 356.543 244.07 357.053 245.192 357.142H263.736C264.859 357.053 265.906 356.543 266.669 355.716C267.433 354.889 267.857 353.804 267.857 352.678C267.857 351.552 267.433 350.468 266.669 349.64C265.906 348.813 264.859 348.304 263.736 348.214Z" fill="#0BCEB2"/>
<path d="M129.808 348.214H111.264C110.141 348.304 109.094 348.813 108.331 349.64C107.567 350.468 107.143 351.552 107.143 352.678C107.143 353.804 107.567 354.889 108.331 355.716C109.094 356.543 110.141 357.053 111.264 357.142H129.808C130.93 357.053 131.977 356.543 132.741 355.716C133.505 354.889 133.929 353.804 133.929 352.678C133.929 351.552 133.505 350.468 132.741 349.64C131.977 348.813 130.93 348.304 129.808 348.214Z" fill="#0BCEB2"/>
<path d="M232.143 348.214H142.857C141.673 348.214 140.538 348.684 139.7 349.521C138.863 350.359 138.393 351.494 138.393 352.678C138.393 353.862 138.863 354.998 139.7 355.835C140.538 356.672 141.673 357.142 142.857 357.142H178.437V361.607H160.714C159.53 361.607 158.395 362.077 157.558 362.914C156.72 363.751 156.25 364.887 156.25 366.071C156.25 367.255 156.72 368.391 157.558 369.228C158.395 370.065 159.53 370.535 160.714 370.535H216.518C217.702 370.535 218.837 370.065 219.675 369.228C220.512 368.391 220.982 367.255 220.982 366.071C220.982 364.887 220.512 363.751 219.675 362.914C218.837 362.077 217.702 361.607 216.518 361.607H196.562V357.142H232.143C233.327 357.142 234.462 356.672 235.3 355.835C236.137 354.998 236.607 353.862 236.607 352.678C236.607 351.494 236.137 350.359 235.3 349.521C234.462 348.684 233.327 348.214 232.143 348.214Z" fill="#0BCEB2"/>
<path d="M336.431 330.357H200.112C200.834 328.336 201.06 326.171 200.77 324.044C200.481 321.917 199.685 319.891 198.448 318.136C197.212 316.382 195.572 314.95 193.667 313.961C191.761 312.973 189.646 312.457 187.5 312.457C185.354 312.457 183.238 312.973 181.333 313.961C179.428 314.95 177.788 316.382 176.552 318.136C175.315 319.891 174.519 321.917 174.229 324.044C173.94 326.171 174.166 328.336 174.888 330.357H38.5685C37.9333 330.274 37.2878 330.328 36.6751 330.514C36.0623 330.7 35.4963 331.015 35.015 331.438C34.5336 331.861 34.148 332.381 33.8838 332.964C33.6196 333.548 33.4829 334.181 33.4829 334.822C33.4829 335.462 33.6196 336.095 33.8838 336.679C34.148 337.262 34.5336 337.782 35.015 338.205C35.4963 338.628 36.0623 338.943 36.6751 339.129C37.2878 339.315 37.9333 339.369 38.5685 339.286H336.431C337.067 339.369 337.712 339.315 338.325 339.129C338.938 338.943 339.504 338.628 339.985 338.205C340.466 337.782 340.852 337.262 341.116 336.679C341.38 336.095 341.517 335.462 341.517 334.822C341.517 334.181 341.38 333.548 341.116 332.964C340.852 332.381 340.466 331.861 339.985 331.438C339.504 331.015 338.938 330.7 338.325 330.514C337.712 330.328 337.067 330.274 336.431 330.357ZM183.036 325.893C183.036 325.01 183.297 324.147 183.788 323.413C184.279 322.679 184.976 322.106 185.792 321.768C186.607 321.431 187.505 321.342 188.371 321.514C189.237 321.687 190.032 322.112 190.657 322.736C191.281 323.361 191.706 324.156 191.878 325.022C192.051 325.888 191.962 326.786 191.624 327.601C191.287 328.417 190.714 329.114 189.98 329.605C189.246 330.095 188.383 330.357 187.5 330.357C186.316 330.356 185.181 329.885 184.345 329.048C183.508 328.211 183.037 327.077 183.036 325.893Z" fill="#2D4356"/>
<path d="M152.466 17.8567C153.79 17.8567 155.085 17.464 156.186 16.7282C157.287 15.9924 158.146 14.9465 158.652 13.7229C159.159 12.4993 159.292 11.1529 159.033 9.85389C158.775 8.55491 158.137 7.36172 157.201 6.42521C156.264 5.4887 155.071 4.85092 153.772 4.59254C152.473 4.33416 151.127 4.46677 149.903 4.97361C148.679 5.48044 147.634 6.33874 146.898 7.43996C146.162 8.54118 145.769 9.83587 145.769 11.1603C145.771 12.9357 146.477 14.6378 147.733 15.8931C148.988 17.1485 150.69 17.8547 152.466 17.8567ZM152.466 7.81208C153.128 7.81208 153.775 8.00845 154.326 8.37636C154.877 8.74427 155.306 9.26719 155.559 9.87899C155.812 10.4908 155.879 11.164 155.75 11.8135C155.62 12.463 155.302 13.0596 154.833 13.5278C154.365 13.9961 153.768 14.315 153.119 14.4442C152.469 14.5734 151.796 14.5071 151.184 14.2536C150.573 14.0002 150.05 13.5711 149.682 13.0205C149.314 12.4699 149.118 11.8225 149.118 11.1603C149.118 10.2726 149.471 9.42144 150.099 8.79372C150.727 8.166 151.578 7.81296 152.466 7.81208Z" fill="#2D4356"/>
<path d="M361.729 138.393C360.846 138.393 359.983 138.654 359.249 139.145C358.515 139.635 357.943 140.333 357.605 141.148C357.267 141.964 357.178 142.862 357.351 143.728C357.523 144.594 357.948 145.389 358.572 146.014C359.197 146.638 359.992 147.063 360.858 147.235C361.724 147.408 362.622 147.319 363.438 146.981C364.253 146.643 364.951 146.071 365.441 145.337C365.932 144.603 366.193 143.74 366.193 142.857C366.192 141.673 365.721 140.539 364.884 139.702C364.048 138.865 362.913 138.394 361.729 138.393ZM361.729 145.089C361.288 145.089 360.856 144.958 360.489 144.713C360.122 144.468 359.836 144.119 359.667 143.711C359.498 143.303 359.454 142.854 359.54 142.421C359.626 141.988 359.839 141.591 360.151 141.278C360.463 140.966 360.861 140.754 361.294 140.668C361.727 140.581 362.176 140.626 362.583 140.795C362.991 140.964 363.34 141.25 363.585 141.617C363.83 141.984 363.961 142.415 363.961 142.857C363.961 143.449 363.725 144.016 363.307 144.435C362.888 144.853 362.321 145.088 361.729 145.089Z" fill="#2D4356"/>
<path d="M315.848 4.46387C314.965 4.46387 314.102 4.72569 313.368 5.21623C312.634 5.70678 312.061 6.404 311.724 7.21974C311.386 8.03549 311.297 8.9331 311.47 9.79909C311.642 10.6651 312.067 11.4605 312.691 12.0849C313.316 12.7092 314.111 13.1344 314.977 13.3067C315.843 13.4789 316.741 13.3905 317.556 13.0526C318.372 12.7147 319.069 12.1425 319.56 11.4084C320.051 10.6742 320.312 9.81111 320.312 8.92815C320.311 7.74457 319.84 6.60984 319.003 5.77292C318.166 4.936 317.032 4.46522 315.848 4.46387ZM315.848 11.1603C315.407 11.1603 314.975 11.0294 314.608 10.7841C314.241 10.5388 313.955 10.1902 313.786 9.78236C313.617 9.37449 313.573 8.92568 313.659 8.49268C313.745 8.05969 313.958 7.66196 314.27 7.34979C314.582 7.03762 314.98 6.82503 315.413 6.7389C315.846 6.65277 316.294 6.69698 316.702 6.86592C317.11 7.03487 317.459 7.32097 317.704 7.68804C317.949 8.05512 318.08 8.48668 318.08 8.92815C318.08 9.51997 317.844 10.0874 317.426 10.5059C317.007 10.9243 316.44 11.1597 315.848 11.1603Z" fill="#2D4356"/>
<path d="M325.893 89.2852C325.01 89.2852 324.147 89.547 323.413 90.0375C322.678 90.5281 322.106 91.2253 321.768 92.041C321.43 92.8568 321.342 93.7544 321.514 94.6204C321.687 95.4864 322.112 96.2818 322.736 96.9062C323.36 97.5305 324.156 97.9557 325.022 98.1279C325.888 98.3002 326.785 98.2118 327.601 97.8739C328.417 97.536 329.114 96.9638 329.605 96.2297C330.095 95.4955 330.357 94.6324 330.357 93.7494C330.356 92.5659 329.885 91.4311 329.048 90.5942C328.211 89.7573 327.076 89.2865 325.893 89.2852ZM325.893 95.9816C325.451 95.9816 325.02 95.8507 324.653 95.6054C324.286 95.3601 323.999 95.0115 323.831 94.6036C323.662 94.1958 323.617 93.747 323.703 93.314C323.79 92.881 324.002 92.4832 324.314 92.1711C324.627 91.8589 325.024 91.6463 325.457 91.5602C325.89 91.4741 326.339 91.5183 326.747 91.6872C327.155 91.8562 327.503 92.1423 327.749 92.5093C327.994 92.8764 328.125 93.308 328.125 93.7494C328.124 94.3413 327.889 94.9087 327.47 95.3272C327.052 95.7456 326.485 95.981 325.893 95.9816Z" fill="#2D4356"/>
<path d="M86.4955 45.2006C86.4955 44.3177 86.2336 43.4545 85.7431 42.7204C85.2526 41.9862 84.5553 41.414 83.7396 41.0762C82.9238 40.7383 82.0262 40.6499 81.1602 40.8221C80.2943 40.9944 79.4988 41.4195 78.8745 42.0439C78.2501 42.6682 77.8249 43.4637 77.6527 44.3297C77.4804 45.1957 77.5688 46.0933 77.9067 46.909C78.2446 47.7248 78.8168 48.422 79.551 48.9125C80.2851 49.4031 81.1482 49.6649 82.0312 49.6649C83.2148 49.6635 84.3495 49.1928 85.1864 48.3558C86.0233 47.5189 86.4941 46.3842 86.4955 45.2006ZM79.799 45.2006C79.799 44.7591 79.93 44.3276 80.1752 43.9605C80.4205 43.5934 80.7691 43.3073 81.177 43.1384C81.5849 42.9694 82.0337 42.9252 82.4667 43.0114C82.8996 43.0975 83.2974 43.3101 83.6095 43.6223C83.9217 43.9344 84.1343 44.3322 84.2204 44.7651C84.3066 45.1981 84.2624 45.6469 84.0934 46.0548C83.9245 46.4627 83.6384 46.8113 83.2713 47.0566C82.9042 47.3018 82.4727 47.4328 82.0312 47.4328C81.4394 47.4322 80.872 47.1968 80.4535 46.7783C80.035 46.3598 79.7996 45.7924 79.799 45.2006Z" fill="#2D4356"/>
<path d="M24.9397 105.397L28.2589 101.031L26.1629 99.8438L24.0335 104.732H23.9621L21.7969 99.8795L19.6652 101.1L22.9487 105.362V105.433L17.8125 104.768V107.143L22.9821 106.48V106.549L19.6652 110.81L21.6562 112.067L23.9263 107.143H23.9955L26.0915 112.033L28.2924 110.775L24.9397 106.585V106.513L30.2121 107.143V104.768L24.9397 105.467V105.397Z" fill="#0BCEB2"/>
<path d="M21.7836 21.888L19.8729 24.3411L21.018 25.0665L22.326 22.2295H22.3662L23.5738 25.0465L24.8416 24.3232L22.9108 21.9081V21.8679L25.9465 22.2295V20.8634L22.9108 21.2652V21.225L24.8215 18.7116L23.6139 18.0264L22.3863 20.8433H22.3461L21.1006 18.0465L19.8729 18.7518L21.7635 21.2049V21.2451L18.8059 20.8634V22.2295L21.7836 21.8478V21.888Z" fill="#0BCEB2"/>
<path d="M367.895 50.772V48.4417L362.723 49.127V49.0578L365.978 44.7765L363.922 43.6113L361.833 48.4082H361.763L359.641 43.6448L357.549 44.8457L360.77 49.0243V49.0935L355.732 48.4417V50.772L360.804 50.1203V50.1895L357.549 54.368L359.502 55.6024L361.73 50.772H361.797L363.853 55.5667L366.011 54.3345L362.723 50.2229V50.1537L367.895 50.772Z" fill="#0BCEB2"/>
<path d="M260.598 43.7192L263.406 40.025L261.632 39.0205L259.83 43.1567H259.77L257.94 39.0495L256.134 40.0852L258.913 43.6901V43.7482L254.569 43.1879V45.1968L258.942 44.6343V44.6946L256.134 48.2995L257.819 49.3643L259.741 45.1968H259.799L261.574 49.333L263.435 48.2705L260.598 44.7236V44.6634L265.058 45.1968V43.1879L260.598 43.7772V43.7192Z" fill="#0BCEB2"/>
</g>
<defs>
<clipPath id="clip0_1736_18558">
<rect width="375" height="375" fill="white"/>
</clipPath>
</defs>
</svg>
