<svg width="375" height="375" viewBox="0 0 375 375" fill="none" xmlns="http://www.w3.org/2000/svg">
<g clip-path="url(#clip0_1736_18980)">
<path d="M168.922 296.257C169.501 296.353 170.093 296.334 170.664 296.201C171.235 296.067 171.774 295.822 172.251 295.479C172.727 295.137 173.131 294.704 173.439 294.205C173.747 293.706 173.954 293.151 174.047 292.571L178.54 265.066H196.782L200.944 292.521C201.123 293.69 201.759 294.74 202.712 295.44C203.665 296.14 204.857 296.434 206.026 296.257C207.195 296.08 208.246 295.446 208.949 294.495C209.651 293.543 209.947 292.352 209.773 291.183L205.036 259.933C204.875 258.877 204.342 257.913 203.532 257.217C202.722 256.52 201.689 256.138 200.621 256.138H174.745C173.686 256.138 172.661 256.514 171.854 257.2C171.047 257.886 170.51 258.837 170.339 259.883L165.236 291.133C165.141 291.711 165.161 292.303 165.296 292.873C165.43 293.444 165.675 293.983 166.017 294.459C166.359 294.935 166.792 295.339 167.291 295.647C167.789 295.956 168.343 296.163 168.922 296.257Z" fill="#34D399"/>
<path d="M250.004 279.576C250.004 280.76 250.475 281.895 251.312 282.732C252.149 283.57 253.285 284.04 254.469 284.04H294.65C295.385 284.04 296.109 283.858 296.756 283.512C297.404 283.165 297.957 282.664 298.365 282.052C298.772 281.441 299.023 280.738 299.094 280.007C299.165 279.275 299.055 278.538 298.772 277.859L283.894 242.145C283.437 241.054 282.566 240.189 281.472 239.74C280.378 239.291 279.151 239.294 278.059 239.748C276.967 240.203 276.1 241.072 275.649 242.165C275.197 243.258 275.197 244.485 275.649 245.578L287.953 275.112H254.469C253.285 275.112 252.149 275.582 251.312 276.419C250.475 277.256 250.005 278.392 250.004 279.576Z" fill="#34D399"/>
<path d="M156.254 190.078C166.208 204.78 175.304 220.045 183.497 235.796C183.867 236.542 184.437 237.17 185.144 237.609C185.852 238.048 186.667 238.281 187.5 238.281C188.332 238.281 189.148 238.048 189.855 237.609C190.563 237.17 191.133 236.542 191.502 235.796C199.696 220.045 208.792 204.78 218.745 190.078L220.398 187.531C228.065 175.699 234.899 163.906 234.348 149.761C234.141 144.436 233.079 139.179 231.202 134.192C227.765 125.399 221.755 117.847 213.959 112.524C206.162 107.2 196.94 104.352 187.5 104.353C178.059 104.353 168.837 107.201 161.041 112.524C153.244 117.848 147.235 125.4 143.798 134.193C141.921 139.18 140.859 144.436 140.652 149.761C140.101 163.906 146.935 175.699 154.604 187.534L156.254 190.078ZM149.573 150.108C149.744 145.738 150.617 141.424 152.156 137.331C154.954 130.239 159.822 124.153 166.125 119.864C172.428 115.575 179.876 113.281 187.5 113.281C195.124 113.281 202.571 115.575 208.875 119.864C215.178 124.152 220.045 130.238 222.844 137.33C224.383 141.424 225.255 145.738 225.427 150.108C225.876 161.642 219.759 172.096 212.905 182.675L211.255 185.216C203.113 197.757 194.735 210.658 187.5 224.097C180.264 210.658 171.887 197.757 163.745 185.216L162.097 182.677C155.241 172.096 149.124 161.643 149.573 150.108Z" fill="#0F1454"/>
<path d="M187.5 180.245C193.239 180.244 198.849 178.542 203.621 175.353C208.393 172.165 212.112 167.633 214.308 162.33C216.504 157.028 217.078 151.193 215.958 145.565C214.838 139.936 212.075 134.765 208.016 130.707C203.958 126.649 198.788 123.886 193.159 122.766C187.53 121.647 181.695 122.222 176.393 124.418C171.091 126.614 166.559 130.334 163.371 135.106C160.182 139.878 158.48 145.488 158.48 151.227C158.489 158.92 161.55 166.296 166.99 171.736C172.431 177.176 179.807 180.236 187.5 180.245ZM187.5 131.138C191.473 131.138 195.357 132.316 198.661 134.524C201.964 136.731 204.539 139.869 206.059 143.54C207.58 147.211 207.977 151.25 207.202 155.147C206.427 159.044 204.513 162.623 201.704 165.433C198.894 168.242 195.314 170.155 191.418 170.93C187.521 171.705 183.481 171.307 179.811 169.787C176.14 168.266 173.003 165.691 170.795 162.388C168.588 159.084 167.41 155.2 167.41 151.227C167.416 145.901 169.534 140.794 173.301 137.028C177.067 133.262 182.174 131.143 187.5 131.138Z" fill="#34D399"/>
<path d="M240.074 188.652C241.258 188.652 242.394 188.182 243.231 187.345C244.068 186.507 244.539 185.372 244.539 184.188C244.539 183.004 244.068 181.868 243.231 181.031C242.394 180.194 241.258 179.724 240.074 179.724H235.495C233.792 182.968 231.994 185.955 230.289 188.652H240.074Z" fill="#34D399"/>
<path d="M129.737 184.188C129.737 185.372 130.208 186.507 131.045 187.345C131.882 188.182 133.018 188.652 134.202 188.652H144.712C143.007 185.955 141.208 182.968 139.505 179.724H134.202C133.018 179.724 131.882 180.194 131.045 181.031C130.208 181.868 129.737 183.004 129.737 184.188Z" fill="#34D399"/>
<path d="M263.398 229.352H226.559L222.095 201.328C219.666 205.089 217.256 208.879 214.866 212.698L217.519 229.352H204.995C203.348 232.315 201.77 235.291 200.261 238.281H222.731L222.744 238.282L222.757 238.281H263.398C264.582 238.281 265.717 237.81 266.555 236.973C267.392 236.136 267.862 235.001 267.862 233.817C267.862 232.633 267.392 231.497 266.555 230.66C265.717 229.823 264.582 229.352 263.398 229.352Z" fill="#0F1454"/>
<path d="M152.325 200.427L147.717 229.352H111.602C110.418 229.352 109.282 229.822 108.445 230.66C107.608 231.497 107.138 232.632 107.138 233.816C107.138 235 107.608 236.136 108.445 236.973C109.282 237.81 110.418 238.281 111.602 238.281H151.521L151.535 238.282L151.547 238.281H174.74C173.233 235.292 171.655 232.316 170.005 229.352H156.761L159.561 211.772C157.176 207.961 154.751 204.178 152.325 200.427Z" fill="#0F1454"/>
<path d="M85.068 83.1477C86.3924 83.1477 87.6871 82.755 88.7883 82.0192C89.8896 81.2834 90.7479 80.2375 91.2547 79.0139C91.7615 77.7903 91.8942 76.4439 91.6358 75.1449C91.3774 73.8459 90.7396 72.6527 89.8031 71.7162C88.8666 70.7797 87.6734 70.1419 86.3744 69.8836C85.0754 69.6252 83.729 69.7578 82.5054 70.2646C81.2818 70.7715 80.2359 71.6298 79.5001 72.731C78.7643 73.8322 78.3716 75.1269 78.3716 76.4513C78.3736 78.2267 79.0798 79.9288 80.3352 81.1842C81.5905 82.4395 83.2926 83.1457 85.068 83.1477ZM85.068 73.1031C85.7302 73.1031 86.3776 73.2995 86.9282 73.6674C87.4788 74.0353 87.9079 74.5582 88.1614 75.17C88.4148 75.7818 88.4811 76.455 88.3519 77.1045C88.2227 77.754 87.9038 78.3506 87.4356 78.8189C86.9673 79.2871 86.3707 79.606 85.7212 79.7352C85.0717 79.8644 84.3985 79.7981 83.7867 79.5447C83.1749 79.2912 82.652 78.8621 82.2841 78.3115C81.9162 77.7609 81.7198 77.1135 81.7198 76.4513C81.7207 75.5636 82.0737 74.7125 82.7014 74.0847C83.3292 73.457 84.1803 73.104 85.068 73.1031Z" fill="#0F1454"/>
<path d="M350.446 142.299C349.563 142.299 348.7 142.561 347.966 143.051C347.232 143.542 346.66 144.239 346.322 145.055C345.984 145.87 345.895 146.768 346.068 147.634C346.24 148.5 346.665 149.295 347.289 149.92C347.914 150.544 348.709 150.969 349.575 151.142C350.441 151.314 351.339 151.225 352.155 150.888C352.97 150.55 353.668 149.977 354.158 149.243C354.649 148.509 354.91 147.646 354.91 146.763C354.909 145.58 354.438 144.445 353.601 143.608C352.765 142.771 351.63 142.3 350.446 142.299ZM350.446 148.995C350.005 148.995 349.573 148.864 349.206 148.619C348.839 148.374 348.553 148.025 348.384 147.617C348.215 147.209 348.171 146.761 348.257 146.328C348.343 145.895 348.556 145.497 348.868 145.185C349.18 144.873 349.578 144.66 350.011 144.574C350.444 144.488 350.893 144.532 351.3 144.701C351.708 144.87 352.057 145.156 352.302 145.523C352.547 145.89 352.678 146.322 352.678 146.763C352.678 147.355 352.442 147.922 352.024 148.341C351.605 148.759 351.038 148.995 350.446 148.995Z" fill="#0F1454"/>
<path d="M19.8427 44.4502C18.9598 44.4502 18.0966 44.712 17.3625 45.2026C16.6283 45.6931 16.0561 46.3903 15.7182 47.2061C15.3804 48.0218 15.2919 48.9194 15.4642 49.7854C15.6365 50.6514 16.0616 51.4469 16.686 52.0712C17.3103 52.6956 18.1058 53.1207 18.9718 53.293C19.8378 53.4652 20.7354 53.3768 21.5511 53.0389C22.3669 52.7011 23.0641 52.1289 23.5546 51.3947C24.0452 50.6606 24.307 49.7974 24.307 48.9145C24.3056 47.7309 23.8349 46.5962 22.9979 45.7592C22.161 44.9223 21.0263 44.4515 19.8427 44.4502ZM19.8427 51.1466C19.4012 51.1466 18.9697 51.0157 18.6026 50.7704C18.2355 50.5252 17.9494 50.1766 17.7805 49.7687C17.6115 49.3608 17.5673 48.912 17.6535 48.479C17.7396 48.046 17.9522 47.6483 18.2643 47.3361C18.5765 47.0239 18.9742 46.8114 19.4072 46.7252C19.8402 46.6391 20.289 46.6833 20.6969 46.8523C21.1048 47.0212 21.4534 47.3073 21.6987 47.6744C21.9439 48.0414 22.0748 48.473 22.0748 48.9145C22.0743 49.5063 21.8389 50.0737 21.4204 50.4922C21.0019 50.9107 20.4345 51.146 19.8427 51.1466Z" fill="#0F1454"/>
<path d="M260.914 29.5762C260.031 29.5762 259.168 29.838 258.434 30.3285C257.7 30.8191 257.127 31.5163 256.79 32.3321C256.452 33.1478 256.363 34.0454 256.535 34.9114C256.708 35.7774 257.133 36.5728 257.757 37.1972C258.382 37.8215 259.177 38.2467 260.043 38.419C260.909 38.5912 261.807 38.5028 262.622 38.1649C263.438 37.827 264.135 37.2548 264.626 36.5207C265.116 35.7865 265.378 34.9234 265.378 34.0405C265.377 32.8569 264.906 31.7221 264.069 30.8852C263.232 30.0483 262.098 29.5775 260.914 29.5762ZM260.914 36.2726C260.473 36.2726 260.041 36.1417 259.674 35.8964C259.307 35.6511 259.021 35.3025 258.852 34.8947C258.683 34.4868 258.639 34.038 258.725 33.605C258.811 33.172 259.023 32.7743 259.336 32.4621C259.648 32.1499 260.046 31.9373 260.479 31.8512C260.912 31.7651 261.36 31.8093 261.768 31.9782C262.176 32.1472 262.525 32.4333 262.77 32.8003C263.015 33.1674 263.146 33.599 263.146 34.0405C263.146 34.6323 262.91 35.1997 262.492 35.6182C262.073 36.0366 261.506 36.272 260.914 36.2726Z" fill="#0F1454"/>
<path d="M198.414 70.8686C198.414 69.9856 198.152 69.1225 197.662 68.3884C197.171 67.6542 196.474 67.082 195.658 66.7441C194.842 66.4062 193.945 66.3178 193.079 66.4901C192.213 66.6623 191.417 67.0875 190.793 67.7119C190.169 68.3362 189.743 69.1317 189.571 69.9976C189.399 70.8636 189.487 71.7612 189.825 72.577C190.163 73.3927 190.735 74.09 191.469 74.5805C192.204 75.071 193.067 75.3329 193.95 75.3329C195.133 75.3315 196.268 74.8607 197.105 74.0238C197.942 73.1869 198.413 72.0522 198.414 70.8686ZM191.717 70.8686C191.717 70.4271 191.848 69.9955 192.094 69.6285C192.339 69.2614 192.688 68.9753 193.095 68.8064C193.503 68.6374 193.952 68.5932 194.385 68.6793C194.818 68.7655 195.216 68.978 195.528 69.2902C195.84 69.6024 196.053 70.0001 196.139 70.4331C196.225 70.8661 196.181 71.3149 196.012 71.7228C195.843 72.1307 195.557 72.4793 195.19 72.7245C194.823 72.9698 194.391 73.1007 193.95 73.1007C193.358 73.1001 192.79 72.8648 192.372 72.4463C191.953 72.0278 191.718 71.4604 191.717 70.8686Z" fill="#0F1454"/>
<path d="M36.3904 135.043L39.7096 130.679L37.6136 129.491L35.4842 134.38H35.4127L33.2476 129.525L31.1159 130.748L34.3993 135.009V135.078L29.2632 134.415V136.79L34.4328 136.127V136.197L31.1159 140.455L33.1047 141.714L35.377 136.79H35.4462L37.5422 141.679L39.7431 140.422L36.3904 136.23V136.161L41.6627 136.79V134.415L36.3904 135.114V135.043Z" fill="#34D399"/>
<path d="M140.136 37.9016L138.225 40.3548L139.373 41.0802L140.681 38.2432H140.721L141.926 41.0601L143.194 40.3347L141.263 37.9217V37.8816L144.299 38.2432V36.8771L141.263 37.2789V37.2387L143.174 34.7253L141.969 34.04L140.741 36.8548H140.701L139.455 34.0601L138.225 34.7655L140.118 37.2186V37.2588L137.161 36.8771V38.2432L140.136 37.8615V37.9016Z" fill="#34D399"/>
<path d="M273.692 89.1536V86.8255L268.52 87.5107V87.4415L271.774 83.1603L269.719 81.9951L267.629 86.7898H267.56L265.437 82.0286L263.346 83.2273L266.567 87.4081V87.4773L261.529 86.8255V89.1536L266.6 88.504V88.5732L263.346 92.7518L265.299 93.9862L267.527 89.1536H267.594L269.649 93.9505L271.808 92.7183L268.52 88.6067V88.5375L273.692 89.1536Z" fill="#34D399"/>
<path d="M337.797 45.757L340.605 42.065L338.831 41.0605L337.029 45.1967H336.969L335.139 41.0896L333.333 42.123L336.112 45.7302V45.7882L331.768 45.2257V47.2347L336.141 46.6744V46.7347L333.333 50.3373L335.018 51.4021L336.94 47.2347H336.998L338.77 51.373L340.634 50.3083L337.797 46.7614V46.7034L342.257 47.2347V45.2257L337.797 45.8172V45.757Z" fill="#34D399"/>
<path d="M4.46429 314.174C6.92984 314.174 8.92857 312.175 8.92857 309.709C8.92857 307.244 6.92984 305.245 4.46429 305.245C1.99873 305.245 0 307.244 0 309.709C0 312.175 1.99873 314.174 4.46429 314.174Z" fill="#0F1454"/>
<path d="M24.5538 305.245H17.8574C16.6734 305.245 15.5378 305.715 14.7006 306.553C13.8634 307.39 13.3931 308.525 13.3931 309.709C13.3931 310.893 13.8634 312.029 14.7006 312.866C15.5378 313.703 16.6734 314.174 17.8574 314.174H24.5538C25.7378 314.174 26.8733 313.703 27.7105 312.866C28.5477 312.029 29.0181 310.893 29.0181 309.709C29.0181 308.525 28.5477 307.39 27.7105 306.553C26.8733 305.715 25.7378 305.245 24.5538 305.245Z" fill="#0F1454"/>
<path d="M357.143 305.245H350.446C349.262 305.245 348.127 305.715 347.289 306.553C346.452 307.39 345.982 308.525 345.982 309.709C345.982 310.893 346.452 312.029 347.289 312.866C348.127 313.703 349.262 314.174 350.446 314.174H357.143C358.327 314.174 359.462 313.703 360.299 312.866C361.137 312.029 361.607 310.893 361.607 309.709C361.607 308.525 361.137 307.39 360.299 306.553C359.462 305.715 358.327 305.245 357.143 305.245Z" fill="#0F1454"/>
<path d="M370.536 314.174C373.001 314.174 375 312.175 375 309.709C375 307.244 373.001 305.245 370.536 305.245C368.07 305.245 366.071 307.244 366.071 309.709C366.071 312.175 368.07 314.174 370.536 314.174Z" fill="#0F1454"/>
<path d="M263.736 323.103H245.192C244.07 323.192 243.023 323.702 242.259 324.529C241.495 325.356 241.071 326.441 241.071 327.567C241.071 328.693 241.495 329.777 242.259 330.605C243.023 331.432 244.07 331.941 245.192 332.031H263.736C264.859 331.941 265.906 331.432 266.669 330.605C267.433 329.777 267.857 328.693 267.857 327.567C267.857 326.441 267.433 325.356 266.669 324.529C265.906 323.702 264.859 323.192 263.736 323.103Z" fill="#34D399"/>
<path d="M129.808 323.103H111.263C110.141 323.192 109.094 323.702 108.33 324.529C107.567 325.356 107.143 326.441 107.143 327.567C107.143 328.693 107.567 329.777 108.33 330.605C109.094 331.432 110.141 331.941 111.263 332.031H129.808C130.93 331.941 131.977 331.432 132.741 330.605C133.504 329.777 133.928 328.693 133.928 327.567C133.928 326.441 133.504 325.356 132.741 324.529C131.977 323.702 130.93 323.192 129.808 323.103Z" fill="#34D399"/>
<path d="M232.143 323.103H142.857C141.673 323.103 140.538 323.573 139.701 324.41C138.863 325.247 138.393 326.383 138.393 327.567C138.393 328.751 138.863 329.886 139.701 330.724C140.538 331.561 141.673 332.031 142.857 332.031H178.438V336.495H160.714C159.53 336.495 158.395 336.966 157.558 337.803C156.721 338.64 156.25 339.776 156.25 340.96C156.25 342.144 156.721 343.279 157.558 344.116C158.395 344.954 159.53 345.424 160.714 345.424H216.518C217.702 345.424 218.838 344.954 219.675 344.116C220.512 343.279 220.982 342.144 220.982 340.96C220.982 339.776 220.512 338.64 219.675 337.803C218.838 336.966 217.702 336.495 216.518 336.495H196.563V332.031H232.143C233.327 332.031 234.463 331.561 235.3 330.724C236.137 329.886 236.607 328.751 236.607 327.567C236.607 326.383 236.137 325.247 235.3 324.41C234.463 323.573 233.327 323.103 232.143 323.103Z" fill="#34D399"/>
<path d="M336.431 305.245H329.571C330.66 302.232 330.612 298.924 329.436 295.944L280.055 170.946C279.024 168.413 277.26 166.246 274.99 164.722C272.721 163.197 270.047 162.384 267.313 162.388H242.068C241.387 165.428 240.477 168.413 239.345 171.316H249.191L257.425 199.218H234.936C233.752 199.218 232.617 199.688 231.779 200.526C230.942 201.363 230.472 202.498 230.472 203.682C230.472 204.866 230.942 206.002 231.779 206.839C232.617 207.676 233.752 208.147 234.936 208.147H263.398C264.092 208.146 264.777 207.984 265.397 207.673C266.018 207.362 266.557 206.911 266.973 206.355C267.388 205.799 267.669 205.154 267.791 204.471C267.914 203.787 267.876 203.085 267.679 202.419L258.5 171.316H267.313C268.258 171.305 269.185 171.575 269.975 172.093C270.765 172.611 271.383 173.353 271.749 174.224L321.13 299.224C321.393 299.87 321.489 300.571 321.411 301.263C321.332 301.956 321.081 302.618 320.681 303.188C320.239 303.834 319.643 304.36 318.948 304.719C318.252 305.078 317.479 305.259 316.696 305.245H240.902L231.583 260.081H261.724C262.908 260.081 264.043 259.611 264.88 258.773C265.718 257.936 266.188 256.801 266.188 255.617C266.188 254.433 265.718 253.297 264.88 252.46C264.043 251.623 262.908 251.152 261.724 251.152H226.103C225.44 251.152 224.785 251.3 224.187 251.584C223.588 251.869 223.06 252.283 222.641 252.797C222.223 253.311 221.924 253.911 221.766 254.555C221.608 255.199 221.596 255.87 221.73 256.519L231.784 305.245H142.196L152.25 256.519C152.384 255.87 152.371 255.199 152.214 254.555C152.056 253.911 151.757 253.311 151.338 252.797C150.92 252.283 150.392 251.869 149.793 251.584C149.194 251.3 148.54 251.152 147.877 251.152H112.256C111.072 251.152 109.936 251.623 109.099 252.46C108.262 253.297 107.792 254.433 107.792 255.617C107.792 256.801 108.262 257.936 109.099 258.773C109.936 259.611 111.072 260.081 112.256 260.081H142.396L133.077 305.245H58.3039C57.5214 305.259 56.7477 305.078 56.0522 304.719C55.3567 304.36 54.7611 303.834 54.3189 303.188C53.9186 302.618 53.6677 301.956 53.5892 301.263C53.5108 300.571 53.6073 299.87 53.8699 299.224L103.251 174.222C103.618 173.352 104.235 172.61 105.026 172.093C105.816 171.575 106.742 171.305 107.687 171.316H116.5L107.321 202.419C107.124 203.085 107.086 203.787 107.209 204.471C107.331 205.154 107.611 205.799 108.027 206.355C108.443 206.911 108.982 207.362 109.603 207.673C110.223 207.984 110.908 208.146 111.602 208.147H140.064C141.248 208.147 142.383 207.676 143.221 206.839C144.058 206.002 144.528 204.866 144.528 203.682C144.528 202.498 144.058 201.363 143.221 200.526C142.383 199.688 141.248 199.218 140.064 199.218H117.575L125.808 171.316H135.655C134.523 168.413 133.613 165.428 132.932 162.388H107.687C104.953 162.384 102.28 163.197 100.01 164.721C97.7402 166.245 95.9767 168.412 94.9449 170.944L45.5642 295.944C44.3877 298.924 44.3396 302.232 45.4289 305.245H38.5685C37.9333 305.162 37.2878 305.216 36.6751 305.402C36.0623 305.589 35.4963 305.904 35.015 306.326C34.5336 306.749 34.148 307.269 33.8838 307.853C33.6196 308.436 33.4829 309.069 33.4829 309.71C33.4829 310.35 33.6196 310.983 33.8838 311.567C34.148 312.15 34.5336 312.671 35.015 313.093C35.4963 313.516 36.0623 313.831 36.6751 314.017C37.2878 314.203 37.9333 314.257 38.5685 314.174H336.431C337.067 314.257 337.712 314.203 338.325 314.017C338.938 313.831 339.504 313.516 339.985 313.093C340.466 312.671 340.852 312.15 341.116 311.567C341.38 310.983 341.517 310.35 341.517 309.71C341.517 309.069 341.38 308.436 341.116 307.853C340.852 307.269 340.466 306.749 339.985 306.326C339.504 305.904 338.938 305.589 338.325 305.402C337.712 305.216 337.067 305.162 336.431 305.245Z" fill="#0F1454"/>
</g>
<defs>
<clipPath id="clip0_1736_18980">
<rect width="375" height="375" fill="white"/>
</clipPath>
</defs>
</svg>
