<svg width="168" height="168" viewBox="0 0 168 168" fill="none" xmlns="http://www.w3.org/2000/svg">
<path d="M68.3047 9C68.898 9 69.478 8.82405 69.9714 8.49441C70.4647 8.16477 70.8493 7.69623 71.0763 7.14805C71.3034 6.59987 71.3628 5.99667 71.247 5.41473C71.1313 4.83279 70.8456 4.29824 70.426 3.87868C70.0065 3.45912 69.4719 3.1734 68.89 3.05765C68.308 2.94189 67.7048 3.0013 67.1566 3.22836C66.6085 3.45543 66.1399 3.83994 65.8103 4.33329C65.4806 4.82664 65.3047 5.40666 65.3047 6C65.3056 6.79537 65.622 7.5579 66.1844 8.12032C66.7468 8.68273 67.5093 8.99909 68.3047 9ZM68.3047 4.5C68.6014 4.5 68.8914 4.58798 69.138 4.7528C69.3847 4.91762 69.577 5.15189 69.6905 5.42598C69.804 5.70007 69.8337 6.00167 69.7759 6.29264C69.718 6.58361 69.5751 6.85088 69.3653 7.06066C69.1556 7.27044 68.8883 7.4133 68.5973 7.47118C68.3063 7.52906 68.0047 7.49935 67.7307 7.38582C67.4566 7.27229 67.2223 7.08003 67.0575 6.83336C66.8927 6.58668 66.8047 6.29667 66.8047 6C66.8051 5.6023 66.9632 5.22099 67.2445 4.93977C67.5257 4.65855 67.907 4.50039 68.3047 4.5Z" fill="#F2F2F7"/>
<path d="M158.305 70C157.909 70 157.522 70.1173 157.194 70.3371C156.865 70.5568 156.608 70.8692 156.457 71.2346C156.306 71.6001 156.266 72.0022 156.343 72.3902C156.42 72.7781 156.611 73.1345 156.89 73.4142C157.17 73.6939 157.527 73.8844 157.915 73.9616C158.302 74.0387 158.705 73.9991 159.07 73.8478C159.436 73.6964 159.748 73.44 159.968 73.1111C160.187 72.7822 160.305 72.3956 160.305 72C160.304 71.4698 160.093 70.9614 159.718 70.5865C159.343 70.2115 158.835 70.0006 158.305 70ZM158.305 73C158.107 73 157.914 72.9413 157.749 72.8315C157.585 72.7216 157.456 72.5654 157.381 72.3827C157.305 72.2 157.285 71.9989 157.324 71.8049C157.362 71.6109 157.458 71.4327 157.598 71.2929C157.737 71.153 157.916 71.0578 158.11 71.0192C158.304 70.9806 158.505 71.0004 158.687 71.0761C158.87 71.1518 159.026 71.28 159.136 71.4444C159.246 71.6089 159.305 71.8022 159.305 72C159.304 72.2651 159.199 72.5193 159.011 72.7068C158.824 72.8943 158.57 72.9997 158.305 73Z" fill="#F2F2F7"/>
<path d="M98.3047 41C97.9091 41 97.5225 41.1173 97.1936 41.3371C96.8647 41.5568 96.6083 41.8692 96.4569 42.2346C96.3056 42.6001 96.2659 43.0022 96.3431 43.3902C96.4203 43.7781 96.6108 44.1345 96.8905 44.4142C97.1702 44.6939 97.5265 44.8844 97.9145 44.9616C98.3025 45.0387 98.7046 44.9991 99.0701 44.8478C99.4355 44.6964 99.7479 44.44 99.9676 44.1111C100.187 43.7822 100.305 43.3956 100.305 43C100.304 42.4698 100.093 41.9614 99.7182 41.5865C99.3433 41.2115 98.8349 41.0006 98.3047 41ZM98.3047 44C98.1069 44 97.9136 43.9414 97.7491 43.8315C97.5847 43.7216 97.4565 43.5654 97.3808 43.3827C97.3051 43.2 97.2853 42.9989 97.3239 42.8049C97.3625 42.6109 97.4577 42.4327 97.5976 42.2929C97.7374 42.153 97.9156 42.0578 98.1096 42.0192C98.3036 41.9806 98.5046 42.0004 98.6874 42.0761C98.8701 42.1518 99.0263 42.28 99.1362 42.4444C99.246 42.6089 99.3047 42.8022 99.3047 43C99.3044 43.2651 99.199 43.5193 99.0115 43.7068C98.824 43.8943 98.5698 43.9997 98.3047 44Z" fill="#F2F2F7"/>
<path d="M158.305 11C157.909 11 157.522 11.1173 157.194 11.3371C156.865 11.5568 156.608 11.8692 156.457 12.2346C156.306 12.6001 156.266 13.0022 156.343 13.3902C156.42 13.7781 156.611 14.1345 156.89 14.4142C157.17 14.6939 157.527 14.8844 157.915 14.9616C158.302 15.0387 158.705 14.9991 159.07 14.8478C159.436 14.6964 159.748 14.44 159.968 14.1111C160.187 13.7822 160.305 13.3956 160.305 13C160.304 12.4698 160.093 11.9614 159.718 11.5865C159.343 11.2115 158.835 11.0006 158.305 11ZM158.305 14C158.107 14 157.914 13.9414 157.749 13.8315C157.585 13.7216 157.456 13.5654 157.381 13.3827C157.305 13.2 157.285 12.9989 157.324 12.8049C157.362 12.6109 157.458 12.4327 157.598 12.2929C157.737 12.153 157.916 12.0578 158.11 12.0192C158.304 11.9806 158.505 12.0004 158.687 12.0761C158.87 12.1518 159.026 12.28 159.136 12.4444C159.246 12.6089 159.305 12.8022 159.305 13C159.304 13.2651 159.199 13.5193 159.011 13.7068C158.824 13.8943 158.57 13.9997 158.305 14Z" fill="#F2F2F7"/>
<path d="M17.3047 29C17.3047 28.6044 17.1874 28.2178 16.9676 27.8889C16.7479 27.56 16.4355 27.3036 16.0701 27.1522C15.7046 27.0009 15.3025 26.9613 14.9145 27.0384C14.5265 27.1156 14.1702 27.3061 13.8905 27.5858C13.6108 27.8655 13.4203 28.2219 13.3431 28.6098C13.2659 28.9978 13.3056 29.3999 13.4569 29.7654C13.6083 30.1308 13.8646 30.4432 14.1935 30.6629C14.5224 30.8827 14.9091 31 15.3047 31C15.8349 30.9994 16.3433 30.7885 16.7182 30.4135C17.0932 30.0386 17.3041 29.5302 17.3047 29ZM14.3047 29C14.3047 28.8022 14.3633 28.6089 14.4732 28.4444C14.5831 28.28 14.7393 28.1518 14.922 28.0761C15.1047 28.0004 15.3058 27.9806 15.4998 28.0192C15.6938 28.0578 15.8719 28.153 16.0118 28.2929C16.1516 28.4327 16.2469 28.6109 16.2855 28.8049C16.3241 28.9989 16.3043 29.2 16.2286 29.3827C16.1529 29.5654 16.0247 29.7216 15.8603 29.8315C15.6958 29.9414 15.5025 30 15.3047 30C15.0396 29.9997 14.7854 29.8943 14.5979 29.7068C14.4104 29.5193 14.305 29.2651 14.3047 29Z" fill="#F2F2F7"/>
<path d="M10.888 70.0109L12.375 68.0559L11.436 67.5239L10.481 69.7139H10.45L9.48001 67.5389L8.52501 68.0869L9.99601 69.9959V70.0269L7.69501 69.7299V70.7939L10.011 70.4969V70.5279L8.52501 72.4359L9.41601 72.9999L10.434 70.7939H10.465L11.404 72.9839L12.39 72.4209L10.888 70.5429V70.5119L13.25 70.7939V69.7299L10.888 70.0419V70.0109Z" fill="#34D399"/>
<path d="M52.081 35.0669L51.225 36.1659L51.739 36.4899L52.325 35.2199H52.342L52.883 36.4809L53.451 36.1569L52.586 35.0749V35.0569L53.946 35.2199V34.6069L52.586 34.7869V34.7689L53.442 33.6429L52.902 33.3369L52.352 34.5979H52.334L51.775 33.3449L51.225 33.6609L52.072 34.7599V34.7779L50.747 34.6069V35.2199L52.081 35.0489V35.0669Z" fill="#34D399"/>
<path d="M155.305 48.7131V47.6701L152.988 47.9771V47.9461L154.446 46.0281L153.525 45.5061L152.589 47.6541H152.558L151.607 45.5211L150.67 46.0591L152.113 47.9311V47.9621L149.856 47.6701V48.7131L152.128 48.4221V48.4531L150.67 50.3251L151.545 50.8781L152.543 48.7131H152.573L153.494 50.8621L154.461 50.3101L152.988 48.4681V48.4371L155.305 48.7131Z" fill="#34D399"/>
<path d="M116.748 20.586L118.006 18.931L117.211 18.481L116.404 20.334H116.377L115.557 18.494L114.748 18.958L115.993 20.573V20.599L114.047 20.348V21.248L116.006 20.996V21.023L114.748 22.638L115.503 23.115L116.364 21.248H116.39L117.185 23.101L118.019 22.625L116.748 21.036V21.009L118.746 21.248V20.348L116.748 20.612V20.586Z" fill="#34D399"/>
<path d="M2 151C3.10457 151 4 150.105 4 149C4 147.895 3.10457 147 2 147C0.89543 147 0 147.895 0 149C0 150.105 0.89543 151 2 151Z" fill="#F2F2F7"/>
<path d="M11 147H8C7.46957 147 6.96086 147.211 6.58579 147.586C6.21071 147.961 6 148.47 6 149C6 149.53 6.21071 150.039 6.58579 150.414C6.96086 150.789 7.46957 151 8 151H11C11.5304 151 12.0391 150.789 12.4142 150.414C12.7893 150.039 13 149.53 13 149C13 148.47 12.7893 147.961 12.4142 147.586C12.0391 147.211 11.5304 147 11 147Z" fill="#F2F2F7"/>
<path d="M160 147H157C156.47 147 155.961 147.211 155.586 147.586C155.211 147.961 155 148.47 155 149C155 149.53 155.211 150.039 155.586 150.414C155.961 150.789 156.47 151 157 151H160C160.53 151 161.039 150.789 161.414 150.414C161.789 150.039 162 149.53 162 149C162 148.47 161.789 147.961 161.414 147.586C161.039 147.211 160.53 147 160 147Z" fill="#F2F2F7"/>
<path d="M166 151C167.105 151 168 150.105 168 149C168 147.895 167.105 147 166 147C164.895 147 164 147.895 164 149C164 150.105 164.895 151 166 151Z" fill="#F2F2F7"/>
<path d="M118.154 155H109.846C109.343 155.04 108.874 155.268 108.532 155.639C108.19 156.01 108 156.496 108 157C108 157.504 108.19 157.99 108.532 158.361C108.874 158.732 109.343 158.96 109.846 159H118.154C118.657 158.96 119.126 158.732 119.468 158.361C119.81 157.99 120 157.504 120 157C120 156.496 119.81 156.01 119.468 155.639C119.126 155.268 118.657 155.04 118.154 155Z" fill="#34D399"/>
<path d="M58.1539 155H49.8462C49.3434 155.04 48.8742 155.268 48.5321 155.639C48.19 156.01 48 156.496 48 157C48 157.504 48.19 157.99 48.5321 158.361C48.8742 158.732 49.3434 158.96 49.8462 159H58.1539C58.6567 158.96 59.1258 158.732 59.468 158.361C59.8101 157.99 60.0001 157.504 60.0001 157C60.0001 156.496 59.8101 156.01 59.468 155.639C59.1258 155.268 58.6567 155.04 58.1539 155Z" fill="#34D399"/>
<path d="M104 155H64C63.4696 155 62.9609 155.211 62.5858 155.586C62.2107 155.961 62 156.47 62 157C62 157.53 62.2107 158.039 62.5858 158.414C62.9609 158.789 63.4696 159 64 159H79.94V161H72C71.4696 161 70.9609 161.211 70.5858 161.586C70.2107 161.961 70 162.47 70 163C70 163.53 70.2107 164.039 70.5858 164.414C70.9609 164.789 71.4696 165 72 165H97C97.5304 165 98.0391 164.789 98.4142 164.414C98.7893 164.039 99 163.53 99 163C99 162.47 98.7893 161.961 98.4142 161.586C98.0391 161.211 97.5304 161 97 161H88.06V159H104C104.53 159 105.039 158.789 105.414 158.414C105.789 158.039 106 157.53 106 157C106 156.47 105.789 155.961 105.414 155.586C105.039 155.211 104.53 155 104 155Z" fill="#34D399"/>
<path d="M28 143H140C142.121 142.998 144.154 142.154 145.654 140.654C147.154 139.154 147.998 137.121 148 135V65C147.998 62.879 147.154 60.8456 145.654 59.3458C144.154 57.846 142.121 57.0024 140 57H28C25.879 57.0024 23.8456 57.846 22.3458 59.3458C20.846 60.8456 20.0024 62.879 20 65V135C20.0024 137.121 20.846 139.154 22.3458 140.654C23.8456 142.154 25.879 142.998 28 143ZM24 65C24 63.9391 24.4214 62.9217 25.1716 62.1716C25.9217 61.4214 26.9391 61 28 61H140C141.061 61 142.078 61.4214 142.828 62.1716C143.579 62.9217 144 63.9391 144 65V135C144 136.061 143.579 137.078 142.828 137.828C142.078 138.579 141.061 139 140 139H28C26.9391 139 25.9217 138.579 25.1716 137.828C24.4214 137.078 24 136.061 24 135V65Z" fill="#F2F2F7"/>
<path d="M47 127H48C48 127.53 48.2107 128.039 48.5858 128.414C48.9609 128.789 49.4696 129 50 129C50.5304 129 51.0391 128.789 51.4142 128.414C51.7893 128.039 52 127.53 52 127H121C121.53 127 122.039 126.789 122.414 126.414C122.789 126.039 123 125.53 123 125C123 124.47 122.789 123.961 122.414 123.586C122.039 123.211 121.53 123 121 123H52C52 122.47 51.7893 121.961 51.4142 121.586C51.0391 121.211 50.5304 121 50 121C49.4696 121 48.9609 121.211 48.5858 121.586C48.2107 121.961 48 122.47 48 123H47C46.4696 123 45.9609 123.211 45.5858 123.586C45.2107 123.961 45 124.47 45 125C45 125.53 45.2107 126.039 45.5858 126.414C45.9609 126.789 46.4696 127 47 127Z" fill="#34D399"/>
<path d="M30 81C30.5304 81 31.0391 80.7893 31.4142 80.4142C31.7893 80.0391 32 79.5304 32 79V69H42C42.5304 69 43.0391 68.7893 43.4142 68.4142C43.7893 68.0391 44 67.5304 44 67C44 66.4696 43.7893 65.9609 43.4142 65.5858C43.0391 65.2107 42.5304 65 42 65H30C29.4696 65 28.9609 65.2107 28.5858 65.5858C28.2107 65.9609 28 66.4696 28 67V79C28 79.5304 28.2107 80.0391 28.5858 80.4142C28.9609 80.7893 29.4696 81 30 81Z" fill="#F2F2F7"/>
<path d="M126 69H136V79C136 79.5304 136.211 80.0391 136.586 80.4142C136.961 80.7893 137.47 81 138 81C138.53 81 139.039 80.7893 139.414 80.4142C139.789 80.0391 140 79.5304 140 79V67C140 66.4696 139.789 65.9609 139.414 65.5858C139.039 65.2107 138.53 65 138 65H126C125.47 65 124.961 65.2107 124.586 65.5858C124.211 65.9609 124 66.4696 124 67C124 67.5304 124.211 68.0391 124.586 68.4142C124.961 68.7893 125.47 69 126 69Z" fill="#F2F2F7"/>
<path d="M126 135H138C138.53 135 139.039 134.789 139.414 134.414C139.789 134.039 140 133.53 140 133V121C140 120.47 139.789 119.961 139.414 119.586C139.039 119.211 138.53 119 138 119C137.47 119 136.961 119.211 136.586 119.586C136.211 119.961 136 120.47 136 121V131H126C125.47 131 124.961 131.211 124.586 131.586C124.211 131.961 124 132.47 124 133C124 133.53 124.211 134.039 124.586 134.414C124.961 134.789 125.47 135 126 135Z" fill="#F2F2F7"/>
<path d="M30 135H42C42.5304 135 43.0391 134.789 43.4142 134.414C43.7893 134.039 44 133.53 44 133C44 132.47 43.7893 131.961 43.4142 131.586C43.0391 131.211 42.5304 131 42 131H32V121C32 120.47 31.7893 119.961 31.4142 119.586C31.0391 119.211 30.5304 119 30 119C29.4696 119 28.9609 119.211 28.5858 119.586C28.2107 119.961 28 120.47 28 121V133C28 133.53 28.2107 134.039 28.5858 134.414C28.9609 134.789 29.4696 135 30 135Z" fill="#F2F2F7"/>
<path d="M53.9495 116.434C54.5439 116.789 55.2202 116.984 55.9122 116.999C56.6043 117.014 57.2885 116.849 57.8978 116.521C61.7908 114.692 66.0368 113.738 70.3379 113.724C74.408 113.705 78.4218 114.675 82.0342 116.55C82.6084 116.848 83.2463 117.003 83.8933 117C84.5402 116.997 85.1769 116.838 85.7486 116.535C89.7139 114.7 94.0279 113.741 98.3971 113.724C102.488 113.7 106.524 114.67 110.157 116.55C110.767 116.867 111.448 117.021 112.134 116.998C112.821 116.975 113.49 116.775 114.077 116.418C114.664 116.062 115.15 115.56 115.486 114.961C115.823 114.362 116 113.687 116 113V78.2762C116 77.5436 115.799 76.8251 115.418 76.1991C115.038 75.573 114.493 75.0634 113.843 74.7259C109.072 72.2516 103.771 70.973 98.3971 70.9999C93.4378 71.0279 88.5291 72.0001 83.9335 73.8644C79.6553 71.9586 75.0214 70.9822 70.338 70.9999C64.7113 71.0047 59.1593 72.2889 54.1019 74.7552C53.4664 75.0978 52.9355 75.606 52.5655 76.2259C52.1954 76.8458 52 77.5542 52 78.2762V113C52 113.692 52.1797 114.373 52.5214 114.975C52.8631 115.577 53.3552 116.08 53.9495 116.434ZM56 78.2762C60.4726 76.1213 65.3732 75.0015 70.3379 74.9999C75.0496 74.9802 79.6956 76.1044 83.877 78.2762C88.4156 76.1248 93.3745 75.0059 98.3971 74.9999C103.13 74.9754 107.798 76.0996 112 78.2762V113C107.798 110.823 103.13 109.699 98.3971 109.724C93.3745 109.73 88.4156 110.849 83.877 113C79.6957 110.828 75.0496 109.704 70.3379 109.724C65.3732 109.726 60.4727 110.845 56 113V78.2762Z" fill="#34D399"/>
<path d="M150.721 147H17.2787C16.9942 146.963 16.705 146.987 16.4305 147.07C16.1559 147.154 15.9024 147.295 15.6867 147.484C15.4711 147.673 15.2983 147.907 15.18 148.168C15.0616 148.429 15.0004 148.713 15.0004 149C15.0004 149.287 15.0616 149.57 15.18 149.832C15.2983 150.093 15.4711 150.326 15.6867 150.516C15.9024 150.705 16.1559 150.846 16.4305 150.93C16.705 151.013 16.9942 151.037 17.2787 151H150.721C151.006 151.037 151.295 151.013 151.57 150.93C151.844 150.846 152.098 150.705 152.313 150.516C152.529 150.326 152.702 150.093 152.82 149.832C152.938 149.57 153 149.287 153 149C153 148.713 152.938 148.429 152.82 148.168C152.702 147.907 152.529 147.673 152.313 147.484C152.098 147.295 151.844 147.154 151.57 147.07C151.295 146.987 151.006 146.963 150.721 147Z" fill="#F2F2F7"/>
</svg>
