<svg width="209" height="159" viewBox="0 0 209 159" fill="none" xmlns="http://www.w3.org/2000/svg">
<g clip-path="url(#clip0_2054_2410)">
<path d="M79.4227 7.5C80.1608 7.5 80.8824 7.28007 81.4962 6.86801C82.1099 6.45596 82.5883 5.87029 82.8707 5.18506C83.1532 4.49984 83.2271 3.74584 83.0831 3.01841C82.9391 2.29098 82.5837 1.6228 82.0617 1.09835C81.5398 0.573904 80.8748 0.216751 80.1508 0.0720569C79.4268 -0.0726377 78.6764 0.00162482 77.9945 0.285453C77.3125 0.569282 76.7296 1.04993 76.3195 1.66661C75.9094 2.2833 75.6906 3.00832 75.6906 3.75C75.6917 4.74421 76.0853 5.69738 76.7849 6.4004C77.4846 7.10341 78.4332 7.49886 79.4227 7.5ZM79.4227 1.875C79.7918 1.875 80.1526 1.98497 80.4594 2.191C80.7663 2.39702 81.0055 2.68986 81.1467 3.03247C81.288 3.37508 81.3249 3.75208 81.2529 4.1158C81.1809 4.47951 81.0032 4.8136 80.7422 5.07583C80.4812 5.33805 80.1487 5.51663 79.7867 5.58897C79.4248 5.66132 79.0496 5.62419 78.7086 5.48228C78.3676 5.34036 78.0762 5.10004 77.8711 4.7917C77.6661 4.48335 77.5566 4.12084 77.5566 3.75C77.5571 3.25287 77.7539 2.77624 78.1037 2.42472C78.4536 2.07319 78.9279 1.87549 79.4227 1.875Z" fill="#0F1454"/>
<path d="M196.939 59.5C196.446 59.5 195.965 59.6466 195.556 59.9213C195.147 60.196 194.828 60.5865 194.64 61.0433C194.452 61.5001 194.402 62.0028 194.498 62.4877C194.594 62.9727 194.831 63.4181 195.179 63.7678C195.527 64.1174 195.97 64.3555 196.453 64.452C196.936 64.5484 197.436 64.4989 197.891 64.3097C198.345 64.1205 198.734 63.8 199.007 63.3889C199.281 62.9778 199.427 62.4945 199.427 62C199.426 61.3372 199.164 60.7017 198.697 60.2331C198.231 59.7644 197.598 59.5008 196.939 59.5ZM196.939 63.25C196.692 63.25 196.452 63.1767 196.247 63.0393C196.043 62.902 195.883 62.7068 195.789 62.4784C195.695 62.2499 195.67 61.9986 195.718 61.7561C195.766 61.5137 195.885 61.2909 196.059 61.1161C196.233 60.9413 196.455 60.8223 196.696 60.774C196.937 60.7258 197.187 60.7505 197.415 60.8451C197.642 60.9398 197.836 61.1 197.973 61.3055C198.11 61.5111 198.183 61.7528 198.183 62C198.182 62.3314 198.051 62.6492 197.818 62.8835C197.585 63.1179 197.268 63.2497 196.939 63.25Z" fill="#0F1454"/>
<path d="M122.296 23.25C121.804 23.25 121.323 23.3966 120.913 23.6713C120.504 23.946 120.185 24.3365 119.997 24.7933C119.809 25.2501 119.759 25.7528 119.855 26.2377C119.951 26.7227 120.188 27.1681 120.536 27.5178C120.884 27.8674 121.328 28.1055 121.81 28.202C122.293 28.2984 122.793 28.2489 123.248 28.0597C123.703 27.8705 124.091 27.55 124.364 27.1389C124.638 26.7278 124.784 26.2445 124.784 25.75C124.783 25.0872 124.521 24.4517 124.054 23.9831C123.588 23.5144 122.955 23.2508 122.296 23.25ZM122.296 27C122.05 27 121.809 26.9267 121.605 26.7893C121.4 26.652 121.241 26.4568 121.146 26.2284C121.052 25.9999 121.028 25.7486 121.076 25.5061C121.124 25.2637 121.242 25.0409 121.416 24.8661C121.59 24.6913 121.812 24.5722 122.053 24.524C122.294 24.4758 122.544 24.5005 122.772 24.5952C122.999 24.6898 123.193 24.85 123.33 25.0555C123.467 25.2611 123.54 25.5028 123.54 25.75C123.539 26.0814 123.408 26.3992 123.175 26.6335C122.942 26.8679 122.626 26.9997 122.296 27Z" fill="#0F1454"/>
<path d="M191.387 10C190.895 10 190.414 10.1466 190.005 10.4213C189.595 10.696 189.277 11.0865 189.088 11.5433C188.9 12.0001 188.851 12.5028 188.947 12.9877C189.043 13.4727 189.28 13.9181 189.628 14.2678C189.976 14.6174 190.419 14.8555 190.902 14.952C191.384 15.0484 191.884 14.9989 192.339 14.8097C192.794 14.6205 193.182 14.3 193.456 13.8889C193.729 13.4778 193.875 12.9945 193.875 12.5C193.874 11.8372 193.612 11.2017 193.145 10.7331C192.679 10.2644 192.047 10.0008 191.387 10ZM191.387 13.75C191.141 13.75 190.9 13.6767 190.696 13.5393C190.491 13.402 190.332 13.2068 190.238 12.9784C190.143 12.7499 190.119 12.4986 190.167 12.2561C190.215 12.0137 190.333 11.7909 190.507 11.6161C190.681 11.4413 190.903 11.3222 191.144 11.274C191.386 11.2258 191.636 11.2505 191.863 11.3452C192.09 11.4398 192.285 11.6 192.421 11.8055C192.558 12.0111 192.631 12.2528 192.631 12.5C192.631 12.8314 192.499 13.1492 192.266 13.3835C192.033 13.6179 191.717 13.7497 191.387 13.75Z" fill="#0F1454"/>
<path d="M26.9762 25.5C26.9762 25.0055 26.8303 24.5222 26.5569 24.1111C26.2835 23.7 25.8949 23.3795 25.4402 23.1903C24.9856 23.0011 24.4853 22.9516 24.0027 23.048C23.5201 23.1445 23.0767 23.3826 22.7287 23.7322C22.3808 24.0819 22.1438 24.5273 22.0478 25.0123C21.9518 25.4972 22.0011 25.9999 22.1894 26.4567C22.3777 26.9135 22.6966 27.304 23.1058 27.5787C23.5149 27.8534 23.996 28 24.4881 28C25.1477 27.9992 25.7802 27.7356 26.2466 27.2669C26.7131 26.7983 26.9754 26.1628 26.9762 25.5ZM23.244 25.5C23.244 25.2528 23.317 25.0111 23.4537 24.8055C23.5904 24.6 23.7847 24.4398 24.012 24.3452C24.2393 24.2505 24.4895 24.2258 24.7308 24.274C24.9721 24.3223 25.1938 24.4413 25.3678 24.6161C25.5418 24.7909 25.6602 25.0137 25.7082 25.2561C25.7562 25.4986 25.7316 25.7499 25.6374 25.9784C25.5433 26.2068 25.3838 26.402 25.1793 26.5393C24.9747 26.6767 24.7341 26.75 24.4881 26.75C24.1583 26.7497 23.842 26.6179 23.6088 26.3835C23.3756 26.1492 23.2444 25.8314 23.244 25.5Z" fill="#0F1454"/>
<path d="M13.5452 59.5138L15.3951 57.07L14.227 56.405L13.0389 59.1425H13.0003L11.7936 56.4238L10.6056 57.1088L12.4356 59.495V59.5338L9.573 59.1625V60.4925L12.4542 60.1213V60.16L10.6056 62.545L11.714 63.25L12.9804 60.4925H13.019L14.1872 63.23L15.4138 62.5263L13.5452 60.1788V60.14L16.4837 60.4925V59.1625L13.5452 59.5525V59.5138Z" fill="#34D399"/>
<path d="M59.2396 40.0838L58.1747 41.4575L58.8142 41.8625L59.5432 40.275H59.5643L60.2374 41.8513L60.944 41.4463L59.8679 40.0938V40.0713L61.5598 40.275V39.5088L59.8679 39.7338V39.7113L60.9328 38.3038L60.261 37.9213L59.5768 39.4975H59.5544L58.859 37.9313L58.1747 38.3263L59.2284 39.7V39.7225L57.5801 39.5088V40.275L59.2396 40.0613V40.0838Z" fill="#34D399"/>
<path d="M187.655 57.1413V55.8375L184.773 56.2213V56.1825L186.587 53.785L185.441 53.1325L184.276 55.8175H184.238L183.055 53.1513L181.889 53.8238L183.684 56.1638V56.2025L180.876 55.8375V57.1413L183.703 56.7775V56.8163L181.889 59.1563L182.978 59.8475L184.219 57.1413H184.256L185.402 59.8275L186.605 59.1375L184.773 56.835V56.7963L187.655 57.1413Z" fill="#34D399"/>
<path d="M142.36 12.6312L143.925 10.5625L142.936 10L141.932 12.3162H141.899L140.879 10.0162L139.872 10.5962L141.421 12.615V12.6475L139 12.3337V13.4587L141.437 13.1437V13.1775L139.872 15.1962L140.811 15.7925L141.882 13.4587H141.915L142.904 15.775L143.941 15.18L142.36 13.1937V13.16L144.846 13.4587V12.3337L142.36 12.6637V12.6312Z" fill="#34D399"/>
<path d="M2.4881 140.75C3.86223 140.75 4.97619 139.631 4.97619 138.25C4.97619 136.869 3.86223 135.75 2.4881 135.75C1.11396 135.75 0 136.869 0 138.25C0 139.631 1.11396 140.75 2.4881 140.75Z" fill="#0F1454"/>
<path d="M13.6845 135.75H9.95233C9.29244 135.75 8.65959 136.013 8.19298 136.482C7.72637 136.951 7.46423 137.587 7.46423 138.25C7.46423 138.913 7.72637 139.549 8.19298 140.018C8.65959 140.487 9.29244 140.75 9.95233 140.75H13.6845C14.3444 140.75 14.9772 140.487 15.4438 140.018C15.9104 139.549 16.1726 138.913 16.1726 138.25C16.1726 137.587 15.9104 136.951 15.4438 136.482C14.9772 136.013 14.3444 135.75 13.6845 135.75Z" fill="#0F1454"/>
<path d="M199.048 135.75H195.315C194.656 135.75 194.023 136.013 193.556 136.482C193.09 136.951 192.827 137.587 192.827 138.25C192.827 138.913 193.09 139.549 193.556 140.018C194.023 140.487 194.656 140.75 195.315 140.75H199.048C199.708 140.75 200.34 140.487 200.807 140.018C201.274 139.549 201.536 138.913 201.536 138.25C201.536 137.587 201.274 136.951 200.807 136.482C200.34 136.013 199.708 135.75 199.048 135.75Z" fill="#0F1454"/>
<path d="M206.512 140.75C207.886 140.75 209 139.631 209 138.25C209 136.869 207.886 135.75 206.512 135.75C205.138 135.75 204.024 136.869 204.024 138.25C204.024 139.631 205.138 140.75 206.512 140.75Z" fill="#0F1454"/>
<path d="M146.989 145.75H136.654C136.028 145.8 135.445 146.086 135.019 146.549C134.593 147.012 134.357 147.62 134.357 148.25C134.357 148.88 134.593 149.488 135.019 149.951C135.445 150.414 136.028 150.7 136.654 150.75H146.989C147.614 150.7 148.198 150.414 148.624 149.951C149.049 149.488 149.286 148.88 149.286 148.25C149.286 147.62 149.049 147.012 148.624 146.549C148.198 146.086 147.614 145.8 146.989 145.75Z" fill="#34D399"/>
<path d="M72.3462 145.75H62.0109C61.3855 145.8 60.8018 146.086 60.3762 146.549C59.9506 147.012 59.7142 147.62 59.7142 148.25C59.7142 148.88 59.9506 149.488 60.3762 149.951C60.8018 150.414 61.3855 150.7 62.0109 150.75H72.3462C72.9716 150.7 73.5553 150.414 73.9809 149.951C74.4065 149.488 74.6429 148.88 74.6429 148.25C74.6429 147.62 74.4065 147.012 73.9809 146.549C73.5553 146.086 72.9716 145.8 72.3462 145.75Z" fill="#34D399"/>
<path d="M129.381 145.75H79.6191C78.9592 145.75 78.3263 146.013 77.8597 146.482C77.3931 146.951 77.131 147.587 77.131 148.25C77.131 148.913 77.3931 149.549 77.8597 150.018C78.3263 150.487 78.9592 150.75 79.6191 150.75H99.4492V153.25H89.5715C88.9116 153.25 88.2787 153.513 87.8121 153.982C87.3455 154.451 87.0834 155.087 87.0834 155.75C87.0834 156.413 87.3455 157.049 87.8121 157.518C88.2787 157.987 88.9116 158.25 89.5715 158.25H120.673C121.333 158.25 121.965 157.987 122.432 157.518C122.899 157.049 123.161 156.413 123.161 155.75C123.161 155.087 122.899 154.451 122.432 153.982C121.965 153.513 121.333 153.25 120.673 153.25H109.551V150.75H129.381C130.041 150.75 130.674 150.487 131.14 150.018C131.607 149.549 131.869 148.913 131.869 148.25C131.869 147.587 131.607 146.951 131.14 146.482C130.674 146.013 130.041 145.75 129.381 145.75Z" fill="#34D399"/>
<path d="M129.381 93.25C129.381 88.3055 127.922 83.472 125.188 79.3608C122.454 75.2495 118.568 72.0452 114.022 70.153C109.475 68.2608 104.472 67.7657 99.6459 68.7304C94.8195 69.695 90.3862 72.076 86.9065 75.5723C83.4268 79.0687 81.0571 83.5232 80.0971 88.3728C79.1371 93.2223 79.6298 98.249 81.513 102.817C83.3962 107.385 86.5852 111.29 90.6769 114.037C94.7685 116.784 99.579 118.25 104.5 118.25C111.097 118.243 117.421 115.606 122.085 110.919C126.75 106.233 129.373 99.8781 129.381 93.25ZM104.5 113.25C100.563 113.25 96.7148 112.077 93.4415 109.879C90.1682 107.682 87.6169 104.558 86.1104 100.904C84.6038 97.2492 84.2097 93.2278 84.9777 89.3482C85.7457 85.4686 87.6415 81.9049 90.4252 79.1079C93.2089 76.3108 96.7556 74.406 100.617 73.6343C104.478 72.8626 108.48 73.2587 112.117 74.7724C115.754 76.2862 118.863 78.8496 121.05 82.1386C123.237 85.4276 124.405 89.2944 124.405 93.25C124.399 98.5525 122.3 103.636 118.568 107.385C114.837 111.135 109.777 113.244 104.5 113.25Z" fill="#34D399"/>
<path d="M111.449 82.7324L94.0325 100.232C93.8014 100.464 93.6181 100.74 93.4931 101.043C93.368 101.347 93.3036 101.672 93.3036 102C93.3036 102.328 93.3679 102.653 93.4929 102.956C93.618 103.26 93.8013 103.535 94.0323 103.767C94.5039 104.227 95.1348 104.483 95.7915 104.483C96.4482 104.483 97.0792 104.227 97.5508 103.768L114.968 86.2676C115.432 85.7984 115.692 85.1632 115.691 84.5014C115.691 83.8396 115.429 83.2051 114.963 82.7372C114.497 82.2692 113.866 82.0059 113.207 82.005C112.548 82.0041 111.916 82.2657 111.449 82.7324Z" fill="#34D399"/>
<path d="M110.72 104.5C112.094 104.5 113.208 103.381 113.208 102C113.208 100.619 112.094 99.5 110.72 99.5C109.346 99.5 108.232 100.619 108.232 102C108.232 103.381 109.346 104.5 110.72 104.5Z" fill="#34D399"/>
<path d="M99.5237 85.75C100.898 85.75 102.012 84.6307 102.012 83.25C102.012 81.8693 100.898 80.75 99.5237 80.75C98.1496 80.75 97.0356 81.8693 97.0356 83.25C97.0356 84.6307 98.1496 85.75 99.5237 85.75Z" fill="#34D399"/>
<path d="M187.504 135.75H160.857C160.971 135.566 161.061 135.369 161.124 135.162C162.757 129.149 163.597 122.947 163.624 116.714C169.604 119.465 175.116 123.145 179.957 127.619C180.37 127.997 180.898 128.224 181.455 128.263C182.012 128.303 182.566 128.153 183.028 127.838C183.49 127.523 183.834 127.061 184.003 126.526C184.172 125.991 184.157 125.415 183.96 124.889C177.498 107.101 165.303 91.9934 149.314 81.9698C152.311 84.1893 156.75 87.5316 156.75 93.25C156.75 93.3869 156.735 93.5158 156.73 93.65C164.387 100.363 170.693 108.487 175.307 117.583C171.139 114.735 166.65 112.393 161.933 110.606C161.547 110.461 161.132 110.414 160.724 110.47C160.316 110.526 159.928 110.683 159.595 110.927C159.263 111.17 158.995 111.493 158.817 111.866C158.639 112.239 158.556 112.65 158.575 113.063C158.786 117.546 158.555 122.038 157.883 126.475C155.952 122.735 153.644 119.204 150.996 115.938C150.811 117.197 150.389 118.41 149.752 119.511C149.432 120.065 149.062 120.587 148.645 121.071C151.883 125.453 154.492 130.27 156.395 135.381C156.453 135.51 156.523 135.633 156.602 135.75H111.396C111.526 135.573 111.659 135.396 111.787 135.221C112.702 133.975 114.082 132.092 114.807 131.896C115.621 131.68 117.829 132.645 119.289 133.282C122.168 134.542 125.435 135.967 128.143 134.39C130.89 132.795 131.291 129.209 131.643 126.045C131.819 124.476 132.084 122.104 132.649 121.535C133.215 120.966 135.577 120.7 137.139 120.524C140.287 120.169 143.855 119.766 145.444 117.007C147.013 114.283 145.594 111.004 144.341 108.111C143.706 106.642 142.746 104.423 142.962 103.606C143.157 102.878 145.031 101.491 146.272 100.572C148.851 98.6626 151.774 96.4983 151.774 93.25C151.774 90.0017 148.851 87.838 146.273 85.9282C145.031 85.0096 143.157 83.6217 142.962 82.893C142.746 82.0769 143.706 79.8589 144.341 78.391C145.594 75.4973 147.014 72.2179 145.444 69.4927C143.856 66.7339 140.288 66.3317 137.14 65.9771C135.578 65.8007 133.216 65.5346 132.65 64.9663C132.084 64.3975 131.819 62.0244 131.644 60.4546C131.291 57.2918 130.89 53.7072 128.145 52.1111C125.43 50.5321 122.167 51.9604 119.289 53.2189C117.829 53.8567 115.624 54.8192 114.807 54.6038C114.082 54.4091 112.702 52.5255 111.787 51.2792C109.887 48.6876 107.733 45.75 104.5 45.75C101.267 45.75 99.1131 48.6876 97.2131 51.2792C96.2982 52.5255 94.9181 54.4091 94.1928 54.6038C93.3849 54.8204 91.1738 53.8573 89.7111 53.2183C86.8318 51.9603 83.5662 50.5339 80.857 52.1099C78.1101 53.7059 77.7092 57.2918 77.3569 60.4546C77.1807 62.025 76.9159 64.3975 76.3509 64.9657C75.7848 65.5339 73.4242 65.8001 71.8607 65.9758C68.7129 66.3311 65.1447 66.7327 63.5557 69.4921C61.9873 72.2167 63.4062 75.4961 64.6588 78.3892C65.2942 79.8577 66.254 82.0763 66.0365 82.8929C65.8433 83.6217 63.9687 85.0096 62.7271 85.9282C60.1492 87.838 57.2262 90.0017 57.2262 93.25C57.2262 96.4983 60.1492 98.6626 62.7284 100.572C63.9688 101.491 65.8434 102.878 66.0378 103.606C66.254 104.423 65.2942 106.641 64.6589 108.11C63.4063 111.003 61.9861 114.283 63.5557 117.006C65.1436 119.766 68.7117 120.169 71.8607 120.523C73.4231 120.7 75.7836 120.966 76.3497 121.534C76.9159 122.103 77.1808 124.476 77.3557 126.045C77.7092 129.208 78.1101 132.793 80.8558 134.39C83.5638 135.964 86.8294 134.54 89.7099 133.282C91.169 132.645 93.3691 131.68 94.1928 131.896C94.9181 132.092 96.2982 133.975 97.2131 135.221C97.3409 135.396 97.4736 135.573 97.604 135.75H52.3936C52.4748 135.634 52.5455 135.51 52.6047 135.381C54.5077 130.27 57.1166 125.452 60.3549 121.071C59.9381 120.586 59.5674 120.063 59.2477 119.509C58.6105 118.409 58.1881 117.197 58.0032 115.939C55.3553 119.205 53.0477 122.736 51.1164 126.475C50.4453 122.038 50.2137 117.546 50.4251 113.063C50.4442 112.65 50.3609 112.238 50.1828 111.866C50.0046 111.493 49.7372 111.17 49.4044 110.926C49.0716 110.683 48.6839 110.526 48.276 110.47C47.8681 110.414 47.4527 110.461 47.0672 110.606C42.3501 112.392 37.8605 114.735 33.6924 117.583C38.3069 108.487 44.6129 100.363 52.2696 93.65C52.2645 93.5158 52.25 93.3869 52.25 93.25C52.25 87.5316 56.6893 84.1893 59.6862 81.9698C43.6968 91.9934 31.5016 107.101 25.0401 124.889C24.8434 125.415 24.8284 125.991 24.9974 126.526C25.1664 127.061 25.5096 127.523 25.9717 127.838C26.4339 128.153 26.9881 128.303 27.5453 128.263C28.1024 128.224 28.63 127.997 29.0431 127.619C33.8842 123.145 39.396 119.465 45.3761 116.714C45.4027 122.947 46.2433 129.149 47.8764 135.162C47.939 135.369 48.0285 135.566 48.1425 135.75H21.4955C21.1415 135.704 20.7818 135.733 20.4402 135.838C20.0987 135.942 19.7833 136.119 19.515 136.355C19.2467 136.592 19.0318 136.883 18.8845 137.21C18.7373 137.537 18.6611 137.891 18.6611 138.25C18.6611 138.609 18.7373 138.963 18.8845 139.29C19.0318 139.617 19.2467 139.908 19.515 140.145C19.7833 140.381 20.0987 140.558 20.4402 140.662C20.7818 140.767 21.1415 140.796 21.4955 140.75H187.504C187.858 140.796 188.218 140.767 188.56 140.662C188.901 140.558 189.217 140.381 189.485 140.145C189.753 139.908 189.968 139.617 190.115 139.29C190.263 138.963 190.339 138.609 190.339 138.25C190.339 137.891 190.263 137.537 190.115 137.21C189.968 136.883 189.753 136.592 189.485 136.355C189.217 136.119 188.901 135.942 188.56 135.838C188.218 135.733 187.858 135.704 187.504 135.75ZM101.219 132.255C99.5822 130.023 97.8886 127.714 95.4784 127.066C92.8464 126.358 90.0791 127.668 87.726 128.697C86.5075 129.229 83.9744 130.347 83.3475 130.062C82.7741 129.726 82.4424 126.756 82.3015 125.488C81.9892 122.693 81.6661 119.805 79.8681 117.999C78.07 116.192 75.1956 115.868 72.4147 115.555C71.1537 115.412 68.1978 115.079 67.865 114.506C67.5892 113.875 68.6922 111.327 69.222 110.103C70.347 107.504 71.5108 104.817 70.8439 102.315C70.2 99.8931 67.9026 98.1914 65.6806 96.5471C64.5507 95.7109 62.2023 93.972 62.2023 93.25C62.2023 92.5286 64.5507 90.7891 65.6794 89.9535C67.9014 88.308 70.2 86.6069 70.8439 84.1844C71.5108 81.6826 70.347 78.9946 69.222 76.3957C68.6923 75.1707 67.5892 72.6225 67.8637 71.9963C68.1942 71.4207 71.1524 71.0875 72.4159 70.9447C75.1968 70.6315 78.0712 70.3074 79.8693 68.5008C81.6673 66.6948 81.9893 63.806 82.3015 61.0124C82.4436 59.7429 82.7753 56.7711 83.3439 56.4403C83.9744 56.1534 86.5075 57.2715 87.7272 57.8038C90.3137 58.9348 92.9901 60.103 95.4782 59.434C97.8885 58.7864 99.5821 56.4775 101.219 54.2448C102.051 53.1102 103.781 50.75 104.5 50.75C105.219 50.75 106.949 53.1102 107.781 54.2449C109.418 56.4775 111.111 58.7865 113.522 59.4341C116.022 60.1079 118.689 58.9336 121.274 57.8038C122.494 57.2704 125.032 56.1602 125.652 56.4385C126.226 56.7766 126.558 59.7447 126.698 61.0125C127.011 63.806 127.334 66.6954 129.132 68.5015C130.93 70.3081 133.804 70.6322 136.585 70.9459C137.846 71.0881 140.797 71.4208 141.135 71.9927C141.411 72.6232 140.308 75.172 139.778 76.3964C138.653 78.9952 137.489 81.6826 138.155 84.1844C138.8 86.6069 141.099 88.308 143.321 89.9535C144.449 90.7891 146.798 92.5286 146.798 93.25C146.798 93.972 144.449 95.7109 143.319 96.5471C141.097 98.1914 138.8 99.8931 138.155 102.315C137.489 104.817 138.653 107.505 139.778 110.104C140.308 111.33 141.411 113.879 141.136 114.504C140.802 115.08 137.846 115.413 136.584 115.555C133.803 115.868 130.929 116.193 129.131 118C127.333 119.806 127.011 122.695 126.698 125.489C126.556 126.756 126.225 129.726 125.655 130.06C125.03 130.33 122.494 129.23 121.273 128.697C118.687 127.568 116.016 126.395 113.522 127.067C111.111 127.714 109.418 130.022 107.781 132.255C106.949 133.39 105.219 135.75 104.5 135.75C103.781 135.75 102.051 133.39 101.219 132.255Z" fill="#0F1454"/>
</g>
<defs>
<clipPath id="clip0_2054_2410">
<rect width="209" height="159" fill="white"/>
</clipPath>
</defs>
</svg>
